<svg xmlns="http://www.w3.org/2000/svg" width="21.875" height="21.875" viewBox="0 0 21.875 21.875">
  <path id="settings_backup_restore_FILL0_wght400_GRAD0_opsz48" d="M130.936,229.216a2.284,2.284,0,1,1,1.61-.668A2.191,2.191,0,0,1,130.936,229.216Zm0,8.659A10.918,10.918,0,0,1,120,226.907h1.823a9.138,9.138,0,1,0,9.115-9.084,8.527,8.527,0,0,0-3.919.927,10.449,10.449,0,0,0-3.19,2.507h3.16v1.823h-6.319V216.76h1.823v3.22a11.456,11.456,0,0,1,3.8-2.932,10.875,10.875,0,0,1,8.911-.182,10.988,10.988,0,0,1,5.8,5.8,10.955,10.955,0,0,1,0,8.537,10.988,10.988,0,0,1-5.8,5.8A10.581,10.581,0,0,1,130.938,237.875Z" transform="translate(-120 -216)" fill="#00a7fe"/>
</svg>
