<svg id="Capa_1" data-name="Capa 1" xmlns="http://www.w3.org/2000/svg" viewBox="0 0 100 100"><defs><style>.cls-1{fill:#00a7ff;}</style></defs><title>vectores</title><g id="Grupo_27764" data-name="Grupo 27764"><path id="Trazado_30527" data-name="Trazado 30527" class="cls-1" d="M56.14,64.47V60.52a11.85,11.85,0,1,0,0-23.7H48.25a4,4,0,0,1,0-7.9h7.9a4,4,0,0,1,4,3.95H68A11.86,11.86,0,0,0,56.14,21V17.09H48.25V21a11.86,11.86,0,0,0,0,23.71h7.9a3.95,3.95,0,1,1,0,7.89h-7.9a3.94,3.94,0,0,1-3.94-4H36.4A11.86,11.86,0,0,0,48.25,60.55v4Z"/><path id="Trazado_30528" data-name="Trazado 30528" class="cls-1" d="M83.78,61.45l4-7.89V36.86a35.56,35.56,0,0,0-71.07,0v2.85L5.4,58.52a3.94,3.94,0,0,0,3.38,6h4V76.36A11.86,11.86,0,0,0,24.59,88.21H44.33v7.9h7.89v-7.9A11.86,11.86,0,0,0,64.08,76.36h-7.9a4,4,0,0,1-3.94,3.94H24.6a4,4,0,0,1-4-3.94V56.61H15.78L24,42.85a3.94,3.94,0,0,0,.6-2v-4a27.64,27.64,0,1,1,55.28,0V51.67l-4,7.9V96h7.9Z"/></g></svg>