<svg xmlns="http://www.w3.org/2000/svg" width="14.759" height="14.758" viewBox="0 0 14.759 14.758"><defs><style>.a{fill:#00a7ff;}</style></defs><g transform="translate(-1320.995 -795.02)"><circle class="a" cx="0.671" cy="0.671" r="0.671" transform="translate(1327.703 795.02)"/><path class="a" d="M1331,815.7a.671.671,0,1,0,.671-.668A.67.67,0,0,0,1331,815.7Z" transform="translate(-3.294 -6.588)"/><path class="a" d="M1327.247,796.694a.671.671,0,1,0-.245.917A.671.671,0,0,0,1327.247,796.694Z" transform="translate(-1.647 -0.441)"/><path class="a" d="M1337.251,814.02a.67.67,0,1,0-.243.915A.668.668,0,0,0,1337.251,814.02Z" transform="translate(-4.941 -6.146)"/><path class="a" d="M1323.586,801.027a.671.671,0,1,0-.916.245A.67.67,0,0,0,1323.586,801.027Z" transform="translate(-0.441 -1.647)"/><path class="a" d="M1339.752,810.359a.67.67,0,1,0,.914-.247A.669.669,0,0,0,1339.752,810.359Z" transform="translate(-6.147 -4.94)"/><path class="a" d="M1337.005,796.449a.671.671,0,1,0,.245.916A.671.671,0,0,0,1337.005,796.449Z" transform="translate(-4.941 -0.441)"/><path class="a" d="M1327,813.775a.67.67,0,1,0,.247.914A.668.668,0,0,0,1327,813.775Z" transform="translate(-1.647 -6.146)"/><path class="a" d="M1340.911,800.356a.671.671,0,1,0-.245.916A.67.67,0,0,0,1340.911,800.356Z" transform="translate(-6.147 -1.647)"/><path class="a" d="M1322.423,811.027a.67.67,0,1,0,.247-.915A.671.671,0,0,0,1322.423,811.027Z" transform="translate(-0.441 -4.94)"/><circle class="a" cx="0.671" cy="0.671" r="0.671" transform="translate(1334.412 801.728)"/><path class="a" d="M1321.666,806.363a.671.671,0,1,0-.671-.668A.668.668,0,0,0,1321.666,806.363Z" transform="translate(0 -3.294)"/><path class="a" d="M1331,803.993l2.879,2.879.948-.948-2.486-2.486V799.02H1331Z" transform="translate(-3.293 -1.317)"/></g></svg>