<?xml version="1.0" encoding="utf-8"?>
<!-- Generator: Adobe Illustrator 24.0.3, SVG Export Plug-In . SVG Version: 6.00 Build 0)  -->
<svg version="1.1" id="Capa_1" xmlns="http://www.w3.org/2000/svg" xmlns:xlink="http://www.w3.org/1999/xlink" x="0px" y="0px"
	 viewBox="0 0 100 100" style="enable-background:new 0 0 100 100;" xml:space="preserve">
<style type="text/css">
	.st0{fill:#00A7FF;}
</style>
<title>vectores</title>
<g id="Grupo_27763">
	<circle id="Elipse_583" class="st0" cx="50.1" cy="25" r="6.3"/>
	<path id="Trazado_30526" class="st0" d="M12.5,99.9c6.9-0.1,12.4-5.8,12.3-12.7c-0.1-5.1-3.3-9.7-8.1-11.5v-4.9h29.1v4.9
		c-6.5,2.3-9.9,9.4-7.6,16c2.3,6.5,9.4,9.9,16,7.6c6.5-2.3,9.9-9.4,7.6-16c-1.3-3.6-4.1-6.4-7.6-7.6v-4.9h29.1v4.9
		c-6.5,2.3-9.9,9.4-7.6,15.9c2.3,6.5,9.4,9.9,15.9,7.6c6.5-2.3,9.9-9.4,7.6-15.9c-1.3-3.5-4-6.3-7.6-7.6V62.5H54.2V58
		c15.9-2.3,27-17.1,24.7-33S61.8-2,45.9,0.3s-27,17.1-24.7,33C23.1,46.1,33.1,56.1,45.9,58v4.5H8.4v13.3c-6.5,2.4-9.7,9.7-7.3,16.1
		C2.9,96.6,7.4,99.8,12.5,99.9z M50,91.6c-2.3,0-4.2-1.9-4.2-4.2c0-2.3,1.9-4.2,4.2-4.2c2.3,0,4.2,1.9,4.2,4.2l0,0
		C54.2,89.7,52.4,91.6,50,91.6L50,91.6z M87.5,91.6c-2.3,0-4.2-1.9-4.2-4.2c0-2.3,1.9-4.2,4.2-4.2c2.3,0,4.2,1.9,4.2,4.2l0,0
		C91.7,89.7,89.9,91.6,87.5,91.6L87.5,91.6z M29.2,29.1c0-11.5,9.2-20.9,20.8-20.9s20.9,9.2,20.9,20.8c0,6.6-3.1,12.8-8.3,16.8v-4
		c0-4.6-3.7-8.3-8.3-8.3c0,0,0,0,0,0h-8.3c-4.6,0-8.3,3.7-8.3,8.3l0,0v4.1C32.3,41.8,29.2,35.7,29.2,29.1L29.2,29.1z M12.5,83.3
		c2.3,0,4.2,1.9,4.2,4.2c0,2.3-1.9,4.2-4.2,4.2s-4.2-1.9-4.2-4.2l0,0C8.3,85.2,10.2,83.3,12.5,83.3z"/>
</g>
</svg>
