<svg xmlns="http://www.w3.org/2000/svg" width="17.965" height="16.934" viewBox="0 0 17.965 16.934"><defs><style>.a{fill:#fff;}</style></defs><g transform="translate(-916.154 -423.759)"><g transform="translate(-597.846 -178)"><path class="a" d="M1527.692,620.792A4.8,4.8,0,0,0,1522.9,616h-4.108a4.8,4.8,0,0,0-4.792,4.792v1.369h13.692Zm-12.323,0a3.427,3.427,0,0,1,3.423-3.423h4.108a3.427,3.427,0,0,1,3.423,3.423Z" transform="translate(0 -3.469)"/><path class="a" d="M1525.846,608.423a3.423,3.423,0,1,0-3.423,3.423A3.427,3.427,0,0,0,1525.846,608.423Zm-5.477,0a2.054,2.054,0,1,1,2.054,2.054A2.056,2.056,0,0,1,1520.369,608.423Z" transform="translate(-1.577)"/></g><path class="a" d="M14.859,4.955,13.381,6.441a2.917,2.917,0,0,1,0,3.421l1.477,1.486a4.5,4.5,0,0,0,0-6.393ZM17.769,2,16.336,3.433a7.016,7.016,0,0,1,0,9.444l1.433,1.433A8.644,8.644,0,0,0,17.769,2Z" transform="translate(913.774 421.759)"/></g></svg>