<svg xmlns="http://www.w3.org/2000/svg" xmlns:xlink="http://www.w3.org/1999/xlink" width="78" height="78" viewBox="0 0 78 78"><defs><style>.a{fill:#00abfb;}.b{fill:#fff;}.c{filter:url(#a);}</style><filter id="a" x="0" y="0" width="78" height="78" filterUnits="userSpaceOnUse"><feOffset dy="3" input="SourceAlpha"/><feGaussianBlur stdDeviation="3" result="b"/><feFlood flood-opacity="0.161"/><feComposite operator="in" in2="b"/><feComposite in="SourceGraphic"/></filter></defs><g transform="translate(-1264 -678)"><g class="c" transform="matrix(1, 0, 0, 1, 1264, 678)"><circle class="a" cx="30" cy="30" r="30" transform="translate(9 6)"/></g><path class="b" d="M27.6,2H4.844a2.84,2.84,0,0,0-2.83,2.844L2,30.439l5.688-5.688H27.6a2.852,2.852,0,0,0,2.844-2.844V4.844A2.852,2.852,0,0,0,27.6,2ZM17.642,19.063H14.8V16.22h2.844Zm0-5.688H14.8V7.688h2.844Z" transform="translate(1287 700.476)"/></g></svg>