<svg id="ico-maquina" xmlns="http://www.w3.org/2000/svg" width="18.334" height="15.836" viewBox="0 0 18.334 15.836">
  <path id="Unión_26" data-name="Unión 26" d="M1.668,15.836A1.671,1.671,0,0,1,0,14.169V1.667A1.671,1.671,0,0,1,1.668,0h15a1.671,1.671,0,0,1,1.666,1.667v12.5a1.671,1.671,0,0,1-1.666,1.667Zm0-1.667h15V9.189h-15Zm15-6.721V1.667h-15V7.448Z" transform="translate(0 0)" fill="#00a7ff"/>
  <g id="Grupo_26560" data-name="Grupo 26560" transform="translate(2.96 3.761)">
    <rect id="Rectángulo_4025" data-name="Rectángulo 4025" width="1.667" height="1.614" transform="translate(7.448)" fill="#00a7ff"/>
    <rect id="Rectángulo_4025-2" data-name="Rectángulo 4025" width="5.391" height="1.614" transform="translate(0)" fill="#00a7ff"/>
    <rect id="Rectángulo_4026" data-name="Rectángulo 4026" width="1.667" height="1.614" transform="translate(9.947)" fill="#00a7ff"/>
  </g>
  <g id="Grupo_26561" data-name="Grupo 26561" transform="translate(2.96 11.209)">
    <rect id="Rectángulo_4025-3" data-name="Rectángulo 4025" width="1.667" height="1.614" transform="translate(7.448 0)" fill="#00a7ff"/>
    <rect id="Rectángulo_4025-4" data-name="Rectángulo 4025" width="5.391" height="1.614" transform="translate(0 0)" fill="#00a7ff"/>
    <rect id="Rectángulo_4026-2" data-name="Rectángulo 4026" width="1.667" height="1.614" transform="translate(9.947 0)" fill="#00a7ff"/>
  </g>
</svg>
