<svg xmlns="http://www.w3.org/2000/svg" width="34" height="34" viewBox="0 0 34 34"><defs><style>.a{fill:#ccedff;}.b{fill:#00a7ff;}</style></defs><g transform="translate(-6356 -34)"><circle class="a" cx="17" cy="17" r="17" transform="translate(6356 34)"/><g transform="translate(326.807 -341.288)"><path class="b" d="M1376.417,400.3a3.007,3.007,0,0,0-2.309,1.093l-1.868-1.121a3.183,3.183,0,0,0-.266-2.754l2.154-1.723a2.673,2.673,0,0,0,1.333.366,2.707,2.707,0,1,0-2.707-2.707,2.679,2.679,0,0,0,.28,1.176l-2.166,1.734a3.342,3.342,0,1,0,.51,5.249l2.061,1.237a2.939,2.939,0,0,0-.048.476,3.025,3.025,0,1,0,3.025-3.025Zm-.955-7.961a1.114,1.114,0,1,1-1.115,1.114A1.116,1.116,0,0,1,1375.462,392.342Zm-6.369,8.6a1.751,1.751,0,1,1,1.752-1.751A1.753,1.753,0,0,1,1369.093,400.939Zm7.324,3.821a1.433,1.433,0,1,1,1.432-1.433A1.435,1.435,0,0,1,1376.417,404.76Z" transform="translate(4673.25 -6.101)"/></g></g></svg>