<svg xmlns="http://www.w3.org/2000/svg" width="40" height="40" viewBox="0 0 40 40">
  <g id="Grupo_29175" data-name="Grupo 29175" transform="translate(4078 -1192)">
    <g id="Grupo_29174" data-name="Grupo 29174">
      <circle id="Elipse_859" data-name="Elipse 859" cx="20" cy="20" r="20" transform="translate(-4078 1192)" fill="#fee6cd"/>
      <path id="Trazado_31742" data-name="Trazado 31742" d="M895.174,512.867a4.168,4.168,0,1,0-3.984-3.125l-4.917,2.358a3.53,3.53,0,1,0-.054,4.975l4.153,2.57a3.1,3.1,0,0,0-.142.884,3.184,3.184,0,1,0,1.021-2.306l-4.159-2.575a3.2,3.2,0,0,0,.024-2.1l4.805-2.3A4.1,4.1,0,0,0,895.174,512.867Zm-11.428,3.552a1.859,1.859,0,1,1,1.861-1.858A1.862,1.862,0,0,1,883.746,516.419Zm9.643,2.627a1.482,1.482,0,1,1-1.485,1.482A1.485,1.485,0,0,1,893.388,519.046Zm1.786-12.726a2.438,2.438,0,1,1-2.442,2.438A2.442,2.442,0,0,1,895.174,506.32Z" transform="translate(-4947.619 697.947)" fill="#f88008"/>
    </g>
  </g>
</svg>
