<svg xmlns="http://www.w3.org/2000/svg" width="10.498" height="11.963" viewBox="0 0 10.498 11.963"><defs><style>.a{fill:#33b8ff;}</style></defs><g transform="translate(-6039 -384.649)"><path class="a" d="M1373.929,398.075a2.306,2.306,0,0,0-1.77.838l-1.433-.859a2.441,2.441,0,0,0-.2-2.112l1.652-1.321a2.05,2.05,0,0,0,1.022.28,2.075,2.075,0,1,0-2.076-2.075,2.055,2.055,0,0,0,.215.9l-1.661,1.329a2.563,2.563,0,1,0,.391,4.025l1.581.948a2.247,2.247,0,0,0-.037.365,2.319,2.319,0,1,0,2.32-2.319Zm-.732-6.1a.855.855,0,1,1-.855.854A.855.855,0,0,1,1373.2,391.971Zm-4.883,6.592a1.343,1.343,0,1,1,1.343-1.343A1.344,1.344,0,0,1,1368.313,398.563Zm5.616,2.93a1.1,1.1,0,1,1,1.1-1.1A1.1,1.1,0,0,1,1373.929,401.493Z" transform="translate(4673.25 -6.101)"/></g></svg>