<svg xmlns="http://www.w3.org/2000/svg" width="15" height="14.999" viewBox="0 0 15 14.999"><defs><style>.a{fill:#a5adba;}.b{fill:none;stroke:#a5adba;stroke-linecap:round;}</style></defs><g transform="translate(0.622 1.167)"><path class="a" d="M.6,10A.6.6,0,0,1,0,9.4V4.947a.6.6,0,0,1,.6-.6H4.348V.6a.6.6,0,0,1,.6-.6H9.4a.6.6,0,0,1,.6.6V5.052a.6.6,0,0,1-.6.6H5.652V9.4a.6.6,0,0,1-.6.6Z" transform="translate(1.878 1.333)"/><path class="b" d="M2,14a2,2,0,0,1-2-2V6.54a2,2,0,0,1,2-2H4.394V2a2,2,0,0,1,2-2H12a2,2,0,0,1,2,2V7.893a2,2,0,0,1-2,2H9.606V12a2,2,0,0,1-2,2Z" transform="translate(-0.122 -0.667)"/></g></svg>