<svg xmlns="http://www.w3.org/2000/svg" width="51" height="51" viewBox="0 0 51 51">
  <g id="Grupo_27895" data-name="Grupo 27895" transform="translate(-926 -534)">
    <circle id="Elipse_554" data-name="Elipse 554" cx="25.5" cy="25.5" r="25.5" transform="translate(926 534)" fill="#fef1cd"/>
    <g id="Grupo_27786" data-name="Grupo 27786" transform="translate(-525 -630.131)">
      <path id="Trazado_30787" data-name="Trazado 30787" d="M1467,1187.131h14v2h2v-9h-4v-2h-2v2h-6v-2h-2v2h-4v18h11v-2h-9Zm2-5v2h2v-2h6v2h2v-2h2v3h-14v-3Z" fill="#f8b708"/>
      <path id="Trazado_30788" data-name="Trazado 30788" d="M1486,1195.52a4.448,4.448,0,0,0-5.921-4.249l2.335,2.334a2,2,0,1,1-2.828,2.829l-2.335-2.334a4.455,4.455,0,0,0-.251,1.42,4.45,4.45,0,0,0,5.921,4.25l2.251,2.25H1488v-2.829l-2.251-2.25A4.461,4.461,0,0,0,1486,1195.52Z" fill="#f8b708"/>
      <rect id="Rectángulo_5871" data-name="Rectángulo 5871" width="2" height="2" transform="translate(1469 1189.02)" fill="#f8b708"/>
      <rect id="Rectángulo_5872" data-name="Rectángulo 5872" width="2" height="2" transform="translate(1472 1189.02)" fill="#f8b708"/>
      <rect id="Rectángulo_5873" data-name="Rectángulo 5873" width="2" height="2" transform="translate(1469 1192.02)" fill="#f8b708"/>
      <rect id="Rectángulo_5874" data-name="Rectángulo 5874" width="2" height="2" transform="translate(1472 1192.02)" fill="#f8b708"/>
      <rect id="Rectángulo_5875" data-name="Rectángulo 5875" width="2" height="2" transform="translate(1475 1189.02)" fill="#f8b708"/>
    </g>
  </g>
</svg>
