<svg id="Grupo_5947" data-name="Grupo 5947" xmlns="http://www.w3.org/2000/svg" width="23.169" height="23.242" viewBox="0 0 23.169 23.242">
  <path id="Trazado_8747" data-name="Trazado 8747" d="M121.657,1051.213l5.172,5.172a2.978,2.978,0,0,0,2.12.876h0a2.982,2.982,0,0,0,2.121-.876l4.243-4.243a3.008,3.008,0,0,0,0-4.244l-.332-.331,8.968-9.138v-4.41h-4.411l-9.09,9.014-.306-.306a3.081,3.081,0,0,0-4.243,0l-4.243,4.244A3.006,3.006,0,0,0,121.657,1051.213Zm18.705-15.194h1.588v1.592l-.492.5-.8-.8-1.414,1.414.814.814-1.571,1.6-.829-.829-1.414,1.414.842.841-1.571,1.6-.857-.857-1.414,1.414.87.871-.545.554-1.7-1.7Zm-17.291,12.366,4.244-4.244a1.007,1.007,0,0,1,1.414,0l5.169,5.172a1,1,0,0,1,0,1.415l-4.242,4.242a1.029,1.029,0,0,1-1.414,0l-5.171-5.172A1,1,0,0,1,123.071,1048.385Z" transform="translate(-120.781 -1034.019)" fill="#00a7ff"/>
  <path id="Trazado_8748" data-name="Trazado 8748" d="M127.657,1051.727a1,1,0,1,0-1.414,0A1,1,0,0,0,127.657,1051.727Z" transform="translate(-120.781 -1034.019)" fill="#00a7ff"/>
</svg>
