<svg xmlns="http://www.w3.org/2000/svg" width="9" height="10.195" viewBox="0 0 9 10.195"><defs><style>.a{fill:#33b8ff;}</style></defs><g transform="translate(-192 -331.763)"><g transform="translate(201 331.763) rotate(90)"><path class="a" d="M9.832,3.953H.362A.362.362,0,0,1,0,3.591V.362A.362.362,0,0,1,.362,0h9.47a.363.363,0,0,1,.363.362V3.591A.363.363,0,0,1,9.832,3.953ZM.725,3.228H9.47V.725H.725Z" transform="translate(0)"/></g><g transform="translate(199.478 333.2) rotate(90)"><g transform="translate(4.973)"><rect class="a" width="0.94" height="0.91"/></g><rect class="a" width="3.038" height="0.91"/><g transform="translate(6.382)"><rect class="a" width="0.94" height="0.91"/></g></g><g transform="translate(195.953 331.763) rotate(90)"><path class="a" d="M9.832,3.954H.362A.363.363,0,0,1,0,3.591V.362A.363.363,0,0,1,.362,0h9.47a.363.363,0,0,1,.363.362V3.591A.363.363,0,0,1,9.832,3.954ZM.725,3.228H9.47V.725H.725Z" transform="translate(0 0)"/></g><g transform="translate(194.431 333.2) rotate(90)"><g transform="translate(4.973)"><rect class="a" width="0.94" height="0.91"/></g><rect class="a" width="3.038" height="0.91"/><g transform="translate(6.382)"><rect class="a" width="0.94" height="0.91"/></g></g></g></svg>