<svg xmlns="http://www.w3.org/2000/svg" width="10" height="10" viewBox="0 0 10 10"><defs><style>.a{fill:#33b8ff;}.b{fill:none;stroke:#33b8ff;stroke-linecap:round;}</style></defs><g transform="translate(-0.378 -1.207)"><path class="a" d="M.946,6.454a.4.4,0,0,1-.4-.4V3.515a.4.4,0,0,1,.4-.4H3.115V.946a.4.4,0,0,1,.4-.4h2.54a.4.4,0,0,1,.4.4V3.485a.4.4,0,0,1-.4.4H3.885V6.054a.4.4,0,0,1-.4.4Z" transform="translate(1.878 2.707)"/><path class="b" d="M.4,9A.4.4,0,0,1,0,8.6V3.319a.4.4,0,0,1,.4-.4H2.825V.4a.4.4,0,0,1,.4-.4H8.6A.4.4,0,0,1,9,.4V5.96a.4.4,0,0,1-.4.4H6.175V8.6a.4.4,0,0,1-.4.4Z" transform="translate(0.878 1.707)"/></g></svg>