<svg xmlns="http://www.w3.org/2000/svg" width="12.604" height="14.278" viewBox="0 0 12.604 14.278"><defs><style>.a{fill:#33b8ff;}</style></defs><g transform="translate(-192 -331.763)"><g transform="translate(204.604 331.763) rotate(90)"><path class="a" d="M13.77,5.536H.508A.508.508,0,0,1,0,5.029V.508A.508.508,0,0,1,.508,0H13.77a.508.508,0,0,1,.508.508V5.029A.508.508,0,0,1,13.77,5.536ZM1.016,4.521H13.262V1.015H1.016Z" transform="translate(0)"/></g><g transform="translate(202.473 333.775) rotate(90)"><g transform="translate(6.965)"><rect class="a" width="1.316" height="1.274"/></g><rect class="a" width="4.254" height="1.274"/><g transform="translate(8.938)"><rect class="a" width="1.316" height="1.274"/></g></g><g transform="translate(197.537 331.763) rotate(90)"><path class="a" d="M13.77,5.537H.508A.508.508,0,0,1,0,5.03V.508A.508.508,0,0,1,.508,0H13.77a.508.508,0,0,1,.508.508V5.03A.508.508,0,0,1,13.77,5.537ZM1.016,4.521H13.262V1.015H1.016Z" transform="translate(0 0)"/></g><g transform="translate(195.405 333.775) rotate(90)"><g transform="translate(6.965)"><rect class="a" width="1.316" height="1.274"/></g><rect class="a" width="4.254" height="1.274"/><g transform="translate(8.938)"><rect class="a" width="1.316" height="1.274"/></g></g></g></svg>