<svg xmlns="http://www.w3.org/2000/svg" width="14.77" height="12.758" viewBox="0 0 14.77 12.758">
  <g id="ico-maquina" transform="translate(0 0.002)">
    <path id="Unión_26" data-name="Unión 26" d="M23359.344,2109.756a1.347,1.347,0,0,1-1.344-1.343v-10.072a1.346,1.346,0,0,1,1.344-1.343h12.084a1.346,1.346,0,0,1,1.342,1.343v10.072a1.346,1.346,0,0,1-1.342,1.343Zm0-1.343h12.084V2104.4h-12.084Zm12.084-5.414v-4.657h-12.084V2103Z" transform="translate(-23358 -2097)" fill="#fff"/>
    <g id="Grupo_26560" data-name="Grupo 26560" transform="translate(-1)">
      <rect id="Rectángulo_4025" data-name="Rectángulo 4025" width="1.343" height="1.3" transform="translate(9.385 3.028)" fill="#fff"/>
      <rect id="Rectángulo_4025-2" data-name="Rectángulo 4025" width="4.343" height="1.3" transform="translate(3.385 3.028)" fill="#fff"/>
      <rect id="Rectángulo_4026" data-name="Rectángulo 4026" width="1.343" height="1.3" transform="translate(11.399 3.028)" fill="#fff"/>
    </g>
    <g id="Grupo_26561" data-name="Grupo 26561" transform="translate(-1 6)">
      <rect id="Rectángulo_4025-3" data-name="Rectángulo 4025" width="1.343" height="1.3" transform="translate(9.385 3.028)" fill="#fff"/>
      <rect id="Rectángulo_4025-4" data-name="Rectángulo 4025" width="4.343" height="1.3" transform="translate(3.385 3.028)" fill="#fff"/>
      <rect id="Rectángulo_4026-2" data-name="Rectángulo 4026" width="1.343" height="1.3" transform="translate(11.399 3.028)" fill="#fff"/>
    </g>
  </g>
</svg>
