<svg id="Grupo_26893" data-name="Grupo 26893" xmlns="http://www.w3.org/2000/svg" width="29.915" height="29.912" viewBox="0 0 29.915 29.912">
  <path id="Trazado_29954" data-name="Trazado 29954" d="M1284.987,322.184a4.985,4.985,0,1,0,4.985,4.985A4.989,4.989,0,0,0,1284.987,322.184Zm0,7.477a2.492,2.492,0,1,1,2.492-2.492A2.5,2.5,0,0,1,1284.987,329.661Z" transform="translate(-1270.03 -312.214)" fill="#0051c7"/>
  <path id="Trazado_29955" data-name="Trazado 29955" d="M1298.26,323.889l1.723-2.876-4.9-4.9-2.875,1.724c-.318-.146-.643-.282-.972-.4l-.813-3.251h-6.932l-.812,3.251c-.33.121-.656.255-.973.4l-2.875-1.725-4.9,4.9,1.724,2.873q-.22.475-.4.972l-3.253.813V332.6l3.254.814c.12.329.254.654.4.972l-1.725,2.876,4.9,4.9,2.876-1.726q.479.222.972.4l.813,3.254h6.93l.815-3.254c.33-.12.654-.254.972-.4l2.875,1.726,4.9-4.9-1.725-2.876c.148-.316.282-.642.4-.972l3.254-.814v-6.929l-3.253-.814C1298.542,324.53,1298.408,324.205,1298.26,323.889Zm1.163,6.77-2.719.68-.2.679a9.853,9.853,0,0,1-.759,1.838l-.337.623,1.441,2.4-2.148,2.15-2.4-1.441-.624.336a9.974,9.974,0,0,1-1.838.76l-.678.2-.679,2.716h-3.039l-.679-2.719-.68-.2a9.832,9.832,0,0,1-1.836-.759l-.624-.335-2.4,1.441-2.15-2.15,1.441-2.4-.335-.624a9.924,9.924,0,0,1-.758-1.838l-.2-.679-2.719-.68V327.62l2.714-.679.2-.676a9.936,9.936,0,0,1,.762-1.841l.337-.624-1.441-2.4,2.15-2.15,2.4,1.438.623-.334a9.993,9.993,0,0,1,1.841-.76l.679-.2.679-2.716h3.038l.679,2.716.678.2a10.025,10.025,0,0,1,1.842.76l.623.334,2.4-1.439,2.148,2.15-1.439,2.4.336.624a9.811,9.811,0,0,1,.759,1.838l.2.678,2.717.68Z" transform="translate(-1272 -314.184)" fill="#0051c7"/>
</svg>
