<svg id="Grupo_5946" data-name="Grupo 5946" xmlns="http://www.w3.org/2000/svg" width="17.73" height="17.731" viewBox="0 0 17.73 17.731">
  <path id="Trazado_8097" data-name="Trazado 8097" d="M1531.73,622.206a6.213,6.213,0,0,0-6.205-6.206h-5.319a6.213,6.213,0,0,0-6.206,6.206v1.773h17.73Zm-15.957,0a4.438,4.438,0,0,1,4.433-4.433h5.319a4.438,4.438,0,0,1,4.432,4.433Z" transform="translate(-1514 -606.248)" fill="#00a7ff"/>
  <path id="Trazado_8098" data-name="Trazado 8098" d="M1527.865,609.433a4.432,4.432,0,1,0-4.433,4.433A4.438,4.438,0,0,0,1527.865,609.433Zm-7.092,0a2.66,2.66,0,1,1,2.66,2.66A2.663,2.663,0,0,1,1520.773,609.433Z" transform="translate(-1514.568 -605)" fill="#00a7ff"/>
</svg>
