<svg xmlns="http://www.w3.org/2000/svg" width="19.51" height="12" viewBox="0 0 19.51 12">
  <g id="Grupo_6038" data-name="Grupo 6038" transform="translate(-1416.652 -319.096)">
    <path id="Trazado_8749" data-name="Trazado 8749" d="M1426.407,331.1c3.386,0,6.62-1.893,9.356-5.476l.4-.524-.4-.523c-2.734-3.583-5.969-5.477-9.356-5.477s-6.623,1.894-9.356,5.477l-.4.523.4.524C1419.786,329.2,1423.021,331.1,1426.407,331.1Zm0-10.274c2.666,0,5.272,1.474,7.57,4.274-2.3,2.8-4.9,4.274-7.57,4.274s-5.272-1.475-7.569-4.274C1421.134,322.3,1423.74,320.822,1426.407,320.822Z" transform="translate(0)" fill="#b3bac5"/>
    <path id="Trazado_8750" data-name="Trazado 8750" d="M1427.362,329a3.452,3.452,0,1,0-3.452-3.452A3.456,3.456,0,0,0,1427.362,329Zm0-5.178a1.726,1.726,0,1,1-1.726,1.726A1.728,1.728,0,0,1,1427.362,323.822Z" transform="translate(-0.994 -0.411)" fill="#b3bac5"/>
  </g>
</svg>
