<svg xmlns="http://www.w3.org/2000/svg" width="34" height="34" viewBox="0 0 34 34"><defs><style>.a{fill:#ccedff;}.b{fill:#00a7ff;}</style></defs><g transform="translate(-6356 -34)"><circle class="a" cx="17" cy="17" r="17" transform="translate(6356 34)"/><g transform="translate(6174 -288.208)"><g transform="translate(205.597 331.763) rotate(90)"><path class="b" d="M14.855,5.972H.548A.548.548,0,0,1,0,5.425V.548A.548.548,0,0,1,.548,0H14.855A.548.548,0,0,1,15.4.548V5.425A.548.548,0,0,1,14.855,5.972ZM1.1,4.877H14.307V1.1H1.1Z" transform="translate(0)"/></g><g transform="translate(203.298 333.934) rotate(90)"><g transform="translate(7.514)"><rect class="b" width="1.42" height="1.374"/></g><rect class="b" width="4.59" height="1.374"/><g transform="translate(9.642)"><rect class="b" width="1.42" height="1.374"/></g></g><g transform="translate(197.973 331.763) rotate(90)"><path class="b" d="M14.855,5.973H.548A.548.548,0,0,1,0,5.426V.548A.548.548,0,0,1,.548,0H14.855A.548.548,0,0,1,15.4.548V5.426A.548.548,0,0,1,14.855,5.973ZM1.1,4.877H14.307V1.1H1.1Z" transform="translate(0 0)"/></g><g transform="translate(195.674 333.934) rotate(90)"><g transform="translate(7.514)"><rect class="b" width="1.42" height="1.374"/></g><rect class="b" width="4.59" height="1.374"/><g transform="translate(9.642)"><rect class="b" width="1.42" height="1.374"/></g></g></g></g></svg>