<svg xmlns="http://www.w3.org/2000/svg" width="50" height="50" viewBox="0 0 50 50">
  <g id="Grupo_27485" data-name="Grupo 27485" transform="translate(-2362 -1746)">
    <g id="Grupo_27481" data-name="Grupo 27481">
      <rect id="Rectángulo_5379" data-name="Rectángulo 5379" width="50" height="50" rx="4" transform="translate(2362 1746)" fill="#62D0FF"/>
      <g id="Grupo_27452" data-name="Grupo 27452" transform="translate(2376.122 1760.122)">
        <path id="Unión_36" data-name="Unión 36" d="M.6,16a.6.6,0,0,1-.6-.6V7.556a.6.6,0,0,1,.6-.6H6.956V.6a.6.6,0,0,1,.6-.6H15.4a.6.6,0,0,1,.6.6V8.443a.6.6,0,0,1-.6.6H9.043V15.4a.6.6,0,0,1-.6.6Z" transform="translate(2.878 2.878)" fill="#fff"/>
        <path id="Unión_37" data-name="Unión 37" d="M2,22a2,2,0,0,1-2-2V9.135a2,2,0,0,1,2-2H6.9V2a2,2,0,0,1,2-2H20a2,2,0,0,1,2,2V13.546a2,2,0,0,1-2,2H15.1V20a2,2,0,0,1-2,2Z" transform="translate(-0.122 -0.122)" fill="none" stroke="#fff" stroke-linecap="round" stroke-width="1.2"/>
      </g>
    </g>
  </g>
</svg>

