<svg xmlns="http://www.w3.org/2000/svg" width="14" height="14.554" viewBox="0 0 14 14.554">
  <path id="inventory_2_FILL0_wght300_GRAD0_opsz24" d="M102.07-845.445a1.259,1.259,0,0,1-.942-.406,1.361,1.361,0,0,1-.39-.979v-8.578a1.423,1.423,0,0,1-.531-.494,1.335,1.335,0,0,1-.206-.739v-1.974a1.361,1.361,0,0,1,.39-.979,1.259,1.259,0,0,1,.942-.406h11.336a1.259,1.259,0,0,1,.942.406,1.361,1.361,0,0,1,.39.979v1.974a1.335,1.335,0,0,1-.206.739,1.423,1.423,0,0,1-.531.494v8.578a1.361,1.361,0,0,1-.39.979,1.259,1.259,0,0,1-.942.406Zm-.227-9.811v8.389a.258.258,0,0,0,.081.2.282.282,0,0,0,.2.077h9.806a.216.216,0,0,0,.163-.066.234.234,0,0,0,.064-.169v-8.426Zm-.51-1.149h11.336a.216.216,0,0,0,.163-.066.234.234,0,0,0,.064-.169v-1.974a.234.234,0,0,0-.064-.169.216.216,0,0,0-.163-.066H101.333a.216.216,0,0,0-.163.066.234.234,0,0,0-.064.169v1.974a.234.234,0,0,0,.064.169A.216.216,0,0,0,101.333-856.4Zm3.6,4.78h4.138v-1.1h-4.138ZM107-850.925Z" transform="translate(-100.001 859.999)" fill="#fff"/>
</svg>
