<svg xmlns="http://www.w3.org/2000/svg" width="50" height="50" viewBox="0 0 50 50">
  <g id="Grupo_27486" data-name="Grupo 27486" transform="translate(-2485 -1746)">
    <g id="Grupo_27483" data-name="Grupo 27483">
      <rect id="Rectángulo_5352" data-name="Rectángulo 5352" width="50" height="50" rx="4" transform="translate(2485 1746)" fill="#31B3FF"/>
      <g id="Grupo_27392" data-name="Grupo 27392" transform="translate(2500 1759)">
        <g id="Grupo_27385" data-name="Grupo 27385" transform="translate(20.643) rotate(90)">
          <path id="Trazado_30175" data-name="Trazado 30175" d="M22.552,9.068H.831A.831.831,0,0,1,0,8.236V.831A.831.831,0,0,1,.831,0H22.552a.832.832,0,0,1,.832.831V8.236A.832.832,0,0,1,22.552,9.068ZM1.664,7.405H21.721V1.662H1.664Z" fill="#fff"/>
        </g>
        <g id="Grupo_26561" data-name="Grupo 26561" transform="translate(17.153 3.295) rotate(90)">
          <g id="Rectángulo_4025-3" data-name="Rectángulo 4025-3" transform="translate(11.408)">
            <rect id="Rectángulo_5155" data-name="Rectángulo 5155" width="2.155" height="2.086" fill="#fff"/>
          </g>
          <g id="Rectángulo_4025-4" data-name="Rectángulo 4025-4">
            <rect id="Rectángulo_5156" data-name="Rectángulo 5156" width="6.968" height="2.086" fill="#fff"/>
          </g>
          <g id="Rectángulo_4026-2" data-name="Rectángulo 4026-2" transform="translate(14.639)">
            <rect id="Rectángulo_5157" data-name="Rectángulo 5157" width="2.155" height="2.086" fill="#fff"/>
          </g>
        </g>
        <g id="Grupo_27384" data-name="Grupo 27384" transform="translate(9.069) rotate(90)">
          <path id="Trazado_30176" data-name="Trazado 30176" d="M22.552,9.069H.831A.832.832,0,0,1,0,8.237V.831A.832.832,0,0,1,.831,0H22.552a.832.832,0,0,1,.832.831V8.237A.832.832,0,0,1,22.552,9.069ZM1.664,7.405H21.721V1.662H1.664Z" transform="translate(0 0)" fill="#fff"/>
        </g>
        <g id="Grupo_26561-2" data-name="Grupo 26561" transform="translate(5.578 3.295) rotate(90)">
          <g id="Rectángulo_4025-3-2" data-name="Rectángulo 4025-3" transform="translate(11.408)">
            <rect id="Rectángulo_5158" data-name="Rectángulo 5158" width="2.155" height="2.086" fill="#fff"/>
          </g>
          <g id="Rectángulo_4025-4-2" data-name="Rectángulo 4025-4">
            <rect id="Rectángulo_5159" data-name="Rectángulo 5159" width="6.968" height="2.086" fill="#fff"/>
          </g>
          <g id="Rectángulo_4026-2-2" data-name="Rectángulo 4026-2" transform="translate(14.639)">
            <rect id="Rectángulo_5160" data-name="Rectángulo 5160" width="2.155" height="2.086" fill="#fff"/>
          </g>
        </g>
      </g>
    </g>
  </g>
</svg>
