<svg xmlns="http://www.w3.org/2000/svg" width="11.696" height="9.703" viewBox="0 0 11.696 9.703">
  <g id="Grupo_27516" data-name="Grupo 27516" transform="translate(-2604 -1745.683)">
    <g id="Grupo_27514" data-name="Grupo 27514" transform="translate(2604 1745.683)">
      <path id="Unión_38" data-name="Unión 38" d="M1.063,9.7A1.046,1.046,0,0,1,0,8.682V1.022A1.046,1.046,0,0,1,1.063,0h9.572A1.044,1.044,0,0,1,11.7,1.022v7.66A1.044,1.044,0,0,1,10.635,9.7Zm0-1.022h9.572V5.63H1.063Zm9.572-4.118V1.022H1.063V4.564Z" transform="translate(0 0)" fill="#00A7FF"/>
      <g id="Grupo_27510" data-name="Grupo 27510" transform="translate(2.436 2.304)">
        <rect id="Rectángulo_4025" data-name="Rectángulo 4025" width="1.064" height="0.989" transform="translate(4.752 0)" fill="#00A7FF"/>
        <rect id="Rectángulo_4025-2" data-name="Rectángulo 4025" width="3.439" height="0.989" transform="translate(0 0)" fill="#00A7FF"/>
        <rect id="Rectángulo_4026" data-name="Rectángulo 4026" width="1.064" height="0.989" transform="translate(6.347 0)" fill="#00A7FF"/>
      </g>
      <g id="Grupo_27509" data-name="Grupo 27509" transform="translate(2.436 6.868)">
        <rect id="Rectángulo_4025-3" data-name="Rectángulo 4025" width="1.064" height="0.989" transform="translate(4.752 0)" fill="#00A7FF"/>
        <rect id="Rectángulo_4025-4" data-name="Rectángulo 4025" width="3.439" height="0.989" transform="translate(0 0)" fill="#00A7FF"/>
        <rect id="Rectángulo_4026-2" data-name="Rectángulo 4026" width="1.064" height="0.989" transform="translate(6.347 0)" fill="#00A7FF"/>
      </g>
    </g>
  </g>
</svg>
