<svg xmlns="http://www.w3.org/2000/svg" width="14" height="12.544" viewBox="0 0 14 12.544">
  <path id="workspaces_FILL0_wght300_GRAD0_opsz24" d="M98.018-812.07a2.535,2.535,0,0,1-1.859-.773,2.535,2.535,0,0,1-.773-1.859,2.535,2.535,0,0,1,.773-1.859,2.535,2.535,0,0,1,1.859-.773,2.535,2.535,0,0,1,1.859.773,2.535,2.535,0,0,1,.773,1.859,2.535,2.535,0,0,1-.773,1.859A2.535,2.535,0,0,1,98.018-812.07Zm8.736,0a2.535,2.535,0,0,1-1.859-.773,2.535,2.535,0,0,1-.773-1.859,2.535,2.535,0,0,1,.773-1.859,2.535,2.535,0,0,1,1.859-.773,2.535,2.535,0,0,1,1.859.773,2.535,2.535,0,0,1,.773,1.859,2.535,2.535,0,0,1-.773,1.859A2.535,2.535,0,0,1,106.754-812.07Zm-8.736-1.092a1.482,1.482,0,0,0,1.088-.452,1.484,1.484,0,0,0,.452-1.088,1.482,1.482,0,0,0-.452-1.087,1.483,1.483,0,0,0-1.088-.452,1.482,1.482,0,0,0-1.088.452,1.484,1.484,0,0,0-.452,1.088,1.482,1.482,0,0,0,.452,1.088A1.484,1.484,0,0,0,98.018-813.162Zm8.736,0a1.482,1.482,0,0,0,1.088-.452,1.484,1.484,0,0,0,.452-1.088,1.482,1.482,0,0,0-.452-1.087,1.483,1.483,0,0,0-1.088-.452,1.483,1.483,0,0,0-1.088.452,1.484,1.484,0,0,0-.452,1.088,1.482,1.482,0,0,0,.452,1.088A1.484,1.484,0,0,0,106.754-813.162Zm-4.368-6.188a2.535,2.535,0,0,1-1.859-.773,2.535,2.535,0,0,1-.773-1.859,2.535,2.535,0,0,1,.773-1.859,2.534,2.534,0,0,1,1.859-.773,2.534,2.534,0,0,1,1.859.773,2.535,2.535,0,0,1,.773,1.859,2.535,2.535,0,0,1-.773,1.859A2.535,2.535,0,0,1,102.386-819.35Zm0-1.092a1.482,1.482,0,0,0,1.088-.452,1.484,1.484,0,0,0,.452-1.088,1.482,1.482,0,0,0-.452-1.088,1.483,1.483,0,0,0-1.088-.452,1.482,1.482,0,0,0-1.088.452,1.484,1.484,0,0,0-.452,1.088,1.482,1.482,0,0,0,.452,1.087A1.483,1.483,0,0,0,102.386-820.442ZM102.386-821.982ZM106.754-814.7ZM98.018-814.7Z" transform="translate(-95.386 824.614)" fill="#fff"/>
</svg>
