<svg id="Grupo_27621" data-name="Grupo 27621" xmlns="http://www.w3.org/2000/svg" width="15.967" height="13.792" viewBox="0 0 15.967 13.792">
  <g id="ico-maquina" transform="translate(0 0)">
    <path id="Unión_26" data-name="Unión 26" d="M1.452,13.792A1.455,1.455,0,0,1,0,12.34V1.452A1.455,1.455,0,0,1,1.452,0H14.517a1.455,1.455,0,0,1,1.45,1.452V12.34a1.456,1.456,0,0,1-1.45,1.452Zm0-1.452H14.517V8H1.452ZM14.517,6.487V1.452H1.452V6.487Z" fill="#33b8ff"/>
    <g id="Grupo_26560" data-name="Grupo 26560" transform="translate(2.578 3.276)">
      <rect id="Rectángulo_4025" data-name="Rectángulo 4025" width="1.452" height="1.405" transform="translate(6.486)" fill="#33b8ff"/>
      <rect id="Rectángulo_4025-2" data-name="Rectángulo 4025" width="4.695" height="1.405" fill="#33b8ff"/>
      <rect id="Rectángulo_4026" data-name="Rectángulo 4026" width="1.452" height="1.405" transform="translate(8.664)" fill="#33b8ff"/>
    </g>
    <g id="Grupo_26561" data-name="Grupo 26561" transform="translate(2.578 9.762)">
      <rect id="Rectángulo_4025-3" data-name="Rectángulo 4025" width="1.452" height="1.405" transform="translate(6.486)" fill="#33b8ff"/>
      <rect id="Rectángulo_4025-4" data-name="Rectángulo 4025" width="4.695" height="1.405" fill="#33b8ff"/>
      <rect id="Rectángulo_4026-2" data-name="Rectángulo 4026" width="1.452" height="1.405" transform="translate(8.664)" fill="#33b8ff"/>
    </g>
  </g>
</svg>
