<svg xmlns="http://www.w3.org/2000/svg" width="17" height="17" viewBox="0 0 17 17">
  <g id="Grupo_6348" data-name="Grupo 6348" transform="translate(7819.5 5457.5)">
    <g id="Grupo_6341" data-name="Grupo 6341" transform="translate(0 -0.555)">
      <path id="Trazado_9735" data-name="Trazado 9735" d="M.73,0H15.27A.73.73,0,0,1,16,.73V15.27a.73.73,0,0,1-.73.73H.73A.73.73,0,0,1,0,15.27V.73A.73.73,0,0,1,.73,0Z" transform="translate(-7819.145 -5456.445)" fill="#3cb48f"/>
      <g id="Grupo_6337" data-name="Grupo 6337" transform="translate(-12663 -2343.998)">
        <g id="Grupo_6336" data-name="Grupo 6336">
          <path id="_Path_" data-name="&lt;Path&gt;" d="M4843.843-3104.447l8,5.108,8-5.108-8-5.108Z" fill="#f9c539"/>
          <g id="Grupo_6335" data-name="Grupo 6335">
            <path id="_Path_2" data-name="&lt;Path&gt;" d="M4851.844-3107.873a3.425,3.425,0,0,1,3.424,3.426,3.425,3.425,0,0,1-3.424,3.427,3.427,3.427,0,0,1-3.428-3.427A3.427,3.427,0,0,1,4851.844-3107.873Z" fill="#3375cc"/>
            <path id="Trazado_9708" data-name="Trazado 9708" d="M4852.93-3105.748l.033.1h.1l-.083.06.031.1-.083-.059-.083.059.032-.1-.081-.06h.1Z" fill="#3d57b1"/>
            <path id="Trazado_9709" data-name="Trazado 9709" d="M4851.856-3102.979l.033.1h.1l-.081.059.03.1-.083-.06-.081.06.032-.1-.083-.059h.1Z" fill="#3d57b1"/>
            <path id="Trazado_9710" data-name="Trazado 9710" d="M4854.288-3103.32l.032.1h.1l-.083.06.032.1-.084-.061-.083.061.032-.1-.084-.06h.1Z" fill="#3d57b1"/>
            <path id="Trazado_9711" data-name="Trazado 9711" d="M4854.768-3103.238l.021.062h.066l-.054.039.021.063-.055-.039-.054.039.021-.063-.053-.039h.066Z" fill="#3d57b1"/>
            <path id="Trazado_9712" data-name="Trazado 9712" d="M4854.427-3102.993l.028.085h.09l-.073.053.028.086-.073-.053-.073.053.029-.086-.073-.053h.09Z" fill="#3d57b1"/>
            <path id="Trazado_9713" data-name="Trazado 9713" d="M4854.213-3102.71l.028.084h.088l-.072.052.027.084-.072-.052-.07.052.027-.084-.072-.052h.089Z" fill="#3d57b1"/>
            <path id="Trazado_9714" data-name="Trazado 9714" d="M4853.939-3102.505l.021.064h.068l-.055.04.021.065-.056-.041-.055.041.021-.065-.055-.04h.067Z" fill="#3d57b1"/>
            <path id="Trazado_9715" data-name="Trazado 9715" d="M4853.579-3102.574l.021.064h.067l-.055.039.021.065-.054-.04-.054.04.021-.065-.054-.039h.067Z" fill="#3d57b1"/>
            <path id="Trazado_9716" data-name="Trazado 9716" d="M4853.191-3102.457l.022.07h.07l-.056.042.022.069-.058-.042-.059.042.022-.069-.059-.042h.073Z" fill="#3d57b1"/>
            <path id="Trazado_9717" data-name="Trazado 9717" d="M4853.585-3101.891l.021.065h.069l-.056.04.021.066-.056-.041-.055.041.021-.066-.055-.04h.068Z" fill="#3d57b1"/>
            <path id="Trazado_9718" data-name="Trazado 9718" d="M4852.885-3102.189l.029.088h.092l-.075.055.028.088-.075-.055-.074.055.027-.088-.074-.055h.092Z" fill="#3d57b1"/>
            <path id="Trazado_9719" data-name="Trazado 9719" d="M4852.618-3102.547l.022.067h.071l-.057.042.021.067-.057-.041-.058.041.021-.067-.056-.042h.071Z" fill="#3d57b1"/>
            <path id="Trazado_9720" data-name="Trazado 9720" d="M4853.6-3102.266l.028.085h.089l-.072.053.027.085-.072-.052-.074.052.028-.085-.073-.053h.09Z" fill="#3d57b1"/>
            <path id="Trazado_9721" data-name="Trazado 9721" d="M4851.853-3101.716l.01.031h.032l-.025.019.009.031-.026-.019-.026.019.009-.031-.025-.019h.033Z" fill="#3d57b1"/>
            <path id="Trazado_9722" data-name="Trazado 9722" d="M4852.762-3104.7l.023.071h.074l-.059.043.022.07-.06-.043-.059.043.023-.07-.06-.043h.073Z" fill="#3d57b1"/>
            <path id="Trazado_9723" data-name="Trazado 9723" d="M4851.855-3103.95l.023.074h.078l-.062.045.023.075-.062-.047-.063.047.024-.075-.063-.045h.079Z" fill="#3d57b1"/>
            <path id="Trazado_9724" data-name="Trazado 9724" d="M4852.257-3103.638l.026.079h.083l-.066.049.025.08-.068-.05-.067.05.025-.08-.068-.049h.084Z" fill="#3d57b1"/>
            <path id="Trazado_9725" data-name="Trazado 9725" d="M4851.506-3103.628l.021.063h.065l-.054.039.021.063-.053-.039-.053.039.021-.063-.054-.039h.065Z" fill="#3d57b1"/>
            <path id="Trazado_9726" data-name="Trazado 9726" d="M4851.674-3103.345l.013.043h.043l-.036.025.014.042-.035-.026-.036.026.014-.042-.036-.025h.043Z" fill="#3d57b1"/>
            <path id="Trazado_9727" data-name="Trazado 9727" d="M4849.011-3105.15l.032.1h.1l-.083.059.032.1-.083-.06-.082.06.031-.1-.083-.059h.1Z" fill="#3d57b1"/>
            <path id="Trazado_9728" data-name="Trazado 9728" d="M4850.511-3104.373l.025.08h.083l-.068.049.026.08-.067-.049-.069.049.027-.08-.069-.049h.085Z" fill="#3d57b1"/>
            <path id="Trazado_9729" data-name="Trazado 9729" d="M4849.322-3103.7l.032.1h.1l-.083.061.032.1-.083-.06-.083.06.032-.1-.081-.061h.1Z" fill="#3d57b1"/>
            <path id="Trazado_9730" data-name="Trazado 9730" d="M4849.659-3103.84l.016.049h.05l-.042.03.016.049-.041-.03-.04.03.015-.049-.041-.03h.051Z" fill="#3d57b1"/>
            <path id="Trazado_9731" data-name="Trazado 9731" d="M4850.05-3103.33l.026.083h.086l-.07.051.027.083-.069-.052-.071.052.026-.083-.07-.051h.087Z" fill="#3d57b1"/>
            <path id="Trazado_9732" data-name="Trazado 9732" d="M4850.457-3102.693l.031.1h.1l-.081.06.031.1-.082-.059-.082.059.031-.1-.083-.06h.1Z" fill="#3d57b1"/>
            <path id="Trazado_9733" data-name="Trazado 9733" d="M4849.936-3102.984l.028.082h.086l-.071.052.027.082-.071-.051-.07.051.027-.082-.071-.052h.086Z" fill="#3d57b1"/>
            <path id="Trazado_9734" data-name="Trazado 9734" d="M4848.892-3103.342l.021.063h.067l-.055.04.021.064-.055-.039-.055.039.021-.064-.055-.04h.067Z" fill="#3d57b1"/>
          </g>
        </g>
      </g>
    </g>
    <g id="Grupo_6347" data-name="Grupo 6347" transform="translate(25 0)">
      <g id="Grupo_6345" data-name="Grupo 6345" transform="translate(31)">
        <rect id="Rectángulo_4056" data-name="Rectángulo 4056" width="16" height="16" rx="1" transform="translate(-7875 -5457)" fill="none" stroke="#f7f7f7" stroke-width="1"/>
      </g>
    </g>
    <path id="Trazado_9736" data-name="Trazado 9736" d="M4855.252-3104.1a8.28,8.28,0,0,0-5.481-1.811,8.293,8.293,0,0,0-1.075.11,3.207,3.207,0,0,0-.178.529,7.911,7.911,0,0,1,1.271-.151,7.814,7.814,0,0,1,5.362,1.871A3.266,3.266,0,0,0,4855.252-3104.1Z" transform="translate(-12663 -2344.553)" fill="#fff"/>
  </g>
</svg>
