<svg xmlns="http://www.w3.org/2000/svg" width="20.082" height="20.081" viewBox="0 0 20.082 20.081">
  <g id="Grupo_6273" data-name="Grupo 6273" transform="translate(-743.949 -841.122)">
    <g id="Grupo_6272" data-name="Grupo 6272" transform="translate(744 841.172)">
      <g id="Grupo_6271" data-name="Grupo 6271">
        <g id="Grupo_6268" data-name="Grupo 6268">
          <path id="Trazado_9171" data-name="Trazado 9171" d="M748.215,860.008h12.3a2.309,2.309,0,0,0,2.3-2.3v-12.3a2.309,2.309,0,0,0-2.3-2.3h-12.3a2.309,2.309,0,0,0-2.3,2.3v12.3A2.309,2.309,0,0,0,748.215,860.008Zm-.768-14.6a.769.769,0,0,1,.768-.768h12.3a.769.769,0,0,1,.769.768v12.3a.77.77,0,0,1-.769.768h-12.3a.77.77,0,0,1-.768-.768Z" transform="translate(-744.373 -841.549)" fill="#97a0af" stroke="#97a0af" stroke-width="0.1"/>
          <g id="Grupo_6264" data-name="Grupo 6264" transform="translate(0 4.611)">
            <rect id="Rectángulo_4027" data-name="Rectángulo 4027" width="4.611" height="1.537" fill="#00A7FF" stroke="#97a0af" stroke-width="0.1"/>
            <rect id="Rectángulo_4028" data-name="Rectángulo 4028" width="4.611" height="1.537" transform="translate(0 4.611)" fill="#00A7FF" stroke="#97a0af" stroke-width="0.1"/>
            <rect id="Rectángulo_4029" data-name="Rectángulo 4029" width="4.611" height="1.537" transform="translate(0 9.223)" fill="#00A7FF" stroke="#97a0af" stroke-width="0.1"/>
          </g>
          <g id="Grupo_6265" data-name="Grupo 6265" transform="translate(15.37 4.611)">
            <rect id="Rectángulo_4030" data-name="Rectángulo 4030" width="4.611" height="1.537" fill="#00A7FF" stroke="#97a0af" stroke-width="0.1"/>
            <rect id="Rectángulo_4031" data-name="Rectángulo 4031" width="4.611" height="1.537" transform="translate(0 4.611)" fill="#00A7FF" stroke="#97a0af" stroke-width="0.1"/>
            <rect id="Rectángulo_4032" data-name="Rectángulo 4032" width="4.611" height="1.537" transform="translate(0 9.223)" fill="#00A7FF" stroke="#97a0af" stroke-width="0.1"/>
          </g>
          <g id="Grupo_6266" data-name="Grupo 6266" transform="translate(4.61)">
            <rect id="Rectángulo_4033" data-name="Rectángulo 4033" width="1.537" height="2.305" transform="translate(9.223)" fill="#00A7FF" stroke="#97a0af" stroke-width="0.1"/>
            <rect id="Rectángulo_4034" data-name="Rectángulo 4034" width="1.537" height="2.305" transform="translate(4.611)" fill="#00A7FF" stroke="#97a0af" stroke-width="0.1"/>
            <rect id="Rectángulo_4035" data-name="Rectángulo 4035" width="1.537" height="2.305" fill="#00A7FF" stroke="#97a0af" stroke-width="0.1"/>
          </g>
          <g id="Grupo_6267" data-name="Grupo 6267" transform="translate(4.61 17.676)">
            <rect id="Rectángulo_4036" data-name="Rectángulo 4036" width="1.537" height="2.305" transform="translate(9.223)" fill="#00A7FF" stroke="#97a0af" stroke-width="0.1"/>
            <rect id="Rectángulo_4037" data-name="Rectángulo 4037" width="1.537" height="2.305" transform="translate(4.611)" fill="#00A7FF" stroke="#97a0af" stroke-width="0.1"/>
            <rect id="Rectángulo_4038" data-name="Rectángulo 4038" width="1.537" height="2.305" fill="#00A7FF" stroke="#97a0af" stroke-width="0.1"/>
          </g>
        </g>
      </g>
    </g>
  </g>
</svg>
