<svg id="Grupo_26770" data-name="Grupo 26770" xmlns="http://www.w3.org/2000/svg" width="18.812" height="18.718" viewBox="0 0 18.812 18.718">
  <path id="Trazado_29998" data-name="Trazado 29998" d="M898.34,562.34h1.56a.781.781,0,0,1,.78.78h1.56a2.343,2.343,0,0,0-2.34-2.34V560h-1.56v.78a2.34,2.34,0,1,0,0,4.679h1.56a.78.78,0,1,1,0,1.56h-1.56a.781.781,0,0,1-.78-.78H896a2.342,2.342,0,0,0,2.34,2.34v.78h1.56v-.78a2.34,2.34,0,1,0,0-4.679h-1.56a.78.78,0,0,1,0-1.56Z" transform="translate(-889.713 -555.321)" fill="#6b778c"/>
  <path id="Trazado_29999" data-name="Trazado 29999" d="M897.3,555.56a7.74,7.74,0,0,1,6.56,3.6l-1.88,1.861H906.7v-4.68l-1.71,1.692a9.36,9.36,0,0,0-17.055,5.327h1.56A7.808,7.808,0,0,1,897.3,555.56Z" transform="translate(-887.939 -554)" fill="#6b778c"/>
  <path id="Trazado_30000" data-name="Trazado 30000" d="M897.406,573.8a7.739,7.739,0,0,1-6.56-3.6l1.88-1.861H888v4.679l1.709-1.693A9.36,9.36,0,0,0,906.765,566h-1.56A7.807,7.807,0,0,1,897.406,573.8Z" transform="translate(-887.952 -556.641)" fill="#6b778c"/>
</svg>
