<svg xmlns="http://www.w3.org/2000/svg" width="12.746" height="12.86" viewBox="0 0 12.746 12.86">
  <path id="Trazado_9762" data-name="Trazado 9762" d="M11.834,11.133,8.622,7.879a4.849,4.849,0,0,0,1.014-3A4.859,4.859,0,0,0,4.818,0a4.882,4.882,0,0,0,0,9.763A4.81,4.81,0,0,0,7.777,8.735l3.212,3.254a.607.607,0,0,0,.845,0A.639.639,0,0,0,11.834,11.133ZM4.818,8.564A3.653,3.653,0,0,1,1.183,4.881a3.635,3.635,0,1,1,7.269,0A3.653,3.653,0,0,1,4.818,8.564Z" transform="translate(0.35 0.35)" fill="#0053c0" stroke="#0052be" stroke-width="0.7"/>
</svg>
