<svg id="Capa_1" data-name="Capa 1" xmlns="http://www.w3.org/2000/svg" viewBox="0 0 100 100"><defs><style>.cls-1{fill:#00a7ff;}</style></defs><title>ico_aplicacion</title><path class="cls-1" d="M90.63,10.56H9.38A8.88,8.88,0,0,0,.5,19.43V80.57a8.88,8.88,0,0,0,8.88,8.87H90.63a8.88,8.88,0,0,0,8.87-8.87V19.43A8.88,8.88,0,0,0,90.63,10.56ZM8.5,19.43a.87.87,0,0,1,.88-.87H90.63a.86.86,0,0,1,.87.87V30.7H8.5Zm83,61.14a.86.86,0,0,1-.87.87H9.38a.87.87,0,0,1-.88-.87V36.7h83Z"/><rect class="cls-1" x="21.69" y="20.7" width="13.05" height="6"/><rect class="cls-1" x="46.69" y="59.7" width="21.05" height="6"/><rect class="cls-1" x="12.69" y="20.7" width="5.05" height="6"/><polygon class="cls-1" points="31.37 68.07 27.13 63.83 34.89 56.06 27.13 48.29 31.37 44.05 43.38 56.06 31.37 68.07"/></svg>