<svg id="Capa_1" data-name="Capa 1" xmlns="http://www.w3.org/2000/svg" viewBox="0 0 100 100">
  <defs>
    <style>
      .cls-1, .cls-2 {
        fill: #97a0af;
      }

      .cls-1 {
        stroke: #97a0af;
        stroke-width: 0.1px;
      }
    </style>
  </defs>
  <title>vectores</title>
  <path class="cls-1" d="M83.45,55.93H77.8V67.45H71.33v6.46H77.8v3.37a3.11,3.11,0,0,1-3.1,3.1H25.14a3.11,3.11,0,0,1-3.1-3.1V73.91H27.7V67.45H22V55.33H27.7V48.86H22V37.55H27.7V31.09H22V27.72a3.1,3.1,0,0,1,3.1-3.1H52.35V12.5H46.28V19H34.16V12.5H27.7V19H24.81a9.27,9.27,0,0,0-9.23,9.24v2.89H9.11v6.46h6.47V48.86H9.11v6.47h6.47V67.45H9.11v6.46h6.47v3.7a9.27,9.27,0,0,0,9.23,9.23H27.7V92.5h6.46V86.84H46.28V92.5h6.47V86.84H64.87V92.5h6.46V86.84h2.89a9.27,9.27,0,0,0,9.23-9.23v-3.7h6.47V67.45H83.45Z"/>
  <path class="cls-2" d="M80.24,45.48l-.09-14,14-.1a2.85,2.85,0,1,0,0-5.69l-14,.09-.1-14a2.85,2.85,0,1,0-5.69,0l.1,14-14,.1a2.85,2.85,0,1,0,0,5.69l14-.1.1,14a2.8,2.8,0,0,0,.83,2,2.84,2.84,0,0,0,4.86-2Z"/>
</svg>
