<svg id="Grupo_26600" data-name="Grupo 26600" xmlns="http://www.w3.org/2000/svg" width="15.273" height="15.272" viewBox="0 0 15.273 15.272">
  <path id="Trazado_30076" data-name="Trazado 30076" d="M1529.272,621.345a5.352,5.352,0,0,0-5.345-5.345h-4.582a5.352,5.352,0,0,0-5.345,5.345v1.527h15.272Zm-13.745,0a3.822,3.822,0,0,1,3.818-3.818h4.582a3.822,3.822,0,0,1,3.818,3.818Z" transform="translate(-1514 -607.6)" fill="#97a0af"/>
  <path id="Trazado_30077" data-name="Trazado 30077" d="M1526.636,608.818a3.818,3.818,0,1,0-3.818,3.818A3.823,3.823,0,0,0,1526.636,608.818Zm-6.109,0a2.291,2.291,0,1,1,2.291,2.291A2.294,2.294,0,0,1,1520.527,608.818Z" transform="translate(-1515.182 -605)" fill="#97a0af"/>
</svg>
