<svg xmlns="http://www.w3.org/2000/svg" width="16.064" height="18.305" viewBox="0 0 16.064 18.305">
  <path id="Trazado_30367" data-name="Trazado 30367" d="M1378.265,401.957a3.528,3.528,0,0,0-2.708,1.283l-2.192-1.315a3.736,3.736,0,0,0-.312-3.231l2.527-2.022a3.138,3.138,0,0,0,1.565.429,3.175,3.175,0,1,0-3.176-3.175,3.141,3.141,0,0,0,.329,1.38l-2.542,2.034a3.921,3.921,0,1,0,.6,6.158l2.419,1.451a3.436,3.436,0,0,0-.057.558,3.549,3.549,0,1,0,3.549-3.549Zm-1.121-9.34a1.308,1.308,0,1,1-1.308,1.308A1.309,1.309,0,0,1,1377.144,392.618Zm-7.472,10.087a2.055,2.055,0,1,1,2.055-2.055A2.056,2.056,0,0,1,1369.673,402.7Zm8.592,4.483a1.681,1.681,0,1,1,1.681-1.681A1.683,1.683,0,0,1,1378.265,407.188Z" transform="translate(-1365.75 -390.75)" fill="#b3bac5"/>
</svg>
