<svg xmlns="http://www.w3.org/2000/svg" width="14.9" height="14.9" viewBox="0 0 14.9 14.9">
  <g id="Grupo_28637" data-name="Grupo 28637" transform="translate(-216.001 -1130.019)">
    <g id="Grupo_28635" data-name="Grupo 28635" transform="translate(216.001 1130.019)">
      <path id="Trazado_31067" data-name="Trazado 31067" d="M228.952,1134.6l1.083-1.083-2.634-2.634-1.083,1.083a6.178,6.178,0,0,0-1.005-.418v-1.532h-3.725v1.532a6.162,6.162,0,0,0-1.006.418l-1.083-1.083-2.634,2.634,1.083,1.083a6.2,6.2,0,0,0-.417,1H216v3.725h1.531a6.156,6.156,0,0,0,.417,1.006l-1.083,1.084,2.634,2.634,1.083-1.084a6.155,6.155,0,0,0,1.006.418v1.53h3.725v-1.53a6.172,6.172,0,0,0,1.005-.418l1.083,1.084,2.634-2.634-1.083-1.084a6.155,6.155,0,0,0,.417-1.006H230.9v-3.725H229.37A6.2,6.2,0,0,0,228.952,1134.6Zm.707,3.488H228.4l-.11.484a4.953,4.953,0,0,1-.638,1.536l-.264.419.892.893-.878.878-.892-.893-.42.265a4.978,4.978,0,0,1-1.536.638l-.483.109v1.259H222.83v-1.259l-.484-.109a4.978,4.978,0,0,1-1.536-.638l-.42-.265-.892.893-.878-.878.892-.893-.264-.419a4.952,4.952,0,0,1-.638-1.536l-.11-.484h-1.259v-1.242H218.5l.11-.482a4.937,4.937,0,0,1,.638-1.535l.264-.42-.892-.892.878-.878.892.893.419-.265a4.9,4.9,0,0,1,1.536-.638l.484-.11v-1.26h1.242v1.26l.483.11a4.9,4.9,0,0,1,1.536.638l.419.265.892-.893.878.878-.892.892.264.42a4.937,4.937,0,0,1,.638,1.535l.11.482h1.26Z" transform="translate(-216.001 -1130.019)" fill="#fff"/>
      <path id="Trazado_31068" data-name="Trazado 31068" d="M225.974,1140.978l-.8-.8-.878.878,1.681,1.681,3.543-3.543-.878-.878Z" transform="translate(-219.145 -1133.164)" fill="#fff"/>
    </g>
    <g id="Grupo_28636" data-name="Grupo 28636" transform="translate(216.001 1130.019)">
      <path id="Trazado_31069" data-name="Trazado 31069" d="M228.952,1134.6l1.083-1.083-2.634-2.634-1.083,1.083a6.178,6.178,0,0,0-1.005-.418v-1.532h-3.725v1.532a6.162,6.162,0,0,0-1.006.418l-1.083-1.083-2.634,2.634,1.083,1.083a6.2,6.2,0,0,0-.417,1H216v3.725h1.531a6.156,6.156,0,0,0,.417,1.006l-1.083,1.084,2.634,2.634,1.083-1.084a6.155,6.155,0,0,0,1.006.418v1.53h3.725v-1.53a6.172,6.172,0,0,0,1.005-.418l1.083,1.084,2.634-2.634-1.083-1.084a6.155,6.155,0,0,0,.417-1.006H230.9v-3.725H229.37A6.2,6.2,0,0,0,228.952,1134.6Zm.707,3.488H228.4l-.11.484a4.953,4.953,0,0,1-.638,1.536l-.264.419.892.893-.878.878-.892-.893-.42.265a4.978,4.978,0,0,1-1.536.638l-.483.109v1.259H222.83v-1.259l-.484-.109a4.978,4.978,0,0,1-1.536-.638l-.42-.265-.892.893-.878-.878.892-.893-.264-.419a4.952,4.952,0,0,1-.638-1.536l-.11-.484h-1.259v-1.242H218.5l.11-.482a4.937,4.937,0,0,1,.638-1.535l.264-.42-.892-.892.878-.878.892.893.419-.265a4.9,4.9,0,0,1,1.536-.638l.484-.11v-1.26h1.242v1.26l.483.11a4.9,4.9,0,0,1,1.536.638l.419.265.892-.893.878.878-.892.892.264.42a4.937,4.937,0,0,1,.638,1.535l.11.482h1.26Z" transform="translate(-216.001 -1130.019)" fill="#fff"/>
      <path id="Trazado_31070" data-name="Trazado 31070" d="M225.974,1140.978l-.8-.8-.878.878,1.681,1.681,3.543-3.543-.878-.878Z" transform="translate(-219.145 -1133.164)" fill="#fff"/>
    </g>
  </g>
</svg>
