<svg id="Grupo_29669" data-name="Grupo 29669" xmlns="http://www.w3.org/2000/svg" xmlns:xlink="http://www.w3.org/1999/xlink" width="28.432" height="28.5" viewBox="0 0 28.432 28.5">
  <defs>
    <clipPath id="clip-path">
      <rect id="Rectángulo_7277" data-name="Rectángulo 7277" width="28.432" height="28.5" fill="#0051c7"/>
    </clipPath>
  </defs>
  <g id="Grupo_29668" data-name="Grupo 29668" clip-path="url(#clip-path)">
    <path id="Trazado_31805" data-name="Trazado 31805" d="M5.225,13.571l-.407-2.036c-.271-.113-.525-.232-.763-.356a6,6,0,0,1-.73-.459l-1.968.611L0,9.025,1.561,7.668a5.768,5.768,0,0,1,0-1.764L0,4.546,1.357,2.239l1.968.611a6,6,0,0,1,.73-.459c.238-.124.491-.243.763-.356L5.225,0H7.939l.407,2.036c.271.113.527.232.763.356a5.894,5.894,0,0,1,.73.459l1.968-.611,1.357,2.307L11.6,5.9a5.768,5.768,0,0,1,0,1.764l1.561,1.357-1.357,2.307-1.968-.611a5.894,5.894,0,0,1-.73.459c-.236.124-.491.243-.763.356l-.407,2.036ZM6.582,9.5A2.72,2.72,0,0,0,9.3,6.786,2.72,2.72,0,0,0,6.582,4.071,2.722,2.722,0,0,0,3.868,6.786,2.722,2.722,0,0,0,6.582,9.5m10.789,19-.611-2.85a6.207,6.207,0,0,1-1.068-.491,8.686,8.686,0,0,1-.968-.662l-2.714.882-1.9-3.257,2.171-1.9a11.027,11.027,0,0,1,0-2.443l-2.171-1.9,1.9-3.257,2.714.882a8.686,8.686,0,0,1,.968-.662,6.207,6.207,0,0,1,1.068-.491l.611-2.85h3.8l.611,2.85a6.207,6.207,0,0,1,1.068.491,8.686,8.686,0,0,1,.968.662l2.714-.882,1.9,3.257-2.171,1.9a11.027,11.027,0,0,1,0,2.443l2.171,1.9-1.9,3.257L23.818,24.5a8.686,8.686,0,0,1-.968.662,6.207,6.207,0,0,1-1.068.491l-.611,2.85Zm1.9-5.429A4.054,4.054,0,0,0,23.343,19a4.055,4.055,0,0,0-4.071-4.071A4.055,4.055,0,0,0,15.2,19a4.054,4.054,0,0,0,4.071,4.071" fill="#0051c7"/>
  </g>
</svg>
