<?xml version="1.0" encoding="utf-8"?>
<!-- Generator: Adobe Illustrator 24.0.3, SVG Export Plug-In . SVG Version: 6.00 Build 0)  -->
<svg version="1.1" id="Capa_1" xmlns="http://www.w3.org/2000/svg" xmlns:xlink="http://www.w3.org/1999/xlink" x="0px" y="0px"
	 viewBox="0 0 100 100" style="enable-background:new 0 0 100 100;" xml:space="preserve">
<style type="text/css">
	.st0{fill:#FFFFFF;}
</style>
<title>application-o</title>
<g>
	<g>
		<path class="st0" d="M90.6,12.1H9.4c-4.9,0-8.9,4-8.9,8.9v60.1c0,4.9,4,8.9,8.9,8.9h81.2c4.9,0,8.9-4,8.9-8.9V20.9
			C99.5,16,95.5,12.1,90.6,12.1z M8.5,20.9c0-0.5,0.4-0.9,0.9-0.9h81.2c0.5,0,0.9,0.4,0.9,0.9v10.3h-83V20.9z M91.5,81.1
			c0,0.5-0.4,0.9-0.9,0.9H9.4c-0.5,0-0.9-0.4-0.9-0.9V39.2h83V81.1z"/>
	</g>
	<g>
		<rect x="21.7" y="22.2" class="st0" width="13.1" height="6"/>
	</g>
	<g>
		<rect x="46.7" y="61.2" class="st0" width="20.1" height="6"/>
	</g>
	<g>
		<rect x="12.7" y="22.2" class="st0" width="5.1" height="6"/>
	</g>
	<g>
		<polygon class="st0" points="31.4,69.6 27.1,65.3 34.9,57.6 27.1,49.8 31.4,45.5 43.4,57.6 		"/>
	</g>
</g>
</svg>
