<svg xmlns="http://www.w3.org/2000/svg" width="14" height="14.554" viewBox="0 0 14 14.554">
  <path id="database_FILL0_wght300_GRAD0_opsz24" d="M147-805.445a12.441,12.441,0,0,1-5-.88q-2-.88-2-2.2V-817q0-1.24,2.049-2.118A12.542,12.542,0,0,1,147-820a12.542,12.542,0,0,1,4.951.878Q154-818.242,154-817v8.479q0,1.319-2,2.2A12.441,12.441,0,0,1,147-805.445Zm0-9.882a12.967,12.967,0,0,0,3.626-.529q1.825-.529,2.115-1.142-.282-.629-2.093-1.173a12.615,12.615,0,0,0-3.648-.544,12.834,12.834,0,0,0-3.635.529q-1.8.529-2.121,1.155.312.642,2.106,1.173A12.8,12.8,0,0,0,147-815.327Zm0,4.284a15.9,15.9,0,0,0,1.668-.086,13.786,13.786,0,0,0,1.55-.25,10.152,10.152,0,0,0,1.383-.408,7.436,7.436,0,0,0,1.164-.551v-3.038a7.436,7.436,0,0,1-1.164.552,10.152,10.152,0,0,1-1.383.408,13.786,13.786,0,0,1-1.55.25,15.863,15.863,0,0,1-1.668.086,15.734,15.734,0,0,1-1.7-.09,14.082,14.082,0,0,1-1.562-.254,10.148,10.148,0,0,1-1.369-.4,6.574,6.574,0,0,1-1.133-.547v3.038a6.583,6.583,0,0,0,1.133.547,10.166,10.166,0,0,0,1.369.4,14.11,14.11,0,0,0,1.562.254A15.766,15.766,0,0,0,147-811.043Zm0,4.314a13.971,13.971,0,0,0,1.969-.137,12.006,12.006,0,0,0,1.758-.375,6.313,6.313,0,0,0,1.336-.552,1.627,1.627,0,0,0,.7-.66v-2.6a7.437,7.437,0,0,1-1.164.552,10.186,10.186,0,0,1-1.383.408,13.759,13.759,0,0,1-1.55.25,15.863,15.863,0,0,1-1.668.086,15.766,15.766,0,0,1-1.7-.09,14.11,14.11,0,0,1-1.562-.254,10.166,10.166,0,0,1-1.369-.4,6.575,6.575,0,0,1-1.133-.547v2.613a1.558,1.558,0,0,0,.7.658,6.557,6.557,0,0,0,1.33.542,11.981,11.981,0,0,0,1.764.375A14.106,14.106,0,0,0,147-806.729Z" transform="translate(-140.001 819.999)" fill="#fff"/>
</svg>
