<?xml version="1.0" encoding="utf-8"?>
<!-- Generator: Adobe Illustrator 23.1.1, SVG Export Plug-In . SVG Version: 6.00 Build 0)  -->
<svg version="1.1" id="Capa_1" xmlns="http://www.w3.org/2000/svg" xmlns:xlink="http://www.w3.org/1999/xlink" x="0px" y="0px"
	 viewBox="0 0 100 100" style="enable-background:new 0 0 100 100;" xml:space="preserve">
<style type="text/css">
	.st0{fill:#97A0AF;}
</style>
<title>ico_user_add</title>
<g>
	<path class="st0" d="M97.6,28.7c-0.1,0.9-0.4,1.7-1.1,2.3c-0.7,0.6-1.5,0.9-2.4,0.8L80.6,32l0.1,13.3c0.1,0.2,0.1,0.4,0,0.6
		c-0.2,1.7-1.6,3-3.3,3c-0.1,0-0.2,0-0.2,0c-1.9-0.1-3.3-1.7-3.2-3.5L73.9,32l-13.8,0.1c-0.9-0.1-1.8-0.4-2.4-1.1
		c-0.6-0.7-0.9-1.5-0.8-2.4c0.1-0.9,0.4-1.7,1.1-2.3c0.7-0.6,1.5-0.9,2.4-0.8l13.5-0.1l-0.1-13.8c0.1-1.9,1.7-3.3,3.5-3.2
		c1.9,0.1,3.3,1.7,3.2,3.5l0.1,13.5l13.8-0.1c0.9,0.1,1.8,0.5,2.4,1.1C97.4,27,97.7,27.8,97.6,28.7z"/>
</g>
<g>
	<g>
		<path class="st0" d="M66.2,36.5c-3.3,9.1-11.4,14.1-21.1,14.1c-12.2,0-21.2-9-21.2-21.2s9-22.2,21.2-22.2c9,0,16.9,5.1,20.6,13.8
			L56,21c-2.3-3.4-6.2-5.3-10.9-5.3c-7.6,0-13.8,6.2-13.8,13.8S37.4,43.2,45,43.2c5.2,0,9.5-2.3,11.7-6.6L66.2,36.5z"/>
	</g>
</g>
<g id="Grupo_6270" transform="translate(-1514 -605)">
	<path id="Trazado_9093" class="st0" d="M1602.2,689c0-16.5-13.4-29.8-29.8-29.8h-25.6c-16.5,0-29.8,13.4-29.8,29.8v8.5h85.2
		L1602.2,689L1602.2,689z M1525.6,689c0-11.8,9.5-21.3,21.3-21.3h25.6c11.8,0,21.3,9.5,21.3,21.3H1525.6z"/>
</g>
</svg>
