<svg xmlns="http://www.w3.org/2000/svg" width="13.962" height="15.816" viewBox="0 0 13.962 15.816">
  <g id="Grupo_26761" data-name="Grupo 26761" transform="translate(14.692 -21.239) rotate(90)">
    <g id="Grupo_26710" data-name="Grupo 26710" transform="translate(21.239 0.73)">
      <path id="Trazado_30175" data-name="Trazado 30175" d="M36.492,6.863H21.8a.562.562,0,0,1-.562-.562V1.292A.562.562,0,0,1,21.8.73H36.492a.562.562,0,0,1,.563.562V6.3A.562.562,0,0,1,36.492,6.863ZM22.364,5.738H35.93V1.854H22.364Z" transform="translate(-21.239 -0.73)" fill="#fff"/>
    </g>
    <g id="Grupo_26561" data-name="Grupo 26561" transform="translate(23.468 3.091)">
      <g id="Rectángulo_4025-3" data-name="Rectángulo 4025-3" transform="translate(7.716)">
        <rect id="Rectángulo_5155" data-name="Rectángulo 5155" width="1.458" height="1.411" fill="#fff"/>
      </g>
      <g id="Rectángulo_4025-4" data-name="Rectángulo 4025-4">
        <rect id="Rectángulo_5156" data-name="Rectángulo 5156" width="4.713" height="1.411" fill="#fff"/>
      </g>
      <g id="Rectángulo_4026-2" data-name="Rectángulo 4026-2" transform="translate(9.901)">
        <rect id="Rectángulo_5157" data-name="Rectángulo 5157" width="1.458" height="1.411" fill="#fff"/>
      </g>
    </g>
    <g id="Grupo_26711" data-name="Grupo 26711" transform="translate(21.239 8.559)">
      <path id="Trazado_30176" data-name="Trazado 30176" d="M36.492,15.636H21.8a.563.563,0,0,1-.562-.562V10.064A.563.563,0,0,1,21.8,9.5H36.492a.563.563,0,0,1,.563.562v5.009A.563.563,0,0,1,36.492,15.636ZM22.364,14.51H35.93V10.626H22.364Z" transform="translate(-21.239 -9.502)" fill="#fff"/>
    </g>
    <g id="Grupo_26561-2" data-name="Grupo 26561" transform="translate(23.468 10.92)">
      <g id="Rectángulo_4025-3-2" data-name="Rectángulo 4025-3" transform="translate(7.716)">
        <rect id="Rectángulo_5158" data-name="Rectángulo 5158" width="1.458" height="1.411" fill="#fff"/>
      </g>
      <g id="Rectángulo_4025-4-2" data-name="Rectángulo 4025-4">
        <rect id="Rectángulo_5159" data-name="Rectángulo 5159" width="4.713" height="1.411" fill="#fff"/>
      </g>
      <g id="Rectángulo_4026-2-2" data-name="Rectángulo 4026-2" transform="translate(9.901)">
        <rect id="Rectángulo_5160" data-name="Rectángulo 5160" width="1.458" height="1.411" fill="#fff"/>
      </g>
    </g>
  </g>
</svg>
