<svg xmlns="http://www.w3.org/2000/svg" width="15.846" height="15.846" viewBox="0 0 15.846 15.846">
  <g id="Grupo_6273" data-name="Grupo 6273" transform="translate(208 -12166.577)">
    <g id="Grupo_6272" data-name="Grupo 6272" transform="translate(-208 12166.577)">
      <g id="Grupo_6271" data-name="Grupo 6271">
        <g id="Grupo_6268" data-name="Grupo 6268">
          <path id="Trazado_9171" data-name="Trazado 9171" d="M122.828,856.428h9.751a1.831,1.831,0,0,0,1.828-1.828v-9.751a1.831,1.831,0,0,0-1.828-1.828h-9.751A1.831,1.831,0,0,0,121,844.849V854.6A1.831,1.831,0,0,0,122.828,856.428Zm-.609-11.58a.61.61,0,0,1,.609-.609h9.751a.61.61,0,0,1,.609.609V854.6a.61.61,0,0,1-.609.609h-9.751a.61.61,0,0,1-.609-.609Z" transform="translate(-119.781 -841.789)" fill="#fff"/>
          <g id="Grupo_6264" data-name="Grupo 6264" transform="translate(0 3.657)">
            <rect id="Rectángulo_4027" data-name="Rectángulo 4027" width="3.657" height="1.219" fill="#fff"/>
            <rect id="Rectángulo_4028" data-name="Rectángulo 4028" width="3.657" height="1.219" transform="translate(0 3.657)" fill="#fff"/>
            <rect id="Rectángulo_4029" data-name="Rectángulo 4029" width="3.657" height="1.219" transform="translate(0 7.314)" fill="#fff"/>
          </g>
          <g id="Grupo_6265" data-name="Grupo 6265" transform="translate(12.189 3.657)">
            <rect id="Rectángulo_4030" data-name="Rectángulo 4030" width="3.657" height="1.219" fill="#fff"/>
            <rect id="Rectángulo_4031" data-name="Rectángulo 4031" width="3.657" height="1.219" transform="translate(0 3.657)" fill="#fff"/>
            <rect id="Rectángulo_4032" data-name="Rectángulo 4032" width="3.657" height="1.219" transform="translate(0 7.314)" fill="#fff"/>
          </g>
          <g id="Grupo_6266" data-name="Grupo 6266" transform="translate(3.656 0)">
            <rect id="Rectángulo_4033" data-name="Rectángulo 4033" width="1.219" height="1.828" transform="translate(7.314)" fill="#fff"/>
            <rect id="Rectángulo_4034" data-name="Rectángulo 4034" width="1.219" height="1.828" transform="translate(3.657)" fill="#fff"/>
            <rect id="Rectángulo_4035" data-name="Rectángulo 4035" width="1.219" height="1.828" fill="#fff"/>
          </g>
          <g id="Grupo_6267" data-name="Grupo 6267" transform="translate(3.656 14.018)">
            <rect id="Rectángulo_4036" data-name="Rectángulo 4036" width="1.219" height="1.828" transform="translate(7.314)" fill="#fff"/>
            <rect id="Rectángulo_4037" data-name="Rectángulo 4037" width="1.219" height="1.828" transform="translate(3.657)" fill="#fff"/>
            <rect id="Rectángulo_4038" data-name="Rectángulo 4038" width="1.219" height="1.828" fill="#fff"/>
          </g>
        </g>
      </g>
    </g>
  </g>
</svg>
