<svg xmlns="http://www.w3.org/2000/svg" width="13.522" height="18.209" viewBox="0 0 13.522 18.209">
  <g id="Grupo_26950" data-name="Grupo 26950" transform="translate(-316 -651.005)">
    <path id="Trazado_30203" data-name="Trazado 30203" d="M322.761,651.005a6.768,6.768,0,0,0-6.761,6.76c0,3.482,5.493,9.973,6.119,10.7l.642.747.642-.747c.626-.729,6.119-7.22,6.119-10.7A6.768,6.768,0,0,0,322.761,651.005Zm0,15.59c-1.844-2.27-5.07-6.685-5.07-8.83a5.07,5.07,0,0,1,10.139,0C327.831,659.908,324.606,664.325,322.761,666.6Z" fill="#8d96a5"/>
    <path id="Trazado_30204" data-name="Trazado 30204" d="M323.359,654.969a3.383,3.383,0,1,0,3.383,3.383A3.387,3.387,0,0,0,323.359,654.969Zm0,5.075a1.692,1.692,0,1,1,1.692-1.692A1.693,1.693,0,0,1,323.359,660.044Z" transform="translate(-0.613 -0.611)" fill="#8d96a5"/>
  </g>
</svg>
