<svg id="Capa_1" data-name="Capa 1" xmlns="http://www.w3.org/2000/svg" viewBox="0 0 100 100">
  <defs>
    <style>
      .cls-1 {
        fill: #97a0af;
      }
    </style>
  </defs>
  <title>vectores</title>
  <g>
    <path class="cls-1" d="M10.65,54.26V30.1a3.82,3.82,0,0,1,3.81-3.81H53.82V20.64H13.46A8.46,8.46,0,0,0,5,29.1V79.58A8.46,8.46,0,0,0,13.46,88H75.14a8.46,8.46,0,0,0,8.46-8.46V54.26ZM79,78.58a3.82,3.82,0,0,1-3.81,3.81H14.46a3.82,3.82,0,0,1-3.81-3.81V59.9H79Z"/>
    <rect class="cls-1" x="17.41" y="36.29" width="23.53" height="6.97"/>
    <rect class="cls-1" x="49.9" y="36.29" width="3.69" height="6.97"/>
    <rect class="cls-1" x="17.41" y="68.78" width="23.53" height="6.97"/>
    <rect class="cls-1" x="49.9" y="68.78" width="7.84" height="6.97"/>
    <rect class="cls-1" x="61.1" y="68.78" width="7.84" height="6.97"/>
  </g>
  <path class="cls-1" d="M80.24,45.48l-.09-14,14-.1a2.85,2.85,0,1,0,0-5.69l-14,.09-.1-14a2.85,2.85,0,1,0-5.69,0l.1,14-14,.1a2.85,2.85,0,1,0,0,5.69l14-.1.1,14a2.8,2.8,0,0,0,.83,2,2.84,2.84,0,0,0,4.86-2Z"/>
</svg>
