<?xml version="1.0" encoding="utf-8"?>
<!-- Generator: Adobe Illustrator 24.0.3, SVG Export Plug-In . SVG Version: 6.00 Build 0)  -->
<svg version="1.1" id="Capa_1" xmlns="http://www.w3.org/2000/svg" xmlns:xlink="http://www.w3.org/1999/xlink" x="0px" y="0px"
	 viewBox="0 0 100 100" style="enable-background:new 0 0 100 100;" xml:space="preserve">
<style type="text/css">
	.st0{fill:#00A7FF;}
</style>
<title>ico_aplicacion</title>
<circle class="st0" cx="34.2" cy="48.2" r="3.3"/>
<circle class="st0" cx="66.8" cy="48.2" r="3.3"/>
<path class="st0" d="M87.9,23.2C77.9,9.9,63.7,2,50,2C36.7,2,23.3,9.3,13.1,21.9c-6.8,8.4-10.5,19-10.5,29.8
	c0,26.1,21.3,47.4,47.4,47.4c26.1,0,47.4-21.3,47.4-47.4C97.4,41.3,94.1,31.4,87.9,23.2z M50.6,44.1c2.4,0,3.8,1.8,4.6,3.2l-4.3,4.3
	l-4.8-4.4C46.9,45.8,48.3,44.1,50.6,44.1z M50,92.4c-22.5,0-40.7-18.3-40.7-40.7c0-5.5,1.1-10.9,3.2-15.8
	c3.7-4.5,9.9-10.3,17.5-10.3c8.7,0,15.4,7.7,18.6,12.2c-5.8,1-8.8,6.3-9.7,9.5l-0.6,2L51,60.9l11.8-11.8l-0.5-1.9
	c-0.9-3.2-3.9-8.5-9.7-9.5c3.1-4.5,9.6-12.2,17.5-12.2c5.9,0,11.6,3.5,15.7,6.8c3.2,5.9,4.9,12.5,4.9,19.4
	C90.7,74.1,72.5,92.4,50,92.4z"/>
</svg>
