<svg xmlns="http://www.w3.org/2000/svg" width="14.328" height="13.882" viewBox="0 0 14.328 13.882">
  <g id="Grupo_26591" data-name="Grupo 26591" transform="translate(-841 -267)">
    <path id="Trazado_29381" data-name="Trazado 29381" d="M854.844,279.62H842.519l2.886-2.893,1.259,1.262,4.405-4.417,1.259,1.262,2.647-2.655-.89-.892-1.758,1.762-1.259-1.262-4.405,4.417-1.259-1.262-3.146,3.155V274.2l2.517-2.524,2.7,2.708.89-.892-3.591-3.6-2.517,2.524V267H841v13.882h13.844Z" transform="translate(0 0)" fill="#6b778c"/>
    <path id="Trazado_29382" data-name="Trazado 29382" d="M856.914,281.329l-1.622-1.621-1,1,2.621,2.622,4.036-4.036-1-1Z" transform="translate(-5.622 -4.79)" fill="#6b778c"/>
  </g>
</svg>
