<svg xmlns="http://www.w3.org/2000/svg" width="17" height="17" viewBox="0 0 17 17">
  <g id="Grupo_26558" data-name="Grupo 26558" transform="translate(23544.5 2134.5)">
    <g id="Grupo_26557" data-name="Grupo 26557">
      <g id="Grupo_26556" data-name="Grupo 26556">
        <g id="Grupo_26555" data-name="Grupo 26555">
          <g id="Grupo_6342" data-name="Grupo 6342" transform="translate(-15619 3323)">
            <rect id="Rectángulo_4054" data-name="Rectángulo 4054" width="16" height="16" rx="1" transform="translate(-7925 -5457)" fill="#3375cc"/>
          </g>
        </g>
      </g>
    </g>
    <path id="Intersección_1" data-name="Intersección 1" d="M8.091,17.478l-.047,0H8.031l-.048-.031c0-.012-.011-.029-.017-.041-.006.012-.016.027-.023.039l-.036-.019-.024,0a.152.152,0,0,1-.077-.046.606.606,0,0,1-.355-.248c-.093-.021-.093-.021-.124-.05.1.014.1.014.135-.016l-.023-.023-.046.005c-.152-.146-.152-.146-.174-.193l-.023-.042c.014-.043,0-.088.006-.132l0-.024h0v0l0,0a.01.01,0,0,0,0-.006l0-.008a.134.134,0,0,0-.049.072l-.038-.023a.334.334,0,0,1,0-.09h.046c0-.009,0-.022.005-.03a.162.162,0,0,0-.086,0c-.008-.025-.022-.058-.032-.082h.021a.829.829,0,0,0-.05-.1l.006-.023-.037-.025c0-.014.007-.031.011-.044s-.009-.036-.014-.052l.011-.028c0-.014,0-.034,0-.049a.127.127,0,0,1,.086,0c0-.041,0-.041.045-.177-.041-.026-.092-.02-.136-.037l-.02.037-.041.02c-.009-.011-.022-.023-.032-.033.021-.043.047-.084.068-.126a.379.379,0,0,1-.02-.053l.039-.02v-.027l.009-.028.028-.013.023-.009-.015-.011-.048-.012c.005-.015.012-.037.016-.053a.251.251,0,0,0-.061-.083h.013a.525.525,0,0,0,.007-.129l.041.011c0-.014-.01-.031-.013-.044l.043-.014a.229.229,0,0,1,.058.109c.005.048.013.1.016.145H7.1l.007-.026.021,0v0c0-.01,0-.02-.007-.03l-.013-.042c0-.014,0-.033,0-.048l0-.034h0v-.014a.023.023,0,0,0,0-.006c.025-.094.025-.094,0-.142a.2.2,0,0,1,.025-.086c-.04-.076-.04-.076-.023-.184l-.038-.024.029-.036-.021-.041-.043.011c-.009.037-.009.037-.01.037H6.993l-.007,0H6.979c.07.328.07.328-.054.346L6.9,15.26A.812.812,0,0,0,6.91,15.1L6.9,15.062h0V15.05l0-.005v-.005l0,0v-.006c0-.014,0-.034,0-.049l.045,0,0-.031,0-.023-.013-.015L6.9,14.893l-.018-.023a1.563,1.563,0,0,1-.013-.181l0-.034h0V14.64l.023-.063.006-.041.011-.058a1.022,1.022,0,0,0-.073-.148c-.024-.087-.059-.172-.076-.261a.2.2,0,0,0,.067-.076c0-.014-.006-.032-.008-.046.052-.059.021-.141.056-.205v-.006a2.1,2.1,0,0,1,.049-.309.152.152,0,0,1,.031-.139c0-.005-.1-.652-.088-.679l.022-.026c-.018-.2.094-.4-.013-.6.006-.013.015-.031.023-.043h0V11.92a.829.829,0,0,0,.014-.1.166.166,0,0,0,0-.03v-.012s0-.005,0-.008a.034.034,0,0,0,0-.01s0-.006,0-.01l0-.01a180.2,180.2,0,0,0,0-.016s0,0,0-.005v-.028c-.008-.047-.008-.047.032-.128a.449.449,0,0,1-.032-.336L6.859,11.2c0-.015-.007-.036-.01-.051.08-.088-.013-.76-.016-.765-.229-.526-.46-.55-.577-.517-.007,0-.7-.229-.7-.436.016-.093-.086-.177-.12-.253-.082-.048-.1-.164-.2-.19,0-.05,0-.078-.247-.422a.814.814,0,0,0-.062-.1.022.022,0,0,1,0,.007.429.429,0,0,1-.1-.088c-.033-.042-.049-.094-.081-.138-.047-.064-.052-.071-.271-.111-.02-.043-.015-.05-.01-.059a.059.059,0,0,1,.022,0,.063.063,0,0,0,.029,0s0-.009,0-.014a.065.065,0,0,0,0-.017.1.1,0,0,0-.055-.086c0-.013,0-.013.014-.04l-.009,0s-.052-.082-.054-.091,0-.005.021-.066c.006,0,.247-.264.247-.266a.6.6,0,0,0,0-.085.115.115,0,0,1-.076.1c0-.015,0-.036-.006-.05l-.032-.02-.068-.029-.061-.01c.06-.022.06-.022.064-.035a.054.054,0,0,0-.013-.062.065.065,0,0,1-.011-.021c0-.023.011-.044.006-.068s-.052-.041-.031-.068.046,0,.06-.025,0-.057.011-.085c.012-.055.089-.067.084-.133,0-.039-.041-.074-.011-.116s.113-.05.165-.084a.136.136,0,0,0,.059-.131l.035-.029,0,0h.01l0,0c-.007-.081-.007-.081.049-.147l.047-.017.007,0c.1-.031.109-.139.167-.2,0-.014-.005-.032-.007-.047l-.007,0-.046-.014c.04-.175.04-.175,0-.258l.036-.025A.165.165,0,0,0,5.1,5.751a.212.212,0,0,0,.02-.085,1.248,1.248,0,0,1-.2-.183c0-.014.006-.032.01-.046-.018-.021-.041-.05-.057-.073-.033,0-.061-.025-.095-.024h0a1.655,1.655,0,0,0-.243.176l0,.024c.073.064.073.064.085.083-.052.028-.1.061-.157.085L4.441,5.7a.09.09,0,0,0-.055-.1.074.074,0,0,1,.01.044c-.067.038-.089-.016-.1-.056,0-.006,0-.005-.006-.005-.209.071-.209.071-.212.078-.015-.027-.015-.027-.054-.041,0-.007,0-.016.007-.024a.171.171,0,0,0-.035-.032l-.02.012a.133.133,0,0,1,.035.029L4,5.629a.229.229,0,0,1-.076-.013c-.007-.068-.007-.068-.166-.13-.016-.047-.036-.049-.067-.049l.022.014c-.007.023-.027.039-.036.061a.092.092,0,0,1-.041-.024c-.086,0-.109,0-.087-.072v0c.025-.042.025-.042.022-.064H3.544l0-.016.014-.017.005,0a.887.887,0,0,0-.332-.193.1.1,0,0,1,.04-.058.068.068,0,0,0-.042,0c-.016.012-.016.013-.016.014L3.2,5.088l-.016.006h0c-.081.017-.165.009-.248.023l-.005,0h0a1.107,1.107,0,0,1-.405.019c-.309-.161-.309-.161-.456-.11h0c-.123.064-.211.2-.37.194l-.015,0c-.07,0-.139.067-.21.005l-.018.007c-.028.009-.056.012-.084.019h0l-.294-.026-.022.005-.016.013L.943,5.27v-1.3a1,1,0,0,1,1-1h1.3a1.664,1.664,0,0,0-.982.513c-.176.16-.487.832-.41.888a.155.155,0,0,0,.022.009c-.041.11-.03.118.067.193a.21.21,0,0,1,0,.023l0,.011c.047.093.068.1.131.072l.015-.006c.023,0,.046,0,.069,0a.22.22,0,0,0,.036.029,3.513,3.513,0,0,1,.429-.23c0,.006.009.015.013.022l.023,0h.006l.022-.011h0c.049-.042.049-.043.047-.078a.431.431,0,0,0,.184-.222l0-.009c.041-.286.656-.394.662-.393l.015.02-.007.007c-.007.087-.174.255-.193.274a.138.138,0,0,0,.013.019l.02-.012.008,0-.153.285c.008-.023.023-.044.031-.068V4.3L3.286,4.29a.343.343,0,0,0,.008-.053c-.024.023-.039.054-.061.077h.023c0,.012,0,.012-.031.1l.023,0c-.064.085-.069.207-.165.274a.192.192,0,0,0,0,.023.08.08,0,0,0,.046,0c0-.006,0-.015,0-.023s.012,0,.17-.05l.017.015.025-.012.013-.006c.105-.017.105-.017.139-.037h0c.04,0,.068-.033.106-.041h0l.008-.021a.162.162,0,0,1,.055,0H3.7l.009,0c.029-.016.029-.016.339-.006a.073.073,0,0,0,.032.032c-.093.2-.039.433-.17.618.013.037.021.039.048.045.05.13.193.13.283.2h0l-.011,0,.005.014-.023.006.007.022a.269.269,0,0,1,.045-.01L4.253,5.44l.017-.015c.107.084.186.008.269-.068a.272.272,0,0,1,.206-.1c.008,0,.049-.021.057-.023s0,0,0,0a2.638,2.638,0,0,1,.416.177.231.231,0,0,1,.041-.119,1.108,1.108,0,0,1,.217-.178s-.016-.281.245-.267c.1-.168.345-.088.436-.266.014,0,.014,0,.11-.07a.254.254,0,0,1,.081.041c-.038.064-.122.081-.156.149a.731.731,0,0,1,.06.121.46.46,0,0,1-.086.109c0,.014,0,.032,0,.045a.3.3,0,0,0,.076.044c0,.013.009.03.013.042.134-.042.014-.2.026-.3l.012-.013H6.3c.045-.016.086-.043.13-.062a.573.573,0,0,0,.089-.029.124.124,0,0,0,0-.085.118.118,0,0,1,.057-.059.707.707,0,0,0,.09.1c.207-.053.239.047.262.12a.579.579,0,0,0,.215-.025.576.576,0,0,1,.211-.025c.027.034.053.067.168.058h0l.039,0L7.67,4.7a.424.424,0,0,1,.087-.026l-.043-.01.005-.017A2.857,2.857,0,0,1,8.156,4.6l-.107.027L8,4.645a.724.724,0,0,1,.067.081c.014,0,.345-.054.331.175a3.14,3.14,0,0,1,.473.221,1.1,1.1,0,0,1-.06.105l.022.04c.015-.022.034-.054.048-.078L8.93,5.18c.041.029.094.069.134.1a2.433,2.433,0,0,0,.328.1l.023-.04a.277.277,0,0,1,.1.011c.041-.024.041-.024.173-.016a.492.492,0,0,0,.13.024c.392.228.392.228.438.274.007-.01.019-.024.028-.034l.041.029c.052.06.052.06.085.249A1.292,1.292,0,0,0,10.466,6l.053,0c0,.016,0,.039.005.055a.135.135,0,0,0,.085.023c.005.014.013.032.02.046-.044.1-.044.1-.252.281l.047.008.034-.03.031.031-.033.073.008.035c.038-.081.049-.1.205-.092-.006,0-.006-.005-.007-.013s0-.023.023-.021l.023,0s0,0,0,0a.021.021,0,0,1,.008-.006c.025.006.03.023.023.031a.053.053,0,0,1-.038.011c.056,0,.128.013.22.023a.036.036,0,0,1,.01.025.26.26,0,0,1-.125.21l-.041.024c0,.013.006.031.01.044.037-.021.086-.05.122-.072.1-.12.1-.12.164-.146.058-.006.058-.006.214.038a1.971,1.971,0,0,0,.212.076.463.463,0,0,1,.044.084c.1-.031.171-.056.158.14l.042-.011a.386.386,0,0,1-.059.17l.045.005a.873.873,0,0,1,.061-.123l.018.041c.114-.057.114-.057.462.061.166.1.38.072.534.2a3.089,3.089,0,0,0,.45.369.578.578,0,0,1,.183.02.694.694,0,0,1,.084.707c-.143.237-.385.386-.534.617-.021.018-.05.018-.023.035-.052.067-.139.084-.2.137a1.807,1.807,0,0,1-.014.463c-.017.461-.362.8-.444,1.239-.166.081-.166.081-.171.14a.3.3,0,0,1-.133.022h-.024l-.011,0h-.031l-.1.006c-.031,0-.041,0-.052,0l-.025-.02-.023.04c-.081-.021-.081-.021-.147.033a3.679,3.679,0,0,0-.439.216c-.042.03-.042.03-.257.285l.023.046a.431.431,0,0,0-.032.228l.039.026a2.457,2.457,0,0,1-.509.817,1.183,1.183,0,0,0-.455.56c-.076.135-.193.125-.309.116a.341.341,0,0,0-.245.039c0,.23,0,.23.02.256l.042-.005c.035.07.035.07-.028.212-.2.266-.2.266-.741.388a2.269,2.269,0,0,1-.069.218c.063.151-.064.189-.131.209a.24.24,0,0,1-.135-.016.217.217,0,0,0-.148-.011.293.293,0,0,0,.029.14.438.438,0,0,1,.012.1,1.041,1.041,0,0,0,.128.065c0-.014,0-.034.005-.048H8.366l.067-.031a.427.427,0,0,1,.035.093.229.229,0,0,1-.076.056c-.022-.018-.048-.044-.068-.064l-.043.019c0,.014,0,.033,0,.046l.086.034c-.1.076-.1.076-.109.289l-.014.04-.037.033c.008.013.021.029.03.041l-.031.031a.377.377,0,0,1-.042-.013c-.337.194-.126.373-.04.4.045.015.1.012.137.043.011.206-.178.338-.2.531-.089.108-.089.108-.111.329a1.017,1.017,0,0,1,.116.1l-.008.03a.273.273,0,0,1-.091-.024c-.064.085-.149.212-.149.212s.005.01.006.01H7.84c0-.015.009-.036.014-.05.069-.041.069-.041.088-.1l.04.026.056-.022.047.038a.238.238,0,0,0,.005.091l.047,0s.2.23.383.194v.048a.514.514,0,0,1-.236.029l.035.031c0,.013-.008.03-.011.043-.1-.015-.1-.015-.13-.036v.045a.22.22,0,0,1,.05.076C8.191,17.473,8.191,17.473,8.091,17.478ZM7,9.731c0,.009-.016.017-.008.03s.019.007.034.007c.005-.017.008-.031-.015-.025,0,0,0-.008.01-.012a.315.315,0,0,1,.04-.006c0-.014,0-.014-.008-.018s.021-.007.028-.018a.012.012,0,0,0-.009-.014c-.01,0-.028.009-.034.014a0,0,0,0,1,0,0v0s0,0,0,.007c0-.011-.016-.019-.014-.033s.016-.005.02-.014h.006c0-.007,0-.012,0-.015s-.033,0-.047-.013-.015-.024-.032-.026H6.954a.025.025,0,0,1-.016,0,.023.023,0,0,1-.007-.012s-.012-.014-.032-.028-.02-.006-.028-.013l0-.006c-.007-.011-.015-.016-.018-.015s0,0,0,.005,0,.007,0,.008-.016-.032-.03-.021c0,0,.01,0,.009.011s-.011.011-.013.019-.005.017.035.078h0c-.011,0-.011,0-.029-.024-.008.01-.009.024-.015.035l0,.005c.01.009.023.014.032.023,0-.018,0-.026.017-.021s0,.009,0,.014l.011,0a.045.045,0,0,0,0,.011.149.149,0,0,0,.039.007A.15.15,0,0,1,6.9,9.7a.068.068,0,0,1,.05.009c.01.006.014.009.024-.005l0,.005a.014.014,0,0,0,0-.02C6.994,9.692,7.009,9.7,7,9.731ZM4.93,8.472ZM4.244,5.423Zm.438-2.345.029-.01,0-.012h0l-.02-.016a.153.153,0,0,1,0-.02l0-.005L4.7,2.994a.068.068,0,0,0-.02-.023h.182a.51.51,0,0,1-.18.131C4.68,3.094,4.681,3.085,4.683,3.078Z" transform="translate(-23544.555 -2136.674)" fill="#fff"/>
    <rect id="Rectángulo_4054-2" data-name="Rectángulo 4054" width="16" height="16" rx="1" transform="translate(-23544 -2134)" fill="none" stroke="#f7f7f7" stroke-width="1"/>
  </g>
</svg>
