<?xml version="1.0" encoding="utf-8"?>
<!-- Generator: Adobe Illustrator 24.0.3, SVG Export Plug-In . SVG Version: 6.00 Build 0)  -->
<svg version="1.1" id="Capa_1" xmlns="http://www.w3.org/2000/svg" xmlns:xlink="http://www.w3.org/1999/xlink" x="0px" y="0px"
	 viewBox="0 0 100 100" style="enable-background:new 0 0 100 100;" xml:space="preserve">
<style type="text/css">
	.st0{fill:#FFFFFF;}
</style>
<title>vectores</title>
<path class="st0" d="M12.4,55.5c3,20.8,22.4,35.2,43.2,32.2c11.7-1.7,22-8.8,27.8-19.1L76,64.5c-8,14.3-26.1,19.4-40.4,11.4
	c-7.3-4.1-12.5-11-14.4-19.1l4.7,4.7l6-6L16.2,39.8L0.5,55.5l6,6L12.4,55.5z"/>
<path class="st0" d="M50.1,20.3c13.9,0,25.9,9.7,29,23.2l-5-5l-6,6l15.7,15.7l15.7-15.7l-6-6l-5.7,5.7C84.6,23.4,65.2,9.1,44.4,12.3
	C32.9,14,22.9,20.9,17.1,30.9l7.3,4.2C29.7,26,39.5,20.3,50.1,20.3z"/>
</svg>
