<svg xmlns="http://www.w3.org/2000/svg" width="17" height="17" viewBox="0 0 17 17">
  <g id="Grupo_6346" data-name="Grupo 6346" transform="translate(7844.5 5457.5)">
    <g id="Grupo_6340" data-name="Grupo 6340">
      <rect id="Rect치ngulo_4053" data-name="Rect치ngulo 4053" width="16" height="16" rx="0.73" transform="translate(-7844.145 -5456.748)" fill="#33b8ff"/>
      <path id="Trazado_9671" data-name="Trazado 9671" d="M4818.854-3108.059v6h16v-6" transform="translate(-12663 -2343.998)" fill="#fff"/>
      <g id="Grupo_6334" data-name="Grupo 6334" transform="translate(-12663 -2343.998)">
        <path id="Trazado_9672" data-name="Trazado 9672" d="M4826.826-3107.482a.036.036,0,0,1,.061.006.343.343,0,0,1,.013.1c.016.447.031.9.05,1.343a1.058,1.058,0,0,0,.048-.286.871.871,0,0,1,.089-.327.98.98,0,0,0,.1-.279,1.01,1.01,0,0,0,0-.2.386.386,0,0,1,.084-.257.135.135,0,0,1,.09-.052.029.029,0,0,1,.03.035c-.017.03-.045.053-.061.085a.219.219,0,0,0-.025.131,1.685,1.685,0,0,1,.017.253.673.673,0,0,1-.074.288.639.639,0,0,0-.061.17c-.029.149-.015.3-.039.451q.286-.625.574-1.251c.011-.022.03-.051.06-.044s.027.047.018.072c-.162.441-.328.881-.488,1.323.109-.118.149-.282.25-.405.069-.088.163-.151.236-.235a.59.59,0,0,0,.112-.173.785.785,0,0,1,.1-.211.3.3,0,0,1,.18-.12c.025,0,.069.01.057.044s-.068.036-.1.063a.361.361,0,0,0-.094.2.807.807,0,0,1-.154.308c-.051.066-.124.112-.175.179-.1.133-.147.3-.24.443l.98-.907c.024-.021.043-.048.074-.056a.036.036,0,0,1,.042.042.246.246,0,0,1-.061.079c-.306.332-.614.661-.919.993a2.224,2.224,0,0,0,.32-.234.814.814,0,0,1,.228-.109.884.884,0,0,0,.287-.149,1.46,1.46,0,0,1,.191-.178.313.313,0,0,1,.216-.05c.022,0,.054.02.051.05s-.041.021-.061.025a.214.214,0,0,0-.15.068c-.054.061-.1.127-.157.184a.71.71,0,0,1-.271.171.633.633,0,0,0-.172.081c-.126.084-.224.2-.347.291l1.293-.48c.024-.009.063-.012.072.02s-.017.045-.037.056c-.427.2-.856.391-1.283.59a1.37,1.37,0,0,0,.329-.081.855.855,0,0,1,.3-.028.811.811,0,0,0,.331-.03,2.312,2.312,0,0,1,.223-.085.343.343,0,0,1,.2.012.123.123,0,0,1,.07.054.031.031,0,0,1-.019.045c-.037,0-.071-.024-.108-.026a.23.23,0,0,0-.128.03,1.665,1.665,0,0,1-.243.119.7.7,0,0,1-.284.035.615.615,0,0,0-.2.013c-.142.034-.276.1-.422.134.213,0,.425.014.638.021l.752.028c.024,0,.061.009.061.041s-.03.04-.052.042c-.47.019-.941.032-1.412.054a1.187,1.187,0,0,0,.308.049.855.855,0,0,1,.306.087.909.909,0,0,0,.3.1,2.236,2.236,0,0,1,.283.012.351.351,0,0,1,.164.086.115.115,0,0,1,.037.077.029.029,0,0,1-.033.03.847.847,0,0,0-.1-.07.4.4,0,0,0-.2-.006.831.831,0,0,1-.351-.024c-.077-.024-.143-.07-.222-.092a4.616,4.616,0,0,0-.5-.051c.407.183.813.373,1.22.558.027.014.063.024.077.055s-.033.055-.063.042c-.445-.163-.887-.33-1.331-.492a1.49,1.49,0,0,0,.3.181.83.83,0,0,1,.224.187.933.933,0,0,0,.218.194.962.962,0,0,0,.18.078.373.373,0,0,1,.2.181.121.121,0,0,1,.011.1.027.027,0,0,1-.048.006.49.49,0,0,0-.066-.1.429.429,0,0,0-.182-.079.766.766,0,0,1-.307-.152c-.067-.051-.111-.124-.179-.174-.135-.106-.3-.149-.448-.244.316.336.627.676.941,1.012.019.02.041.052.016.077s-.051,0-.07-.013q-.447-.414-.892-.828c-.047-.042-.093-.087-.142-.129a1.979,1.979,0,0,0,.222.3.8.8,0,0,1,.12.239.954.954,0,0,0,.134.27,1.158,1.158,0,0,0,.131.133.38.38,0,0,1,.117.238.128.128,0,0,1-.027.1.027.027,0,0,1-.046-.011.425.425,0,0,0-.022-.119.416.416,0,0,0-.138-.143.837.837,0,0,1-.224-.255c-.044-.077-.058-.164-.1-.239-.084-.144-.217-.248-.314-.383.159.432.32.862.479,1.292.009.025.012.065-.02.073s-.047-.021-.058-.044q-.266-.578-.532-1.159c-.019-.038-.035-.078-.054-.115a1.278,1.278,0,0,0,.08.327.857.857,0,0,1,.029.293.929.929,0,0,0,.016.3,1.219,1.219,0,0,0,.073.183.381.381,0,0,1,.014.274.118.118,0,0,1-.065.074c-.018,0-.04-.013-.034-.032a.443.443,0,0,0,.025-.119.412.412,0,0,0-.072-.182.806.806,0,0,1-.11-.324c-.01-.085.01-.17,0-.255-.02-.171-.112-.323-.145-.491-.013.46-.034.919-.049,1.38,0,.028-.007.07-.042.071s-.041-.032-.043-.056c-.018-.468-.033-.937-.053-1.406a1.1,1.1,0,0,0-.048.288.839.839,0,0,1-.088.324.908.908,0,0,0-.1.3,1.482,1.482,0,0,1-.018.305.278.278,0,0,1-.127.175c-.025.014-.067,0-.059-.029a1.076,1.076,0,0,0,.068-.1.306.306,0,0,0,.011-.165.9.9,0,0,1,.016-.373c.023-.089.078-.165.1-.255.041-.161.021-.327.047-.49-.187.418-.381.832-.57,1.248-.011.024-.03.058-.062.05s-.03-.047-.02-.071c.162-.442.328-.882.488-1.322a3.912,3.912,0,0,0-.226.369.963.963,0,0,1-.156.168.765.765,0,0,0-.206.253.976.976,0,0,1-.108.226.3.3,0,0,1-.172.124c-.025.007-.07,0-.07-.034s.038-.03.056-.043a.217.217,0,0,0,.111-.134,1.308,1.308,0,0,1,.128-.33.977.977,0,0,1,.174-.19,2.56,2.56,0,0,0,.292-.5c-.328.3-.652.606-.979.908a.218.218,0,0,1-.074.055.036.036,0,0,1-.043-.042.184.184,0,0,1,.051-.071c.265-.284.53-.571.795-.856.044-.05.09-.094.132-.146a2.8,2.8,0,0,0-.336.246.855.855,0,0,1-.219.1.77.77,0,0,0-.287.155,1.759,1.759,0,0,1-.165.157.358.358,0,0,1-.192.064.117.117,0,0,1-.084-.027c-.014-.014-.009-.044.011-.047a.465.465,0,0,0,.12-.022.342.342,0,0,0,.121-.11,1.118,1.118,0,0,1,.209-.211.863.863,0,0,1,.232-.108,2.347,2.347,0,0,0,.457-.348c-.409.149-.817.3-1.227.455a.379.379,0,0,1-.1.029.035.035,0,0,1-.034-.045.083.083,0,0,1,.044-.039c.425-.194.849-.39,1.275-.584a2.54,2.54,0,0,0-.4.095c-.166.037-.336-.017-.5.024-.094.019-.176.077-.269.1a.326.326,0,0,1-.245-.027c-.021-.016-.049-.046-.028-.073s.041,0,.06,0a.207.207,0,0,0,.149,0c.06-.024.115-.062.175-.088a.72.72,0,0,1,.286-.084c.074-.006.149.01.223,0,.176-.019.33-.112.5-.145-.454-.013-.908-.035-1.36-.049a.158.158,0,0,1-.077-.015.035.035,0,0,1,0-.057.083.083,0,0,1,.046-.013c.467-.018.934-.034,1.4-.053a4.048,4.048,0,0,0-.442-.073c-.124-.029-.228-.1-.348-.14a.613.613,0,0,0-.2-.031.669.669,0,0,1-.218-.011.29.29,0,0,1-.18-.123c-.015-.022-.011-.073.026-.067s.054.046.085.063a.219.219,0,0,0,.131.023,1.953,1.953,0,0,1,.262-.016.679.679,0,0,1,.279.074.693.693,0,0,0,.181.063c.146.025.3.012.444.037-.416-.189-.832-.381-1.247-.57a.09.09,0,0,1-.052-.044.035.035,0,0,1,.034-.044.341.341,0,0,1,.1.029c.42.155.837.313,1.256.465-.11-.1-.264-.143-.381-.235a.94.94,0,0,1-.156-.147.79.79,0,0,0-.239-.2,1.18,1.18,0,0,1-.247-.117.3.3,0,0,1-.12-.179c0-.027.013-.071.046-.057s.036.068.061.1a.381.381,0,0,0,.2.095.786.786,0,0,1,.308.152c.066.053.112.124.179.175.134.106.305.149.447.243-.313-.333-.62-.669-.932-1a.1.1,0,0,1-.037-.062.036.036,0,0,1,.052-.03.342.342,0,0,1,.076.062c.33.3.657.61.988.914a2.88,2.88,0,0,0-.246-.336.886.886,0,0,1-.1-.22.8.8,0,0,0-.154-.287,1.336,1.336,0,0,1-.166-.177.329.329,0,0,1-.055-.21c0-.027.019-.065.053-.062s.02.04.024.06a.219.219,0,0,0,.074.156,1.475,1.475,0,0,1,.244.226.808.808,0,0,1,.124.246c.067.19.241.31.354.47-.158-.428-.318-.857-.477-1.285a.115.115,0,0,1-.008-.056.035.035,0,0,1,.053-.019.172.172,0,0,1,.048.079l.567,1.232a2.834,2.834,0,0,0-.1-.412c-.031-.161.017-.325-.02-.484a2.737,2.737,0,0,0-.1-.263.337.337,0,0,1,.029-.262c.015-.025.064-.047.075-.008s-.022.072-.024.108a.221.221,0,0,0,.029.126,1.456,1.456,0,0,1,.121.253.7.7,0,0,1,.033.275.614.614,0,0,0,.018.217c.035.136.1.263.127.4.013-.458.034-.914.051-1.37a.119.119,0,0,1,.013-.067Z" fill="#f4d631"/>
        <path id="Trazado_9673" data-name="Trazado 9673" d="M4826.836-3107.435c0-.016,0-.045.026-.038a.058.058,0,0,1,.012.038q.026.7.053,1.4l-.049-.005c-.006-.21-.013-.421-.022-.632-.011.211-.017.422-.024.634-.016,0-.033,0-.049,0,.017-.467.036-.934.053-1.4Z" fill="#f4d631"/>
        <path id="Trazado_9674" data-name="Trazado 9674" d="M4826.4-3107.4a.054.054,0,0,1,.037-.026.593.593,0,0,0-.027.139.422.422,0,0,0,.068.172.825.825,0,0,1,.112.306c.014.085,0,.17,0,.255.016.183.117.344.15.523l-.051.008c-.027-.159-.114-.3-.142-.461a1.232,1.232,0,0,1-.012-.16.47.47,0,0,0,0,.218,2.354,2.354,0,0,1,.1.415l-.046.009c-.009-.149-.085-.284-.1-.432a1.079,1.079,0,0,1,0-.228.734.734,0,0,0-.04-.323.945.945,0,0,1-.08-.212.289.289,0,0,1,.033-.2Z" fill="#f4d631"/>
        <path id="Trazado_9675" data-name="Trazado 9675" d="M4827.333-3107.4a.077.077,0,0,1,.043-.008.491.491,0,0,0-.079.12.5.5,0,0,0,0,.206.767.767,0,0,1-.021.321c-.021.08-.07.148-.093.229-.051.173-.023.356-.059.532a.493.493,0,0,0-.049-.014c.034-.153.013-.31.04-.463a.7.7,0,0,1,.055-.162.385.385,0,0,0-.082.2,2.193,2.193,0,0,1-.065.411c-.015.006-.031,0-.046,0a1.739,1.739,0,0,0,.051-.348.84.84,0,0,1,.083-.265.856.856,0,0,0,.1-.313,1.6,1.6,0,0,1,.014-.274.272.272,0,0,1,.107-.169Z" fill="#f4d631"/>
        <path id="Trazado_9676" data-name="Trazado 9676" d="M4825.926-3107.289c.023-.01.031.015.039.031q.292.636.582,1.27l-.044.015c-.084-.184-.17-.369-.252-.554a.59.59,0,0,0,.041.125c.057.15.109.3.168.447l-.044.021q-.243-.654-.486-1.311a.065.065,0,0,1,0-.044Z" fill="#f4d631"/>
        <path id="Trazado_9677" data-name="Trazado 9677" d="M4827.764-3107.288c.026-.015.026.022.019.037q-.245.66-.488,1.317c-.015-.006-.027-.013-.043-.018.052-.149.111-.3.165-.444a1.232,1.232,0,0,0,.044-.131c-.085.185-.169.371-.255.555l-.044-.016q.262-.568.521-1.136a1.423,1.423,0,0,1,.081-.164Z" fill="#f4d631"/>
        <path id="Trazado_9678" data-name="Trazado 9678" d="M4825.54-3107.052a.058.058,0,0,1,.024-.035.434.434,0,0,0,.033.149.439.439,0,0,0,.11.114.839.839,0,0,1,.241.26c.041.07.055.152.094.225.084.162.241.272.336.427a.483.483,0,0,1-.043.024c-.084-.133-.216-.231-.3-.362a.668.668,0,0,1-.075-.158.437.437,0,0,0,.115.245,1.9,1.9,0,0,1,.219.3l-.039.029c-.063-.136-.186-.23-.261-.359a1.031,1.031,0,0,1-.083-.19.779.779,0,0,0-.163-.3,1.286,1.286,0,0,1-.16-.171.285.285,0,0,1-.046-.2Z" fill="#f4d631"/>
        <path id="Trazado_9679" data-name="Trazado 9679" d="M4828.025-3106.919a.3.3,0,0,1,.159-.118.1.1,0,0,1,.05.005,1.073,1.073,0,0,0-.109.075.455.455,0,0,0-.087.19.771.771,0,0,1-.142.3c-.053.067-.127.114-.178.184-.111.137-.155.316-.255.463l-.04-.03c.079-.118.122-.256.193-.38a.565.565,0,0,1,.138-.163.4.4,0,0,0-.176.185,1.666,1.666,0,0,1-.2.326.382.382,0,0,1-.037-.023c.1-.12.146-.279.248-.4a1.422,1.422,0,0,1,.163-.16.736.736,0,0,0,.176-.232,1.072,1.072,0,0,1,.1-.215Z" fill="#f4d631"/>
        <path id="Trazado_9680" data-name="Trazado 9680" d="M4825.145-3106.75c-.007-.032.031-.02.042,0q.514.478,1.028.953l-.033.034c-.153-.139-.3-.279-.451-.416.136.152.278.3.415.45l-.032.034q-.454-.492-.911-.982a.5.5,0,0,1-.058-.069Z" fill="#f4d631"/>
        <path id="Trazado_9681" data-name="Trazado 9681" d="M4828.524-3106.754a.042.042,0,0,1,.039-.016c.009.02-.008.035-.019.048l-.949,1.023-.032-.035c.139-.151.281-.3.416-.45-.153.138-.3.278-.45.417-.011-.011-.024-.022-.035-.032l1.03-.955Z" fill="#f4d631"/>
        <path id="Trazado_9682" data-name="Trazado 9682" d="M4824.883-3106.438a.945.945,0,0,0,.079.113.4.4,0,0,0,.185.081.836.836,0,0,1,.3.143c.067.055.115.128.183.179.138.111.317.155.462.254l-.029.042a3.945,3.945,0,0,0-.374-.189.646.646,0,0,1-.17-.144.445.445,0,0,0,.212.19,1.5,1.5,0,0,1,.3.188l-.023.039c-.116-.1-.271-.145-.39-.24a1.151,1.151,0,0,1-.163-.162.75.75,0,0,0-.242-.187,1.044,1.044,0,0,1-.216-.1.293.293,0,0,1-.116-.16.091.091,0,0,1,0-.049Z" fill="#f4d631"/>
        <path id="Trazado_9683" data-name="Trazado 9683" d="M4828.646-3106.329a.275.275,0,0,1,.2-.046.066.066,0,0,1,.034.024.48.48,0,0,0-.142.03.314.314,0,0,0-.1.087,1.415,1.415,0,0,1-.182.2.714.714,0,0,1-.23.122.786.786,0,0,0-.277.171,2.081,2.081,0,0,1-.243.206l-.027-.043c.118-.077.208-.185.318-.272a.7.7,0,0,1,.2-.107.415.415,0,0,0-.2.081,2.5,2.5,0,0,1-.346.253c-.01-.013-.02-.024-.031-.037a4.382,4.382,0,0,0,.354-.259.907.907,0,0,1,.195-.086.829.829,0,0,0,.3-.162,1.018,1.018,0,0,1,.173-.162Z" fill="#f4d631"/>
        <path id="Trazado_9684" data-name="Trazado 9684" d="M4826.791-3106.02a.962.962,0,0,1,.565.138.97.97,0,0,1,.427.568.968.968,0,0,1-.08.711.972.972,0,0,1-.464.427.963.963,0,0,1-.754.005.966.966,0,0,1-.477-.432.968.968,0,0,1-.087-.69.964.964,0,0,1,.387-.558.942.942,0,0,1,.483-.169Z" fill="#f4d631"/>
        <path id="Trazado_9685" data-name="Trazado 9685" d="M4824.624-3105.989c.027-.008.052.008.076.016l1.282.475a.292.292,0,0,0-.021.043c-.173-.067-.346-.13-.518-.194-.018-.007-.037-.011-.055-.016.185.084.369.17.555.254,0,.015-.011.029-.016.044l-1.27-.583c-.017-.009-.039-.017-.033-.039Z" fill="#f4d631"/>
        <path id="Trazado_9686" data-name="Trazado 9686" d="M4829.038-3105.984a.066.066,0,0,1,.047-.005c.008.026-.022.033-.037.042l-1.265.58c-.005-.015-.01-.029-.014-.044.184-.084.369-.171.553-.252a.691.691,0,0,0-.125.04c-.147.057-.3.11-.446.168l-.021-.043,1.308-.486Z" fill="#f4d631"/>
        <path id="Trazado_9687" data-name="Trazado 9687" d="M4824.507-3105.581a.514.514,0,0,0,.121.08.458.458,0,0,0,.2,0,.8.8,0,0,1,.333.021c.079.022.147.07.228.092.172.051.356.022.531.059l-.014.051c-.154-.035-.314-.011-.468-.042a.85.85,0,0,1-.156-.054.4.4,0,0,0,.218.085,2.017,2.017,0,0,1,.4.061c0,.016,0,.032,0,.046-.152-.051-.316-.028-.467-.076-.111-.03-.208-.1-.317-.13a.665.665,0,0,0-.27-.031.394.394,0,0,1-.274-.071.113.113,0,0,1-.051-.092Z" fill="#f4d631"/>
        <path id="Trazado_9688" data-name="Trazado 9688" d="M4828.769-3105.463a1.26,1.26,0,0,1,.226-.084.29.29,0,0,1,.2.032.072.072,0,0,1,.026.039.44.44,0,0,0-.148-.027.4.4,0,0,0-.152.061.938.938,0,0,1-.277.112.967.967,0,0,1-.246.007,2.975,2.975,0,0,0-.573.152c0-.017-.005-.034-.008-.051.16-.028.3-.115.46-.143a1.468,1.468,0,0,1,.16-.011.457.457,0,0,0-.215,0,2.305,2.305,0,0,1-.416.1c0-.016-.007-.031-.01-.045a1.7,1.7,0,0,0,.337-.085.853.853,0,0,1,.285-.025.83.83,0,0,0,.349-.034Z" fill="#f4d631"/>
        <path id="Trazado_9689" data-name="Trazado 9689" d="M4824.52-3105.08l1.36-.05,0,.048c-.207.005-.416.012-.623.022.207.011.416.018.623.024l0,.047q-.7-.024-1.4-.052c-.016,0-.046,0-.038-.027a.188.188,0,0,1,.078-.012Z" fill="#f4d631"/>
        <path id="Trazado_9690" data-name="Trazado 9690" d="M4827.83-3105.13l1.351.05a.286.286,0,0,1,.073.006c.013,0,.017.01.013.022a.052.052,0,0,1-.036.011c-.466.018-.934.036-1.4.052,0-.016,0-.031,0-.047.2-.006.409-.013.614-.024-.205-.011-.41-.017-.614-.022,0-.016,0-.032,0-.048Z" fill="#f4d631"/>
        <path id="Trazado_9691" data-name="Trazado 9691" d="M4825.31-3104.8a3.042,3.042,0,0,0,.574-.152l.006.052c-.167.028-.311.121-.477.146-.046.008-.093,0-.137.009a.45.45,0,0,0,.219-.005,2.074,2.074,0,0,1,.407-.1c0,.015.007.03.011.045-.15.008-.285.085-.433.1a1.078,1.078,0,0,1-.219,0,.726.726,0,0,0-.331.041.863.863,0,0,1-.225.079.274.274,0,0,1-.2-.037.07.07,0,0,1-.02-.034.452.452,0,0,0,.149.026.412.412,0,0,0,.156-.063.9.9,0,0,1,.275-.109.944.944,0,0,1,.243-.008Z" fill="#f4d631"/>
        <path id="Trazado_9692" data-name="Trazado 9692" d="M4827.819-3104.892c0-.016.005-.032.007-.048a2.292,2.292,0,0,0,.386.058.868.868,0,0,1,.227.078.848.848,0,0,0,.321.1,1.361,1.361,0,0,1,.266.012.28.28,0,0,1,.169.106.074.074,0,0,1,.009.045.6.6,0,0,0-.113-.077.282.282,0,0,0-.133-.012,1.37,1.37,0,0,1-.286.011.649.649,0,0,1-.24-.074.733.733,0,0,0-.267-.071,2.909,2.909,0,0,1-.37-.03c.006-.017.009-.033.014-.051.14.032.285.018.425.036a.67.67,0,0,1,.2.06.383.383,0,0,0-.205-.082,2.265,2.265,0,0,1-.409-.064Z" fill="#f4d631"/>
        <path id="Trazado_9693" data-name="Trazado 9693" d="M4825.789-3104.689c.045-.021.091-.04.134-.063a.279.279,0,0,1,.02.043c-.185.085-.37.171-.555.253a.769.769,0,0,0,.131-.042c.148-.055.3-.113.444-.164.006.015.011.028.018.042-.427.159-.854.316-1.281.474a.129.129,0,0,1-.076.016c-.006-.024.017-.031.033-.039l1.132-.52Z" fill="#f4d631"/>
        <path id="Trazado_9694" data-name="Trazado 9694" d="M4827.768-3104.709a.27.27,0,0,1,.019-.043c.424.2.854.391,1.279.588.01.007.028.019.018.033s-.032,0-.045,0l-1.309-.484c.009-.013.01-.05.033-.039.17.064.341.126.511.191.015.005.031.009.048.013-.184-.083-.37-.17-.554-.255Z" fill="#f4d631"/>
        <path id="Trazado_9695" data-name="Trazado 9695" d="M4825.59-3104.254c.155-.086.262-.235.411-.329.009.015.016.029.025.043-.134.086-.23.216-.362.3a.62.62,0,0,1-.158.073.405.405,0,0,0,.225-.1,2.164,2.164,0,0,1,.323-.236c.01.013.02.024.03.038-.135.065-.231.186-.361.262a.93.93,0,0,1-.189.083.767.767,0,0,0-.3.163,1.076,1.076,0,0,1-.173.159.275.275,0,0,1-.2.047.066.066,0,0,1-.033-.024.4.4,0,0,0,.148-.034.436.436,0,0,0,.114-.11.857.857,0,0,1,.259-.238c.076-.045.164-.059.241-.1Z" fill="#f4d631"/>
        <path id="Trazado_9696" data-name="Trazado 9696" d="M4827.683-3104.535c.007-.013.015-.027.022-.041.122.1.284.148.408.252.075.061.131.143.2.207a.638.638,0,0,0,.193.132.9.9,0,0,1,.207.1.277.277,0,0,1,.116.159.079.079,0,0,1,0,.05,1.128,1.128,0,0,0-.074-.111.307.307,0,0,0-.138-.069,1.108,1.108,0,0,1-.272-.107.621.621,0,0,1-.173-.15.666.666,0,0,0-.185-.147c-.119-.066-.25-.111-.363-.187l.028-.042c.119.08.257.123.383.194a.63.63,0,0,1,.163.139.4.4,0,0,0-.175-.169,2.109,2.109,0,0,1-.338-.206Z" fill="#f4d631"/>
        <path id="Trazado_9697" data-name="Trazado 9697" d="M4825.161-3103.391c.319-.343.636-.686.954-1.029l.03.034q-.156.172-.316.343a.84.84,0,0,0-.073.083c.029-.021.055-.049.083-.073.115-.106.227-.211.341-.317l.035.03c-.326.305-.655.609-.982.913a.514.514,0,0,1-.068.058c-.032.008-.018-.031,0-.042Z" fill="#f4d631"/>
        <path id="Trazado_9698" data-name="Trazado 9698" d="M4827.563-3104.386l.033-.034q.472.513.948,1.023c.011.014.027.028.021.046-.021.007-.033-.008-.047-.018l-1.024-.951c.011-.009.024-.02.035-.031l.352.326a.58.58,0,0,0,.074.065c-.126-.147-.262-.282-.392-.426Z" fill="#f4d631"/>
        <path id="Trazado_9699" data-name="Trazado 9699" d="M4825.994-3103.831c.109-.138.152-.316.253-.462a.4.4,0,0,1,.041.03c-.08.117-.123.256-.194.379a.632.632,0,0,1-.137.164.38.38,0,0,0,.156-.155,1.906,1.906,0,0,1,.222-.357c.013.007.025.015.038.023-.107.122-.149.284-.255.406-.06.078-.14.133-.205.205a.612.612,0,0,0-.132.191,1.032,1.032,0,0,1-.1.209.281.281,0,0,1-.16.116.085.085,0,0,1-.048,0c.033-.03.077-.042.109-.075a.407.407,0,0,0,.085-.19.791.791,0,0,1,.148-.3c.051-.066.124-.111.175-.179Z" fill="#f4d631"/>
        <path id="Trazado_9700" data-name="Trazado 9700" d="M4827.42-3104.259l.036-.029a1.929,1.929,0,0,0,.211.285.755.755,0,0,1,.123.235,1.006,1.006,0,0,0,.137.285,1.3,1.3,0,0,0,.132.132.374.374,0,0,1,.115.216c0,.035.006.082-.027.1a.393.393,0,0,0-.037-.155.565.565,0,0,0-.135-.128.807.807,0,0,1-.214-.245c-.042-.073-.056-.154-.1-.227-.085-.159-.238-.267-.333-.418a.365.365,0,0,1,.042-.025c.078.119.187.21.275.321a.628.628,0,0,1,.1.2.615.615,0,0,0-.179-.328,1.155,1.155,0,0,1-.153-.221Z" fill="#f4d631"/>
        <path id="Trazado_9701" data-name="Trazado 9701" d="M4826.222-3103.66c.066-.175.127-.354.2-.527l.039.023c-.066.172-.127.345-.192.517a.234.234,0,0,0-.015.054c.082-.186.168-.369.252-.553.015,0,.03.01.044.015q-.289.636-.582,1.27c-.008.016-.016.039-.039.031a.069.069,0,0,1,.005-.047q.142-.39.291-.783Z" fill="#f4d631"/>
        <path id="Trazado_9702" data-name="Trazado 9702" d="M4827.252-3104.168a.438.438,0,0,0,.043-.017c.157.426.315.853.474,1.278.008.026.024.051.016.077-.023.008-.031-.015-.04-.03q-.267-.586-.537-1.173a.557.557,0,0,1-.042-.1.327.327,0,0,1,.041-.016c.084.185.17.37.253.556a1.1,1.1,0,0,0-.043-.133c-.056-.148-.113-.3-.165-.444Z" fill="#f4d631"/>
        <path id="Trazado_9703" data-name="Trazado 9703" d="M4826.586-3104.119l.051.013a3.958,3.958,0,0,0-.034.423.739.739,0,0,1-.06.2.387.387,0,0,0,.079-.189,2.422,2.422,0,0,1,.066-.424l.046,0c-.049.152-.028.316-.076.468-.031.111-.1.206-.13.316a.673.673,0,0,0-.032.27.389.389,0,0,1-.068.268c-.023.028-.053.061-.093.056a.624.624,0,0,0,.075-.112.287.287,0,0,0,.013-.125,1.4,1.4,0,0,1-.013-.283.688.688,0,0,1,.072-.245.692.692,0,0,0,.073-.255,3.8,3.8,0,0,1,.031-.387Z" fill="#f4d631"/>
        <path id="Trazado_9704" data-name="Trazado 9704" d="M4827.071-3104.1a.184.184,0,0,1,.043-.016,1.7,1.7,0,0,0,.083.329.828.828,0,0,1,.027.294.865.865,0,0,0,.029.333,1.307,1.307,0,0,1,.091.253.268.268,0,0,1-.037.2.071.071,0,0,1-.035.021.331.331,0,0,0,.019-.189,1.891,1.891,0,0,0-.1-.2.716.716,0,0,1-.077-.261c-.007-.079.01-.158,0-.237-.019-.178-.113-.336-.148-.51l.052-.008c.027.159.113.3.142.46.01.054,0,.108.01.161a.449.449,0,0,0,0-.225,2.219,2.219,0,0,1-.1-.4Z" fill="#f4d631"/>
        <path id="Trazado_9705" data-name="Trazado 9705" d="M4826.783-3104.084a.4.4,0,0,0,.049,0c.007.213.013.424.024.633.009-.209.016-.42.022-.631l.049,0q-.026.679-.052,1.361a.165.165,0,0,1-.011.077h-.017a.157.157,0,0,1-.013-.077c-.016-.454-.034-.908-.051-1.361Z" fill="#f4d631"/>
        <path id="Trazado_9706" data-name="Trazado 9706" d="M4826.727-3105.214a.758.758,0,0,1-.205.075,1.254,1.254,0,0,1-.205-.041A.287.287,0,0,0,4826.727-3105.214Zm-.131.033a.249.249,0,0,0,.088-.043.276.276,0,0,0-.072-.072.22.22,0,0,0-.167-.021.262.262,0,0,0-.141.092.671.671,0,0,0,.188.057A.387.387,0,0,0,4826.6-3105.181Zm-.025-.112a.51.51,0,0,1,.081.068.7.7,0,0,1-.094.046A.241.241,0,0,0,4826.571-3105.293Zm-.214.054a.2.2,0,0,1,.086-.061h0c0,.024-.007.106.011.12A.466.466,0,0,1,4826.357-3105.239Zm.369-.008h0Zm-.14-.216a.235.235,0,0,1,.214.187.448.448,0,0,1-.078.319l.039.009c.075-.117.1-.392.017-.467a.375.375,0,0,0-.221-.094.361.361,0,0,0-.166.022.63.63,0,0,0-.182.145A.677.677,0,0,1,4826.586-3105.463Zm.27.825h0c-.008,0-.174.007-.192.012a.794.794,0,0,0,.192.021h0a.787.787,0,0,0,.191-.021c-.016-.005-.183-.012-.191-.012Zm-.095-.252c-.021.008-.1.095-.1-.053,0,0-.04.064-.015.105a.037.037,0,0,0,.039.025.524.524,0,0,1,.091-.013.815.815,0,0,0,.081.011h0s.059-.006.08-.011a.537.537,0,0,1,.091.013c.027,0,.033-.015.04-.025.024-.041-.016-.105-.016-.105,0,.148-.082.061-.1.053a.12.12,0,0,1-.093.05h0A.117.117,0,0,1,4826.761-3104.89Zm-.175-.446a.357.357,0,0,1,.069.042.528.528,0,0,0,.069.046l.032-.01a.8.8,0,0,1-.09-.051.315.315,0,0,0-.144-.064.515.515,0,0,0-.18.039.482.482,0,0,0-.1.095.709.709,0,0,1,.225-.109A.264.264,0,0,1,4826.586-3105.336Zm.4.379a.452.452,0,0,1-.079-.319.238.238,0,0,1,.215-.187.677.677,0,0,1,.376.121.6.6,0,0,0-.182-.145.355.355,0,0,0-.164-.022.379.379,0,0,0-.223.094c-.084.075-.058.35.018.467Zm.278-.36a.224.224,0,0,0-.169.021.331.331,0,0,0-.071.072.247.247,0,0,0,.087.043.387.387,0,0,0,.1.013.669.669,0,0,0,.189-.057A.267.267,0,0,0,4827.266-3105.317Zm-.208.092a.51.51,0,0,1,.081-.068.256.256,0,0,0,.012.114A.732.732,0,0,1,4827.058-3105.225Zm.2.045c.017-.014.013-.1.011-.12h0a.212.212,0,0,1,.086.061A.477.477,0,0,1,4827.255-3105.18Zm-.3.449c-.053-.008-.033.008-.1.008s-.049-.016-.1-.008-.132.1-.132.1.117-.066.125-.067.1.008.108.009h0s.1-.011.107-.009.126.067.126.067S4827.009-3104.723,4826.956-3104.731Zm.233-.408a.719.719,0,0,1-.205-.075.287.287,0,0,0,.41.034A1.276,1.276,0,0,1,4827.189-3105.139Zm-.114.526c-.053,0-.081.031-.121.057-.067.043-.1.033-.1.032h0s-.032.011-.1-.032c-.041-.026-.067-.058-.121-.057.058.032.1.075.126.091a.273.273,0,0,0,.08.026.645.645,0,0,0-.088.042.161.161,0,0,0-.043.088s.042-.049.068-.074a.115.115,0,0,1,.077-.022h0a.112.112,0,0,1,.075.022c.027.025.069.074.069.074a.158.158,0,0,0-.043-.088.559.559,0,0,0-.089-.042.28.28,0,0,0,.081-.026C4826.98-3104.538,4827.018-3104.581,4827.075-3104.613Zm.294-.721a.525.525,0,0,0-.18-.039.31.31,0,0,0-.145.064.7.7,0,0,1-.091.051.233.233,0,0,1,.033.01.689.689,0,0,0,.071-.046.308.308,0,0,1,.067-.042.264.264,0,0,1,.121-.012.725.725,0,0,1,.225.109A.5.5,0,0,0,4827.369-3105.334Zm-.383.086h0Z" fill="#f4d631"/>
      </g>
    </g>
    <g id="Grupo_6345" data-name="Grupo 6345" transform="translate(31)">
      <rect id="Rect치ngulo_4056" data-name="Rect치ngulo 4056" width="16" height="16" rx="1" transform="translate(-7875 -5457)" fill="none" stroke="#f7f7f7" stroke-width="1"/>
    </g>
  </g>
</svg>
