<svg xmlns="http://www.w3.org/2000/svg" width="14.008" height="15.963" viewBox="0 0 14.008 15.963">
  <g id="Grupo_27691" data-name="Grupo 27691" transform="translate(-6039 -384.649)">
    <path id="Trazado_30338" data-name="Trazado 30338" d="M1376.664,400.524a3.076,3.076,0,0,0-2.362,1.119l-1.912-1.147a3.256,3.256,0,0,0-.272-2.818l2.2-1.763a2.735,2.735,0,0,0,1.364.374,2.769,2.769,0,1,0-2.77-2.769,2.742,2.742,0,0,0,.287,1.2l-2.216,1.774a3.419,3.419,0,1,0,.522,5.37l2.109,1.265a2.991,2.991,0,0,0-.05.487,3.095,3.095,0,1,0,3.095-3.095Zm-.977-8.145a1.14,1.14,0,1,1-1.14,1.14A1.142,1.142,0,0,1,1375.687,392.379Zm-6.516,8.8a1.792,1.792,0,1,1,1.792-1.792A1.793,1.793,0,0,1,1369.171,401.175Zm7.493,3.909a1.466,1.466,0,1,1,1.466-1.466A1.468,1.468,0,0,1,1376.664,405.085Z" transform="translate(4673.25 -6.101)" fill="#33b8ff"/>
  </g>
</svg>
