<?xml version="1.0" encoding="utf-8"?>
<!-- Generator: Adobe Illustrator 24.0.3, SVG Export Plug-In . SVG Version: 6.00 Build 0)  -->
<svg version="1.1" id="Capa_1" xmlns="http://www.w3.org/2000/svg" xmlns:xlink="http://www.w3.org/1999/xlink" x="0px" y="0px"
	 viewBox="0 0 100 100" style="enable-background:new 0 0 100 100;" xml:space="preserve">
<style type="text/css">
	.st0{fill:#0053C0;}
</style>
<title>vectores</title>
<path class="st0" d="M84.9,2H15.1C7.9,2,2,7.9,2,15.1v21.8h8.7V15.1c0-2.4,2-4.4,4.4-4.4l0,0h69.8c2.4,0,4.4,2,4.4,4.4l0,0v69.8
	c0,2.4-2,4.4-4.4,4.4l0,0H15.1c-2.4,0-4.4-2-4.4-4.4l0,0V63.5H2v21.5C2,92.1,7.9,98,15.1,98h69.8C92.1,98,98,92.1,98,84.9V15.1
	C98,7.9,92.1,2,84.9,2z"/>
<polygon class="st0" points="2,54.4 44.1,54.4 33.8,64.7 40,70.8 60.7,50.1 40,29.4 33.8,35.5 43.9,45.6 2,45.6 "/>
</svg>
