<svg xmlns="http://www.w3.org/2000/svg" width="13.696" height="13.696" viewBox="0 0 13.696 13.696">
  <g id="Grupo_27519" data-name="Grupo 27519" transform="translate(-2603 -1710.81)">
    <g id="Grupo_27515" data-name="Grupo 27515">
      <g id="Grupo_27513" data-name="Grupo 27513" transform="translate(2604 1711.81)">
        <path id="Unión_36" data-name="Unión 36" d="M.6,0H4.338a.6.6,0,0,1,.6.6V4.338a.6.6,0,0,1-.6.6H.6a.6.6,0,0,1-.6-.6V.6A.6.6,0,0,1,.6,0Z" transform="translate(1.299 5.365)" fill="#00A7FF"/>
        <path id="Unión_39" data-name="Unión 39" d="M.6,0H4.338a.6.6,0,0,1,.6.6V4.338a.6.6,0,0,1-.6.6H.6a.6.6,0,0,1-.6-.6V.6A.6.6,0,0,1,.6,0Z" transform="translate(5.198 1.466)" fill="#00A7FF"/>
        <g id="Unión_41" data-name="Unión 41" transform="translate(0 0)" fill="none" stroke-linecap="round">
          <path d="M.6,11.7a.6.6,0,0,1-.6-.6V4.5a.6.6,0,0,1,.6-.6H3.9V.6A.6.6,0,0,1,4.5,0h6.6a.6.6,0,0,1,.6.6V7.2a.6.6,0,0,1-.6.6H7.8v3.3a.6.6,0,0,1-.6.6Z" stroke="none"/>
          <path d="M 7.197299957275391 11.69640064239502 C 7.528500080108643 11.69640064239502 7.796700000762939 11.42730045318604 7.796700000762939 11.09609985351562 L 7.796700000762939 7.797600269317627 L 11.09609985351562 7.797600269317627 C 11.42730045318604 7.797600269317627 11.69550037384033 7.528500556945801 11.69550037384033 7.197300434112549 L 11.69550037384033 0.6003003120422363 C 11.69550037384033 0.2682003080844879 11.42730045318604 3.211975183603499e-07 11.09609985351562 3.211975183603499e-07 L 4.498200416564941 3.211975183603499e-07 C 4.167000293731689 3.211975183603499e-07 3.898800134658813 0.2682003080844879 3.898800134658813 0.6003003120422363 L 3.898800134658813 3.898800373077393 L 0.6003001928329468 3.898800373077393 C 0.2682001888751984 3.898800373077393 1.86920161127091e-07 4.167000293731689 1.86920161127091e-07 4.498200416564941 L 1.86920161127091e-07 11.09609985351562 C 1.86920161127091e-07 11.42730045318604 0.2682001888751984 11.69640064239502 0.6003001928329468 11.69640064239502 L 7.197299957275391 11.69640064239502 M 7.197299957275391 12.69640064239502 L 0.6003001928329468 12.69640064239502 C -0.2821098268032074 12.69640064239502 -0.9999998211860657 11.9785099029541 -0.9999998211860657 11.09609985351562 L -0.9999998211860657 4.498200416564941 C -0.9999998211860657 3.616290330886841 -0.2821098268032074 2.898800373077393 0.6003001928329468 2.898800373077393 L 2.898800134658813 2.898800373077393 L 2.898800134658813 0.6003003120422363 C 2.898800134658813 -0.2821096777915955 3.616290092468262 -0.9999997019767761 4.498200416564941 -0.9999997019767761 L 11.09609985351562 -0.9999997019767761 C 11.9780101776123 -0.9999997019767761 12.69550037384033 -0.2821096777915955 12.69550037384033 0.6003003120422363 L 12.69550037384033 7.197300434112549 C 12.69550037384033 8.079710006713867 11.9780101776123 8.797600746154785 11.09609985351562 8.797600746154785 L 8.796700477600098 8.797600746154785 L 8.796700477600098 11.09609985351562 C 8.796700477600098 11.9785099029541 8.07921028137207 12.69640064239502 7.197299957275391 12.69640064239502 Z" stroke="none" fill="#00A7FF"/>
        </g>
      </g>
    </g>
  </g>
</svg>
