<svg xmlns="http://www.w3.org/2000/svg" width="11.696" height="13.328" viewBox="0 0 11.696 13.328">
  <g id="Grupo_27517" data-name="Grupo 27517" transform="translate(-2605.17 -1779.473)">
    <g id="Grupo_27511" data-name="Grupo 27511" transform="translate(2605.17 1779.473)">
      <path id="Trazado_30338" data-name="Trazado 30338" d="M1374.862,398.91a2.568,2.568,0,0,0-1.972.934l-1.6-.957a2.719,2.719,0,0,0-.226-2.353l1.84-1.472a2.284,2.284,0,0,0,1.139.312,2.312,2.312,0,1,0-2.312-2.312,2.285,2.285,0,0,0,.24,1l-1.85,1.481a2.855,2.855,0,1,0,.435,4.483l1.761,1.056a2.453,2.453,0,0,0-.042.406,2.584,2.584,0,1,0,2.584-2.584Zm-.816-6.8a.952.952,0,1,1-.952.952A.953.953,0,0,1,1374.046,392.11Zm-5.44,7.344a1.5,1.5,0,1,1,1.5-1.5A1.5,1.5,0,0,1,1368.606,399.454Zm6.256,3.264a1.224,1.224,0,1,1,1.224-1.224A1.226,1.226,0,0,1,1374.862,402.718Z" transform="translate(-1365.75 -390.75)" fill="#00A7FF"/>
    </g>
  </g>
</svg>
