<svg xmlns="http://www.w3.org/2000/svg" width="18.938" height="21.4" viewBox="0 0 18.938 21.4">
  <g id="Grupo_26762" data-name="Grupo 26762" transform="translate(19.468 -21.039) rotate(90)">
    <g id="Grupo_26710" data-name="Grupo 26710" transform="translate(21.239 0.73)">
      <path id="Trazado_30175" data-name="Trazado 30175" d="M41.492,8.873H21.985a.747.747,0,0,1-.746-.746V1.476A.747.747,0,0,1,21.985.73H41.492a.747.747,0,0,1,.748.746v6.65A.747.747,0,0,1,41.492,8.873ZM22.733,7.38H40.745V2.223H22.733Z" transform="translate(-21.239 -0.73)" fill="#8d96a5" stroke="#8c95a4" stroke-width="0.4"/>
    </g>
    <g id="Grupo_26561" data-name="Grupo 26561" transform="translate(24.198 3.865)">
      <g id="Rectángulo_4025-3" data-name="Rectángulo 4025-3" transform="translate(10.245)">
        <rect id="Rectángulo_5155" data-name="Rectángulo 5155" width="1.935" height="1.874" fill="#8d96a5"/>
      </g>
      <g id="Rectángulo_4025-4" data-name="Rectángulo 4025-4">
        <rect id="Rectángulo_5156" data-name="Rectángulo 5156" width="6.257" height="1.874" fill="#8d96a5"/>
      </g>
      <g id="Rectángulo_4026-2" data-name="Rectángulo 4026-2" transform="translate(13.146)">
        <rect id="Rectángulo_5157" data-name="Rectángulo 5157" width="1.935" height="1.874" fill="#8d96a5"/>
      </g>
    </g>
    <g id="Grupo_26711" data-name="Grupo 26711" transform="translate(21.239 11.124)">
      <path id="Trazado_30176" data-name="Trazado 30176" d="M41.492,17.646H21.985a.747.747,0,0,1-.746-.746V10.248a.747.747,0,0,1,.746-.746H41.492a.748.748,0,0,1,.748.746V16.9A.748.748,0,0,1,41.492,17.646ZM22.733,16.152H40.745V10.995H22.733Z" transform="translate(-21.239 -9.502)" fill="#8d96a5" stroke="#8c95a4" stroke-width="0.4"/>
    </g>
    <g id="Grupo_26561-2" data-name="Grupo 26561" transform="translate(24.198 14.259)">
      <g id="Rectángulo_4025-3-2" data-name="Rectángulo 4025-3" transform="translate(10.245)">
        <rect id="Rectángulo_5158" data-name="Rectángulo 5158" width="1.935" height="1.874" fill="#8d96a5"/>
      </g>
      <g id="Rectángulo_4025-4-2" data-name="Rectángulo 4025-4">
        <rect id="Rectángulo_5159" data-name="Rectángulo 5159" width="6.257" height="1.874" fill="#8d96a5"/>
      </g>
      <g id="Rectángulo_4026-2-2" data-name="Rectángulo 4026-2" transform="translate(13.146)">
        <rect id="Rectángulo_5160" data-name="Rectángulo 5160" width="1.935" height="1.874" fill="#8d96a5"/>
      </g>
    </g>
  </g>
</svg>
