<svg xmlns="http://www.w3.org/2000/svg" width="19.957" height="17.238" viewBox="0 0 19.957 17.238">
  <g id="ico-maquina" transform="translate(0 0.002)">
    <path id="Unión_26" data-name="Unión 26" d="M1.816,17.239A1.819,1.819,0,0,1,0,15.424V1.815A1.819,1.819,0,0,1,1.816,0H18.144a1.819,1.819,0,0,1,1.814,1.815V15.424a1.819,1.819,0,0,1-1.814,1.815Zm0-1.815H18.144V10H1.816ZM18.144,8.108V1.815H1.816V8.108Z" transform="translate(0 -0.002)" fill="#97a0af"/>
    <g id="Grupo_26560" data-name="Grupo 26560" transform="translate(3.223 4.092)">
      <rect id="Rectángulo_4025" data-name="Rectángulo 4025" width="1.815" height="1.757" transform="translate(8.107)" fill="#97a0af"/>
      <rect id="Rectángulo_4025-2" data-name="Rectángulo 4025" width="5.868" height="1.757" transform="translate(0)" fill="#97a0af"/>
      <rect id="Rectángulo_4026" data-name="Rectángulo 4026" width="1.815" height="1.757" transform="translate(10.828)" fill="#97a0af"/>
    </g>
    <g id="Grupo_26561" data-name="Grupo 26561" transform="translate(3.223 12.199)">
      <rect id="Rectángulo_4025-3" data-name="Rectángulo 4025" width="1.815" height="1.757" transform="translate(8.107 0)" fill="#97a0af"/>
      <rect id="Rectángulo_4025-4" data-name="Rectángulo 4025" width="5.868" height="1.757" transform="translate(0 0)" fill="#97a0af"/>
      <rect id="Rectángulo_4026-2" data-name="Rectángulo 4026" width="1.815" height="1.757" transform="translate(10.828 0)" fill="#97a0af"/>
    </g>
  </g>
</svg>
