<svg xmlns="http://www.w3.org/2000/svg" width="22.824" height="22.879" viewBox="0 0 22.824 22.879">
  <g id="Grupo_26950" data-name="Grupo 26950" transform="translate(3.291 3.359)">
    <path id="Trazado_29999" data-name="Trazado 29999" d="M896.02,555.347a6.683,6.683,0,0,1,5.664,3.107l-1.624,1.607h4.081v-4.04l-1.476,1.461a8.081,8.081,0,0,0-14.726,4.6h1.347A6.742,6.742,0,0,1,896.02,555.347Z" transform="translate(-281.676 -1009.208) rotate(42)" fill="#fafbfc"/>
    <path id="Trazado_30000" data-name="Trazado 30000" d="M896.122,572.734a6.682,6.682,0,0,1-5.664-3.107l1.624-1.607H888v4.04l1.476-1.461A8.081,8.081,0,0,0,904.2,566h-1.347A6.741,6.741,0,0,1,896.122,572.734Z" transform="translate(-279.068 -1012.134) rotate(42)" fill="#fafbfc"/>
    <g id="Grupo_26951" data-name="Grupo 26951" transform="translate(-117.461 -1029.858)">
      <path id="Trazado_30203" data-name="Trazado 30203" d="M121.123,1040.737l2.021,2.021a1.163,1.163,0,0,0,.828.342h0a1.165,1.165,0,0,0,.829-.342l1.658-1.658a1.175,1.175,0,0,0,0-1.658l-.13-.129,3.5-3.57v-1.723H128.11l-3.551,3.522-.12-.12a1.2,1.2,0,0,0-1.658,0l-1.658,1.658A1.174,1.174,0,0,0,121.123,1040.737Zm7.308-5.936h.62v.622l-.192.2-.313-.312-.552.552.318.318-.614.625-.324-.324-.552.552.329.329-.614.626-.335-.335-.552.552.34.34-.213.216-.666-.666Zm-6.756,4.831,1.658-1.658a.393.393,0,0,1,.552,0l2.02,2.021a.391.391,0,0,1,0,.553l-1.657,1.657a.4.4,0,0,1-.552,0l-2.02-2.021A.391.391,0,0,1,121.676,1039.632Z" fill="#fafbfc"/>
      <path id="Trazado_30204" data-name="Trazado 30204" d="M126.617,1050.687a.391.391,0,1,0-.552,0A.391.391,0,0,0,126.617,1050.687Z" transform="translate(-3.149 -9.75)" fill="#fafbfc"/>
    </g>
  </g>
</svg>
