<svg xmlns="http://www.w3.org/2000/svg" width="50" height="50" viewBox="0 0 50 50">
  <g id="Grupo_27485" data-name="Grupo 27485" transform="translate(-2424 -1746)">
    <g id="Grupo_27482" data-name="Grupo 27482">
      <rect id="Rectángulo_5381" data-name="Rectángulo 5381" width="50" height="50" rx="4" transform="translate(2424 1746)" fill="#62D0FF"/>
      <g id="Grupo_27453" data-name="Grupo 27453" transform="translate(2439 1759)">
        <path id="Trazado_30338" data-name="Trazado 30338" d="M1381.728,405.058a4.5,4.5,0,0,0-3.458,1.638l-2.8-1.679a4.77,4.77,0,0,0-.4-4.126l3.226-2.581a4.006,4.006,0,0,0,2,.547,4.054,4.054,0,1,0-4.055-4.054,4.007,4.007,0,0,0,.42,1.762l-3.245,2.6a5.006,5.006,0,1,0,.763,7.862l3.088,1.852a4.292,4.292,0,0,0-.073.713,4.531,4.531,0,1,0,4.531-4.531Zm-1.43-11.924a1.669,1.669,0,1,1-1.67,1.669A1.671,1.671,0,0,1,1380.3,393.135Zm-9.54,12.878a2.623,2.623,0,1,1,2.623-2.623A2.625,2.625,0,0,1,1370.758,406.012Zm10.97,5.723a2.146,2.146,0,1,1,2.146-2.146A2.15,2.15,0,0,1,1381.728,411.736Z" transform="translate(-1365.75 -390.75)" fill="#fff"/>
      </g>
    </g>
  </g>
</svg>
