<svg id="Capa_1" data-name="Capa 1" xmlns="http://www.w3.org/2000/svg" viewBox="0 0 100 100">
  <defs>
    <style>
      .cls-1 {
        fill: #97a0af;
      }
    </style>
  </defs>
  <title>vectores</title>
  <path id="Trazado_30075" data-name="Trazado 30075" class="cls-1" d="M47,61.11V87.42L21.54,72.69V46.39Zm32.47-4.5V72.7L54,87.43V61.13l14.3-8.25-.09-8L50.57,55.07,22.45,38.83,50.57,22.59l0-8.09L14.58,35.25v41.5l36,20.75L86.46,76.75V54.47Z"/>
  <path class="cls-1" d="M80.24,45.48l-.09-14,14-.1a2.85,2.85,0,1,0,0-5.69l-14,.09-.1-14a2.85,2.85,0,1,0-5.69,0l.1,14-14,.1a2.85,2.85,0,1,0,0,5.69l14-.1.1,14a2.8,2.8,0,0,0,.83,2,2.84,2.84,0,0,0,4.86-2Z"/>
</svg>
