<svg xmlns="http://www.w3.org/2000/svg" width="11.696" height="13.249" viewBox="0 0 11.696 13.249">
  <g id="Grupo_27520" data-name="Grupo 27520" transform="translate(-2604 -1811.203)">
    <g id="Grupo_27518" data-name="Grupo 27518">
      <g id="Grupo_27512" data-name="Grupo 27512" transform="translate(2604 1811.203)">
        <g id="Grupo_27507" data-name="Grupo 27507" transform="translate(11.696) rotate(90)">
          <path id="Trazado_30175" data-name="Trazado 30175" d="M12.778,5.137H.471A.471.471,0,0,1,0,4.666V.471A.471.471,0,0,1,.471,0H12.778a.471.471,0,0,1,.472.471v4.2A.471.471,0,0,1,12.778,5.137ZM.943,4.2H12.307V.942H.943Z" fill="#00A7FF"/>
        </g>
        <g id="Grupo_26561" data-name="Grupo 26561" transform="translate(9.718 1.867) rotate(90)">
          <g id="Rectángulo_4025-3" data-name="Rectángulo 4025-3" transform="translate(6.463)">
            <rect id="Rectángulo_5155" data-name="Rectángulo 5155" width="1.221" height="1.182" fill="#00A7FF"/>
          </g>
          <g id="Rectángulo_4025-4" data-name="Rectángulo 4025-4">
            <rect id="Rectángulo_5156" data-name="Rectángulo 5156" width="3.948" height="1.182" fill="#00A7FF"/>
          </g>
          <g id="Rectángulo_4026-2" data-name="Rectángulo 4026-2" transform="translate(8.294)">
            <rect id="Rectángulo_5157" data-name="Rectángulo 5157" width="1.221" height="1.182" fill="#00A7FF"/>
          </g>
        </g>
        <g id="Grupo_27508" data-name="Grupo 27508" transform="translate(5.138) rotate(90)">
          <path id="Trazado_30176" data-name="Trazado 30176" d="M12.778,5.138H.471A.471.471,0,0,1,0,4.667V.471A.471.471,0,0,1,.471,0H12.778a.472.472,0,0,1,.472.471v4.2A.472.472,0,0,1,12.778,5.138ZM.943,4.2H12.307V.942H.943Z" transform="translate(0 0)" fill="#00A7FF"/>
        </g>
        <g id="Grupo_26561-2" data-name="Grupo 26561" transform="translate(3.161 1.867) rotate(90)">
          <g id="Rectángulo_4025-3-2" data-name="Rectángulo 4025-3" transform="translate(6.463)">
            <rect id="Rectángulo_5158" data-name="Rectángulo 5158" width="1.221" height="1.182" fill="#00A7FF"/>
          </g>
          <g id="Rectángulo_4025-4-2" data-name="Rectángulo 4025-4">
            <rect id="Rectángulo_5159" data-name="Rectángulo 5159" width="3.948" height="1.182" fill="#00A7FF"/>
          </g>
          <g id="Rectángulo_4026-2-2" data-name="Rectángulo 4026-2" transform="translate(8.294)">
            <rect id="Rectángulo_5160" data-name="Rectángulo 5160" width="1.221" height="1.182" fill="#00A7FF"/>
          </g>
        </g>
      </g>
    </g>
  </g>
</svg>
