<svg id="Grupo_26524" data-name="Grupo 26524" xmlns="http://www.w3.org/2000/svg" width="16.242" height="16.162" viewBox="0 0 16.242 16.162">
  <path id="Trazado_29998" data-name="Trazado 29998" d="M898.02,562.02h1.347a.674.674,0,0,1,.674.673h1.347a2.023,2.023,0,0,0-2.02-2.02V560H898.02v.673a2.02,2.02,0,0,0,0,4.04h1.347a.673.673,0,1,1,0,1.347H898.02a.674.674,0,0,1-.673-.673H896a2.023,2.023,0,0,0,2.02,2.02v.673h1.347v-.673a2.02,2.02,0,1,0,0-4.04H898.02a.673.673,0,0,1,0-1.347Z" transform="translate(-890.572 -555.96)" fill="#6b778c"/>
  <path id="Trazado_29999" data-name="Trazado 29999" d="M896.02,555.347a6.683,6.683,0,0,1,5.664,3.107l-1.624,1.607h4.081v-4.04l-1.476,1.461a8.081,8.081,0,0,0-14.726,4.6h1.347A6.742,6.742,0,0,1,896.02,555.347Z" transform="translate(-887.939 -554)" fill="#6b778c"/>
  <path id="Trazado_30000" data-name="Trazado 30000" d="M896.122,572.734a6.682,6.682,0,0,1-5.664-3.107l1.624-1.607H888v4.04l1.476-1.461A8.081,8.081,0,0,0,904.2,566h-1.347A6.741,6.741,0,0,1,896.122,572.734Z" transform="translate(-887.959 -557.919)" fill="#6b778c"/>
</svg>
