<svg xmlns="http://www.w3.org/2000/svg" width="270" height="40.927" viewBox="0 0 270 40.927"><defs><style>.a{fill:#231f20;}.b{fill:#367faf;}.c{fill:#417ba2;}</style></defs><g transform="translate(-9.99 -6.816)"><path class="a" d="M84.569,28.777H74.144V18.292H85.135q6.035,0,6.035,5.324,0,5.162-6.6,5.162M92.062,18.17a8.692,8.692,0,0,0-6-1.919l-14.93.083V41.418h3.008l-.027-10.679h11.11a10.26,10.26,0,0,0,6.579-1.919,6.439,6.439,0,0,0,2.4-5.325,6.783,6.783,0,0,0-2.143-5.325Zm19.471,17.98a5.139,5.139,0,0,1-1.428,2.134q-2.021,1.973-6.169,1.972a7.951,7.951,0,0,1-5.75-1.917,6.785,6.785,0,0,1-2.006-5.133,7.878,7.878,0,0,1,.525-2.971,5.815,5.815,0,0,1,1.522-2.189,8.162,8.162,0,0,1,5.71-1.891q8.054,0,8.054,7.051a8.89,8.89,0,0,1-.449,2.944m.545-9.254c-1.833-1.671-4.546-2.516-8.142-2.516q-5.094,0-7.872,2.561A8.11,8.11,0,0,0,93.559,33.2,8.2,8.2,0,0,0,96.147,39.5a8.649,8.649,0,0,0,3.33,1.874,15.365,15.365,0,0,0,4.462.579c3.576,0,6.289-.827,8.169-2.48a8.026,8.026,0,0,0,2.516-6.282,8.028,8.028,0,0,0-2.534-6.309Zm22.747,9.979q0,5.064-9.074,5.064a26.1,26.1,0,0,1-4.672-.352,8.007,8.007,0,0,1-3.083-1.166,4.51,4.51,0,0,1-1.455-1.617,6.781,6.781,0,0,1-.7-2.516l2.815-.027a3.232,3.232,0,0,0,1.478,2.936q1.586,1.132,5.618,1.132,6.342,0,6.343-3.179a2.631,2.631,0,0,0-2.127-2.561q-.431-.135-5.121-.713A32.535,32.535,0,0,1,119,32.84a3.6,3.6,0,0,1-2.5-3.583,4.035,4.035,0,0,1,2.246-3.772,11.087,11.087,0,0,1,2.764-.8,22.977,22.977,0,0,1,3.842-.283q8.735,0,8.735,5.48H131.4c0-2.57-2.048-3.863-6.141-3.863a10.816,10.816,0,0,0-4.659.782,2.534,2.534,0,0,0-1.535,2.4q0,1.509,2.074,2.183a42.433,42.433,0,0,0,5.576.809,19.686,19.686,0,0,1,5.36.988,3.765,3.765,0,0,1,2.774,3.663Zm11.056,4.576-1.146.162-.714.054a7.5,7.5,0,0,1-3.965-.8,3.057,3.057,0,0,1-1.216-2.785V26.625h-3.33V24.942h3.313l.027-5.409h2.566v5.409H145.9v1.711l-4.469-.027V37.763a1.945,1.945,0,0,0,.66,1.707,4.348,4.348,0,0,0,2.357.473,2.054,2.054,0,0,0,.539-.018q.449-.08.889-.2l.027,1.707Zm17.749-3.8a7.635,7.635,0,0,1-2.4,1.321,9.559,9.559,0,0,1-3.1.449q-8.051,0-8.05-6.648a6.017,6.017,0,0,1,2.06-4.846,8.7,8.7,0,0,1,5.8-1.75,8.272,8.272,0,0,1,5.721,1.764,6.056,6.056,0,0,1,1.952,4.726,6.276,6.276,0,0,1-1.993,4.98m4.56-12.7h-2.566l-.027,2.83a17.12,17.12,0,0,0-2.426-2.181,11.515,11.515,0,0,0-5.577-1.184q-5.011,0-7.651,2.289a7.493,7.493,0,0,0-2.5,6.086,9.12,9.12,0,0,0,.633,3.5,7.076,7.076,0,0,0,1.848,2.625q2.644,2.207,7.475,2.208,5.8,0,8.23-3.173V40.88a5.443,5.443,0,0,1-1.765,4.338c-1.176,1.024-3.111,1.527-5.806,1.527-2.534,0-4.338-.359-5.415-1.046a4.337,4.337,0,0,1-1.671-2.79h-2.641a5.537,5.537,0,0,0,2.336,4.01c1.473.951,3.953,1.426,7.457,1.426q10.053,0,10.062-7.475V24.953Zm13.881,1.665a13.381,13.381,0,0,0-2.153-.18q-6.327,0-6.327,6.939v8.045h-2.539l-.027-16.461,2.567.025v2.938h.135a5.147,5.147,0,0,1,2.047-2.632,9.523,9.523,0,0,1,4.577-.868h1.722v2.21Zm2.387,5.533a7.348,7.348,0,0,1,2.18-4.345,7.659,7.659,0,0,1,2.5-1.336,10.351,10.351,0,0,1,3.152-.446,8.252,8.252,0,0,1,5.588,1.876,5.5,5.5,0,0,1,2.167,4.25H184.468m15.842-5.078a8.227,8.227,0,0,0-3.342-2,15.068,15.068,0,0,0-4.672-.649q-4.986,0-7.737,2.318a7.812,7.812,0,0,0-2.749,6.309,8.053,8.053,0,0,0,2.641,6.334c1.9,1.725,4.582,2.587,8.057,2.587a14.912,14.912,0,0,0,3.839-.47,10.591,10.591,0,0,0,3.085-1.33,7.186,7.186,0,0,0,2.938-4.106H199.6q-1.429,4.222-7.11,4.223a8.564,8.564,0,0,1-6.168-2.065,6.043,6.043,0,0,1-1.858-4.586h18.295a8.655,8.655,0,0,0-2.453-6.559Z" transform="translate(-5.989 -0.755)"/><path class="b" d="M245.012,34.626q0,7.331-11.825,7.331-7.085,0-10.344-2.516-2.668-2.075-2.667-6.332h3.173q0,6.843,9.836,6.843,4.717,0,6.828-1.4a4.393,4.393,0,0,0,1.779-3.876,3.705,3.705,0,0,0-2.426-3.662,40.11,40.11,0,0,0-6.711-1.427q-6.711-1.024-8.7-2.046a5.3,5.3,0,0,1-2.875-5.116,5.594,5.594,0,0,1,2.453-5.008q2.641-1.8,9.054-1.8,11.59,0,11.59,7.7h-3.2q0-5.768-8.605-5.766-4.317,0-6.312,1.168a4.075,4.075,0,0,0-1.887,3.639,3.586,3.586,0,0,0,2.426,3.531,44.4,44.4,0,0,0,7.6,1.644q5.93.889,8,2.066a5.187,5.187,0,0,1,2.83,5.031ZM270.8,37.12a12.4,12.4,0,0,1-4.019,2.138,16.465,16.465,0,0,1-5.017.712,13.419,13.419,0,0,1-9.159-3.053,10.262,10.262,0,0,1-3.492-8.137,10.273,10.273,0,0,1,3.465-8.258,13.661,13.661,0,0,1,9.185-2.959q5.8,0,9.117,3.093a9.349,9.349,0,0,1,2.589,3.525,11.9,11.9,0,0,1,.836,4.6,10.5,10.5,0,0,1-3.507,8.337m1.687,1.664a10.921,10.921,0,0,0,3.668-4.239,13.208,13.208,0,0,0,1.188-5.748,12.061,12.061,0,0,0-3.881-9.369,13.081,13.081,0,0,0-5.013-2.88,21.964,21.964,0,0,0-6.711-.943q-7.331,0-11.5,3.553a11.991,11.991,0,0,0-4.178,9.638,12,12,0,0,0,4.216,9.556q4.217,3.633,11.518,3.634a28.185,28.185,0,0,0,4.984-.386,12.206,12.206,0,0,0,3.612-1.186l4.688,3.25,1.959-1.8-4.54-3.079ZM301.1,41.349H279.4V16.229l2.981-.054V39.244h18.731l-.027,2.1Z" transform="translate(-21.126 -0.689)"/><g transform="translate(-432.815 -311.135)"><path class="c" d="M464.422,343.359a.828.828,0,0,0-1,.163c-.014.016-.029.032-.045.047-.293.277-.505.506-.684.7-.816.876-1.188,1.173-3.578,1.592-.27.046-.479.094-.639.138a3.614,3.614,0,0,0,.578.176c1.789.375,4.275.406,5.964-1.6a.5.5,0,0,0,.074-.479A1.149,1.149,0,0,0,464.422,343.359Z"/><path class="c" d="M456.082,336.358a22.06,22.06,0,0,0,.108-5.106l0-.013c0-.012-.009-.024-.009-.037-.007-.218-.128-5.379,3.183-8.746.14-.143.291-.269.439-.4-2.564-.688-8.577-1.913-11.916.62-1.745,1.323-2.537,3.561-2.353,6.651.15,2.424,3.369,15.019,7.079,16.4.471.176,1.213.286,2.232-.756,1.413-1.44,2.728-2.664,3.421-3.3a6.156,6.156,0,0,1-.769-.693A5.481,5.481,0,0,1,456.082,336.358Z"/><path class="c" d="M463.022,339.818c.087-.211.238-.5.4-.8.748-1.408,1.679-3.16.6-7.375a1.727,1.727,0,0,0-1.332-1.355c-1.762-.47-4.419.668-5.115,1.138a23.274,23.274,0,0,1-.142,5.138,4.074,4.074,0,0,0,1.071,3.488,5.144,5.144,0,0,0,3.776,1.615A6.322,6.322,0,0,1,463.022,339.818Zm-1.914-8.337a.559.559,0,0,1-.141-.417c.063-.38.7-.474,1.318-.4a1.75,1.75,0,0,1,1.078.434.359.359,0,0,1,.075.283l-.03.082a1.291,1.291,0,0,1-1.1.621,1.364,1.364,0,0,1-.191-.014A1.559,1.559,0,0,1,461.108,331.481Z"/><path class="c" d="M480.872,329.271a.908.908,0,0,1-.028.306,9.563,9.563,0,0,1-.209,2.164,11.756,11.756,0,0,0-.219,1.7,11.039,11.039,0,0,0,.165,1.9c.236,1.667.481,3.541-.808,5.451.056.059.109.116.161.173,5.219-6.95,7.067-14.973,5.454-16.721-3.721-4.029-9.451-3.832-12.515-3.365C478.36,323.161,480.77,328,480.872,329.271Z"/><path class="c" d="M479.479,330.062c-2.221-.228-3.662.061-4.165.86-1.048,1.665,1.585,5.668,2.576,7.174a10.927,10.927,0,0,1,.618,1,5.207,5.207,0,0,0,.352.6,6.212,6.212,0,0,0,.365-4.156,12.2,12.2,0,0,1-.176-2.147,12.724,12.724,0,0,1,.24-1.9A10.024,10.024,0,0,0,479.479,330.062Zm-1.323.976a1.43,1.43,0,0,1-.935.541,1.16,1.16,0,0,1-1.177-.554l-.014-.04a.256.256,0,0,1,.053-.2,1.616,1.616,0,0,1,1-.387,1.655,1.655,0,0,1,1.095.15l.059-.06.038.217A.483.483,0,0,1,478.156,331.038Z"/><path class="a" d="M488.836,342.377c-.179-.639-.88-2.075-3.526-1.612a18.3,18.3,0,0,1-1.981.248c4.481-6.752,7.057-15.363,4.1-18.569-5.635-6.091-14.419-4.445-16.99-3.786a23.707,23.707,0,0,0-3.407-.275,12.046,12.046,0,0,0-5.975,1.26c-2.679-.8-10.172-2.571-14.781.91-2.52,1.9-3.676,4.926-3.437,8.983.076,1.284,2.938,16.591,8.851,18.808a4.446,4.446,0,0,0,4.341-.69,4.666,4.666,0,0,0,2.495,1.256,9.723,9.723,0,0,0,5.479-.278c0,.115.008.224.012.325.01.313.021.621.033.91a15.866,15.866,0,0,0,.718,4.791l.078.211c.029.067.059.145.092.23a5.23,5.23,0,0,0,5.212,3.779,9.242,9.242,0,0,0,1.634-.156c4.562-.829,7.256-2.9,7.506-11l.025-.185.4.03a14.477,14.477,0,0,0,5.152-.736l.1-.037C486.353,346.245,489.5,344.727,488.836,342.377Zm-4.4,3.084a13.209,13.209,0,0,1-4.257.685,7.114,7.114,0,0,1-1.85-.211c-.25,1.92-.761,5.357-1.047,6.8-.572,2.815-2.03,4.087-5.378,4.7a8.542,8.542,0,0,1-1.524.147,4.734,4.734,0,0,1-4.636-3.058c-.56-1.187-.685-5.014-.662-8.122a6.647,6.647,0,0,1-4.179,1.346,10.343,10.343,0,0,1-2.131-.235c-.351-.074-2.1-.5-2.075-1.589.018-1.034,1.535-1.3,2.182-1.413,2.053-.359,2.184-.5,2.812-1.175.089-.1.187-.2.295-.313a6.661,6.661,0,0,1-2.5-.608c-.518.467-2.024,1.844-3.661,3.513A3.661,3.661,0,0,1,453.2,347.2a3.054,3.054,0,0,1-1.061-.195c-4.872-1.815-7.855-15.793-7.969-17.6-.212-3.577.762-6.21,2.9-7.826,4.5-3.408,12.592-1.048,14.146-.549a10.747,10.747,0,0,1,5.7-1.348,16.985,16.985,0,0,1,3.384.38l.088-.028,0-.02a.743.743,0,0,1,.147-.021c1.89-.534,10.522-2.468,15.871,3.325,2.477,2.685-.284,11.836-5.573,18.748.487.223,1.734.505,4.687-.01.425-.074,1.712-.3,1.973.633C487.867,344.064,484.785,345.322,484.432,345.461Z"/><path class="c" d="M478.758,341.716a7.891,7.891,0,0,1-1.48-2.024c-.065-.133-.292-.478-.532-.843-1.436-2.183-4.108-6.247-2.591-8.656.786-1.247,2.465-1.749,5.111-1.532a13.436,13.436,0,0,0-12.378-7.606,8.637,8.637,0,0,0-6.54,2.354,10.978,10.978,0,0,0-2.723,6.45,12,12,0,0,1,3.264-.992c2.408-.3,3.985.569,4.462,2.438,1.206,4.728.092,6.825-.722,8.355-.143.271-.28.527-.392.783a5.379,5.379,0,0,0-.6,1.478,2.152,2.152,0,0,1,1.3.173,2.466,2.466,0,0,1,1.467,1.641c.016.058.016.116.027.174a.684.684,0,0,1,.055.283c-.169,5.1.115,8.96.487,9.747.455.965,1.3,2.762,4.678,2.15,3.13-.569,3.874-1.62,4.279-3.619.348-1.752,1.069-6.757,1.161-7.8l0-.01a2.388,2.388,0,0,1,1.838-2.751Z"/><path class="c" d="M479.832,343.091c-.1.03-.2.055-.3.078-.622.148-1.119.266-1.078,1.384.647.365,3.749.312,5.473-.366a8.742,8.742,0,0,0,1.437-.716C482.072,344,480.542,343.59,479.832,343.091Z"/></g></g></svg>