<svg xmlns="http://www.w3.org/2000/svg" width="201.606" height="27.67" viewBox="0 0 201.606 27.67"><defs><style>.a{fill:#e51426;}</style></defs><g transform="translate(-617.072 -283.591)"><path class="a" d="M650.189,288.458a2.619,2.619,0,0,0,2.43-2.437,2.433,2.433,0,0,0-4.867,0,2.4,2.4,0,0,0,2.366,2.437h.071m-1.828-2.129a1.824,1.824,0,1,1,1.821,1.821,1.83,1.83,0,0,1-1.821-1.821m1.828-.3a.942.942,0,0,0,.609-.3h0c0-.3,0-.3-.3-.3h-.616v.9h.308Zm-.308-1.218h.616c.609.308.609.616.609.917v.3a.926.926,0,0,1-.327.59h0l.609,1.212h-.609l-.59-1.212h-.308v1.212h-.616V284.8Z" transform="translate(166.058 0)"/><path class="a" d="M700.7,300.339h12.768l-6.695-10.946-12.466,19.77h-5.771l15.211-23.727a3.725,3.725,0,0,1,3.027-1.513,4.223,4.223,0,0,1,3.026,1.513L725,309.15h-5.74l-2.738-4.251H703.431Zm58.99,4.566V284.225h-4.848v22.5a2.278,2.278,0,0,0,.609,1.513,2.221,2.221,0,0,0,1.821.609h21.893l2.738-4.258H759.689Zm-79.67-3.95a8.51,8.51,0,0,0,8.516-8.49v-.026a8.7,8.7,0,0,0-8.516-8.516H659.037v24.932H663.9V288.482h15.807a3.953,3.953,0,1,1,.019,7.907h-13.4l14.293,12.466h6.99l-9.728-8.208h2.129Zm-50.48,8.208a12.336,12.336,0,0,1-12.466-12.2v-.276a12.327,12.327,0,0,1,12.191-12.466h14.569a12.327,12.327,0,0,1,12.466,12.19v.276a12.333,12.333,0,0,1-12.191,12.472H629.539Zm14.005-4.258a8.211,8.211,0,0,0,0-16.423H629.539a8.211,8.211,0,0,0,0,16.423Zm91.514,4.258a12.342,12.342,0,0,1-12.472-12.2V296.7a12.332,12.332,0,0,1,12.19-12.472h17.308l-2.732,4.258H735.347a8.211,8.211,0,1,0,0,16.423H752.68l-2.725,4.258Zm58.688-4.258a8.5,8.5,0,0,1-7.906-5.784h20.373l2.751-4.258H785.531a8.208,8.208,0,0,1,7.913-6.079h14l2.719-4.251H792.829a12.327,12.327,0,0,0-12.466,12.19V297a12.327,12.327,0,0,0,12.191,12.466h15.179l2.745-4.258H793.746Z" transform="translate(0 1.797)"/></g></svg>