<svg xmlns="http://www.w3.org/2000/svg" width="145.889" height="58.355" viewBox="0 0 145.889 58.355"><defs><style>.a{fill:#091e42;}</style></defs><path class="a" d="M0,0V3.993H28.4V0ZM32.42,0V3.993H72.887S68.754,0,63.279,0ZM80.826,0V3.993h24.482L103.855,0ZM122.86,0l-1.453,3.993h24.26V0ZM0,7.764v3.993H28.4V7.764Zm32.42.006v3.987H77.583s-.527-3.073-1.447-3.987H32.42Zm48.405,0v3.987h27.166L106.647,7.77H80.826Zm39.128,0-1.345,3.987h27.058V7.77ZM8.161,15.529v4h12.3v-4Zm32.42,0v4h12.3v-4Zm24.26,0v4h12.3a13.6,13.6,0,0,0,.781-4Zm24.146,0v4h21.8l-1.453-4Zm28.289,0-1.459,4h21.912v-4ZM8.161,23.3v3.993h12.3V23.3Zm32.42,0v3.993H71.993A13.464,13.464,0,0,0,75.457,23.3Zm48.405,0v3.993h12.3V25.069l.781,2.222h22.527l.838-2.222v2.222h12.3V23.3H114.642l-1.225,3.382L112.186,23.3ZM8.161,31.064v3.993h12.3V31.064Zm32.42,0v3.993H75.457a13.56,13.56,0,0,0-3.465-3.993Zm48.405,0v3.993h12.3V31.064Zm14.532,0,1.487,3.993H121.9l1.413-3.993Zm21.912,0v3.993h12.3V31.064ZM8.161,38.828v3.992h12.3V38.828Zm32.42,0v3.992h12.3V38.828Zm24.26,0v3.992H77.919a13.566,13.566,0,0,0-.781-3.992Zm24.146,0v3.992h12.3V38.828Zm17.324,0,1.442,3.992h11.323l1.453-3.992Zm19.119,0v3.992h12.3V38.828ZM.222,46.593v4h28.4v-4Zm32.2,0v4H76.136c.92-.915,1.447-4,1.447-4Zm48.628,0v4h20.236v-4Zm28.061,0,1.482,4h5.761l1.39-4Zm16.321,0v4h20.459v-4ZM.222,54.363v3.993h28.4V54.363Zm32.2,0V58.35H63.279c5.475,0,9.608-3.987,9.608-3.987Zm48.628,0v3.993h20.236V54.363Zm30.87,0,1.425,3.981.245.005,1.448-3.987Zm13.512,0v3.993h20.459V54.363Z"/></svg>