<svg xmlns="http://www.w3.org/2000/svg" width="222.342" height="58.619" viewBox="0 0 222.342 58.619"><defs><style>.a{fill:#161615;}.b{fill:#ffad00;}</style></defs><g transform="translate(-285.568 -275.726)"><path class="a" d="M350.767,323.393a15.938,15.938,0,0,1-9.923-3.127l-.156-.119.106-.166,2.145-3.356.123-.193.187.136a12.714,12.714,0,0,0,7.438,2.455c3.062,0,4.818-1.33,4.818-3.646,0-2.549-2.067-3.275-5.814-4.594l-.441-.156c-3.76-1.309-7.24-3.219-7.24-8.315,0-4.585,3.529-7.546,8.99-7.546a15.055,15.055,0,0,1,7.911,1.861l.171.1-.086.178-1.717,3.55-.1.2-.2-.1a12.845,12.845,0,0,0-5.906-1.421c-1.948,0-4.27.533-4.27,3.062,0,2.475,1.828,3.079,5.467,4.28,3.958,1.291,8.182,3.144,8.182,8.826,0,5.066-3.622,8.092-9.691,8.092Z"/><path class="a" d="M364.336,330.3a12.421,12.421,0,0,1-2.895-.354l-.2-.044.031-.2.508-3.316.03-.207.207.025.331.041a10.84,10.84,0,0,0,1.477.116,3.961,3.961,0,0,0,3.94-2.336l-7.147-21.014-.1-.285h5.3l.047.157,4.147,14.851,3.7-14.845.039-.163h5.023l-.085.28-6.356,20.786c-1.347,4.442-3.894,6.508-8.009,6.508Z"/><path class="a" d="M407.894,323.043h-5.112V309.449c0-1.7-.349-2.827-2.045-2.827a6.271,6.271,0,0,0-3.959,2.025v14.4h-5.109V309.449c0-1.7-.35-2.827-2.048-2.827a5.9,5.9,0,0,0-3.958,2.1v14.324h-5.11V302.722h3.217l.047.149.9,2.766c2.115-2.252,4.257-3.345,6.539-3.345a4.731,4.731,0,0,1,4.75,3.069,9.188,9.188,0,0,1,6.365-3.069c4.562,0,5.52,3.913,5.52,7.2v13.555Z"/><path class="a" d="M416.725,323.393c-3.753,0-6.376-2.414-6.376-5.87a5.411,5.411,0,0,1,2.433-4.9c1.695-1.154,4.51-1.99,8.838-2.619v-.516c0-2.23-.809-3.06-2.984-3.06a13.152,13.152,0,0,0-5.483,1.617l-.186.092-.1-.186-1.639-3.08-.094-.178.171-.108a14.067,14.067,0,0,1,7.757-2.293c5.016,0,7.665,2.6,7.665,7.509v13.24h-3.206l-.055-.131-.853-1.974a8.737,8.737,0,0,1-5.891,2.457Zm4.895-9.975c-3.346.65-4.994,1.26-5.66,2.094a2.206,2.206,0,0,0-.54,1.7,2.09,2.09,0,0,0,2.357,2.318,6.42,6.42,0,0,0,3.843-1.447v-4.664Z"/><path class="a" d="M447.788,323.043h-5.109V309.449c0-1.98-.7-2.827-2.319-2.827a6.182,6.182,0,0,0-4.193,2.134v14.287h-5.111V302.722h3.22l.047.149.9,2.8c2.105-2.274,4.322-3.38,6.772-3.38,3.845,0,5.792,2.421,5.792,7.2v13.555Z"/><path class="a" d="M458.456,323.393c-4,0-5.948-1.983-5.948-6.067V306.388h-2.966v-3.666h3.073l.907-5.515.03-.181h4.066v5.7h4.289v3.666h-4.289v10.667c0,1.74.3,2.359,1.969,2.359a8.068,8.068,0,0,0,2.082-.383l.232-.07.043.238.586,3.239.03.173-.163.067a10.752,10.752,0,0,1-3.941.715Z"/><path class="a" d="M472.573,323.393c-5.689,0-9.224-3.983-9.224-10.4,0-6.5,3.482-10.706,8.875-10.706,5.464,0,8.6,3.917,8.6,10.745v1.426H468.631c.279,3.285,1.608,4.756,4.294,4.756a8.977,8.977,0,0,0,5.188-1.8l.182-.115.116.181,1.871,2.924.106.166-.155.121a10.989,10.989,0,0,1-7.66,2.7Zm-3.9-12.287h6.916c-.118-3.356-1.218-4.99-3.364-4.99-2.1,0-3.268,1.634-3.552,4.99Z"/><path class="a" d="M492.151,323.393c-6.773,0-9.186-5.37-9.186-10.4,0-4.937,2.4-10.706,9.186-10.706a9.1,9.1,0,0,1,6.537,2.238l.145.126-.109.159-2.145,3.082-.128.181-.18-.133a6.2,6.2,0,0,0-4.081-1.4c-2.626,0-3.958,2.159-3.958,6.415,0,4.186,1.334,6.221,4.075,6.221a6.013,6.013,0,0,0,4.188-1.7l.172-.147.138.18,2.223,2.848.116.148-.13.135a8.987,8.987,0,0,1-6.863,2.754Z"/><path class="b" d="M310.951,334.345a25.383,25.383,0,1,1,25.383-25.385,25.419,25.419,0,0,1-25.383,25.385Zm0-42.736a17.346,17.346,0,1,0,12.273,5.08,17.251,17.251,0,0,0-12.273-5.08Z"/><path class="a" d="M502.8,320.158h-.8v-.5h2.211v.5h-.783v2.561H502.8Zm2.026-.5h.948l.609,2.233.578-2.233h.948v3.061h-.621v-2.342l-.654,2.342h-.567l-.642-2.342v2.342h-.6Z"/><rect class="b" width="1.98" height="1.977" transform="translate(338.602 279.67)"/><rect class="b" width="1.98" height="1.982" transform="translate(338.602 275.726)"/><rect class="b" width="1.85" height="1.933" transform="translate(333.033 281.634)"/><rect class="a" width="1.864" height="1.847" transform="translate(329.369 285.43)"/><rect class="a" width="2.072" height="1.862" transform="translate(334.883 283.568)"/><rect class="a" width="1.855" height="1.77" transform="translate(327.514 283.66)"/><rect class="a" width="1.85" height="1.847" transform="translate(333.033 285.43)"/><rect class="a" width="1.957" height="1.962" transform="translate(336.645 277.708)"/><rect class="a" width="3.611" height="1.964" transform="translate(333.033 279.67)"/><rect class="a" width="1.8" height="3.796" transform="translate(331.233 281.634)"/><path class="a" d="M331.233,287.277v1.862h-1.864v-1.862h-3.092v1.343h-1.658v1.655h1.852v1.845h-1.852v-1.845h-1.965v2.894h-1.861v1.845h-1.235v1.855H318.2a104.054,104.054,0,0,0-6.5,12.214c-4.162-5.794-7.394-8.092-9.94-8.923-1.375-.414-3.03,1.082-.747,3.435,5.238,5.761,6.888,10.531,8.48,14.338.842,2.006,4.619,2.316,5.379.275a61.759,61.759,0,0,1,6.717-13.157v-2.065h1.477v-1.861h1.554v-2.159h1.858v-2.079H324.6V295h1.877v1.891h1.837l-.005-1.873h1.474v-2.259h1.655V291.2h1.6v-3.924Z"/></g></svg>