<svg xmlns="http://www.w3.org/2000/svg" width="18.279" height="14.09" viewBox="0 0 18.279 14.09"><defs><style>.a{fill:#00a7ff;}</style></defs><g transform="translate(-984.293 -797.02)"><path class="a" d="M986.495,806.519a7.039,7.039,0,0,0,13.111,2.414l-1.365-.765a5.477,5.477,0,0,1-10.112-1.414l.861.86,1.107-1.107-2.9-2.9-2.9,2.9,1.107,1.107Z" transform="translate(0 -1.431)"/><path class="a" d="M994.307,798.586a5.486,5.486,0,0,1,5.345,4.287l-.926-.927-1.108,1.107,2.9,2.9,2.9-2.9-1.108-1.107L1001.262,803a7.04,7.04,0,0,0-13.057-2.458l1.354.784A5.5,5.5,0,0,1,994.307,798.586Z" transform="translate(-0.85)"/></g></svg>