<svg xmlns="http://www.w3.org/2000/svg" width="220.342" height="47.053" viewBox="0 0 220.342 47.053"><defs><style>.a{fill:#f25022;}.b{fill:#80ba01;}.c{fill:#777;}.d{fill:#02a4ef;}.e{fill:#ffb902;}</style></defs><g transform="translate(-105.621 369.4)"><path class="a" d="M105.621-369.4H128q0,11.192,0,22.384H105.621Z"/><path class="b" d="M289.114-369.4H311.5q0,11.192,0,22.384-11.19,0-22.381,0Q289.112-358.208,289.114-369.4Z" transform="translate(-158.824)"/><path class="c" d="M820.272-304.081a2.961,2.961,0,0,1,2.679.949,2.76,2.76,0,0,1,.336,3.144,3.012,3.012,0,0,1-3.222,1.35,2.737,2.737,0,0,1-2.248-2.7,2.8,2.8,0,0,1,2.455-2.747Z" transform="translate(-616.449 -56.508)"/><path class="c" d="M560.115-299.418h7.04q3.287,8.346,6.593,16.688c.561,1.391,1.085,2.8,1.672,4.18,2.819-6.953,5.679-13.889,8.476-20.851,2.257-.036,4.516-.008,6.774-.013q-.008,14.114,0,28.228c-1.629,0-3.257.013-4.885-.009.018-6.944,0-13.887.008-20.832,0-.312-.008-.624-.03-.936a3.72,3.72,0,0,0-.254.452c-2.8,7.108-5.649,14.2-8.431,21.31-1.159.042-2.319,0-3.479.022-2.886-7.108-5.736-14.231-8.608-21.345-.075-.148-.156-.292-.243-.43-.059,3.042-.009,6.087-.026,9.13q0,6.32,0,12.64c-1.537,0-3.073,0-4.609,0q0-14.116,0-28.232Z" transform="translate(-393.392 -60.572)"/><path class="c" d="M888.184-243.182a13.251,13.251,0,0,1,7.191.021,5.8,5.8,0,0,1,1.381.575c-.027,1.542,0,3.085-.015,4.629a7.691,7.691,0,0,0-5.525-1.7,5.685,5.685,0,0,0-4.021,2.233,7.809,7.809,0,0,0-1.283,5.6,6.067,6.067,0,0,0,1.956,4.022,6.13,6.13,0,0,0,4.529,1.348,9.223,9.223,0,0,0,4.344-1.783c.013,1.461-.007,2.923.011,4.384a11.773,11.773,0,0,1-6.617,1.37,9.812,9.812,0,0,1-6.306-2.63,10.084,10.084,0,0,1-2.929-6.773,12.263,12.263,0,0,1,1.914-7.511,9.739,9.739,0,0,1,5.371-3.794Z" transform="translate(-671.038 -108.829)"/><path class="c" d="M1291.8-243.465a12.806,12.806,0,0,1,6.7.7c0,1.484,0,2.967,0,4.45a8.53,8.53,0,0,0-5.084-1.5,2.6,2.6,0,0,0-2.312,1.278,2.091,2.091,0,0,0,.7,2.476c1.373.918,3.01,1.308,4.432,2.131a6.377,6.377,0,0,1,2.774,2.638,5.9,5.9,0,0,1-1.26,6.812,9.26,9.26,0,0,1-6.737,2.046,14.394,14.394,0,0,1-4.922-1.129c.007-1.561-.009-3.12.008-4.68a10.588,10.588,0,0,0,4.392,1.9,5.652,5.652,0,0,0,3.341-.307,1.934,1.934,0,0,0,.578-2.751,5.821,5.821,0,0,0-2.113-1.383,20.259,20.259,0,0,1-4.178-2.139,5.01,5.01,0,0,1-1.808-2.747,6.171,6.171,0,0,1,.669-4.829,7.208,7.208,0,0,1,4.817-2.959Z" transform="translate(-1021.777 -108.854)"/><path class="c" d="M1032.615-242.037a5.46,5.46,0,0,1,4.493-.379c-.007,1.615,0,3.229,0,4.844a5.145,5.145,0,0,0-3.272-.769,4.02,4.02,0,0,0-3.028,2.421,8.947,8.947,0,0,0-.69,4.131v9.675h-4.772q-.006-10.111,0-20.223c1.593-.02,3.186-.012,4.779,0-.007,1.158,0,2.315,0,3.474a6.2,6.2,0,0,1,2.5-3.17Z" transform="translate(-796.073 -109.645)"/><path class="c" d="M821.093-239.926c1.605-.007,3.212-.023,4.817.008-.019,6.739,0,13.48-.008,20.219H821.1q-.006-10.113,0-20.227Z" transform="translate(-619.285 -112.059)"/><path class="c" d="M1134.677-238.446a8.56,8.56,0,0,0-4.228-4.274,12.845,12.845,0,0,0-6.93-.817h0a9.66,9.66,0,0,0-6.364,3.4,10.784,10.784,0,0,0-2.234,6.183,11.613,11.613,0,0,0,1.773,7.557,9.167,9.167,0,0,0,5.593,3.647,13.905,13.905,0,0,0,5.668.005,9.37,9.37,0,0,0,5.558-3.429,10.731,10.731,0,0,0,2.128-5.891A13.274,13.274,0,0,0,1134.677-238.446ZM1130-229.159a4.423,4.423,0,0,1-2.378,2.337,6.528,6.528,0,0,1-3.946.173,4.832,4.832,0,0,1-3.034-2.5,9.339,9.339,0,0,1-.735-5.064,6.433,6.433,0,0,1,1.87-4.221,5.062,5.062,0,0,1,3.185-1.257h0a5.21,5.21,0,0,1,4.049,1.374,6.53,6.53,0,0,1,1.671,4.217A10.6,10.6,0,0,1,1130-229.159Z" transform="translate(-873.574 -108.822)"/><path class="c" d="M1421.559-237.859a8.638,8.638,0,0,0-4.158-4.707,12.538,12.538,0,0,0-7.186-.976,10.023,10.023,0,0,0-5.349,2.295,9.911,9.911,0,0,0-3.193,6.214,13.4,13.4,0,0,0,.761,7.028,8.971,8.971,0,0,0,4.918,4.771,13.018,13.018,0,0,0,6.819.577,9.456,9.456,0,0,0,5.951-3.479,11.069,11.069,0,0,0,2.19-6.891A12.9,12.9,0,0,0,1421.559-237.859ZM1417.192-231a6.3,6.3,0,0,1-1.251,2.97,4.531,4.531,0,0,1-2.829,1.522,6.4,6.4,0,0,1-3.463-.376,4.906,4.906,0,0,1-2.553-2.671,9.606,9.606,0,0,1-.574-4.408,7,7,0,0,1,1.467-4.029,4.952,4.952,0,0,1,3.533-1.7h0a5.309,5.309,0,0,1,3.878,1.144,5.549,5.549,0,0,1,1.752,3.221A12.29,12.29,0,0,1,1417.192-231Z" transform="translate(-1121.686 -108.823)"/><path class="c" d="M1583.817-288.539a3.479,3.479,0,0,1-3.265.1,2.435,2.435,0,0,1-1.046-1.931c-.146-1.248-.054-2.506-.079-3.758,0-2.261,0-4.521,0-6.781h0c1.6.005,3.206-.043,4.809.023v-3.931c-1.6.005-3.194-.012-4.79.011-.036-2.021,0-4.041-.017-6.06-1.6.481-3.185.993-4.79,1.451-.039,1.533,0,3.066-.02,4.6-2.361,0-4.721,0-7.082,0a30.419,30.419,0,0,1,.09-3.624,2.828,2.828,0,0,1,1.615-2.259,4.614,4.614,0,0,1,3.568.327c-.007-1.383.011-2.767-.01-4.149a8.785,8.785,0,0,0-7.055.828h0a6.6,6.6,0,0,0-2.73,3.727c-.514,1.674-.251,3.442-.333,5.16-1.12-.008-2.238-.019-3.355.007.012,1.293.007,2.587,0,3.879,1.123.023,2.247,0,3.369.017q0,8.162,0,16.325h4.841q0-8.165,0-16.33,3.542,0,7.085,0c.007,3.47-.007,6.938.005,10.407a7.226,7.226,0,0,0,1.367,4.619,5.384,5.384,0,0,0,3.817,1.75,9.465,9.465,0,0,0,4.426-.678v-3.97A4.263,4.263,0,0,1,1583.817-288.539Z" transform="translate(-1258.269 -47.176)"/><path class="d" d="M105.621-185.91q11.192,0,22.384,0,0,11.192,0,22.382H105.621Z" transform="translate(0 -158.822)"/><path class="e" d="M289.122-185.906q11.19,0,22.382,0v22.384H289.121Q289.123-174.715,289.122-185.906Z" transform="translate(-158.831 -158.824)"/></g></svg>