<svg version="1.1"
	 id="svg11265" xmlns:cc="http://creativecommons.org/ns#" xmlns:dc="http://purl.org/dc/elements/1.1/" xmlns:inkscape="http://www.inkscape.org/namespaces/inkscape" xmlns:rdf="http://www.w3.org/1999/02/22-rdf-syntax-ns#" xmlns:sodipodi="http://sodipodi.sourceforge.net/DTD/sodipodi-0.dtd" xmlns:svg="http://www.w3.org/2000/svg"
	 xmlns="http://www.w3.org/2000/svg" xmlns:xlink="http://www.w3.org/1999/xlink" x="0px" y="0px" viewBox="0 0 231.3 47"
	 style="enable-background:new 0 0 201.606 27.67;" width="201.606"  xml:space="preserve">
<style type="text/css">
	.st0{fill:#B1181E;}
</style>
<sodipodi:namedview  bordercolor="#666666" borderopacity="1.0" fit-margin-bottom="0" fit-margin-left="0" fit-margin-right="0" fit-margin-top="0" id="base" inkscape:current-layer="layer1" inkscape:cx="63.51871" inkscape:cy="25.365876" inkscape:document-units="mm" inkscape:pageopacity="0.0" inkscape:pageshadow="2" inkscape:window-height="744" inkscape:window-maximized="1" inkscape:window-width="1280" inkscape:window-x="-4" inkscape:window-y="-4" inkscape:zoom="4.0369128" pagecolor="#ffffff" showgrid="false" units="px">
	</sodipodi:namedview>
<g id="layer1" transform="translate(-72.906948,-158.76928)" inkscape:groupmode="layer" inkscape:label="Layer 1">
	<g id="g10803">
		<g id="g10809" transform="translate(643.1752,554.6865)">
			<path id="path10811" inkscape:connector-curvature="0" class="st0" d="M-488.1-383.6c0-1.7,1.4-3.1,3.1-3.1h13.4
				c2.1,0,4,1.3,4.8,3.3c1,2.7-0.3,5.7-3,6.7l-10.4,3.8c-3.8,1.3-5.8,5.4-4.5,9.2c0.7,2,2.1,3.5,3.9,4.3l19.5,8.8v-6.8l-17.1-7.5
				c-0.3-0.1-0.6-0.4-0.7-0.7c-0.2-0.6,0.1-1.4,0.8-1.6l10.7-3.7c5.9-2.3,8.8-8.8,6.5-14.7c-1.7-4.5-6-7.3-10.6-7.3H-485
				c-5.1,0-9.3,4.2-9.3,9.3v32.1h6.2V-383.6z"/>
		</g>
	</g>
	<path id="path10813" inkscape:connector-curvature="0" class="st0" d="M189.2,203.2h6.2v-41.4h-6.2V203.2z"/>
	<g id="g10817">
		<g id="g10823" transform="translate(624.1921,558.1227)">
			<path id="path10825" inkscape:connector-curvature="0" class="st0" d="M-520.6-396.3l-11.1,34.4c-0.1,0.4-0.5,0.7-1,0.7
				s-0.8-0.3-1-0.7l-11.1-34.4h-6.5l11.7,36.4c1,3,3.8,5,6.9,5c3.1,0,5.9-1.9,6.9-5l11.7-36.4H-520.6z"/>
		</g>
		<g id="g10827" transform="translate(671.856,542.85)">
			<path id="path10829" inkscape:connector-curvature="0" class="st0" d="M-439.1-339.7l11.1-34.4c0.1-0.4,0.5-0.7,1-0.7
				c0.4,0,0.8,0.3,1,0.7l11.1,34.5h6.5l-11.7-36.4c-1-3-3.8-5-6.9-5c-3.1,0-5.9,1.9-6.9,5l-11.7,36.4H-439.1z"/>
		</g>
		<g id="g10831" transform="translate(631.2818,555.8317)">
			<path id="path10833" inkscape:connector-curvature="0" class="st0" d="M-508.5-387.8h19.7v-6.2h-19.7c-5.7,0-10.3,4.6-10.3,10.3
				v20.7c0,5.7,4.6,10.3,10.3,10.3h19.7v-6.2h-19.7c-2.3,0-4.1-1.9-4.1-4.1v-7.3h19.7v-6.1h-19.7v-7.3
				C-512.6-386-510.7-387.8-508.5-387.8"/>
		</g>
	</g>
	<g id="g10835" transform="matrix(0.35277777,0,0,-0.35277777,93.470473,173.51937)">
		<path id="path10837" inkscape:connector-curvature="0" class="st0" d="M389.3,33.2h-85.6V15.6h34V-84h17.6v99.7h34V33.2z"/>
	</g>
	<g id="g10841">
		<g id="g10847" transform="translate(691.7008,542.85)">
			<path id="path10849" inkscape:connector-curvature="0" class="st0" d="M-405.2-339.7c6.6,0,11.9-5.3,11.9-11.9
				c0-6.6-5.3-11.9-11.9-11.9h-10.3c-3.1,0-5.7-2.5-5.7-5.7s2.5-5.7,5.7-5.7h20.2v-6.2h-20.2c-6.6,0-11.9,5.3-11.9,11.9
				c0,6.6,5.3,11.9,11.9,11.9l10.3,0c3.1,0,5.7,2.5,5.7,5.7c0,3.1-2.5,5.7-5.7,5.7h-20.2v6.2H-405.2z"/>
		</g>
	</g>
	<g id="g10851" transform="matrix(0.35277777,0,0,-0.35277777,102.82833,173.42292)">
		<path id="path10853" inkscape:connector-curvature="0" class="st0" d="M566.5,35.1l0.5,1.5l1.9,5h1.8V33h-1.5v4.2l0,1.5l-0.5-1.2
			l-1.7-4.4h-1.3l-1.7,4.4l-0.5,1.2l0-1.5V33h-1.5v8.6h1.8l1.9-5L566.5,35.1z M558.4,33h-1.5v7.1h-2.5v1.4h6.6v-1.4h-2.6V33z"/>
	</g>
</g>
</svg>
