<svg xmlns="http://www.w3.org/2000/svg" width="245.375" height="177.751" viewBox="0 0 245.375 177.751">
  <g id="Grupo_6195" data-name="Grupo 6195" transform="translate(-944.313 -277.125)">
    <g id="_7f9239ce726764aa22093884902e018d" data-name="7f9239ce726764aa22093884902e018d" transform="translate(944.313 277.125)">
      <path id="Trazado_9097" data-name="Trazado 9097" d="M38.269,153.347a3.377,3.377,0,0,0-3.377-3.377H21.386a3.377,3.377,0,1,0,0,6.753H34.893A3.377,3.377,0,0,0,38.269,153.347ZM9,153.347a3.377,3.377,0,0,0-3.377-3.377H3.377a3.377,3.377,0,1,0,0,6.753H5.628A3.377,3.377,0,0,0,9,153.347Zm191.347,0a3.377,3.377,0,0,0-3.377-3.377h-58.53a3.377,3.377,0,0,0,0,6.753h58.53A3.377,3.377,0,0,0,200.352,153.347Zm-105.8,0a3.377,3.377,0,0,0-3.377-3.377H50.651a3.377,3.377,0,1,0,0,6.753H91.171A3.377,3.377,0,0,0,94.548,153.347ZM27.014,128.585a3.377,3.377,0,0,0-3.377-3.377H21.386a3.377,3.377,0,0,0,0,6.753h2.251A3.377,3.377,0,0,0,27.014,128.585Zm173.338,0a3.377,3.377,0,0,0-3.377-3.377h-58.53a3.377,3.377,0,0,0,0,6.753h58.53A3.377,3.377,0,0,0,200.352,128.585Zm-117.06,0a3.377,3.377,0,0,0-3.377-3.377H39.4a3.377,3.377,0,0,0,0,6.753H79.916A3.377,3.377,0,0,0,83.292,128.585ZM60.781,103.822a3.377,3.377,0,0,0-3.377-3.377H39.4a3.377,3.377,0,1,0,0,6.753H57.4A3.377,3.377,0,0,0,60.781,103.822Zm22.511,0a3.377,3.377,0,0,0-3.377-3.377H73.162a3.377,3.377,0,1,0,0,6.753h6.753A3.377,3.377,0,0,0,83.292,103.822ZM65.283,79.059a3.377,3.377,0,0,0-3.377-3.377H57.4a3.377,3.377,0,0,0,0,6.753h4.5A3.377,3.377,0,0,0,65.283,79.059Zm83.292,16.884-2.251-6.753-2.251,6.753ZM155.356,107a3.377,3.377,0,0,1-4.329-2.019l-1.238-3.408h-9.182l-1.238,3.408a3.378,3.378,0,1,1-6.348-2.312l9-24.769c.018-.045.045-.083.063-.128a4.238,4.238,0,0,1,.315-.594,2.724,2.724,0,0,1,.2-.257q.106-.133.225-.254c.07-.072.149-.135.227-.2a2.894,2.894,0,0,1,.531-.36,3.115,3.115,0,0,1,.349-.169c.038-.016.072-.041.113-.056s.1-.02.146-.036a3.026,3.026,0,0,1,.666-.14,3.181,3.181,0,0,1,1.346.137c.05.016.1.023.151.038s.077.041.117.059c.117.047.23.1.342.162.086.05.171.1.254.151s.187.137.277.212.158.135.234.2.151.167.221.252.135.167.2.257a4.24,4.24,0,0,1,.315.6c.02.043.045.081.063.126l9,24.769A3.385,3.385,0,0,1,155.356,107Zm45-3.174a3.377,3.377,0,0,0-3.377-3.377H167.71a3.377,3.377,0,1,0,0,6.753h29.265A3.377,3.377,0,0,0,200.352,103.822Zm0-24.763a3.377,3.377,0,0,0-3.377-3.377H160.957a3.377,3.377,0,0,0,0,6.753h36.018A3.377,3.377,0,0,0,200.352,79.059ZM91.171,82.436H77.665a3.377,3.377,0,1,1,0-6.753H91.171a3.377,3.377,0,0,1,0,6.753Z" transform="translate(0 -41.915)" fill="#e6ecf1" fill-rule="evenodd"/>
      <path id="Trazado_9098" data-name="Trazado 9098" d="M253.915,139.571a64.158,64.158,0,1,1,64.158-64.158,64.23,64.23,0,0,1-64.158,64.158M253.915,0A75.353,75.353,0,0,0,196.8,124.572l-43.661,43.661a5.63,5.63,0,0,0,7.96,7.96l43.661-43.661A75.391,75.391,0,1,0,253.915,0" transform="translate(-83.953)" fill="#d3dce4" fill-rule="evenodd"/>
    </g>
  </g>
</svg>
