<svg xmlns="http://www.w3.org/2000/svg" xmlns:xlink="http://www.w3.org/1999/xlink" width="313.083" height="381.962" viewBox="0 0 313.083 381.962">
  <defs>
    <linearGradient id="linear-gradient" x1="0.5" y1="1.103" x2="0.5" y2="-0.174" gradientUnits="objectBoundingBox">
      <stop offset="0" stop-color="#fff"/>
      <stop offset="1" stop-color="#e0ecfc"/>
    </linearGradient>
  </defs>
  <g id="Grupo_27608" data-name="Grupo 27608" transform="translate(-526 -142.5)">
    <g id="Grupo_27606" data-name="Grupo 27606" transform="translate(-0.531)">
      <g id="Grupo_27572" data-name="Grupo 27572" transform="translate(530.54 245.666)">
        <path id="Trazado_30419" data-name="Trazado 30419" d="M272.1,113.611,246.7,107.644a6.443,6.443,0,0,0-.9-.121,111.991,111.991,0,0,0-8.236-19.843,6.367,6.367,0,0,0,.564-.735l13.74-22.175c1.949-3.139,1.752-7.458-.421-9.643s-3.945-3.964-3.945-3.964l-19.73-19.811-3.947-3.962c-2.178-2.186-6.47-2.374-9.6-.422l-22.083,13.8a6.333,6.333,0,0,0-.73.566A110.9,110.9,0,0,0,171.66,33.07a6.216,6.216,0,0,0-.119-.912L165.594,6.645C164.752,3.033,161.577.1,158.507.093L152.942.08,125.113.013,119.547,0c-3.073-.007-6.231,2.91-7.056,6.519L106.668,32a6.334,6.334,0,0,0-.115.91,109.747,109.747,0,0,0-19.711,8.173,6.4,6.4,0,0,0-.733-.57l-22.146-13.9c-3.14-1.966-7.434-1.8-9.6.377l-3.928,3.944L30.8,50.65l-3.928,3.945c-2.168,2.174-2.339,6.493-.377,9.641l13.849,22.24a6.424,6.424,0,0,0,.565.736,110.766,110.766,0,0,0-8.141,19.8,6.341,6.341,0,0,0-.9.114l-25.38,5.849c-3.593.832-6.494,4-6.487,7.087l.013,5.589L.08,153.6l.013,5.589c.007,3.086,2.927,6.272,6.521,7.118l25.4,5.966a6.385,6.385,0,0,0,.9.121,111.848,111.848,0,0,0,8.237,19.844,6.334,6.334,0,0,0-.561.734L26.852,215.144c-1.943,3.137-1.752,7.461.427,9.643s3.943,3.962,3.943,3.962l19.726,19.812,3.943,3.962c2.179,2.189,6.476,2.374,9.6.43l22.083-13.807a6.3,6.3,0,0,0,.729-.564,110.987,110.987,0,0,0,19.751,8.268,6.381,6.381,0,0,0,.119.911l5.945,25.509c.846,3.616,4.018,6.545,7.087,6.552l5.565.013,27.829.066,5.565.013c3.07.007,6.231-2.91,7.056-6.519l5.82-25.481a6.405,6.405,0,0,0,.116-.909,109.743,109.743,0,0,0,19.718-8.176,6.45,6.45,0,0,0,.732.567l22.149,13.912c3.135,1.959,7.431,1.795,9.6-.384l3.927-3.944,19.634-19.718s1.756-1.766,3.924-3.944,2.339-6.494.381-9.641l-13.849-22.237a6.418,6.418,0,0,0-.566-.739,110.84,110.84,0,0,0,8.141-19.8,6.233,6.233,0,0,0,.9-.115l25.379-5.845c3.589-.836,6.491-4,6.484-7.087l-.013-5.589-.066-27.952-.013-5.589C278.615,117.642,275.695,114.456,272.1,113.611Zm-132.6,90.673a64.552,64.552,0,0,1-64.2-64.477,63.823,63.823,0,0,1,63.9-64.175,64.561,64.561,0,0,1,64.21,64.48A63.822,63.822,0,0,1,139.508,204.284Z" transform="translate(13.459 -1.62)" stroke="#eaf2ff" stroke-miterlimit="10" stroke-width="1" fill="url(#linear-gradient)"/>
      </g>
      <g id="Grupo_27571" data-name="Grupo 27571" transform="translate(526.531 334.332)">
        <g id="Grupo_27530" data-name="Grupo 27530" transform="translate(0 24.55)">
          <path id="Trazado_30383" data-name="Trazado 30383" d="M2454.682,993.585a30.69,30.69,0,0,1-9.131-1.311,13.55,13.55,0,0,1-4.94-2.74,9.76,9.76,0,0,1-3.049-4.767c-.7-2.652-.187-5.724,1.573-9.391.3-.615.6-1.24.9-1.845,1.972-4.018,4.011-8.172,4.281-12.653a11.271,11.271,0,0,0-1.251-6.108,13.679,13.679,0,0,0-5.1-5.092,27.349,27.349,0,0,0-11.389-4.031,32.954,32.954,0,0,0-11.4.781c-7.635,1.766-15.039,5.6-22.2,9.3-1.774.917-3.4,1.853-4.982,2.757a48.415,48.415,0,0,1-9.764,4.685.941.941,0,0,1-.553-1.8,46.422,46.422,0,0,0,9.382-4.519c1.594-.914,3.243-1.86,5.052-2.8,7.263-3.758,14.774-7.645,22.639-9.464,9.089-2.1,17.006-.963,24.205,3.482a15.507,15.507,0,0,1,5.77,5.8,13.134,13.134,0,0,1,1.472,7.112c-.292,4.859-2.416,9.186-4.47,13.37-.3.6-.6,1.222-.892,1.83-1.559,3.246-2.033,5.894-1.45,8.094.872,3.295,4.048,5.36,6.728,6.193a30.264,30.264,0,0,0,11.093,1.136,40.607,40.607,0,0,0,10.935-2.34.941.941,0,0,1,.645,1.769,42.547,42.547,0,0,1-11.45,2.449Q2455.987,993.585,2454.682,993.585Z" transform="translate(-2377.008 -943.575)" fill="#233d69"/>
        </g>
        <g id="Grupo_27531" data-name="Grupo 27531" transform="translate(0.55 29.573)">
          <path id="Trazado_30384" data-name="Trazado 30384" d="M2453.7,997.868a40.343,40.343,0,0,1-7.5-.7,18.145,18.145,0,0,1-9.257-4.708,13.239,13.239,0,0,1-4.15-9.572c-.013-3.9,1.4-7.635,2.792-10.771.36-.812.759-1.629,1.18-2.494,1.771-3.63,3.6-7.383,2.657-10.965a9.763,9.763,0,0,0-5.307-5.89c-5.746-2.893-12.2-3.33-19.725-1.335-6.663,1.767-13.306,5.205-19.168,8.24l-.525.272c-5.541,2.867-10.772,5.573-15.927,7.264a.941.941,0,0,1-.586-1.788c5.01-1.643,10.177-4.317,15.648-7.147l.526-.272c5.947-3.079,12.688-6.569,19.55-8.387,7.991-2.119,14.878-1.637,21.053,1.473a11.626,11.626,0,0,1,6.28,7.09c1.123,4.259-.953,8.515-2.785,12.27-.415.848-.806,1.65-1.151,2.431-1.307,2.955-2.642,6.455-2.631,10a11.4,11.4,0,0,0,3.584,8.234,16.246,16.246,0,0,0,8.292,4.2,38.811,38.811,0,0,0,22.962-2.689.941.941,0,0,1,.773,1.716A40.527,40.527,0,0,1,2453.7,997.868Z" transform="translate(-2377.528 -948.323)" fill="#233d69"/>
        </g>
        <g id="Grupo_27532" data-name="Grupo 27532" transform="translate(234.346 10.747)">
          <path id="Trazado_30385" data-name="Trazado 30385" d="M2677,982.977a39.335,39.335,0,0,1-10.908-3.512,12.217,12.217,0,0,1-3.893-2.841,8.021,8.021,0,0,1-2.086-4.446c-.432-3.669,1.573-6.538,3.7-9.576a26.688,26.688,0,0,0,4.527-9.7,14.877,14.877,0,0,0,.19-5.055,14.239,14.239,0,0,0-1.783-5.1c-2.558-4.458-7.585-7.849-13.794-9.3a44.172,44.172,0,0,0-18.759-.1,115.7,115.7,0,0,0-16.851,5.393l-1.581.6c-1.851.7-3.729,1.484-5.544,2.247a81.094,81.094,0,0,1-11.2,4.069l-.459-1.8a79.813,79.813,0,0,0,10.937-3.982c1.831-.77,3.725-1.565,5.609-2.273l1.579-.6a117.2,117.2,0,0,1,17.125-5.473,46.058,46.058,0,0,1,19.565.109c6.71,1.573,12.171,5.287,14.984,10.19a15.966,15.966,0,0,1,1.8,11.455,28.121,28.121,0,0,1-4.824,10.393c-2.079,2.977-3.722,5.327-3.374,8.293a6.209,6.209,0,0,0,1.627,3.426,10.363,10.363,0,0,0,3.3,2.4,37.575,37.575,0,0,0,10.408,3.357Z" transform="translate(-2598.553 -930.525)" fill="#233d69"/>
        </g>
        <g id="Grupo_27533" data-name="Grupo 27533" transform="translate(235.695 15.017)">
          <path id="Trazado_30386" data-name="Trazado 30386" d="M2676.386,987.4c-4.061-.752-9.114-1.687-13.27-3.841a15.769,15.769,0,0,1-5.357-4.288,13.42,13.42,0,0,1-2.7-6.914,14.31,14.31,0,0,1,1.209-7.417,34.08,34.08,0,0,1,3.417-5.74,27.507,27.507,0,0,0,3-5.058c1.458-3.6,1.523-7.177.18-9.813a12.281,12.281,0,0,0-5.67-5.06c-5.182-2.515-10.948-3.344-17.627-2.532-5.135.624-10.6,2.152-17.719,4.953-4.836,1.9-9.73,3.909-14.463,5.848-2.243.919-4.564,1.87-6.85,2.8l-.708-1.743c2.283-.927,4.6-1.878,6.845-2.8,4.739-1.941,9.638-3.95,14.487-5.857,7.274-2.862,12.882-4.426,18.18-5.07a37.943,37.943,0,0,1,9.417-.033,29.956,29.956,0,0,1,9.259,2.74,14.128,14.128,0,0,1,6.525,5.9c1.59,3.122,1.549,7.267-.114,11.373a28.817,28.817,0,0,1-3.2,5.42,32.725,32.725,0,0,0-3.241,5.422,12.473,12.473,0,0,0-1.063,6.463c.469,4.333,2.777,7.517,7.055,9.734,3.909,2.026,8.809,2.933,12.747,3.662Z" transform="translate(-2599.829 -934.562)" fill="#233d69"/>
        </g>
        <g id="Grupo_27543" data-name="Grupo 27543" transform="translate(90.802 41.264)">
          <g id="Grupo_27534" data-name="Grupo 27534" transform="translate(11.648 29.843)">
            <path id="Trazado_30387" data-name="Trazado 30387" d="M2473.862,988.6l1.294,3.726a3.539,3.539,0,0,0,4.45,2.284l8.094-2.812-1.536-4.206S2477.707,992.782,2473.862,988.6Z" transform="translate(-2473.862 -987.588)" fill="#d2e9fd"/>
          </g>
          <g id="Grupo_27535" data-name="Grupo 27535" transform="translate(24.145 20.646)">
            <path id="Trazado_30388" data-name="Trazado 30388" d="M2485.676,987.294l.7,2.12a6.594,6.594,0,0,0,8.487,4.314l17.373-6.338-2.812-8.5Z" transform="translate(-2485.676 -978.894)" fill="#d2e9fd"/>
          </g>
          <g id="Grupo_27536" data-name="Grupo 27536" transform="translate(1.203 26.837)">
            <path id="Rectángulo_5411" data-name="Rectángulo 5411" d="M3.174,0h5.65a0,0,0,0,1,0,0V6.714a0,0,0,0,1,0,0H3.174A3.174,3.174,0,0,1,0,3.54V3.174A3.174,3.174,0,0,1,3.174,0Z" transform="translate(0 2.897) rotate(-19.165)" fill="#d2e9fd"/>
          </g>
          <g id="Grupo_27537" data-name="Grupo 27537" transform="translate(17.796 2.506)">
            <path id="Trazado_30389" data-name="Trazado 30389" d="M2491.907,996.169a6.679,6.679,0,0,1-6.294-4.484l-5.569-16.023a6.677,6.677,0,0,1,4.11-8.49l15.617-5.427,9.948,28.623L2494.1,995.8A6.67,6.67,0,0,1,2491.907,996.169Zm6.559-31.728-13.617,4.733a4.557,4.557,0,0,0-2.8,5.792l5.569,16.024a4.552,4.552,0,0,0,5.794,2.805l13.617-4.732Z" transform="translate(-2479.674 -961.745)" fill="#233d69"/>
          </g>
          <g id="Grupo_27538" data-name="Grupo 27538" transform="translate(7.128 13.132)">
            <path id="Trazado_30390" data-name="Trazado 30390" d="M2478.762,996.764a4.476,4.476,0,0,1-2.047-.5,4.738,4.738,0,0,1-2.312-2.679l-4.546-13.08a4.6,4.6,0,0,1,2.728-5.9l8.094-2.813.7,2-8.093,2.813a2.484,2.484,0,0,0-1.423,3.2l4.547,13.079a2.629,2.629,0,0,0,1.278,1.49,2.3,2.3,0,0,0,1.824.141l8.093-2.813.7,2-8.094,2.813A4.385,4.385,0,0,1,2478.762,996.764Z" transform="translate(-2469.589 -971.79)" fill="#233d69"/>
          </g>
          <g id="Grupo_27539" data-name="Grupo 27539" transform="translate(36.295)">
            <path id="Trazado_30391" data-name="Trazado 30391" d="M2509.4,992.034a3.149,3.149,0,0,1-2.97-2.114l-9.094-26.165a3.149,3.149,0,0,1,1.94-4.006l.568-.2a3.145,3.145,0,0,1,4,1.939l9.094,26.165a3.145,3.145,0,0,1-1.939,4l-.568.2A3.149,3.149,0,0,1,2509.4,992.034Zm-8.966-30.784-.568.2a1.35,1.35,0,0,0-.831,1.717l9.094,26.164a1.35,1.35,0,0,0,1.717.832l.568-.2a1.346,1.346,0,0,0,.831-1.716l-9.093-26.165a1.35,1.35,0,0,0-1.717-.831Z" transform="translate(-2497.162 -959.375)" fill="#233d69"/>
          </g>
          <g id="Grupo_27540" data-name="Grupo 27540" transform="translate(15.518 20.364)">
            <path id="Trazado_30392" data-name="Trazado 30392" d="M2477.9,978.659h0a.567.567,0,0,1,.723.35l3.185,9.165a.568.568,0,0,1-.35.725h0a.569.569,0,0,1-.724-.351l-3.185-9.165A.567.567,0,0,1,2477.9,978.659Z" transform="translate(-2477.521 -978.627)" fill="#233d69"/>
          </g>
          <g id="Grupo_27541" data-name="Grupo 27541" transform="translate(12.833 21.297)">
            <path id="Trazado_30393" data-name="Trazado 30393" d="M2475.364,979.541h0a.568.568,0,0,1,.723.35l3.186,9.166a.568.568,0,0,1-.351.723h0a.569.569,0,0,1-.724-.35l-3.185-9.166A.568.568,0,0,1,2475.364,979.541Z" transform="translate(-2474.982 -979.509)" fill="#233d69"/>
          </g>
          <g id="Grupo_27542" data-name="Grupo 27542" transform="translate(0 23.39)">
            <path id="Trazado_30394" data-name="Trazado 30394" d="M2467.468,992.859a4.563,4.563,0,0,1-4.307-3.06l-.058-.166a4.562,4.562,0,0,1,2.808-5.8l6.752-2.346,3.048,8.771-6.752,2.347A4.538,4.538,0,0,1,2467.468,992.859Zm-1.3-8.274.261.75a2.97,2.97,0,0,0-1.829,3.776l.057.166a2.966,2.966,0,0,0,3.777,1.828l5.252-1.825-2.005-5.77-5.252,1.825Z" transform="translate(-2462.85 -981.488)" fill="#233d69"/>
          </g>
        </g>
        <g id="Grupo_27561" data-name="Grupo 27561" transform="translate(169.993 18.734)">
          <g id="Grupo_27544" data-name="Grupo 27544" transform="translate(55.187 9.476)">
            <path id="Trazado_30395" data-name="Trazado 30395" d="M2598.958,952.625l-7.237,2.438-1.833-5.44,7.239-2.438a2.87,2.87,0,0,1,3.637,1.8h0A2.871,2.871,0,0,1,2598.958,952.625Z" transform="translate(-2589.888 -947.034)" fill="#d2e9fd"/>
          </g>
          <g id="Grupo_27545" data-name="Grupo 27545" transform="translate(46.167 17.48)">
            <path id="Trazado_30396" data-name="Trazado 30396" d="M2592.417,954.662l-11.057,3.952,1.016,7.508,8.475-3.275c2.117-.818,3.5-3.943,3.088-6.981h0C2593.817,954.962,2593.12,954.412,2592.417,954.662Z" transform="translate(-2581.36 -954.602)" fill="#d2e9fd"/>
          </g>
          <g id="Grupo_27546" data-name="Grupo 27546" transform="translate(40.806 23.453)">
            <path id="Trazado_30397" data-name="Trazado 30397" d="M2576.292,961.838l1.737,5.155a2.5,2.5,0,0,0,3.186,1.527l.041-.014a2.5,2.5,0,0,0,1.611-3.144l-1.723-5.114" transform="translate(-2576.292 -960.248)" fill="#ccdcea"/>
          </g>
          <g id="Grupo_27547" data-name="Grupo 27547" transform="translate(34.116 5.186)">
            <line id="Línea_699" data-name="Línea 699" x2="6.622" y2="19.655" fill="#ccdcea"/>
          </g>
          <g id="Grupo_27548" data-name="Grupo 27548" transform="translate(17.45 24.304)">
            <path id="Trazado_30398" data-name="Trazado 30398" d="M2581.41,967.133l-23.123,7.931a2.224,2.224,0,0,1-2.926-.989l-1.073-3.183a2.225,2.225,0,0,1,1.73-2.558l21.613-7.282" transform="translate(-2554.212 -961.053)" fill="#d2e9fd"/>
          </g>
          <g id="Grupo_27549" data-name="Grupo 27549" transform="translate(16.437 20.977)">
            <rect id="Rectángulo_5412" data-name="Rectángulo 5412" width="12.547" height="2.277" transform="translate(0 4.006) rotate(-18.62)" fill="#eec251"/>
          </g>
          <g id="Grupo_27550" data-name="Grupo 27550" transform="translate(39.509)">
            <path id="Trazado_30399" data-name="Trazado 30399" d="M2583.653,966.575l-.745-2.209,8.15-2.745a2.728,2.728,0,0,0,1.712-3.451l-5.359-15.906a2.724,2.724,0,0,0-3.451-1.711l-8.149,2.745-.745-2.208,8.149-2.746a5.054,5.054,0,0,1,6.4,3.176l5.36,15.906a5.061,5.061,0,0,1-3.177,6.4Z" transform="translate(-2575.066 -938.076)" fill="#233d69"/>
          </g>
          <g id="Grupo_27551" data-name="Grupo 27551" transform="translate(53.263 4.556)">
            <path id="Trazado_30400" data-name="Trazado 30400" d="M2591.131,954.453l-3.062-9.09,8.1-2.729a4.8,4.8,0,0,1,3.062,9.089Zm-.581-7.859,1.812,5.378,6.244-2.1.312.929-.312-.929a2.837,2.837,0,1,0-1.812-5.377Z" transform="translate(-2588.069 -942.383)" fill="#233d69"/>
          </g>
          <g id="Grupo_27552" data-name="Grupo 27552" transform="translate(10.287 3.228)">
            <path id="Trazado_30401" data-name="Trazado 30401" d="M2557.051,977.562l-9.611-28.523,23.481-7.911.686,2.037-21.444,7.225,8.238,24.449,21.443-7.225.687,2.037Z" transform="translate(-2547.44 -941.128)" fill="#233d69"/>
          </g>
          <g id="Grupo_27553" data-name="Grupo 27553" transform="translate(14.758 17.892)">
            <path id="Trazado_30402" data-name="Trazado 30402" d="M2553.594,965.2l-1.927-5.721L2565,954.991l1.927,5.722Zm0-4.765.956,2.836,10.448-3.52-.955-2.835Z" transform="translate(-2551.667 -954.991)" fill="#233d69"/>
          </g>
          <g id="Grupo_27554" data-name="Grupo 27554" transform="translate(0 14.647)">
            <path id="Trazado_30403" data-name="Trazado 30403" d="M2540.268,960.789a2.469,2.469,0,0,1-2.337-1.679l-.086-.255a2.466,2.466,0,0,1,1.549-3.123l11.308-3.81,1.66,4.927-11.308,3.809A2.45,2.45,0,0,1,2540.268,960.789Zm9.413-6.808-9.768,3.291a.843.843,0,0,0-.529,1.065l.087.255a.839.839,0,0,0,1.064.528l9.768-3.291Z" transform="translate(-2537.715 -951.923)" fill="#233d69"/>
          </g>
          <g id="Grupo_27555" data-name="Grupo 27555" transform="translate(5.183 30.029)">
            <path id="Trazado_30404" data-name="Trazado 30404" d="M2545.168,975.331a2.47,2.47,0,0,1-2.339-1.679l-.086-.255a2.467,2.467,0,0,1,1.55-3.122l11.308-3.81,1.66,4.927-11.308,3.809A2.454,2.454,0,0,1,2545.168,975.331Zm9.411-6.808-9.768,3.291a.842.842,0,0,0-.528,1.065l.085.255a.84.84,0,0,0,1.064.528l9.768-3.291Z" transform="translate(-2542.615 -966.465)" fill="#233d69"/>
          </g>
          <g id="Grupo_27556" data-name="Grupo 27556" transform="translate(16.414 9.554)">
            <path id="Trazado_30405" data-name="Trazado 30405" d="M2553.771,951.6a.538.538,0,0,1-.172-1.047l10.154-3.421a.538.538,0,1,1,.344,1.019l-10.155,3.421A.543.543,0,0,1,2553.771,951.6Z" transform="translate(-2553.232 -947.108)" fill="#233d69"/>
          </g>
          <g id="Grupo_27557" data-name="Grupo 27557" transform="translate(33.093 0.942)">
            <path id="Trazado_30406" data-name="Trazado 30406" d="M2580.83,970.771a3.425,3.425,0,0,1-3.243-2.328l-8.406-24.949a3.421,3.421,0,0,1,2.149-4.333l.041-.014a3.418,3.418,0,0,1,4.333,2.149l8.405,24.948a3.423,3.423,0,0,1-2.148,4.333l-.041.014A3.4,3.4,0,0,1,2580.83,970.771Zm-8.366-30.026a1.645,1.645,0,0,0-.526.087l-.041.014a1.643,1.643,0,0,0-1.031,2.082l8.4,24.948a1.645,1.645,0,0,0,2.082,1.032h0l.041-.014a1.644,1.644,0,0,0,1.032-2.082l-8.405-24.948a1.647,1.647,0,0,0-1.556-1.119Z" transform="translate(-2569 -938.967)" fill="#233d69"/>
          </g>
          <g id="Grupo_27558" data-name="Grupo 27558" transform="translate(28.623 8.391)">
            <path id="Trazado_30407" data-name="Trazado 30407" d="M2565.312,947.585a.537.537,0,0,1-.164-1.049l1.568-.5a.537.537,0,1,1,.328,1.023l-1.568.5A.543.543,0,0,1,2565.312,947.585Z" transform="translate(-2564.775 -946.008)" fill="#233d69"/>
          </g>
          <g id="Grupo_27559" data-name="Grupo 27559" transform="translate(47.512 7.828)">
            <path id="Trazado_30408" data-name="Trazado 30408" d="M2583.018,945.508h0a.567.567,0,0,1,.721.355l3.122,9.187a.569.569,0,0,1-.355.721h0a.568.568,0,0,1-.721-.355l-3.122-9.188A.567.567,0,0,1,2583.018,945.508Z" transform="translate(-2582.632 -945.477)" fill="#233d69"/>
          </g>
          <g id="Grupo_27560" data-name="Grupo 27560" transform="translate(44.82 8.743)">
            <path id="Trazado_30409" data-name="Trazado 30409" d="M2580.473,946.372h0a.57.57,0,0,1,.722.355l3.121,9.188a.569.569,0,0,1-.355.721h0a.569.569,0,0,1-.721-.356l-3.122-9.187A.569.569,0,0,1,2580.473,946.372Z" transform="translate(-2580.087 -946.341)" fill="#233d69"/>
          </g>
        </g>
        <g id="Grupo_27562" data-name="Grupo 27562" transform="translate(156.215)">
          <path id="Trazado_30410" data-name="Trazado 30410" d="M2523.3,939.874h-.061a.941.941,0,0,1-.879-1l1.117-17.627a.941.941,0,1,1,1.878.119l-1.117,17.627A.939.939,0,0,1,2523.3,939.874Z" transform="translate(-2522.362 -920.365)" fill="#233d69"/>
        </g>
        <g id="Grupo_27563" data-name="Grupo 27563" transform="translate(170.865 76.701)">
          <path id="Trazado_30411" data-name="Trazado 30411" d="M2546.255,1010.077a.941.941,0,0,1-.861-.561L2538.62,994.2a.941.941,0,1,1,1.721-.762l6.774,15.318a.943.943,0,0,1-.86,1.322Z" transform="translate(-2538.54 -992.876)" fill="#233d69"/>
        </g>
        <g id="Grupo_27564" data-name="Grupo 27564" transform="translate(132.994 8.845)">
          <path id="Trazado_30412" data-name="Trazado 30412" d="M2511.387,943.091a.939.939,0,0,1-.734-.351l-10.036-12.482a.941.941,0,0,1,1.467-1.179l10.036,12.482a.941.941,0,0,1-.733,1.531Z" transform="translate(-2500.409 -928.727)" fill="#233d69"/>
        </g>
        <g id="Grupo_27565" data-name="Grupo 27565" transform="translate(182.015 67.13)">
          <path id="Trazado_30413" data-name="Trazado 30413" d="M2562.831,992.346a.949.949,0,0,1-.432-.106l-12.81-6.637a.941.941,0,1,1,.865-1.67l12.81,6.635a.941.941,0,0,1-.434,1.777Z" transform="translate(-2549.081 -983.828)" fill="#233d69"/>
        </g>
        <g id="Grupo_27566" data-name="Grupo 27566" transform="translate(156.161 79.962)">
          <path id="Trazado_30414" data-name="Trazado 30414" d="M2525.58,1012.927h-.042a.941.941,0,0,1-.9-.982l.667-15.086a.941.941,0,0,1,1.88.083l-.667,15.086A.94.94,0,0,1,2525.58,1012.927Z" transform="translate(-2524.639 -995.959)" fill="#233d69"/>
        </g>
        <g id="Grupo_27567" data-name="Grupo 27567" transform="translate(135.907 78.278)">
          <path id="Trazado_30415" data-name="Trazado 30415" d="M2506.431,1008.253a.941.941,0,0,1-.791-1.448l7.675-12a.941.941,0,0,1,1.586,1.013l-7.676,12A.936.936,0,0,1,2506.431,1008.253Z" transform="translate(-2505.491 -994.367)" fill="#233d69"/>
        </g>
        <g id="Grupo_27568" data-name="Grupo 27568" transform="translate(172.825 11.228)">
          <path id="Trazado_30416" data-name="Trazado 30416" d="M2539.006,943.275a.942.942,0,0,1-.7-1.574l9.473-10.413a.941.941,0,0,1,1.392,1.266l-9.472,10.413A.936.936,0,0,1,2539.006,943.275Z" transform="translate(-2538.065 -930.98)" fill="#233d69"/>
        </g>
        <g id="Grupo_27569" data-name="Grupo 27569" transform="translate(112.915 48.738)">
          <path id="Trazado_30417" data-name="Trazado 30417" d="M2484.436,973.906a.627.627,0,0,1-.609-.481,2.513,2.513,0,0,1,.7-2.389,3.894,3.894,0,0,1,1.007-.765l.037-.019.039-.014,10.977-3.763a.627.627,0,1,1,.406,1.187l-10.929,3.748c-.2.11-1.255.744-1.02,1.722a.627.627,0,0,1-.463.756A.643.643,0,0,1,2484.436,973.906Z" transform="translate(-2483.755 -966.441)" fill="#233d69"/>
        </g>
        <g id="Grupo_27570" data-name="Grupo 27570" transform="translate(117.815 26.282)">
          <path id="Trazado_30418" data-name="Trazado 30418" d="M2501.113,952.3a.945.945,0,0,1-.325-.058l-14.114-5.206a.941.941,0,0,1,.652-1.765l14.113,5.206a.941.941,0,0,1-.326,1.824Z" transform="translate(-2486.06 -945.212)" fill="#233d69"/>
        </g>
      </g>
      <line id="Línea_700" data-name="Línea 700" x2="17" transform="translate(675.5 144.5)" fill="none" stroke="#d2e9fd" stroke-linecap="round" stroke-width="4"/>
    </g>
    <g id="Grupo_27609" data-name="Grupo 27609" transform="translate(14.509 -251.075)">
      <path id="Trazado_30526" data-name="Trazado 30526" d="M564.81,451.211H561.8l-3.506-8.749q.143,1.132.231,2.128t.088,2.335v4.287h-2.119V440.183h2.948l3.57,8.765a26.7,26.7,0,0,1-.319-3.919v-4.846h2.12Z" transform="translate(0 0.437)" fill="#6b778c"/>
      <path id="Trazado_30527" data-name="Trazado 30527" d="M571.115,443.122a4.746,4.746,0,0,1,1.068,3.291,5.352,5.352,0,0,1-.486,2.351,3.631,3.631,0,0,1-1.4,1.57,4.072,4.072,0,0,1-2.159.558,3.808,3.808,0,0,1-2.972-1.187,4.723,4.723,0,0,1-1.076-3.291,5.37,5.37,0,0,1,.486-2.351,3.63,3.63,0,0,1,1.4-1.57,4.1,4.1,0,0,1,2.175-.556A3.782,3.782,0,0,1,571.115,443.122Zm-4.247,1.179a5.49,5.49,0,0,0,0,4.223,1.524,1.524,0,0,0,2.534,0,4.1,4.1,0,0,0,.422-2.112,4.168,4.168,0,0,0-.414-2.112,1.375,1.375,0,0,0-1.259-.676A1.408,1.408,0,0,0,566.868,444.3Z" transform="translate(2.492 1.012)" fill="#6b778c"/>
      <path id="Trazado_30528" data-name="Trazado 30528" d="M581.625,447.1H576.35a2.509,2.509,0,0,0,.621,1.625,1.946,1.946,0,0,0,1.386.478,2.938,2.938,0,0,0,1.02-.175,4.726,4.726,0,0,0,1.036-.558l.94,1.275a4.959,4.959,0,0,1-3.2,1.147,3.889,3.889,0,0,1-3.06-1.2,4.678,4.678,0,0,1-1.068-3.235,5.681,5.681,0,0,1,.454-2.319,3.731,3.731,0,0,1,1.323-1.618,3.991,3.991,0,0,1,4.869.542,4.592,4.592,0,0,1,1,3.155Q581.672,446.381,581.625,447.1Zm-2.2-1.514q0-2.1-1.514-2.1a1.289,1.289,0,0,0-1.092.518,3.21,3.21,0,0,0-.47,1.681h3.076Z" transform="translate(5.751 1.012)" fill="#6b778c"/>
      <path id="Trazado_30529" data-name="Trazado 30529" d="M585.449,446.047l2.773,4.526h-2.6l-1.61-3.267-1.578,3.267h-2.486l2.773-4.446-2.486-4h2.55l1.323,2.8,1.291-2.8h2.422Z" transform="translate(7.696 1.075)" fill="#6b778c"/>
      <path id="Trazado_30530" data-name="Trazado 30530" d="M589.11,439.225a1.348,1.348,0,0,1,0,1.9,1.379,1.379,0,0,1-1,.373,1.352,1.352,0,0,1-.988-.373,1.368,1.368,0,0,1,0-1.9,1.353,1.353,0,0,1,.988-.374A1.38,1.38,0,0,1,589.11,439.225Zm.151,3.976v8.446H587V443.2Z" transform="translate(9.924)" fill="#6b778c"/>
      <path id="Trazado_30531" data-name="Trazado 30531" d="M596.416,442.955l-.861,1.291a3.947,3.947,0,0,0-2.1-.669,1.525,1.525,0,0,0-.861.207.644.644,0,0,0-.3.558.683.683,0,0,0,.135.43,1.247,1.247,0,0,0,.51.335,11.041,11.041,0,0,0,1.124.382,4.723,4.723,0,0,1,1.992.98,2.2,2.2,0,0,1,.653,1.681,2.307,2.307,0,0,1-.486,1.466,3.031,3.031,0,0,1-1.315.948,5,5,0,0,1-1.849.327,5.531,5.531,0,0,1-1.944-.327,4.47,4.47,0,0,1-1.5-.9l1.115-1.243a3.632,3.632,0,0,0,2.263.829A1.817,1.817,0,0,0,594,449a.771.771,0,0,0,.374-.677.859.859,0,0,0-.143-.526,1.3,1.3,0,0,0-.526-.357,9.283,9.283,0,0,0-1.2-.392,4.032,4.032,0,0,1-1.888-1,2.231,2.231,0,0,1-.614-1.6,2.152,2.152,0,0,1,.414-1.292,2.743,2.743,0,0,1,1.171-.9,4.438,4.438,0,0,1,1.761-.325A4.745,4.745,0,0,1,596.416,442.955Z" transform="translate(10.865 1.012)" fill="#6b778c"/>
      <path id="Trazado_30532" data-name="Trazado 30532" d="M601.379,450.7a3.561,3.561,0,0,1-1.045.485,4.165,4.165,0,0,1-1.155.167,2.585,2.585,0,0,1-1.975-.749,3.084,3.084,0,0,1-.669-2.151v-4.207h-1.26v-1.594h1.26V440.8l2.263-.271v2.12h1.944l-.223,1.594H598.8V448.4a1.455,1.455,0,0,0,.207.876.75.75,0,0,0,.636.271,2.036,2.036,0,0,0,.958-.287Z" transform="translate(12.722 0.551)" fill="#6b778c"/>
      <path id="Trazado_30533" data-name="Trazado 30533" d="M607.641,447.1h-5.275a2.5,2.5,0,0,0,.62,1.625,1.949,1.949,0,0,0,1.388.478,2.931,2.931,0,0,0,1.019-.175,4.729,4.729,0,0,0,1.037-.558l.94,1.275a4.965,4.965,0,0,1-3.2,1.147,3.889,3.889,0,0,1-3.06-1.2,4.684,4.684,0,0,1-1.066-3.235,5.68,5.68,0,0,1,.453-2.319,3.731,3.731,0,0,1,1.323-1.618,3.589,3.589,0,0,1,2.065-.588,3.551,3.551,0,0,1,2.8,1.13,4.592,4.592,0,0,1,1,3.155C607.687,446.328,607.672,446.62,607.641,447.1Zm-2.2-1.514q0-2.1-1.514-2.1a1.285,1.285,0,0,0-1.09.518,3.2,3.2,0,0,0-.47,1.681h3.074Z" transform="translate(14.285 1.012)" fill="#6b778c"/>
      <path id="Trazado_30534" data-name="Trazado 30534" d="M613.489,442.612a2.668,2.668,0,0,1,.621,1.872v6.151h-2.263v-5.769a1.535,1.535,0,0,0-.231-.964.848.848,0,0,0-.693-.278,1.406,1.406,0,0,0-.869.293,3.248,3.248,0,0,0-.757.884v5.833h-2.263V442.19H609l.175,1.068a3.762,3.762,0,0,1,1.155-.987,2.991,2.991,0,0,1,1.426-.335A2.24,2.24,0,0,1,613.489,442.612Z" transform="translate(16.58 1.012)" fill="#6b778c"/>
      <path id="Trazado_30535" data-name="Trazado 30535" d="M623.007,442.955l-.861,1.291a3.947,3.947,0,0,0-2.1-.669,1.525,1.525,0,0,0-.861.207.644.644,0,0,0-.3.558.683.683,0,0,0,.135.43,1.247,1.247,0,0,0,.51.335,11.041,11.041,0,0,0,1.124.382,4.724,4.724,0,0,1,1.992.98,2.2,2.2,0,0,1,.653,1.681,2.307,2.307,0,0,1-.486,1.466,3.034,3.034,0,0,1-1.313.948,5.015,5.015,0,0,1-1.85.327,5.53,5.53,0,0,1-1.944-.327,4.47,4.47,0,0,1-1.5-.9l1.115-1.243a3.632,3.632,0,0,0,2.263.829,1.817,1.817,0,0,0,1.012-.247.772.772,0,0,0,.376-.677.859.859,0,0,0-.145-.526,1.3,1.3,0,0,0-.526-.357,9.286,9.286,0,0,0-1.2-.392,4.032,4.032,0,0,1-1.888-1,2.231,2.231,0,0,1-.614-1.6,2.152,2.152,0,0,1,.414-1.292,2.743,2.743,0,0,1,1.171-.9,4.442,4.442,0,0,1,1.761-.325A4.745,4.745,0,0,1,623.007,442.955Z" transform="translate(19.587 1.012)" fill="#6b778c"/>
      <path id="Trazado_30536" data-name="Trazado 30536" d="M629.877,447.1H624.6a2.509,2.509,0,0,0,.622,1.625,1.947,1.947,0,0,0,1.388.478,2.937,2.937,0,0,0,1.019-.175,4.721,4.721,0,0,0,1.036-.558l.94,1.275a4.959,4.959,0,0,1-3.2,1.147,3.889,3.889,0,0,1-3.06-1.2,4.678,4.678,0,0,1-1.068-3.235,5.68,5.68,0,0,1,.454-2.319,3.731,3.731,0,0,1,1.323-1.618,3.991,3.991,0,0,1,4.869.542,4.592,4.592,0,0,1,1,3.155Q629.923,446.381,629.877,447.1Zm-2.2-1.514q0-2.1-1.514-2.1a1.289,1.289,0,0,0-1.092.518,3.21,3.21,0,0,0-.47,1.681h3.076Z" transform="translate(21.579 1.012)" fill="#6b778c"/>
      <path id="Trazado_30537" data-name="Trazado 30537" d="M634.481,442.074l-.382,2.185a3.125,3.125,0,0,0-.749-.112,1.393,1.393,0,0,0-1.163.526,4.01,4.01,0,0,0-.653,1.592v4.367H629.27v-8.446h1.96l.207,1.641a3.064,3.064,0,0,1,.885-1.386,1.977,1.977,0,0,1,1.315-.494A3.2,3.2,0,0,1,634.481,442.074Z" transform="translate(23.874 1.016)" fill="#6b778c"/>
      <path id="Trazado_30538" data-name="Trazado 30538" d="M641.329,442.127l-2.709,8.446h-2.693l-2.757-8.446h2.456L637.3,448.8,639,442.127Z" transform="translate(25.154 1.075)" fill="#6b778c"/>
      <path id="Trazado_30539" data-name="Trazado 30539" d="M642.3,439.225a1.348,1.348,0,0,1,0,1.9,1.379,1.379,0,0,1-1,.373,1.352,1.352,0,0,1-.988-.373,1.368,1.368,0,0,1,0-1.9,1.353,1.353,0,0,1,.988-.374A1.38,1.38,0,0,1,642.3,439.225Zm.151,3.976v8.446h-2.263V443.2Z" transform="translate(27.374)" fill="#6b778c"/>
      <path id="Trazado_30540" data-name="Trazado 30540" d="M648.684,442.182a4.123,4.123,0,0,1,1.283.773l-.988,1.339a3.116,3.116,0,0,0-.8-.462,2.485,2.485,0,0,0-.853-.143q-1.8,0-1.8,2.773a3.367,3.367,0,0,0,.462,2.008,1.562,1.562,0,0,0,1.323.607,2.33,2.33,0,0,0,.813-.137,4.508,4.508,0,0,0,.861-.454l.988,1.42a4.263,4.263,0,0,1-2.773.987,4.165,4.165,0,0,1-2.159-.542,3.591,3.591,0,0,1-1.41-1.538,5.2,5.2,0,0,1-.494-2.335,5.4,5.4,0,0,1,.494-2.367,3.766,3.766,0,0,1,1.41-1.6,3.923,3.923,0,0,1,2.128-.572A4.45,4.45,0,0,1,648.684,442.182Z" transform="translate(28.421 1.012)" fill="#6b778c"/>
      <path id="Trazado_30541" data-name="Trazado 30541" d="M651.425,439.225a1.349,1.349,0,0,1,0,1.9,1.379,1.379,0,0,1-1,.373,1.352,1.352,0,0,1-.988-.373,1.368,1.368,0,0,1,0-1.9,1.353,1.353,0,0,1,.988-.374A1.381,1.381,0,0,1,651.425,439.225Zm.151,3.976v8.446h-2.263V443.2Z" transform="translate(30.365)" fill="#6b778c"/>
      <path id="Trazado_30542" data-name="Trazado 30542" d="M659.278,443.122a4.745,4.745,0,0,1,1.068,3.291,5.37,5.37,0,0,1-.486,2.351,3.631,3.631,0,0,1-1.4,1.57,4.072,4.072,0,0,1-2.159.558,3.807,3.807,0,0,1-2.972-1.187,4.723,4.723,0,0,1-1.076-3.291,5.37,5.37,0,0,1,.486-2.351,3.63,3.63,0,0,1,1.4-1.57,4.1,4.1,0,0,1,2.175-.556A3.782,3.782,0,0,1,659.278,443.122Zm-4.247,1.179a5.49,5.49,0,0,0,0,4.223,1.524,1.524,0,0,0,2.534,0,4.1,4.1,0,0,0,.422-2.112,4.168,4.168,0,0,0-.414-2.112,1.375,1.375,0,0,0-1.259-.676A1.408,1.408,0,0,0,655.031,444.3Z" transform="translate(31.412 1.012)" fill="#6b778c"/>
      <path id="Trazado_30543" data-name="Trazado 30543" d="M665.739,442.955l-.861,1.291a3.947,3.947,0,0,0-2.1-.669,1.522,1.522,0,0,0-.861.207.644.644,0,0,0-.3.558.683.683,0,0,0,.135.43,1.248,1.248,0,0,0,.51.335,11.041,11.041,0,0,0,1.124.382,4.724,4.724,0,0,1,1.992.98,2.2,2.2,0,0,1,.653,1.681,2.307,2.307,0,0,1-.486,1.466,3.039,3.039,0,0,1-1.315.948,5.007,5.007,0,0,1-1.849.327,5.525,5.525,0,0,1-1.944-.327,4.471,4.471,0,0,1-1.5-.9l1.116-1.243a3.631,3.631,0,0,0,2.263.829,1.817,1.817,0,0,0,1.012-.247.771.771,0,0,0,.375-.677.858.858,0,0,0-.143-.526,1.3,1.3,0,0,0-.526-.357,9.285,9.285,0,0,0-1.2-.392,4.025,4.025,0,0,1-1.888-1,2.231,2.231,0,0,1-.614-1.6,2.143,2.143,0,0,1,.414-1.292,2.743,2.743,0,0,1,1.171-.9,4.438,4.438,0,0,1,1.761-.325A4.75,4.75,0,0,1,665.739,442.955Z" transform="translate(33.605 1.012)" fill="#6b778c"/>
      <path id="Trazado_30544" data-name="Trazado 30544" d="M675.069,449.02a.851.851,0,0,0,.478.341l-.478,1.5a2.774,2.774,0,0,1-1.219-.351,1.824,1.824,0,0,1-.725-.892,2.815,2.815,0,0,1-2.534,1.275,2.732,2.732,0,0,1-2-.725,2.522,2.522,0,0,1-.741-1.888,2.465,2.465,0,0,1,1-2.12,4.849,4.849,0,0,1,2.885-.733h.974v-.414a1.38,1.38,0,0,0-.351-1.082,1.773,1.773,0,0,0-1.163-.3,7.334,7.334,0,0,0-2.232.445l-.509-1.514a8.468,8.468,0,0,1,3.124-.62,3.671,3.671,0,0,1,2.533.74,2.835,2.835,0,0,1,.814,2.207v3.41A1.41,1.41,0,0,0,675.069,449.02Zm-2.359-.695v-1.61h-.75q-1.833,0-1.833,1.37a1.253,1.253,0,0,0,.279.869,1.029,1.029,0,0,0,.8.311A1.667,1.667,0,0,0,672.711,448.325Z" transform="translate(36.53 1.012)" fill="#6b778c"/>
      <path id="Trazado_30545" data-name="Trazado 30545" d="M680.859,442.955,680,444.245a3.948,3.948,0,0,0-2.1-.669,1.525,1.525,0,0,0-.861.207.644.644,0,0,0-.3.558.683.683,0,0,0,.135.43,1.247,1.247,0,0,0,.51.335,11.037,11.037,0,0,0,1.123.382,4.724,4.724,0,0,1,1.992.98,2.2,2.2,0,0,1,.653,1.681,2.307,2.307,0,0,1-.486,1.466,3.031,3.031,0,0,1-1.315.948,5,5,0,0,1-1.849.327,5.53,5.53,0,0,1-1.944-.327,4.471,4.471,0,0,1-1.5-.9l1.116-1.243a3.632,3.632,0,0,0,2.263.829,1.817,1.817,0,0,0,1.012-.247.771.771,0,0,0,.375-.677.859.859,0,0,0-.143-.526,1.3,1.3,0,0,0-.526-.357,9.285,9.285,0,0,0-1.2-.392,4.032,4.032,0,0,1-1.888-1,2.231,2.231,0,0,1-.614-1.6,2.152,2.152,0,0,1,.414-1.292,2.744,2.744,0,0,1,1.171-.9,4.438,4.438,0,0,1,1.761-.325A4.745,4.745,0,0,1,680.859,442.955Z" transform="translate(38.565 1.012)" fill="#6b778c"/>
      <path id="Trazado_30546" data-name="Trazado 30546" d="M687.153,443.122a4.745,4.745,0,0,1,1.068,3.291,5.352,5.352,0,0,1-.486,2.351,3.631,3.631,0,0,1-1.4,1.57,4.072,4.072,0,0,1-2.159.558A3.8,3.8,0,0,1,681.2,449.7a4.723,4.723,0,0,1-1.077-3.291,5.37,5.37,0,0,1,.486-2.351,3.63,3.63,0,0,1,1.4-1.57,4.1,4.1,0,0,1,2.177-.556A3.781,3.781,0,0,1,687.153,443.122Zm-4.247,1.179a5.49,5.49,0,0,0,0,4.223,1.524,1.524,0,0,0,2.534,0,4.1,4.1,0,0,0,.422-2.112,4.168,4.168,0,0,0-.414-2.112,1.375,1.375,0,0,0-1.258-.676A1.409,1.409,0,0,0,682.906,444.3Z" transform="translate(40.557 1.012)" fill="#6b778c"/>
      <path id="Trazado_30547" data-name="Trazado 30547" d="M692.688,442.182a4.122,4.122,0,0,1,1.283.773l-.988,1.339a3.139,3.139,0,0,0-.8-.462,2.491,2.491,0,0,0-.853-.143q-1.8,0-1.8,2.773a3.367,3.367,0,0,0,.462,2.008,1.562,1.562,0,0,0,1.323.607,2.336,2.336,0,0,0,.813-.137,4.514,4.514,0,0,0,.861-.454l.988,1.42a4.262,4.262,0,0,1-2.773.987,4.165,4.165,0,0,1-2.159-.542,3.575,3.575,0,0,1-1.41-1.538,5.2,5.2,0,0,1-.494-2.335,5.4,5.4,0,0,1,.494-2.367,3.749,3.749,0,0,1,1.41-1.6,3.924,3.924,0,0,1,2.128-.572A4.45,4.45,0,0,1,692.688,442.182Z" transform="translate(42.856 1.012)" fill="#6b778c"/>
      <path id="Trazado_30548" data-name="Trazado 30548" d="M695.428,439.225a1.348,1.348,0,0,1,0,1.9,1.383,1.383,0,0,1-1,.373,1.352,1.352,0,0,1-.988-.373,1.368,1.368,0,0,1,0-1.9,1.353,1.353,0,0,1,.988-.374A1.385,1.385,0,0,1,695.428,439.225Zm.151,3.976v8.446h-2.264V443.2Z" transform="translate(44.8)" fill="#6b778c"/>
      <path id="Trazado_30549" data-name="Trazado 30549" d="M703.388,449.02a.856.856,0,0,0,.478.341l-.478,1.5a2.779,2.779,0,0,1-1.219-.351,1.829,1.829,0,0,1-.724-.892,2.817,2.817,0,0,1-2.535,1.275,2.731,2.731,0,0,1-2-.725,2.518,2.518,0,0,1-.742-1.888,2.463,2.463,0,0,1,1-2.12,4.848,4.848,0,0,1,2.884-.733h.974v-.414a1.376,1.376,0,0,0-.352-1.082,1.769,1.769,0,0,0-1.163-.3,7.336,7.336,0,0,0-2.231.445l-.51-1.514a8.475,8.475,0,0,1,3.125-.62,3.67,3.67,0,0,1,2.533.74,2.839,2.839,0,0,1,.814,2.207v3.41A1.426,1.426,0,0,0,703.388,449.02Zm-2.357-.695v-1.61h-.75q-1.833,0-1.833,1.37a1.253,1.253,0,0,0,.279.869,1.025,1.025,0,0,0,.8.311A1.667,1.667,0,0,0,701.031,448.325Z" transform="translate(45.82 1.012)" fill="#6b778c"/>
      <path id="Trazado_30550" data-name="Trazado 30550" d="M710.622,439.658v11.809H708.63l-.128-1.035a2.8,2.8,0,0,1-2.421,1.289,2.705,2.705,0,0,1-2.384-1.2,5.735,5.735,0,0,1-.821-3.275,5.966,5.966,0,0,1,.422-2.317,3.652,3.652,0,0,1,1.2-1.587,2.954,2.954,0,0,1,1.8-.572,2.865,2.865,0,0,1,2.054.843V439.4Zm-3,10.128a2.631,2.631,0,0,0,.733-.773v-3.777a2.645,2.645,0,0,0-.677-.6,1.554,1.554,0,0,0-.789-.2,1.373,1.373,0,0,0-1.219.685,4.02,4.02,0,0,0-.438,2.12,4.347,4.347,0,0,0,.39,2.151,1.241,1.241,0,0,0,1.124.638A1.58,1.58,0,0,0,707.626,449.786Z" transform="translate(48.02 0.181)" fill="#6b778c"/>
      <path id="Trazado_30551" data-name="Trazado 30551" d="M717.033,443.122a4.746,4.746,0,0,1,1.068,3.291,5.37,5.37,0,0,1-.486,2.351,3.631,3.631,0,0,1-1.4,1.57,4.072,4.072,0,0,1-2.159.558,3.808,3.808,0,0,1-2.972-1.187,4.723,4.723,0,0,1-1.076-3.291,5.372,5.372,0,0,1,.486-2.351,3.63,3.63,0,0,1,1.4-1.57,4.1,4.1,0,0,1,2.175-.556A3.782,3.782,0,0,1,717.033,443.122Zm-4.247,1.179a5.49,5.49,0,0,0,0,4.223,1.524,1.524,0,0,0,2.534,0,4.1,4.1,0,0,0,.422-2.112,4.168,4.168,0,0,0-.414-2.112,1.375,1.375,0,0,0-1.259-.676A1.408,1.408,0,0,0,712.786,444.3Z" transform="translate(50.358 1.012)" fill="#6b778c"/>
      <path id="Trazado_30552" data-name="Trazado 30552" d="M723.494,442.955l-.859,1.291a3.951,3.951,0,0,0-2.1-.669,1.519,1.519,0,0,0-.86.207.644.644,0,0,0-.3.558.683.683,0,0,0,.135.43,1.232,1.232,0,0,0,.509.335,11.084,11.084,0,0,0,1.125.382,4.74,4.74,0,0,1,1.992.98,2.2,2.2,0,0,1,.653,1.681,2.307,2.307,0,0,1-.486,1.466,3.046,3.046,0,0,1-1.315.948,5.012,5.012,0,0,1-1.849.327,5.538,5.538,0,0,1-1.946-.327,4.47,4.47,0,0,1-1.5-.9l1.117-1.243a3.628,3.628,0,0,0,2.262.829,1.819,1.819,0,0,0,1.013-.247.771.771,0,0,0,.375-.677.85.85,0,0,0-.145-.526,1.285,1.285,0,0,0-.526-.357,9.183,9.183,0,0,0-1.194-.392,4.018,4.018,0,0,1-1.888-1,2.231,2.231,0,0,1-.614-1.6,2.144,2.144,0,0,1,.414-1.292,2.743,2.743,0,0,1,1.171-.9,4.432,4.432,0,0,1,1.761-.325A4.744,4.744,0,0,1,723.494,442.955Z" transform="translate(52.551 1.012)" fill="#6b778c"/>
      <path id="Trazado_30553" data-name="Trazado 30553" d="M725.04,447.025a1.3,1.3,0,0,1,.4.956,1.336,1.336,0,0,1-.4.965,1.313,1.313,0,0,1-.972.405,1.3,1.3,0,0,1-.956-.405,1.335,1.335,0,0,1-.4-.965,1.36,1.36,0,0,1,1.354-1.355A1.328,1.328,0,0,1,725.04,447.025Z" transform="translate(54.527 2.551)" fill="#6b778c"/>
    </g>
  </g>
</svg>
