<?xml version="1.0" encoding="utf-8"?>
<!-- Generator: Adobe Illustrator 24.0.3, SVG Export Plug-In . SVG Version: 6.00 Build 0)  -->
<svg version="1.1" id="Capa_1" xmlns="http://www.w3.org/2000/svg" xmlns:xlink="http://www.w3.org/1999/xlink" x="0px" y="0px"
	 viewBox="0 0 437.1 382" style="enable-background:new 0 0 437.1 382;" xml:space="preserve">
<style type="text/css">
	.st0{fill:url(#Trazado_30419_1_);stroke:#EAF2FF;stroke-miterlimit:10;}
	.st1{fill:#233D69;}
	.st2{fill:#D2E9FD;}
	.st3{fill:#CCDCEA;}
	.st4{fill:none;}
	.st5{fill:#EEC251;}
	.st6{fill:none;stroke:#D2E9FD;stroke-width:4;stroke-linecap:round;}
	.st7{fill:#505F79;}
</style>
<g id="Grupo_27607" transform="translate(-465 -142.5)">
	<g id="Grupo_27606">
		<g id="Grupo_27572" transform="translate(530.54 245.666)">
			
				<linearGradient id="Trazado_30419_1_" gradientUnits="userSpaceOnUse" x1="-526.3787" y1="471.0451" x2="-526.3787" y2="472.3221" gradientTransform="matrix(278.709 0 0 -279.914 146859.3281 132159.2344)">
				<stop  offset="0" style="stop-color:#FFFFFF"/>
				<stop  offset="1" style="stop-color:#E0ECFC"/>
			</linearGradient>
			<path id="Trazado_30419" class="st0" d="M285.6,112l-25.4-6c-0.3-0.1-0.6-0.1-0.9-0.1c-2.1-6.9-4.9-13.5-8.2-19.8
				c0.2-0.2,0.4-0.5,0.6-0.7l13.7-22.2c1.9-3.1,1.8-7.5-0.4-9.6s-3.9-4-3.9-4l-19.7-19.8l-3.9-4c-2.2-2.2-6.5-2.4-9.6-0.4
				l-22.1,13.8c-0.3,0.2-0.5,0.4-0.7,0.6c-6.3-3.4-12.9-6.2-19.8-8.3c0-0.3-0.1-0.6-0.1-0.9L179.1,5c-0.8-3.6-4-6.5-7.1-6.6l-5.6,0
				l-27.8-0.1l-5.6,0c-3.1,0-6.2,2.9-7.1,6.5l-5.8,25.5c-0.1,0.3-0.1,0.6-0.1,0.9c-6.8,2.1-13.4,4.8-19.7,8.2
				c-0.2-0.2-0.5-0.4-0.7-0.6L77.4,25c-3.1-2-7.4-1.8-9.6,0.4l-3.9,3.9L44.3,49L40.3,53c-2.2,2.2-2.3,6.5-0.4,9.6l13.8,22.2
				c0.2,0.3,0.4,0.5,0.6,0.7c-3.3,6.3-6.1,13-8.1,19.8c-0.3,0-0.6,0.1-0.9,0.1l-25.4,5.8c-3.6,0.8-6.5,4-6.5,7.1l0,5.6l0.1,27.9
				l0,5.6c0,3.1,2.9,6.3,6.5,7.1l25.4,6c0.3,0.1,0.6,0.1,0.9,0.1c2.1,6.9,4.9,13.5,8.2,19.8c-0.2,0.2-0.4,0.5-0.6,0.7l-13.7,22.2
				c-1.9,3.1-1.8,7.5,0.4,9.6s3.9,4,3.9,4l19.7,19.8l3.9,4c2.2,2.2,6.5,2.4,9.6,0.4l22.1-13.8c0.3-0.2,0.5-0.4,0.7-0.6
				c6.3,3.4,12.9,6.2,19.8,8.3c0,0.3,0.1,0.6,0.1,0.9l5.9,25.5c0.8,3.6,4,6.5,7.1,6.6l5.6,0l27.8,0.1l5.6,0c3.1,0,6.2-2.9,7.1-6.5
				l5.8-25.5c0.1-0.3,0.1-0.6,0.1-0.9c6.8-2.1,13.4-4.8,19.7-8.2c0.2,0.2,0.5,0.4,0.7,0.6l22.1,13.9c3.1,2,7.4,1.8,9.6-0.4l3.9-3.9
				l19.6-19.7c0,0,1.8-1.8,3.9-3.9s2.3-6.5,0.4-9.6l-13.8-22.2c-0.2-0.3-0.4-0.5-0.6-0.7c3.3-6.3,6.1-13,8.1-19.8
				c0.3,0,0.6-0.1,0.9-0.1l25.4-5.8c3.6-0.8,6.5-4,6.5-7.1l0-5.6l-0.1-28l0-5.6C292.1,116,289.2,112.8,285.6,112z M153,202.7
				c-35.5-0.2-64.2-29-64.2-64.5c-0.2-35.2,28.2-64,63.5-64.2c0.1,0,0.3,0,0.4,0c35.5,0.2,64.2,29,64.2,64.5
				c0.2,35.2-28.2,64-63.5,64.2C153.3,202.7,153.1,202.7,153,202.7L153,202.7z"/>
		</g>
		<g id="Grupo_27571" transform="translate(526.531 334.332)">
			<g id="Grupo_27530" transform="translate(0 24.55)">
				<path id="Trazado_30383" class="st1" d="M77.7,50c-3.1,0-6.2-0.4-9.1-1.3c-1.8-0.6-3.5-1.5-4.9-2.7c-1.5-1.3-2.5-2.9-3-4.8
					c-0.7-2.7-0.2-5.7,1.6-9.4c0.3-0.6,0.6-1.2,0.9-1.8c2-4,4-8.2,4.3-12.7c0.2-2.1-0.3-4.2-1.3-6.1c-1.2-2.1-3-3.9-5.1-5.1
					c-3.4-2.2-7.3-3.6-11.4-4c-3.8-0.4-7.7-0.1-11.4,0.8c-7.6,1.8-15,5.6-22.2,9.3c-1.8,0.9-3.4,1.9-5,2.8c-3.1,1.9-6.3,3.5-9.8,4.7
					c-0.5,0.2-1-0.1-1.2-0.6c-0.2-0.5,0.1-1,0.6-1.2l0,0c3.3-1.1,6.4-2.7,9.4-4.5c1.6-0.9,3.2-1.9,5.1-2.8C22.4,6.7,29.9,2.8,37.7,1
					c9.1-2.1,17-1,24.2,3.5c2.4,1.4,4.4,3.4,5.8,5.8c1.1,2.2,1.7,4.7,1.5,7.1c-0.3,4.9-2.4,9.2-4.5,13.4c-0.3,0.6-0.6,1.2-0.9,1.8
					c-1.6,3.2-2,5.9-1.4,8.1c0.9,3.3,4,5.4,6.7,6.2c3.6,1.1,7.4,1.4,11.1,1.1c3.7-0.3,7.4-1.1,10.9-2.3c0.5-0.2,1,0.1,1.2,0.6
					c0.2,0.5-0.1,1-0.6,1.2l0,0c-3.7,1.3-7.5,2.2-11.4,2.4C79.4,50,78.5,50,77.7,50z"/>
			</g>
			<g id="Grupo_27531" transform="translate(0.55 29.573)">
				<path id="Trazado_30384" class="st1" d="M76.2,49.5c-2.5,0-5-0.2-7.5-0.7c-3.5-0.6-6.7-2.3-9.3-4.7c-2.6-2.5-4.1-5.9-4.1-9.6
					c0-3.9,1.4-7.6,2.8-10.8c0.4-0.8,0.8-1.6,1.2-2.5c1.8-3.6,3.6-7.4,2.7-11c-0.9-2.6-2.8-4.8-5.3-5.9c-5.7-2.9-12.2-3.3-19.7-1.3
					c-6.7,1.8-13.3,5.2-19.2,8.2l-0.5,0.3c-5.5,2.9-10.8,5.6-15.9,7.3c-0.5,0.2-1-0.1-1.2-0.6c-0.1-0.5,0.1-1,0.6-1.2
					c5-1.6,10.2-4.3,15.6-7.1l0.5-0.3c5.9-3.1,12.7-6.6,19.6-8.4c8-2.1,14.9-1.6,21.1,1.5c3,1.4,5.3,3.9,6.3,7.1
					c1.1,4.3-1,8.5-2.8,12.3c-0.4,0.8-0.8,1.7-1.2,2.4c-1.3,3-2.6,6.5-2.6,10c0,3.1,1.3,6.1,3.6,8.2C63,45,65.9,46.4,69,47
					c7.7,1.5,15.8,0.5,23-2.7c0.5-0.2,1,0,1.2,0.5c0.2,0.5,0,1-0.5,1.2l0,0C87.5,48.3,81.9,49.6,76.2,49.5z"/>
			</g>
			<g id="Grupo_27532" transform="translate(234.346 10.747)">
				<path id="Trazado_30385" class="st1" d="M78.4,52.5c-3.8-0.6-7.5-1.8-10.9-3.5c-1.5-0.7-2.8-1.6-3.9-2.8
					c-1.1-1.2-1.9-2.8-2.1-4.4c-0.4-3.7,1.6-6.5,3.7-9.6c2.1-2.9,3.7-6.2,4.5-9.7c0.4-1.7,0.4-3.4,0.2-5.1c-0.3-1.8-0.9-3.5-1.8-5.1
					c-2.6-4.5-7.6-7.8-13.8-9.3c-6.2-1.4-12.6-1.4-18.8-0.1C29.9,4.2,24.3,6,18.8,8.2l-1.6,0.6c-1.9,0.7-3.7,1.5-5.5,2.2
					c-3.6,1.6-7.4,3-11.2,4.1L0,13.3c3.7-1.1,7.4-2.4,10.9-4c1.8-0.8,3.7-1.6,5.6-2.3l1.6-0.6C23.7,4.2,29.4,2.4,35.3,1
					c6.5-1.4,13.1-1.3,19.6,0.1c6.7,1.6,12.2,5.3,15,10.2c2,3.5,2.7,7.5,1.8,11.5c-0.9,3.8-2.5,7.3-4.8,10.4c-2.1,3-3.7,5.3-3.4,8.3
					c0.2,1.3,0.7,2.5,1.6,3.4c0.9,1,2.1,1.8,3.3,2.4c3.3,1.6,6.8,2.8,10.4,3.4L78.4,52.5z"/>
			</g>
			<g id="Grupo_27533" transform="translate(235.695 15.017)">
				<path id="Trazado_30386" class="st1" d="M76.6,52.8c-4.1-0.8-9.1-1.7-13.3-3.8c-2.1-1-3.9-2.5-5.4-4.3c-1.5-2-2.5-4.4-2.7-6.9
					c-0.3-2.5,0.2-5.1,1.2-7.4c0.9-2,2.1-3.9,3.4-5.7c1.2-1.6,2.2-3.3,3-5.1c1.5-3.6,1.5-7.2,0.2-9.8c-1.3-2.2-3.3-4-5.7-5.1
					c-5.2-2.5-10.9-3.3-17.6-2.5c-5.1,0.6-10.6,2.2-17.7,5C17.2,9,12.3,11,7.6,13c-2.2,0.9-4.6,1.9-6.9,2.8L0,14
					c2.3-0.9,4.6-1.9,6.8-2.8c4.7-1.9,9.6-4,14.5-5.9C28.6,2.5,34.2,1,39.5,0.3c3.1-0.4,6.3-0.4,9.4,0c3.2,0.4,6.3,1.3,9.3,2.7
					c2.7,1.2,5,3.3,6.5,5.9c1.6,3.1,1.5,7.3-0.1,11.4c-0.9,1.9-1.9,3.7-3.2,5.4c-1.3,1.7-2.3,3.5-3.2,5.4c-0.9,2-1.3,4.3-1.1,6.5
					c0.5,4.3,2.8,7.5,7.1,9.7c3.9,2,8.8,2.9,12.7,3.7L76.6,52.8z"/>
			</g>
			<g id="Grupo_27543" transform="translate(90.802 41.264)">
				<g id="Grupo_27534" transform="translate(11.648 29.843)">
					<path id="Trazado_30387" class="st2" d="M0,1l1.3,3.7C1.9,6.6,3.9,7.6,5.7,7l8.1-2.8L12.3,0C12.3,0,3.8,5.2,0,1z"/>
				</g>
				<g id="Grupo_27535" transform="translate(24.145 20.646)">
					<path id="Trazado_30388" class="st2" d="M0,8.4l0.7,2.1C1.8,14,5.4,16,8.9,14.9c0.1,0,0.2-0.1,0.3-0.1l17.4-6.3L23.7,0L0,8.4z"
						/>
				</g>
				<g id="Grupo_27536" transform="translate(1.203 26.837)">
					<path id="Rectángulo_5411" class="st2" d="M3,1.9L8.3,0l0,0l2.2,6.3l0,0L5.2,8.2c-1.7,0.6-3.5-0.3-4-2c0,0,0,0,0,0L1,5.9
						C0.5,4.2,1.3,2.4,3,1.9C3,1.9,3,1.9,3,1.9z"/>
				</g>
				<g id="Grupo_27537" transform="translate(17.796 2.506)">
					<path id="Trazado_30389" class="st1" d="M12.2,34.4c-2.8,0-5.4-1.8-6.3-4.5l-5.6-16C-0.8,10.4,1,6.6,4.5,5.4L20.1,0L30,28.6
						l-15.6,5.4C13.7,34.3,13,34.4,12.2,34.4z M18.8,2.7L5.2,7.4c-2.4,0.8-3.6,3.4-2.8,5.8l5.6,16c0.8,2.4,3.4,3.6,5.8,2.8l13.6-4.7
						L18.8,2.7z"/>
				</g>
				<g id="Grupo_27538" transform="translate(7.128 13.132)">
					<path id="Trazado_30390" class="st1" d="M9.2,25c-0.7,0-1.4-0.2-2-0.5C6,23.9,5.2,23,4.8,21.8L0.3,8.7c-0.9-2.4,0.3-5,2.7-5.9
						L11.1,0l0.7,2L3.7,4.8C2.4,5.3,1.8,6.7,2.3,8l4.5,13.1c0.2,0.6,0.7,1.2,1.3,1.5c0.6,0.3,1.2,0.3,1.8,0.1l8.1-2.8l0.7,2
						l-8.1,2.8C10.2,24.9,9.7,25,9.2,25z"/>
				</g>
				<g id="Grupo_27539" transform="translate(36.295)">
					<path id="Trazado_30391" class="st1" d="M12.2,32.7c-1.3,0-2.5-0.8-3-2.1L0.2,4.4c-0.6-1.6,0.3-3.4,1.9-4l0.6-0.2
						c1.6-0.6,3.4,0.3,4,1.9l9.1,26.2c0.6,1.6-0.3,3.4-1.9,4l-0.6,0.2C12.9,32.6,12.6,32.7,12.2,32.7z M3.3,1.9L2.7,2.1
						C2,2.3,1.6,3.1,1.9,3.8L11,30c0.2,0.7,1,1.1,1.7,0.8l0.6-0.2c0.7-0.2,1.1-1,0.8-1.7c0,0,0,0,0,0L5,2.7C4.7,2,4,1.6,3.3,1.9
						L3.3,1.9z"/>
				</g>
				<g id="Grupo_27540" transform="translate(15.518 20.364)">
					<path id="Trazado_30392" class="st1" d="M0.4,0L0.4,0C0.7-0.1,1,0.1,1.1,0.4c0,0,0,0,0,0l3.2,9.2c0.1,0.3-0.1,0.6-0.3,0.7
						c0,0,0,0,0,0l0,0c-0.3,0.1-0.6-0.1-0.7-0.4c0,0,0,0,0,0L0,0.8C-0.1,0.5,0.1,0.1,0.4,0C0.4,0,0.4,0,0.4,0z"/>
				</g>
				<g id="Grupo_27541" transform="translate(12.833 21.297)">
					<path id="Trazado_30393" class="st1" d="M0.4,0L0.4,0C0.7-0.1,1,0.1,1.1,0.4l3.2,9.2c0.1,0.3-0.1,0.6-0.4,0.7c0,0,0,0,0,0l0,0
						c-0.3,0.1-0.6-0.1-0.7-0.3L0,0.8C-0.1,0.5,0.1,0.1,0.4,0C0.4,0,0.4,0,0.4,0z"/>
				</g>
				<g id="Grupo_27542" transform="translate(0 23.39)">
					<path id="Trazado_30394" class="st1" d="M4.6,11.4c-1.9,0-3.7-1.2-4.3-3.1L0.3,8.1c-0.8-2.4,0.4-5,2.8-5.8L9.8,0l3,8.8
						l-6.8,2.3C5.6,11.3,5.1,11.4,4.6,11.4z M3.3,3.1l0.3,0.8C2,4.4,1.2,6.1,1.7,7.6l0.1,0.2C2.3,9.3,4,10.2,5.6,9.6c0,0,0,0,0,0
						l5.3-1.8L8.8,2L3.6,3.8L3.3,3.1z"/>
				</g>
			</g>
			<g id="Grupo_27561" transform="translate(169.993 18.734)">
				<g id="Grupo_27544" transform="translate(55.187 9.476)">
					<path id="Trazado_30395" class="st2" d="M9.1,5.6L1.8,8L0,2.6l7.2-2.4c1.5-0.5,3.1,0.3,3.6,1.8l0,0C11.4,3.5,10.6,5.1,9.1,5.6
						C9.1,5.6,9.1,5.6,9.1,5.6z"/>
				</g>
				<g id="Grupo_27545" transform="translate(46.167 17.48)">
					<path id="Trazado_30396" class="st2" d="M11.1,0.1L0,4l1,7.5l8.5-3.3c2.1-0.8,3.5-3.9,3.1-7l0,0C12.5,0.4,11.8-0.2,11.1,0.1z"
						/>
				</g>
				<g id="Grupo_27546" transform="translate(40.806 23.453)">
					<path id="Trazado_30397" class="st3" d="M0,1.6l1.7,5.2c0.5,1.3,1.9,2,3.2,1.5l0,0c1.3-0.4,2-1.8,1.6-3.1L4.9,0"/>
				</g>
				<g id="Grupo_27547" transform="translate(34.116 5.186)">
					<line id="Línea_699" class="st4" x1="0" y1="0" x2="6.6" y2="19.7"/>
				</g>
				<g id="Grupo_27548" transform="translate(17.45 24.304)">
					<path id="Trazado_30398" class="st2" d="M27.2,6.1L4.1,14c-1.1,0.5-2.4,0.1-2.9-1L0.1,9.8c-0.2-1.2,0.6-2.3,1.7-2.6L23.4,0"/>
				</g>
				<g id="Grupo_27549" transform="translate(16.437 20.977)">
					
						<rect id="Rectángulo_5412" x="0" y="1.9" transform="matrix(0.9477 -0.3193 0.3193 0.9477 -0.6538 2.1756)" class="st5" width="12.5" height="2.3"/>
				</g>
				<g id="Grupo_27550" transform="translate(39.509)">
					<path id="Trazado_30399" class="st1" d="M8.6,28.5l-0.7-2.2l8.1-2.7c1.4-0.5,2.2-2,1.7-3.5L12.3,4.2c-0.5-1.4-2-2.2-3.5-1.7
						L0.7,5.2L0,3l8.1-2.7c2.6-0.9,5.5,0.5,6.4,3.2l5.4,15.9c0.9,2.6-0.5,5.5-3.2,6.4L8.6,28.5z"/>
				</g>
				<g id="Grupo_27551" transform="translate(53.263 4.556)">
					<path id="Trazado_30400" class="st1" d="M3.1,12.1L0,3l8.1-2.7C10.6-0.5,13.3,1,14,3.5c0.7,2.4-0.6,4.9-2.9,5.8L3.1,12.1z
						 M2.5,4.2l1.8,5.4l6.2-2.1l0.3,0.9l-0.3-0.9C12,7,12.8,5.4,12.3,3.9c-0.5-1.5-2.1-2.3-3.6-1.8L2.5,4.2z"/>
				</g>
				<g id="Grupo_27552" transform="translate(10.287 3.228)">
					<path id="Trazado_30401" class="st1" d="M9.6,36.4L0,7.9L23.5,0l0.7,2L2.7,9.3L11,33.7l21.4-7.2l0.7,2L9.6,36.4z"/>
				</g>
				<g id="Grupo_27553" transform="translate(14.758 17.892)">
					<path id="Trazado_30402" class="st1" d="M1.9,10.2L0,4.5L13.3,0l1.9,5.7L1.9,10.2z M1.9,5.4l1,2.8l10.4-3.5l-1-2.8L1.9,5.4z"/>
				</g>
				<g id="Grupo_27554" transform="translate(0 14.647)">
					<path id="Trazado_30403" class="st1" d="M2.6,8.9c-1.1,0-2-0.7-2.3-1.7L0.1,6.9c-0.4-1.3,0.3-2.7,1.5-3.1L13,0l1.7,4.9L3.3,8.7
						C3.1,8.8,2.8,8.9,2.6,8.9z M12,2.1L2.2,5.3C1.8,5.5,1.5,6,1.7,6.4l0.1,0.3c0.1,0.4,0.6,0.7,1.1,0.5c0,0,0,0,0,0l9.8-3.3L12,2.1
						z"/>
				</g>
				<g id="Grupo_27555" transform="translate(5.183 30.029)">
					<path id="Trazado_30404" class="st1" d="M2.6,8.9c-1.1,0-2-0.7-2.3-1.7L0.1,6.9c-0.4-1.3,0.3-2.7,1.6-3.1L13,0l1.7,4.9L3.3,8.7
						C3.1,8.8,2.8,8.9,2.6,8.9z M12,2.1L2.2,5.3C1.8,5.5,1.5,6,1.7,6.4l0.1,0.3c0.1,0.4,0.6,0.7,1.1,0.5l9.8-3.3L12,2.1z"/>
				</g>
				<g id="Grupo_27556" transform="translate(16.414 9.554)">
					<path id="Trazado_30405" class="st1" d="M0.5,4.5C0.2,4.5,0,4.2,0,4c0-0.2,0.1-0.4,0.4-0.5L10.5,0c0.3-0.1,0.6,0,0.7,0.3
						s0,0.6-0.3,0.7c0,0,0,0,0,0L0.7,4.5C0.7,4.5,0.6,4.5,0.5,4.5z"/>
				</g>
				<g id="Grupo_27557" transform="translate(33.093 0.942)">
					<path id="Trazado_30406" class="st1" d="M11.8,31.8c-1.5,0-2.8-0.9-3.2-2.3L0.2,4.5c-0.6-1.8,0.4-3.7,2.1-4.3l0,0
						c1.8-0.6,3.7,0.4,4.3,2.1c0,0,0,0,0,0l8.4,24.9c0.6,1.8-0.4,3.7-2.1,4.3l0,0C12.6,31.7,12.2,31.8,11.8,31.8z M3.5,1.8
						c-0.2,0-0.4,0-0.5,0.1l0,0C2,2.2,1.6,3.1,1.9,4l8.4,24.9c0.3,0.9,1.2,1.3,2.1,1l0,0l0,0c0.9-0.3,1.3-1.2,1-2.1L5,2.9
						C4.8,2.2,4.2,1.8,3.5,1.8L3.5,1.8z"/>
				</g>
				<g id="Grupo_27558" transform="translate(28.623 8.391)">
					<path id="Trazado_30407" class="st1" d="M0.5,1.6C0.2,1.6,0,1.3,0,1c0-0.2,0.2-0.4,0.4-0.5L1.9,0c0.3-0.1,0.6,0.1,0.7,0.3
						C2.7,0.7,2.6,1,2.3,1.1L0.7,1.6C0.6,1.6,0.6,1.6,0.5,1.6z"/>
				</g>
				<g id="Grupo_27559" transform="translate(47.512 7.828)">
					<path id="Trazado_30408" class="st1" d="M0.4,0L0.4,0C0.7-0.1,1,0.1,1.1,0.4c0,0,0,0,0,0l3.1,9.2c0.1,0.3-0.1,0.6-0.4,0.7l0,0
						c-0.3,0.1-0.6-0.1-0.7-0.4c0,0,0,0,0,0L0,0.8C-0.1,0.5,0.1,0.1,0.4,0C0.4,0,0.4,0,0.4,0z"/>
				</g>
				<g id="Grupo_27560" transform="translate(44.82 8.743)">
					<path id="Trazado_30409" class="st1" d="M0.4,0L0.4,0C0.7-0.1,1,0.1,1.1,0.4l3.1,9.2c0.1,0.3-0.1,0.6-0.4,0.7l0,0
						c-0.3,0.1-0.6-0.1-0.7-0.4L0,0.8C-0.1,0.5,0.1,0.1,0.4,0z"/>
				</g>
			</g>
			<g id="Grupo_27562" transform="translate(156.215)">
				<path id="Trazado_30410" class="st1" d="M0.9,19.5L0.9,19.5c-0.6,0-1-0.5-0.9-1c0,0,0,0,0,0L1.1,0.9c0-0.5,0.5-0.9,1-0.9
					C2.6,0,3,0.4,3,1c0,0,0,0,0,0L1.9,18.6C1.8,19.1,1.4,19.5,0.9,19.5z"/>
			</g>
			<g id="Grupo_27563" transform="translate(170.865 76.701)">
				<path id="Trazado_30411" class="st1" d="M7.7,17.2c-0.4,0-0.7-0.2-0.9-0.6L0.1,1.3c-0.2-0.5,0-1,0.5-1.2c0.5-0.2,1,0,1.2,0.5
					l6.8,15.3c0.2,0.5,0,1-0.5,1.2C8,17.2,7.8,17.2,7.7,17.2L7.7,17.2z"/>
			</g>
			<g id="Grupo_27564" transform="translate(132.994 8.845)">
				<path id="Trazado_30412" class="st1" d="M11,14.4c-0.3,0-0.6-0.1-0.7-0.4L0.2,1.5c-0.3-0.4-0.3-1,0.1-1.3c0.4-0.3,1-0.3,1.3,0.1
					l10,12.5c0.3,0.4,0.3,1-0.1,1.3C11.4,14.3,11.2,14.4,11,14.4L11,14.4z"/>
			</g>
			<g id="Grupo_27565" transform="translate(182.015 67.13)">
				<path id="Trazado_30413" class="st1" d="M13.8,8.5c-0.2,0-0.3,0-0.4-0.1L0.5,1.8C0,1.6-0.2,1,0.1,0.5c0.2-0.5,0.8-0.7,1.3-0.4
					c0,0,0,0,0.1,0l12.8,6.6C14.6,7,14.8,7.5,14.6,8C14.4,8.3,14.1,8.5,13.8,8.5L13.8,8.5z"/>
			</g>
			<g id="Grupo_27566" transform="translate(156.161 79.962)">
				<path id="Trazado_30414" class="st1" d="M0.9,17L0.9,17c-0.6,0-1-0.5-0.9-1c0,0,0,0,0,0L0.7,0.9c0-0.5,0.5-0.9,1-0.9
					c0.5,0,0.9,0.5,0.9,1L1.9,16.1C1.9,16.6,1.4,17,0.9,17z"/>
			</g>
			<g id="Grupo_27567" transform="translate(135.907 78.278)">
				<path id="Trazado_30415" class="st1" d="M0.9,13.9c-0.5,0-0.9-0.4-0.9-0.9c0-0.2,0.1-0.4,0.1-0.5l7.7-12C8.1,0,8.7-0.1,9.1,0.2
					C9.6,0.4,9.7,1,9.4,1.5l-7.7,12C1.6,13.7,1.3,13.9,0.9,13.9z"/>
			</g>
			<g id="Grupo_27568" transform="translate(172.825 11.228)">
				<path id="Trazado_30416" class="st1" d="M0.9,12.3c-0.5,0-0.9-0.4-0.9-0.9c0-0.2,0.1-0.5,0.2-0.6L9.7,0.3c0.4-0.4,1-0.4,1.3,0
					c0.4,0.3,0.4,0.9,0.1,1.3L1.6,12C1.5,12.2,1.2,12.3,0.9,12.3z"/>
			</g>
			<g id="Grupo_27569" transform="translate(112.915 48.738)">
				<path id="Trazado_30417" class="st1" d="M0.7,7.5C0.4,7.5,0.1,7.3,0.1,7c-0.2-0.9,0.1-1.8,0.7-2.4c0.3-0.3,0.6-0.6,1-0.8l0,0
					l0,0l11-3.8c0.3-0.1,0.7,0.1,0.8,0.4c0.1,0.3-0.1,0.7-0.4,0.8L2.3,5c-0.2,0.1-1.3,0.7-1,1.7C1.4,7,1.2,7.4,0.8,7.4
					C0.8,7.5,0.7,7.5,0.7,7.5z"/>
			</g>
			<g id="Grupo_27570" transform="translate(117.815 26.282)">
				<path id="Trazado_30418" class="st1" d="M15.1,7.1c-0.1,0-0.2,0-0.3-0.1L0.6,1.8C0.1,1.6-0.1,1.1,0.1,0.6
					c0.2-0.5,0.7-0.7,1.2-0.5l14.1,5.2c0.5,0.2,0.7,0.7,0.6,1.2C15.8,6.8,15.4,7.1,15.1,7.1L15.1,7.1z"/>
			</g>
		</g>
		<line id="Línea_700" class="st6" x1="675.5" y1="144.5" x2="692.5" y2="144.5"/>
		<g>
			<path class="st7" d="M467.8,192.4v3.5h4v1.8h-4v3.7h4.9v1.8h-7.3v-12.4h7.2l-0.3,1.8H467.8z"/>
			<path class="st7" d="M481,194.4l-0.9,1.4c-0.8-0.5-1.5-0.8-2.3-0.8c-1,0-1.5,0.4-1.5,1c0,0.6,0.4,0.9,2,1.4c1.9,0.5,3,1.3,3,3
				c0,2-1.8,3-4,3c-1.6,0-2.9-0.6-3.8-1.4l1.2-1.3c0.7,0.6,1.6,1,2.6,1c1,0,1.7-0.5,1.7-1.1c0-0.8-0.4-1.1-2.2-1.6
				c-2-0.5-2.8-1.5-2.8-2.9c0-1.6,1.5-2.8,3.7-2.8C479,193.3,480.1,193.7,481,194.4z"/>
			<path class="st7" d="M485.9,203.4c-1.9,0-2.9-1.1-2.9-3.1v-5h-1.5v-1.7h1.5v-2.1l2.3-0.3v2.4h2.2l-0.2,1.7h-2v5
				c0,0.9,0.3,1.3,1,1.3c0.4,0,0.7-0.1,1.1-0.4l0.8,1.5C487.7,203.1,486.8,203.4,485.9,203.4z"/>
			<path class="st7" d="M497.1,201.8l-0.5,1.5c-1-0.1-1.7-0.5-2.1-1.4c-0.7,1-1.7,1.4-2.8,1.4c-1.9,0-3.1-1.2-3.1-2.9
				c0-2.1,1.6-3.2,4.3-3.2h1.2v-0.5c0-1.2-0.6-1.7-1.8-1.7c-0.6,0-1.6,0.2-2.5,0.5l-0.5-1.6c1.2-0.5,2.4-0.7,3.5-0.7
				c2.5,0,3.7,1.2,3.7,3.3v4C496.4,201.3,496.6,201.6,497.1,201.8z M494.1,200.5v-1.9h-1c-1.5,0-2.2,0.5-2.2,1.7
				c0,0.9,0.5,1.4,1.4,1.4C493.1,201.7,493.7,201.3,494.1,200.5z"/>
			<path class="st7" d="M505.6,190.1c0,0.8-0.6,1.4-1.5,1.4c-0.8,0-1.4-0.6-1.4-1.4c0-0.8,0.6-1.4,1.4-1.4
				C505,188.7,505.6,189.3,505.6,190.1z M503,203.1v-9.5h2.3v9.5H503z"/>
			<path class="st7" d="M520.4,196.2v6.9h-2.3v-6.5c0-1.2-0.5-1.5-1-1.5c-0.8,0-1.3,0.6-1.8,1.4v6.6H513v-6.5c0-1.2-0.5-1.5-1-1.5
				c-0.8,0-1.3,0.6-1.8,1.4v6.6h-2.3v-9.5h2l0.2,1.2c0.7-1,1.5-1.5,2.8-1.5c1.1,0,1.9,0.6,2.3,1.6c0.7-1,1.6-1.6,2.9-1.6
				C519.4,193.3,520.4,194.4,520.4,196.2z"/>
			<path class="st7" d="M531.3,198.3c0,2.9-1.4,5.1-3.8,5.1c-1,0-1.8-0.3-2.4-1v4.4l-2.3,0.3v-13.5h2l0.1,1.2c0.8-1,1.8-1.4,2.8-1.4
				C530.2,193.3,531.3,195.3,531.3,198.3z M528.9,198.3c0-2.4-0.6-3.3-1.8-3.3c-0.8,0-1.5,0.6-1.9,1.3v4.3c0.5,0.7,1,1,1.7,1
				C528.1,201.6,528.9,200.6,528.9,198.3z"/>
			<path class="st7" d="M536,201.5c0.2,0,0.4,0,0.5-0.1l0.5,1.6c-0.5,0.2-1,0.3-1.6,0.3c-1.4,0-2.2-0.8-2.2-2.4v-11.2l2.3-0.3v11.3
				C535.4,201.3,535.6,201.5,536,201.5z"/>
			<path class="st7" d="M545.8,199h-6c0.2,1.9,1.1,2.6,2.3,2.6c0.8,0,1.5-0.3,2.4-0.8l1,1.3c-0.9,0.8-2.1,1.3-3.5,1.3
				c-3,0-4.5-2-4.5-5c0-2.9,1.5-5.1,4.2-5.1c2.7,0,4.2,1.8,4.2,4.8C545.9,198.4,545.8,198.8,545.8,199z M543.6,197.4
				c0-1.6-0.6-2.5-1.9-2.5c-1.1,0-1.8,0.7-1.9,2.6h3.7V197.4z"/>
			<path class="st7" d="M560.3,196.2v6.9H558v-6.5c0-1.2-0.5-1.5-1-1.5c-0.8,0-1.3,0.6-1.8,1.4v6.6h-2.3v-6.5c0-1.2-0.5-1.5-1-1.5
				c-0.8,0-1.3,0.6-1.8,1.4v6.6h-2.3v-9.5h2l0.2,1.2c0.7-1,1.5-1.5,2.8-1.5c1.1,0,1.9,0.6,2.3,1.6c0.7-1,1.6-1.6,2.9-1.6
				C559.3,193.3,560.3,194.4,560.3,196.2z"/>
			<path class="st7" d="M570.4,199h-6c0.2,1.9,1.1,2.6,2.3,2.6c0.8,0,1.5-0.3,2.4-0.8l1,1.3c-0.9,0.8-2.1,1.3-3.5,1.3
				c-3,0-4.5-2-4.5-5c0-2.9,1.5-5.1,4.2-5.1c2.7,0,4.2,1.8,4.2,4.8C570.5,198.4,570.5,198.8,570.4,199z M568.2,197.4
				c0-1.6-0.6-2.5-1.9-2.5c-1.1,0-1.8,0.7-1.9,2.6h3.7V197.4z"/>
			<path class="st7" d="M580.1,196.2v6.9h-2.3v-6.5c0-1.2-0.4-1.5-1.2-1.5c-0.8,0-1.4,0.6-2,1.4v6.6h-2.3v-9.5h2l0.2,1.2
				c0.7-1,1.7-1.5,2.9-1.5C579.1,193.3,580.1,194.4,580.1,196.2z"/>
			<path class="st7" d="M585.5,203.4c-1.9,0-2.9-1.1-2.9-3.1v-5h-1.5v-1.7h1.5v-2.1l2.3-0.3v2.4h2.2l-0.2,1.7h-2v5
				c0,0.9,0.3,1.3,1,1.3c0.4,0,0.7-0.1,1.1-0.4l0.8,1.5C587.2,203.1,586.4,203.4,585.5,203.4z"/>
			<path class="st7" d="M596.7,201.8l-0.5,1.5c-1-0.1-1.7-0.5-2.1-1.4c-0.7,1-1.7,1.4-2.8,1.4c-1.9,0-3.1-1.2-3.1-2.9
				c0-2.1,1.6-3.2,4.3-3.2h1.2v-0.5c0-1.2-0.6-1.7-1.8-1.7c-0.6,0-1.6,0.2-2.5,0.5l-0.5-1.6c1.2-0.5,2.4-0.7,3.5-0.7
				c2.5,0,3.7,1.2,3.7,3.3v4C595.9,201.3,596.2,201.6,596.7,201.8z M593.7,200.5v-1.9h-1c-1.5,0-2.2,0.5-2.2,1.7
				c0,0.9,0.5,1.4,1.4,1.4C592.6,201.7,593.2,201.3,593.7,200.5z"/>
			<path class="st7" d="M605.4,194.4l-1,1.4c-0.6-0.5-1.2-0.7-1.9-0.7c-1.3,0-2.1,1-2.1,3.3c0,2.3,0.8,3.1,2.1,3.1
				c0.7,0,1.2-0.2,1.9-0.7l1.1,1.5c-0.9,0.7-1.9,1.1-3.1,1.1c-2.8,0-4.5-1.9-4.5-5c0-3,1.7-5.1,4.4-5.1
				C603.5,193.3,604.5,193.6,605.4,194.4z"/>
			<path class="st7" d="M609.3,190.1c0,0.8-0.6,1.4-1.5,1.4c-0.8,0-1.4-0.6-1.4-1.4c0-0.8,0.6-1.4,1.4-1.4
				C608.7,188.7,609.3,189.3,609.3,190.1z M606.7,203.1v-9.5h2.3v9.5H606.7z"/>
			<path class="st7" d="M619.8,198.3c0,3-1.7,5-4.5,5c-2.8,0-4.5-1.9-4.5-5c0-3,1.7-5,4.5-5C618.2,193.3,619.8,195.2,619.8,198.3z
				 M613.5,191.7l-0.6-1.2l3.8-2.3l0.9,1.8L613.5,191.7z M613.3,198.3c0,2.3,0.7,3.3,2.1,3.3c1.4,0,2.1-1,2.1-3.3s-0.7-3.3-2-3.3
				C614,195,613.3,196.1,613.3,198.3z"/>
			<path class="st7" d="M629.5,196.2v6.9h-2.3v-6.5c0-1.2-0.5-1.5-1.2-1.5c-0.8,0-1.4,0.6-2,1.4v6.6h-2.3v-9.5h2l0.2,1.2
				c0.7-1,1.7-1.5,2.9-1.5C628.5,193.3,629.5,194.4,629.5,196.2z"/>
			<path class="st7" d="M643.8,196.2v6.9h-2.3v-6.5c0-1.2-0.5-1.5-1.2-1.5c-0.8,0-1.4,0.6-2,1.4v6.6H636v-9.5h2l0.2,1.2
				c0.7-1,1.7-1.5,2.9-1.5C642.8,193.3,643.8,194.4,643.8,196.2z"/>
			<path class="st7" d="M654.5,198.3c0,3-1.7,5-4.5,5c-2.8,0-4.5-1.9-4.5-5c0-3,1.7-5,4.5-5C652.9,193.3,654.5,195.2,654.5,198.3z
				 M648,198.3c0,2.3,0.7,3.3,2.1,3.3c1.4,0,2.1-1,2.1-3.3s-0.7-3.3-2-3.3C648.7,195,648,196.1,648,198.3z"/>
			<path class="st7" d="M663.7,203.4c-1.9,0-2.9-1.1-2.9-3.1v-5h-1.5v-1.7h1.5v-2.1l2.3-0.3v2.4h2.2l-0.2,1.7h-2v5
				c0,0.9,0.3,1.3,1,1.3c0.4,0,0.7-0.1,1.1-0.4l0.8,1.5C665.4,203.1,664.5,203.4,663.7,203.4z"/>
			<path class="st7" d="M669.6,190.1c0,0.8-0.6,1.4-1.5,1.4c-0.8,0-1.4-0.6-1.4-1.4c0-0.8,0.6-1.4,1.4-1.4
				C669,188.7,669.6,189.3,669.6,190.1z M667,203.1v-9.5h2.3v9.5H667z"/>
			<path class="st7" d="M679.6,199h-6c0.2,1.9,1.1,2.6,2.3,2.6c0.8,0,1.5-0.3,2.4-0.8l1,1.3c-0.9,0.8-2.1,1.3-3.5,1.3
				c-3,0-4.5-2-4.5-5c0-2.9,1.5-5.1,4.2-5.1c2.7,0,4.2,1.8,4.2,4.8C679.6,198.4,679.6,198.8,679.6,199z M677.3,197.4
				c0-1.6-0.6-2.5-1.9-2.5c-1.1,0-1.8,0.7-1.9,2.6h3.7V197.4z"/>
			<path class="st7" d="M689.2,196.2v6.9h-2.3v-6.5c0-1.2-0.5-1.5-1.2-1.5c-0.8,0-1.4,0.6-2,1.4v6.6h-2.3v-9.5h2l0.2,1.2
				c0.7-1,1.7-1.5,2.9-1.5C688.2,193.3,689.2,194.4,689.2,196.2z"/>
			<path class="st7" d="M699.4,199h-6c0.2,1.9,1.1,2.6,2.3,2.6c0.8,0,1.5-0.3,2.4-0.8l1,1.3c-0.9,0.8-2.1,1.3-3.5,1.3
				c-3,0-4.5-2-4.5-5c0-2.9,1.5-5.1,4.2-5.1c2.7,0,4.2,1.8,4.2,4.8C699.4,198.4,699.4,198.8,699.4,199z M697.1,197.4
				c0-1.6-0.6-2.5-1.9-2.5c-1.1,0-1.8,0.7-1.9,2.6h3.7V197.4z"/>
			<path class="st7" d="M708,190.1c0,0.8-0.6,1.4-1.5,1.4c-0.8,0-1.4-0.6-1.4-1.4c0-0.8,0.6-1.4,1.4-1.4
				C707.4,188.7,708,189.3,708,190.1z M705.4,203.1v-9.5h2.3v9.5H705.4z"/>
			<path class="st7" d="M718,196.2v6.9h-2.3v-6.5c0-1.2-0.5-1.5-1.2-1.5c-0.8,0-1.4,0.6-2,1.4v6.6h-2.3v-9.5h2l0.2,1.2
				c0.7-1,1.7-1.5,2.9-1.5C717,193.3,718,194.4,718,196.2z"/>
			<path class="st7" d="M722.9,192.6v1h2.3l-0.3,1.7h-2v7.9h-2.3v-7.9h-1.5v-1.7h1.5v-1c0-1.7,1.2-3,3.3-3c1,0,1.7,0.2,2.5,0.6
				l-0.7,1.5c-0.6-0.3-1.1-0.4-1.6-0.4C723.3,191.2,722.9,191.7,722.9,192.6z"/>
			<path class="st7" d="M731.9,193.4l-0.4,2.2c-0.3-0.1-0.5-0.1-0.8-0.1c-1.2,0-1.7,0.8-2.1,2.4v5.1h-2.3v-9.5h2l0.2,1.9
				c0.4-1.4,1.4-2.1,2.5-2.1C731.3,193.3,731.6,193.3,731.9,193.4z"/>
			<path class="st7" d="M740.5,201.8l-0.5,1.5c-1-0.1-1.7-0.5-2.1-1.4c-0.7,1-1.7,1.4-2.8,1.4c-1.9,0-3.1-1.2-3.1-2.9
				c0-2.1,1.6-3.2,4.3-3.2h1.2v-0.5c0-1.2-0.6-1.7-1.8-1.7c-0.6,0-1.6,0.2-2.5,0.5l-0.5-1.6c1.2-0.5,2.4-0.7,3.5-0.7
				c2.5,0,3.7,1.2,3.7,3.3v4C739.7,201.3,740,201.6,740.5,201.8z M737.5,200.5v-1.9h-1c-1.5,0-2.2,0.5-2.2,1.7
				c0,0.9,0.5,1.4,1.4,1.4C736.4,201.7,737,201.3,737.5,200.5z"/>
			<path class="st7" d="M750,199h-6c0.2,1.9,1.1,2.6,2.3,2.6c0.8,0,1.5-0.3,2.4-0.8l1,1.3c-0.9,0.8-2.1,1.3-3.5,1.3
				c-3,0-4.5-2-4.5-5c0-2.9,1.5-5.1,4.2-5.1c2.7,0,4.2,1.8,4.2,4.8C750,198.4,750,198.8,750,199z M747.8,197.4
				c0-1.6-0.6-2.5-1.9-2.5c-1.1,0-1.8,0.7-1.9,2.6h3.7V197.4z"/>
			<path class="st7" d="M758.2,194.4l-0.9,1.4c-0.8-0.5-1.5-0.8-2.3-0.8c-1,0-1.5,0.4-1.5,1c0,0.6,0.4,0.9,2,1.4c1.9,0.5,3,1.3,3,3
				c0,2-1.8,3-4,3c-1.6,0-2.9-0.6-3.8-1.4l1.2-1.3c0.7,0.6,1.6,1,2.6,1c1,0,1.7-0.5,1.7-1.1c0-0.8-0.4-1.1-2.2-1.6
				c-2-0.5-2.8-1.5-2.8-2.9c0-1.6,1.5-2.8,3.7-2.8C756.2,193.3,757.3,193.7,758.2,194.4z"/>
			<path class="st7" d="M763.2,203.4c-1.9,0-2.9-1.1-2.9-3.1v-5h-1.5v-1.7h1.5v-2.1l2.3-0.3v2.4h2.2l-0.2,1.7h-2v5
				c0,0.9,0.3,1.3,1,1.3c0.4,0,0.7-0.1,1.1-0.4l0.8,1.5C764.9,203.1,764,203.4,763.2,203.4z"/>
			<path class="st7" d="M772.2,193.4l-0.4,2.2c-0.3-0.1-0.5-0.1-0.8-0.1c-1.2,0-1.7,0.8-2.1,2.4v5.1h-2.3v-9.5h2l0.2,1.9
				c0.4-1.4,1.4-2.1,2.5-2.1C771.6,193.3,771.9,193.3,772.2,193.4z"/>
			<path class="st7" d="M779,203.1l-0.1-1.3c-0.7,1.1-1.6,1.6-2.9,1.6c-1.7,0-2.7-1.1-2.7-3v-6.8h2.3v6.6c0,1.1,0.4,1.5,1.2,1.5
				c0.8,0,1.4-0.5,1.9-1.4v-6.7h2.3v9.5H779z"/>
			<path class="st7" d="M790.4,194.4l-1,1.4c-0.6-0.5-1.2-0.7-1.9-0.7c-1.3,0-2.1,1-2.1,3.3c0,2.3,0.8,3.1,2.1,3.1
				c0.7,0,1.2-0.2,1.9-0.7l1.1,1.5c-0.9,0.7-1.9,1.1-3.1,1.1c-2.8,0-4.5-1.9-4.5-5c0-3,1.7-5.1,4.4-5.1
				C788.5,193.3,789.5,193.6,790.4,194.4z"/>
			<path class="st7" d="M794.8,203.4c-1.9,0-2.9-1.1-2.9-3.1v-5h-1.5v-1.7h1.5v-2.1l2.3-0.3v2.4h2.2l-0.2,1.7h-2v5
				c0,0.9,0.3,1.3,1,1.3c0.4,0,0.7-0.1,1.1-0.4l0.8,1.5C796.5,203.1,795.6,203.4,794.8,203.4z"/>
			<path class="st7" d="M803.8,203.1l-0.1-1.3c-0.7,1.1-1.6,1.6-2.9,1.6c-1.7,0-2.7-1.1-2.7-3v-6.8h2.3v6.6c0,1.1,0.4,1.5,1.2,1.5
				c0.8,0,1.4-0.5,1.9-1.4v-6.7h2.3v9.5H803.8z"/>
			<path class="st7" d="M813.9,193.4l-0.4,2.2c-0.3-0.1-0.5-0.1-0.8-0.1c-1.2,0-1.7,0.8-2.1,2.4v5.1h-2.3v-9.5h2l0.2,1.9
				c0.4-1.4,1.4-2.1,2.5-2.1C813.3,193.3,813.6,193.3,813.9,193.4z"/>
			<path class="st7" d="M822.4,201.8l-0.5,1.5c-1-0.1-1.7-0.5-2.1-1.4c-0.7,1-1.7,1.4-2.8,1.4c-1.9,0-3.1-1.2-3.1-2.9
				c0-2.1,1.6-3.2,4.3-3.2h1.2v-0.5c0-1.2-0.6-1.7-1.8-1.7c-0.6,0-1.6,0.2-2.5,0.5l-0.5-1.6c1.2-0.5,2.4-0.7,3.5-0.7
				c2.5,0,3.7,1.2,3.7,3.3v4C821.7,201.3,822,201.6,822.4,201.8z M819.4,200.5v-1.9h-1c-1.5,0-2.2,0.5-2.2,1.7
				c0,0.9,0.5,1.4,1.4,1.4C818.4,201.7,819,201.3,819.4,200.5z"/>
			<path class="st7" d="M836.2,201.8l-0.5,1.5c-1-0.1-1.7-0.5-2.1-1.4c-0.7,1-1.7,1.4-2.8,1.4c-1.9,0-3.1-1.2-3.1-2.9
				c0-2.1,1.6-3.2,4.3-3.2h1.2v-0.5c0-1.2-0.6-1.7-1.8-1.7c-0.6,0-1.6,0.2-2.5,0.5l-0.5-1.6c1.2-0.5,2.4-0.7,3.5-0.7
				c2.5,0,3.7,1.2,3.7,3.3v4C835.4,201.3,835.7,201.6,836.2,201.8z M833.2,200.5v-1.9h-1c-1.5,0-2.2,0.5-2.2,1.7
				c0,0.9,0.5,1.4,1.4,1.4C832.1,201.7,832.7,201.3,833.2,200.5z"/>
			<path class="st7" d="M844.3,194.4l-0.9,1.4c-0.8-0.5-1.5-0.8-2.3-0.8c-1,0-1.5,0.4-1.5,1c0,0.6,0.4,0.9,2,1.4c1.9,0.5,3,1.3,3,3
				c0,2-1.8,3-4,3c-1.6,0-2.9-0.6-3.8-1.4l1.2-1.3c0.7,0.6,1.6,1,2.6,1c1,0,1.7-0.5,1.7-1.1c0-0.8-0.4-1.1-2.2-1.6
				c-2-0.5-2.8-1.5-2.8-2.9c0-1.6,1.5-2.8,3.7-2.8C842.3,193.3,843.4,193.7,844.3,194.4z"/>
			<path class="st7" d="M854.5,198.3c0,3-1.7,5-4.5,5c-2.8,0-4.5-1.9-4.5-5c0-3,1.7-5,4.5-5C852.9,193.3,854.5,195.2,854.5,198.3z
				 M848,198.3c0,2.3,0.7,3.3,2.1,3.3s2.1-1,2.1-3.3s-0.7-3.3-2-3.3C848.7,195,848,196.1,848,198.3z"/>
			<path class="st7" d="M863.3,194.4l-1,1.4c-0.6-0.5-1.2-0.7-1.9-0.7c-1.3,0-2.1,1-2.1,3.3c0,2.3,0.8,3.1,2.1,3.1
				c0.7,0,1.2-0.2,1.9-0.7l1.1,1.5c-0.9,0.7-1.9,1.1-3.1,1.1c-2.8,0-4.5-1.9-4.5-5c0-3,1.7-5.1,4.4-5.1
				C861.5,193.3,862.4,193.6,863.3,194.4z"/>
			<path class="st7" d="M867.3,190.1c0,0.8-0.6,1.4-1.5,1.4c-0.8,0-1.4-0.6-1.4-1.4c0-0.8,0.6-1.4,1.4-1.4
				C866.7,188.7,867.3,189.3,867.3,190.1z M864.7,203.1v-9.5h2.3v9.5H864.7z"/>
			<path class="st7" d="M877.2,201.8l-0.5,1.5c-1-0.1-1.7-0.5-2.1-1.4c-0.7,1-1.7,1.4-2.8,1.4c-1.9,0-3.1-1.2-3.1-2.9
				c0-2.1,1.6-3.2,4.3-3.2h1.2v-0.5c0-1.2-0.6-1.7-1.8-1.7c-0.6,0-1.6,0.2-2.5,0.5l-0.5-1.6c1.2-0.5,2.4-0.7,3.5-0.7
				c2.5,0,3.7,1.2,3.7,3.3v4C876.5,201.3,876.7,201.6,877.2,201.8z M874.2,200.5v-1.9h-1c-1.5,0-2.2,0.5-2.2,1.7
				c0,0.9,0.5,1.4,1.4,1.4C873.2,201.7,873.8,201.3,874.2,200.5z"/>
			<path class="st7" d="M887,203.1h-2l-0.2-1.2c-0.6,0.9-1.5,1.5-2.7,1.5c-2.4,0-3.6-2-3.6-5c0-2.9,1.5-5,3.9-5c1,0,1.8,0.4,2.4,1
				v-4.8l2.3,0.3V203.1z M884.7,200.4V196c-0.5-0.6-1-1-1.8-1c-1.2,0-2,1-2,3.3c0,2.4,0.7,3.3,1.8,3.3
				C883.6,201.6,884.1,201.2,884.7,200.4z"/>
			<path class="st7" d="M897.2,201.8l-0.5,1.5c-1-0.1-1.7-0.5-2.1-1.4c-0.7,1-1.7,1.4-2.8,1.4c-1.9,0-3.1-1.2-3.1-2.9
				c0-2.1,1.6-3.2,4.3-3.2h1.2v-0.5c0-1.2-0.6-1.7-1.8-1.7c-0.6,0-1.6,0.2-2.5,0.5l-0.5-1.6c1.2-0.5,2.4-0.7,3.5-0.7
				c2.5,0,3.7,1.2,3.7,3.3v4C896.5,201.3,896.7,201.6,897.2,201.8z M894.2,200.5v-1.9h-1c-1.5,0-2.2,0.5-2.2,1.7
				c0,0.9,0.5,1.4,1.4,1.4C893.2,201.7,893.8,201.3,894.2,200.5z"/>
			<path class="st7" d="M901.2,201.9c0,0.8-0.6,1.5-1.5,1.5c-0.8,0-1.4-0.7-1.4-1.5c0-0.8,0.6-1.5,1.4-1.5
				C900.6,200.4,901.2,201.1,901.2,201.9z"/>
		</g>
	</g>
</g>
</svg>
