<svg id="Capa_1" data-name="Capa 1" xmlns="http://www.w3.org/2000/svg" viewBox="0 0 100 100"><defs><style>.cls-1{fill:#00a7ff;}</style></defs><title>vectores</title><path class="cls-1" d="M56.7,9.63v8.12A4.94,4.94,0,0,0,60,22.4a25.18,25.18,0,0,1,2.48,1,4.91,4.91,0,0,0,5.6-1l5.74-5.74,9.47,9.47-5.74,5.74a4.93,4.93,0,0,0-1,5.6,25.18,25.18,0,0,1,1,2.48,4.94,4.94,0,0,0,4.65,3.29h8.12V56.7H82.25A4.94,4.94,0,0,0,77.6,60a25.18,25.18,0,0,1-1,2.48,4.93,4.93,0,0,0,1,5.6l5.74,5.74-9.47,9.47-5.74-5.74a4.91,4.91,0,0,0-5.6-1,25.18,25.18,0,0,1-2.48,1,4.94,4.94,0,0,0-3.29,4.65v8.12H43.3V82.25A4.94,4.94,0,0,0,40,77.6a25.18,25.18,0,0,1-2.48-1,4.91,4.91,0,0,0-5.6,1l-5.74,5.74-9.47-9.47,5.74-5.74a4.93,4.93,0,0,0,1-5.6,25.18,25.18,0,0,1-1-2.48,4.94,4.94,0,0,0-4.65-3.29H9.63V43.3h8.12A4.94,4.94,0,0,0,22.4,40a25.18,25.18,0,0,1,1-2.48,4.93,4.93,0,0,0-1-5.6l-5.74-5.74,9.47-9.47,5.74,5.74a4.91,4.91,0,0,0,5.6,1,25.18,25.18,0,0,1,2.48-1,4.94,4.94,0,0,0,3.29-4.65V9.63H56.7m5.69-7.88H37.61v13.9A33.4,33.4,0,0,0,34.47,17L24.63,7.12,7.12,24.63,17,34.47a33.4,33.4,0,0,0-1.3,3.14H1.75V62.39h13.9A33.4,33.4,0,0,0,17,65.53L7.12,75.37,24.63,92.88l9.84-9.83a33.4,33.4,0,0,0,3.14,1.3v13.9H62.39V84.35a33.4,33.4,0,0,0,3.14-1.3l9.84,9.83L92.88,75.37l-9.83-9.84a33.4,33.4,0,0,0,1.3-3.14h13.9V37.61H84.35a33.4,33.4,0,0,0-1.3-3.14l9.83-9.84L75.37,7.12,65.53,17a33.4,33.4,0,0,0-3.14-1.3V1.75Z"/><path class="cls-1" d="M50,66.74A16.74,16.74,0,1,1,66.74,50,16.76,16.76,0,0,1,50,66.74ZM50,40A10,10,0,1,0,60,50,10,10,0,0,0,50,40Z"/></svg>