<?xml version="1.0" encoding="utf-8"?>
<!-- Generator: Adobe Illustrator 23.1.1, SVG Export Plug-In . SVG Version: 6.00 Build 0)  -->
<svg version="1.1" id="Capa_1" xmlns="http://www.w3.org/2000/svg" xmlns:xlink="http://www.w3.org/1999/xlink" x="0px" y="0px"
	 viewBox="0 0 57.9 27" style="enable-background:new 0 0 57.9 27;" xml:space="preserve">
<style type="text/css">
	.st0{enable-background:new    ;}
	.st1{fill:#FFFFFF;}
	.st2{fill:#F88008;}
</style>
<g class="st0">
	<path class="st1" d="M1.8,5.6h7c5,0,8.5,3,8.5,7.7S13.9,21,8.8,21h-7V5.6z M8.6,18.1c3.1,0,5.1-1.8,5.1-4.8s-2-4.8-5.1-4.8H5.4v9.5
		H8.6z"/>
	<path class="st1" d="M29.9,17.7h-7.2L21.4,21h-3.7l6.9-15.4h3.5L35,21h-3.7L29.9,17.7z M28.8,15l-2.4-5.9L23.9,15H28.8z"/>
	<path class="st1" d="M35.4,13.3c0-4.6,3.6-8,8.4-8c4.8,0,8.4,3.4,8.4,8s-3.6,8-8.4,8C39,21.3,35.4,17.9,35.4,13.3z M48.7,13.3
		c0-2.9-2.1-4.9-4.8-4.9s-4.8,2-4.8,4.9s2.1,4.9,4.8,4.9S48.7,16.2,48.7,13.3z"/>
</g>
<circle id="Elipse_556" class="st2" cx="55.9" cy="5.3" r="2"/>
</svg>
