<svg xmlns="http://www.w3.org/2000/svg" width="105.176" height="57.254" viewBox="0 0 105.176 57.254">
  <g id="Grupo_3043" data-name="Grupo 3043" transform="translate(-41.367 -44.188)">
    <g id="Grupo_2778" data-name="Grupo 2778" transform="translate(0 -9)">
      <path id="Trazado_7196" data-name="Trazado 7196" d="M2.591,6.4A2.591,2.591,0,1,0,5.182,8.991,2.6,2.6,0,0,0,2.591,6.4Z" transform="translate(109.564 53.67)" fill="#ff900b"/>
      <g id="Grupo_2688" data-name="Grupo 2688" transform="translate(41.367 53.188)">
        <g id="Grupo_626" data-name="Grupo 626" transform="translate(0 16.887)">
          <path id="Trazado_789" data-name="Trazado 789" d="M87.329,52.2h0l-.3-.074.3.074v-.3H84.144l-.074.148a23.851,23.851,0,0,1-44.44,0l-.074-.148H36l.148.37a27.4,27.4,0,0,0,25.7,18.443c11.777,0,21.776-7.7,25.775-18.443l.148-.37H87.4v.3Z" transform="translate(-9.336 -30.346)" fill="#fff"/>
          <path id="Trazado_790" data-name="Trazado 790" d="M3.926,33.674h0a5.307,5.307,0,0,1,1.111-.815,3.894,3.894,0,0,1,1.259-.3,2.434,2.434,0,0,1,1.259.3,2.422,2.422,0,0,1,1.111.815h0L9.7,34.711l2.074-2.148L10.74,31.526a5.174,5.174,0,0,0-2.148-1.407h0a6.485,6.485,0,0,0-2.37-.518,5.267,5.267,0,0,0-2.37.518h0a6.438,6.438,0,0,0-2.074,1.407h0A6.742,6.742,0,0,0,.37,33.674,9.407,9.407,0,0,0,0,36.192a7.111,7.111,0,0,0,.444,2.444,5.174,5.174,0,0,0,1.407,2.148,6.677,6.677,0,0,0,2.074,1.481h0a6.709,6.709,0,0,0,2.37.444,6.416,6.416,0,0,0,2.37-.444h0a5.9,5.9,0,0,0,2.148-1.481l1.037-1.037L9.777,37.6,8.74,38.71h0a2.276,2.276,0,0,1-1.111.741,3.874,3.874,0,0,1-1.333.222,3.2,3.2,0,0,1-2.37-1.037,2.9,2.9,0,0,1-.741-1.185,3.46,3.46,0,0,1-.222-1.259,4.194,4.194,0,0,1,.222-1.333A3.979,3.979,0,0,1,3.926,33.674ZM2,31.748H2L1.852,31.6Z" transform="translate(0 -24.563)" fill="#fff"/>
          <path id="Trazado_791" data-name="Trazado 791" d="M27.914,31.526a5.174,5.174,0,0,0-2.148-1.407h0A6.485,6.485,0,0,0,23.4,29.6a5.267,5.267,0,0,0-2.37.518h0a6.438,6.438,0,0,0-2.074,1.407,6.742,6.742,0,0,0-1.407,2.148,7.11,7.11,0,0,0-.444,2.444,7.524,7.524,0,0,0,.444,2.518h0a5.174,5.174,0,0,0,1.407,2.148,5.729,5.729,0,0,0,2.074,1.407,6.548,6.548,0,0,0,2.444.518,5.809,5.809,0,0,0,2.444-.518,6.438,6.438,0,0,0,2.074-1.407l1.037-1.037L26.951,37.6l-.222.222h0l-.815.889a3.346,3.346,0,0,1-1.852,1.037h-.518a2.972,2.972,0,0,1-1.111-.222L29.1,32.637Zm-7.851,4.666A3.356,3.356,0,0,1,21.1,33.674a2.843,2.843,0,0,1,1.852-.963c.148,0,.37-.074.518-.074a3.355,3.355,0,0,1,1.185.222,8.371,8.371,0,0,1-.815.815h0c-.444.444-.963.963-1.407,1.481-.518.518-.963.963-1.407,1.481a5.4,5.4,0,0,0-.667.741A2.54,2.54,0,0,1,20.063,36.192Zm.815-2.74.148.148-.148-.148Zm6,4.518h0l-.148-.148Z" transform="translate(-4.435 -24.563)" fill="#fff"/>
          <path id="Trazado_792" data-name="Trazado 792" d="M37.189,36.192a3.588,3.588,0,0,1,.222-1.333,4.151,4.151,0,0,1,.741-1.111,2.93,2.93,0,0,1,1.111-.741h0a3.148,3.148,0,0,1,2.666,0h0a2.657,2.657,0,0,1,1.037.741h0a4.151,4.151,0,0,1,.741,1.111h0a4.325,4.325,0,0,1,.3,1.333v6.592h2.963V36.192a6.239,6.239,0,0,0-.518-2.592h0a5.554,5.554,0,0,0-1.333-2.074h0a5.729,5.729,0,0,0-2.074-1.407h0a6.021,6.021,0,0,0-4.888,0h0a5.454,5.454,0,0,0-2,1.407A5.554,5.554,0,0,0,34.818,33.6h0a7.279,7.279,0,0,0-.518,2.518h0V42.71h2.963V36.192Z" transform="translate(-8.895 -24.563)" fill="#fff"/>
          <path id="Trazado_793" data-name="Trazado 793" d="M52.6,36.166a7.111,7.111,0,0,0,.444,2.444,5.174,5.174,0,0,0,1.407,2.148,6.677,6.677,0,0,0,2.074,1.481h0a6.709,6.709,0,0,0,2.37.444,6.415,6.415,0,0,0,2.37-.444h0a5.9,5.9,0,0,0,2.148-1.481l1.037-1.037-2.074-2.148L61.34,38.61h0a2.275,2.275,0,0,1-1.111.741,3.874,3.874,0,0,1-1.333.222,3.2,3.2,0,0,1-2.37-1.037,2.9,2.9,0,0,1-.741-1.185,4.111,4.111,0,0,1,0-2.666,2.93,2.93,0,0,1,.741-1.111h0a5.307,5.307,0,0,1,1.111-.815,3.893,3.893,0,0,1,1.259-.3,3.348,3.348,0,0,1,2.37,1.111L62.3,34.611l2.074-2.148L63.34,31.426a5.174,5.174,0,0,0-2.148-1.407h0a6.485,6.485,0,0,0-2.37-.518,5.267,5.267,0,0,0-2.37.518h0a6.438,6.438,0,0,0-2.074,1.407h0a6.742,6.742,0,0,0-1.407,2.148A10.432,10.432,0,0,0,52.6,36.166Zm2.074-4.444h0l-.148-.148Z" transform="translate(-13.641 -24.538)" fill="#fff"/>
          <path id="Trazado_794" data-name="Trazado 794" d="M69.7,36.192a6.92,6.92,0,0,0,.444,2.518h0a8.315,8.315,0,0,0,1.333,2.074h0a6.146,6.146,0,0,0,2,1.407h0a6.876,6.876,0,0,0,2.444.518,5.367,5.367,0,0,0,2.444-.518h0a6.494,6.494,0,0,0,2-1.407A5.844,5.844,0,0,0,81.7,38.636h0a5.905,5.905,0,0,0,.518-2.518A5.684,5.684,0,0,0,81.7,33.6h0a5.554,5.554,0,0,0-1.333-2.074h0a5.729,5.729,0,0,0-2.074-1.407h0a6.021,6.021,0,0,0-4.888,0h0a5.454,5.454,0,0,0-2,1.407A5.554,5.554,0,0,0,70.07,33.6h0a9.523,9.523,0,0,0-.37,2.592h0Zm2.666,0h.3a3.588,3.588,0,0,1,.222-1.333,4.152,4.152,0,0,1,.741-1.111h0a2.93,2.93,0,0,1,1.111-.741h0a3.148,3.148,0,0,1,2.666,0h0a2.657,2.657,0,0,1,1.037.741h0a4.152,4.152,0,0,1,.741,1.111h0a4.326,4.326,0,0,1,.3,1.333,3.006,3.006,0,0,1-.3,1.407h0a3.4,3.4,0,0,1-1.852,1.852,4.325,4.325,0,0,1-1.333.3,2.905,2.905,0,0,1-1.333-.3,4.151,4.151,0,0,1-1.111-.741,5.8,5.8,0,0,1-.741-1.111,4.312,4.312,0,0,1-.222-1.407Z" transform="translate(-18.075 -24.563)" fill="#fff"/>
          <path id="Trazado_795" data-name="Trazado 795" d="M88.4,32.044h0a3.868,3.868,0,0,0-.3,1.555,3.986,3.986,0,0,0,.3,1.629h0a7.338,7.338,0,0,0,.815,1.259h0a4.518,4.518,0,0,0,1.185.889h0a3.868,3.868,0,0,0,1.555.3H96.84a.722.722,0,0,1,.667.3.8.8,0,0,1,.3.667.951.951,0,0,1-.3.741.8.8,0,0,1-.667.3H89.285V42.71h7.629a3.316,3.316,0,0,0,1.481-.3h0a4.866,4.866,0,0,0,1.259-.889,3.1,3.1,0,0,0,.815-1.333h0a3.986,3.986,0,0,0,.3-1.629,3.435,3.435,0,0,0-.3-1.555h0a3.1,3.1,0,0,0-.815-1.259h0a2.858,2.858,0,0,0-1.259-.815h0a3.316,3.316,0,0,0-1.481-.3H92.026a.8.8,0,0,1-.667-.3.951.951,0,0,1-.3-.741.722.722,0,0,1,.3-.667.8.8,0,0,1,.667-.3h7.629V29.6h-.3v.3h0v-.3H92.026a3.868,3.868,0,0,0-1.555.3h0a4.775,4.775,0,0,0-1.185.815A5.238,5.238,0,0,0,88.4,32.044Z" transform="translate(-22.847 -24.563)" fill="#fff"/>
          <path id="Trazado_796" data-name="Trazado 796" d="M118.917,29.87h0v-.3h-2.666v6.592a3.006,3.006,0,0,1-.3,1.407h0a2.275,2.275,0,0,1-.741,1.111,2.93,2.93,0,0,1-1.111.741,4.111,4.111,0,0,1-2.666,0,9.65,9.65,0,0,1-1.111-.741,5.805,5.805,0,0,1-.741-1.111,4.313,4.313,0,0,1-.222-1.407V29.574H106.4v6.592a5.684,5.684,0,0,0,.518,2.518h0a8.315,8.315,0,0,0,1.333,2.074h0a6.146,6.146,0,0,0,2,1.407h0a6.876,6.876,0,0,0,2.444.518,5.367,5.367,0,0,0,2.444-.518h0a6.5,6.5,0,0,0,2-1.407,5.844,5.844,0,0,0,1.333-2.148h0a5.905,5.905,0,0,0,.518-2.518V29.5h-.3v.37Z" transform="translate(-27.593 -24.538)" fill="#fff"/>
          <path id="Trazado_797" data-name="Trazado 797" d="M137.54,22.8h-2.963v5.037H131.17a5.366,5.366,0,0,0-2.444.518h0a5.454,5.454,0,0,0-2,1.407h0a6.84,6.84,0,0,0-1.407,2.074h0a7.279,7.279,0,0,0-.518,2.518,5.684,5.684,0,0,0,.518,2.518h0a6.84,6.84,0,0,0,1.407,2.074,6.145,6.145,0,0,0,2,1.407h0a6.876,6.876,0,0,0,2.444.518,5.367,5.367,0,0,0,2.444-.518h0a7.516,7.516,0,0,0,2-1.407h0a5.843,5.843,0,0,0,1.333-2.148h0a5.905,5.905,0,0,0,.518-2.518V22.8Zm-7.629,14.887a4.151,4.151,0,0,1-1.111-.741,5.807,5.807,0,0,1-.741-1.111,4.313,4.313,0,0,1-.222-1.407,3.588,3.588,0,0,1,.222-1.333,4.152,4.152,0,0,1,.741-1.111,2.93,2.93,0,0,1,1.111-.741h0a2.905,2.905,0,0,1,1.333-.3h3.407v3.481a3.006,3.006,0,0,1-.3,1.407h0a2.276,2.276,0,0,1-.741,1.111,2.93,2.93,0,0,1-1.111.741h0a3.588,3.588,0,0,1-1.333.222v.3h0v-.3A3.762,3.762,0,0,1,129.911,37.687Z" transform="translate(-32.364 -22.8)" fill="#fff"/>
        </g>
        <g id="Grupo_627" data-name="Grupo 627" transform="translate(26.812 0)">
          <path id="Trazado_798" data-name="Trazado 798" d="M101.1,25.844v0h0Z" transform="translate(-53.03 -6.587)" fill="#fff"/>
          <path id="Trazado_799" data-name="Trazado 799" d="M87.825,18.443a32.264,32.264,0,0,0-3.481-6.74,4.473,4.473,0,0,0,.518-2.222,4.509,4.509,0,0,0-6.74-4.074A26.262,26.262,0,0,0,62.049,0c-11.7,0-21.776,7.7-25.7,18.443l-.148.074h3.555l.074.148A24.166,24.166,0,0,1,62.049,3.407,23.435,23.435,0,0,1,76.122,8.073,4.651,4.651,0,0,0,75.9,9.481a4.556,4.556,0,0,0,4.444,4.666,3.874,3.874,0,0,0,1.333-.222,22.628,22.628,0,0,1,2.592,4.74l.074.593H87.9Zm-7.407-6.592a2.324,2.324,0,0,1-2.3-2.37h0a2.3,2.3,0,1,1,2.3,2.37Z" transform="translate(-36.2 0)" fill="#fff"/>
        </g>
      </g>
    </g>
  </g>
</svg>
