<svg xmlns="http://www.w3.org/2000/svg" width="21.875" height="17.5" viewBox="0 0 21.875 17.5">
  <path id="monitor_heart_FILL0_wght400_GRAD0_opsz48" d="M80,262.289v-4.648A1.682,1.682,0,0,1,81.641,256h18.593a1.682,1.682,0,0,1,1.641,1.641v4.648h-1.641v-4.648H81.641v4.648ZM81.641,273.5A1.682,1.682,0,0,1,80,271.859v-4.648h1.641v4.648h18.593v-4.648h1.641v4.648a1.682,1.682,0,0,1-1.641,1.641Zm7.1-3.555a.916.916,0,0,0,.432-.109.7.7,0,0,0,.312-.328l3.637-7.273,1.449,2.9a.694.694,0,0,0,.308.328.9.9,0,0,0,.431.109h6.562V263.93H95.832l-1.969-3.91a.606.606,0,0,0-.305-.318,1.024,1.024,0,0,0-.428-.092,1.052,1.052,0,0,0-.432.092.612.612,0,0,0-.312.318l-3.637,7.246-1.449-2.9a.7.7,0,0,0-.308-.328.9.9,0,0,0-.431-.109H80v1.641h6.043l1.969,3.937a.693.693,0,0,0,.305.328A.891.891,0,0,0,88.745,269.945ZM90.937,264.75Z" transform="translate(-80 -256)" fill="#00a7fe"/>
</svg>
