<svg xmlns="http://www.w3.org/2000/svg" width="27.669" height="27.629" viewBox="0 0 27.669 27.629">
  <path id="Trazado_31046" data-name="Trazado 31046" d="M901.912,516.579a6.05,6.05,0,1,0-5.777-4.536L889,515.465a5.125,5.125,0,1,0-.078,7.221l6.022,3.731a4.5,4.5,0,0,0-.206,1.283,4.62,4.62,0,1,0,1.481-3.347l-6.032-3.738a4.643,4.643,0,0,0,.034-3.047l6.969-3.345A5.943,5.943,0,0,0,901.912,516.579Zm-16.574,5.157a2.7,2.7,0,1,1,2.7-2.7A2.7,2.7,0,0,1,885.338,521.736Zm13.984,3.813a2.152,2.152,0,1,1-2.153,2.152A2.155,2.155,0,0,1,899.322,525.549Zm2.589-18.474a3.539,3.539,0,1,1-3.541,3.539A3.544,3.544,0,0,1,901.912,507.075Z" transform="translate(-880.209 -504.649)" fill="#0051c7"/>
</svg>
