<svg id="Componente_1_1" data-name="Componente 1 – 1" xmlns="http://www.w3.org/2000/svg" width="95.327" height="30" viewBox="0 0 95.327 30">
  <g id="Grupo_28938" data-name="Grupo 28938">
    <g id="Grupo_28938-2" data-name="Grupo 28938" transform="translate(38.884 4.226)">
      <path id="Trazado_31074" data-name="Trazado 31074" d="M795.032,243.1h5.09V263.32h-5.09v-1.594a5.313,5.313,0,0,1-4.391,2.042,6.981,6.981,0,0,1-2.881-.588,7.115,7.115,0,0,1-2.293-1.622,7.409,7.409,0,0,1-1.525-2.434,8.577,8.577,0,0,1-.028-5.943,7.328,7.328,0,0,1,1.469-2.42,6.951,6.951,0,0,1,5.2-2.237,5.845,5.845,0,0,1,4.447,1.874ZM788.655,256.1a3.347,3.347,0,0,0,.937,2.349,3.07,3.07,0,0,0,1.035.7,3.333,3.333,0,0,0,1.3.252,3.262,3.262,0,0,0,1.273-.252,3.082,3.082,0,0,0,1.035-.7,3.614,3.614,0,0,0,.7-1.035,3.015,3.015,0,0,0,.266-1.258,3.113,3.113,0,0,0-.266-1.273,3.565,3.565,0,0,0-.7-1.049,3.09,3.09,0,0,0-1.035-.7,3.344,3.344,0,0,0-2.545,0,3.077,3.077,0,0,0-1.035.7,3.662,3.662,0,0,0-.7,1.021A2.912,2.912,0,0,0,788.655,256.1Z" transform="translate(-783.397 -243.098)" fill="#091e42"/>
      <path id="Trazado_31075" data-name="Trazado 31075" d="M857.425,267.337h5.09v14.348h-5.09V280.09a5.313,5.313,0,0,1-4.391,2.042,7.133,7.133,0,0,1-2.881-.574,6.939,6.939,0,0,1-2.293-1.608,7.408,7.408,0,0,1-1.524-2.433,8.308,8.308,0,0,1-.546-3.048,8.081,8.081,0,0,1,.532-2.923,7.518,7.518,0,0,1,1.482-2.42,6.994,6.994,0,0,1,2.266-1.636,6.908,6.908,0,0,1,2.909-.6,5.846,5.846,0,0,1,4.447,1.874Zm-6.377,7.132a3.343,3.343,0,0,0,.937,2.349,3.072,3.072,0,0,0,1.035.7,3.333,3.333,0,0,0,1.3.252,3.262,3.262,0,0,0,1.272-.252,3.074,3.074,0,0,0,1.035-.7,3.615,3.615,0,0,0,.7-1.035,3.017,3.017,0,0,0,.266-1.258,3.116,3.116,0,0,0-.266-1.273,3.567,3.567,0,0,0-.7-1.049,3.082,3.082,0,0,0-1.035-.7,3.261,3.261,0,0,0-1.272-.252,3.333,3.333,0,0,0-1.3.252,3.08,3.08,0,0,0-1.035.7,3.457,3.457,0,0,0-.685,1.021A3.064,3.064,0,0,0,851.048,274.469Z" transform="translate(-826.183 -261.462)" fill="#091e42"/>
      <path id="Trazado_31076" data-name="Trazado 31076" d="M908.182,274.2a6.974,6.974,0,0,1,.643-2.979,7.3,7.3,0,0,1,1.79-2.405,8.508,8.508,0,0,1,2.727-1.608,9.84,9.84,0,0,1,3.454-.587,9.984,9.984,0,0,1,3.426.573,8.5,8.5,0,0,1,2.741,1.594,7.169,7.169,0,0,1,1.8,2.433,7.443,7.443,0,0,1,.643,3.119,7.3,7.3,0,0,1-.657,3.118,7.405,7.405,0,0,1-1.8,2.433,8.084,8.084,0,0,1-2.755,1.58,10.539,10.539,0,0,1-3.482.559,10.082,10.082,0,0,1-3.412-.559,7.867,7.867,0,0,1-2.7-1.594,7.387,7.387,0,0,1-1.776-2.475A7.758,7.758,0,0,1,908.182,274.2Zm5.342.056a3.253,3.253,0,0,0,.265,1.329,3.548,3.548,0,0,0,.7,1.049,3.073,3.073,0,0,0,1.035.7,3.343,3.343,0,0,0,2.546,0,3.082,3.082,0,0,0,1.035-.7,3.566,3.566,0,0,0,.7-1.049,3.19,3.19,0,0,0,.266-1.3,3.122,3.122,0,0,0-.266-1.273,3.579,3.579,0,0,0-.7-1.049,3.086,3.086,0,0,0-1.035-.7,3.344,3.344,0,0,0-2.546,0,3.077,3.077,0,0,0-1.035.7,3.614,3.614,0,0,0-.7,1.035A3.018,3.018,0,0,0,913.524,274.257Z" transform="translate(-868.969 -261.279)" fill="#091e42"/>
    </g>
    <g id="Grupo_28939" data-name="Grupo 28939" transform="translate(0 0)">
      <path id="Trazado_31077" data-name="Trazado 31077" d="M655.677,274.558a2.746,2.746,0,1,0,2.745-2.745A2.748,2.748,0,0,0,655.677,274.558Z" transform="translate(-653.619 -258.054)" fill="#0051c7"/>
      <path id="Trazado_31078" data-name="Trazado 31078" d="M653.425,235.939a5.194,5.194,0,0,1,3.727,1.579l7.251-3.482a6.007,6.007,0,0,1-.2-1.452,6.056,6.056,0,0,1,6.728-6.031,14.927,14.927,0,0,0-7.313-1.9h-10.5a4.5,4.5,0,0,0-4.5,4.5v9.975A5.222,5.222,0,0,1,653.425,235.939Z" transform="translate(-648.622 -224.648)" fill="#0051c7"/>
      <path id="Trazado_31079" data-name="Trazado 31079" d="M710.509,243.107a3.6,3.6,0,1,0,3.6-3.6A3.6,3.6,0,0,0,710.509,243.107Z" transform="translate(-692.455 -235.172)" fill="#0051c7"/>
      <path id="Trazado_31080" data-name="Trazado 31080" d="M662.988,294.956a4.6,4.6,0,0,1,.209-1.306l-6.121-3.793a5.2,5.2,0,0,1-8.454-1.688v6.966a4.5,4.5,0,0,0,4.5,4.5h10.5a15.1,15.1,0,0,0,2.639-.236A4.664,4.664,0,0,1,662.988,294.956Z" transform="translate(-648.622 -269.638)" fill="#0051c7"/>
      <path id="Trazado_31081" data-name="Trazado 31081" d="M699.893,248.339a6.045,6.045,0,0,1-10.773,4.7l-7.084,3.4a4.724,4.724,0,0,1-.035,3.1l6.132,3.8a4.644,4.644,0,0,1,7.169,5.75,14.984,14.984,0,0,0,6.963-12.662h0A14.922,14.922,0,0,0,699.893,248.339Z" transform="translate(-672.263 -241.428)" fill="#0051c7"/>
      <path id="Trazado_31082" data-name="Trazado 31082" d="M708.512,303.934a2.188,2.188,0,1,0,2.188,2.188A2.192,2.192,0,0,0,708.512,303.934Z" transform="translate(-689.49 -280.805)" fill="#0051c7"/>
    </g>
  </g>
</svg>
