<svg xmlns="http://www.w3.org/2000/svg" width="591.785" height="395.038" viewBox="0 0 591.785 395.038">
  <g id="Grupo_29354" data-name="Grupo 29354" transform="translate(-1343.569 -346.878)">
    <path id="Trazado_31166" data-name="Trazado 31166" d="M1898.619,1231.254l36.8,58.138a14.333,14.333,0,0,1-12.111,22h-99.335a14.334,14.334,0,0,1-12.112-6.668l-41.765-65.989a14.334,14.334,0,0,1,12.112-22h99.335a14.333,14.333,0,0,1,12.112,6.668l4.969,7.851Z" transform="translate(-288.458 -591.4)" fill="#0053c0"/>
    <path id="Trazado_31167" data-name="Trazado 31167" d="M1972.887,1266.669s3.853-6.406,11.225-.976l41.384,37.284s3.9,5.537-4.1,6.247H1966.64s-11.821.592-8.98-8.1Z" transform="translate(-417.21 -623.201)" fill="#fff"/>
    <path id="Trazado_31168" data-name="Trazado 31168" d="M2090.862,713.313l89.654,141.654c14.717,23.253-1.99,53.6-29.51,53.6H1908.976a34.924,34.924,0,0,1-29.51-16.247L1777.706,731.54c-14.717-23.253,1.991-53.6,29.51-53.6h242.031a34.924,34.924,0,0,1,29.51,16.247l12.106,19.128Z" transform="translate(-291.442 -225.082)" fill="#fff"/>
    <path id="Trazado_31169" data-name="Trazado 31169" d="M2381.536,978.6l-16.128-25.48-2.178-3.443a7.029,7.029,0,0,0-5.967-3.283h-43.536a7.059,7.059,0,0,0-5.967,10.836l18.3,28.921a7.024,7.024,0,0,0,5.967,3.285h43.536a7.061,7.061,0,0,0,5.969-10.837Z" transform="translate(-654.782 -407.603)" fill="#0053c0"/>
    <path id="Trazado_31170" data-name="Trazado 31170" d="M2699.3,769.365a14.986,14.986,0,0,1,8.261,0c4.569,1.286,6.092,4.374,6.456,9.041s-3.611,10.869-12.838,8.6c0,0-14.184,1.908-17.76,8.853s-3.6,8.079-3.6,8.079-2.689,10.537,1.25,15.757c0,0-16.029,2.231-18.583,8.109,0,0-9.008-3.01-12.243-3.944s-7.365-5.747-10.453-9.064-8.834-8.466-8.877-10.236.478-4.6,2.575-5.117,6.349-.279,10.851,4.974,7.421,6.67,7.587,5.67-6.053-8.312-11.656-12.73-13.917-10.911-15.138-12.334.558-5.371,2.3-6.177,4.426-1.416,9.206,2.086,8.582,6.543,8.582,6.543,6.482-5.329,13.764-1.044a7.115,7.115,0,0,1,6.893-.65l.51-2.742s-6.736-6.054-6.458-8.333,11.3-10.083,11.3-10.083l2.314-17.284s3.633,10.451,13.017,16.547S2699.3,769.365,2699.3,769.365Z" transform="translate(-871.041 -272.268)" fill="#fff"/>
    <path id="Trazado_31171" data-name="Trazado 31171" d="M2299.465,1034.517s-5.576,3.5-3.683,9.672c0,0-5.461,3.145-2.951,12.328s5.793,16.733,12.012,22.915,15.736,11.215,16.374,13.417a100.649,100.649,0,0,1,12.84-11.266,91.847,91.847,0,0,1,13.9-8.721s-12.015-19.259-14.263-24.486-5.821-12.781-11.08-11.4-4.311,7.049-2.742,11.3,6.045,12.59,1.347,13.507-8.1-7.961-8.1-7.961-1.772-.711-5.524-7.214a87.422,87.422,0,0,0-8.132-11.637Z" transform="translate(-644.937 -467.513)" fill="#fff"/>
    <path id="Trazado_31172" data-name="Trazado 31172" d="M2781.692,689.816c8.555-8.157,20.2-5.326,26.52-2.823s11.131,4.43,13.781,7.808c0,0,10.076,3.375,14.95,6.378s8.36,9.222,6.868,17.7-6.84,15.925-6.84,15.925-2.572,4.954.948,7.325,13.25,8.823,13.883,23.958-9.451,23.384-19.917,23.706-23.564-3.32-24.352-5.334c0,0-13.884,6.324-22.455-4.9s.056-27.517,5.214-30.239a23.535,23.535,0,0,1,10.641-2.515,22.245,22.245,0,0,0,4.891-7.949c1-2.835-1.723-8.115-5.4-9.839a17.142,17.142,0,0,0-5.546-1.334s-11.951-2.89-18.121-18.843C2776.75,708.839,2773.138,697.974,2781.692,689.816Z" transform="translate(-973.879 -229.48)" fill="#0051c7"/>
    <path id="Trazado_31173" data-name="Trazado 31173" d="M2568.8,982.49s6.188,5.619,10.04,19.251c0,0,15.418,27.16,21.085,43.292s15.384,38.8,6.69,54.1-24.434,14.009-27.848,12.93a132.136,132.136,0,0,0-.341,23.832c1.041,12.392,3.931,31.083,3.931,31.083H2459.522s2.9-12.868,3.689-18.061,1.831-14.074,1.831-14.074-10.507,6.774-32.533-3.762-42.074-42.011-46.639-50.02-13.336-25.942-13.336-25.942,20.235-21.909,38.876-27.991l34.537,38.388s9.3-20.525,16.126-35.795,16.083-37.783,26.108-45.619,14.048-9.819,21.427-10.728c0,0,4.209,8.068,11.38,9.152a21.335,21.335,0,0,0,12.239-1.6s11.44,5.913,21.029,5.507S2568.8,982.49,2568.8,982.49Z" transform="translate(-699.574 -425.94)" fill="#1a1a1a"/>
    <path id="Trazado_31174" data-name="Trazado 31174" d="M2430.391,421.761l16.127,25.481a6.282,6.282,0,0,1-5.308,9.641h-43.536a6.282,6.282,0,0,1-5.308-2.922l-18.3-28.921a6.282,6.282,0,0,1,5.308-9.642h43.536a6.281,6.281,0,0,1,5.308,2.922l2.178,3.441Z" transform="translate(-699.943 -46.585)" fill="#1a1a1a"/>
    <path id="Trazado_31175" data-name="Trazado 31175" d="M1757.589,504.033l42.892,67.77a16.708,16.708,0,0,1-14.118,25.643H1670.571a16.708,16.708,0,0,1-14.118-7.772l-48.684-76.921a16.708,16.708,0,0,1,14.118-25.643h115.792a16.708,16.708,0,0,1,14.118,7.772l5.792,9.151Z" transform="translate(-177.846 -95.341)" fill="#0053c0"/>
    <path id="Trazado_31176" data-name="Trazado 31176" d="M2623.438,863s-2.712,4.335,3.292,7.087l3.416-1.082S2622.981,863.837,2623.438,863Z" transform="translate(-869.744 -350.904)" fill="#ccc"/>
    <path id="Trazado_31177" data-name="Trazado 31177" d="M1651.978,476.553h154.25l-10.136-15.368s-2.446-3.205-9.561-5.118-119.843.071-119.843.071S1649.052,457.819,1651.978,476.553Z" transform="translate(-209.459 -73.67)" fill="#1a1a1a"/>
    <path id="Trazado_31178" data-name="Trazado 31178" d="M2003.426,476.511c-1.878,1.559-5.188.668-7.394-1.989s-2.472-6.075-.594-7.634,5.188-.668,7.394,1.989S2005.3,474.952,2003.426,476.511Z" transform="translate(-442.343 -81.07)" fill="#fff"/>
    <ellipse id="Elipse_743" data-name="Elipse 743" cx="4.419" cy="6.253" rx="4.419" ry="6.253" transform="translate(1532.658 388.64) rotate(-39.697)" fill="#fff"/>
    <path id="Trazado_31179" data-name="Trazado 31179" d="M1369.709,920.4c-4.754,3.946-13.134,1.691-18.717-5.035s-6.257-15.378-1.5-19.324,13.133-1.692,18.717,5.034S1374.463,916.453,1369.709,920.4Z" transform="translate(-1.871 -372.044)" fill="#0051c7"/>
    <path id="Trazado_31180" data-name="Trazado 31180" d="M2781.692,689.821c-8.555,8.157-4.942,19.022-4.942,19.022,6.17,15.953,18.121,18.844,18.121,18.844a18.707,18.707,0,0,1,2.215.3c-4.539-3.557-13.246-12.45-10.117-26.593,2.518-11.382,9.961-15.062,15.463-16.194C2796.114,683.769,2788.051,683.757,2781.692,689.821Z" transform="translate(-973.878 -229.485)" fill="#fff"/>
    <path id="Trazado_31181" data-name="Trazado 31181" d="M2808.878,918.881c-20.335-12.031-5.936-34.682,1.574-39.3a23.149,23.149,0,0,0-8.581,2.432c-5.158,2.722-13.785,19.01-5.214,30.239A16.283,16.283,0,0,0,2808.878,918.881Z" transform="translate(-985.46 -362.178)" fill="#fff"/>
    <path id="Trazado_31182" data-name="Trazado 31182" d="M2536.1,1414.437s20.807,16.049,40.146,8.241c0,0,12-4.918,16-9.587,0,0-6.559-16.9-27.237-16.342S2538.875,1408.223,2536.1,1414.437Z" transform="translate(-810.783 -713.779)" fill="#0051c7"/>
    <g id="Grupo_29294" data-name="Grupo 29294" transform="translate(1672.079 600.18)">
      <path id="Trazado_31183" data-name="Trazado 31183" d="M2451.486,1249.665c-31.431,0-63.955-41.625-81.629-82.163a.875.875,0,0,1,.109-.886,82.894,82.894,0,0,1,17.31-15.956c13.946-9.482,21.521-12.333,21.838-12.45a.882.882,0,0,1,.928.2c.406.407,40.828,41.03,53.276,65.975a.881.881,0,0,1-1.576.788c-11.651-23.348-48.25-60.764-52.539-65.107-1.936.807-9.22,4.077-20.94,12.045a82.035,82.035,0,0,0-16.582,15.167c18.357,41.831,52.467,84.682,84.284,80.317,33.792-4.624,48.1-48.382,63.3-105.1a.867.867,0,0,1,1.077-.621.877.877,0,0,1,.621,1.077c-15.368,57.363-29.9,101.621-64.763,106.394A35.077,35.077,0,0,1,2451.486,1249.665Z" transform="translate(-2369.783 -1138.155)"/>
    </g>
    <g id="Grupo_29295" data-name="Grupo 29295" transform="translate(1745.974 546.92)">
      <path id="Trazado_31184" data-name="Trazado 31184" d="M2601.5,1066.046a.882.882,0,0,1-.8-1.243c3.811-8.448,7.317-16.789,10.706-24.857,15.494-36.864,27.731-65.983,52.416-68.166a.9.9,0,0,1,.954.8.88.88,0,0,1-.8.954c-23.627,2.086-35.683,30.776-50.947,67.094-3.393,8.077-6.9,16.429-10.723,24.9A.882.882,0,0,1,2601.5,1066.046Z" transform="translate(-2600.618 -971.777)"/>
    </g>
    <g id="Grupo_29300" data-name="Grupo 29300" transform="translate(1646.172 566.572)">
      <g id="Grupo_29296" data-name="Grupo 29296" transform="translate(21.132 1.646)">
        <path id="Trazado_31185" data-name="Trazado 31185" d="M2390.582,1075.719a.875.875,0,0,1-.683-.326c-.047-.058-1.2-1.492-6.87-9.81a68.324,68.324,0,0,1-5.589-9.68c-.69-1.484-1.3-3.006-1.9-4.53a57.355,57.355,0,0,0-2.861-6.419c-.345-.626-.713-1.239-1.109-1.831a8.113,8.113,0,0,0-2.337-2.482,4.173,4.173,0,0,0-3.7-.266,4.953,4.953,0,0,0-3.021,3.027c-.66,2.112.111,4.662.885,6.887.417,1.2.9,2.367,1.386,3.54.549,1.328,1.115,2.7,1.582,4.107.049.149.119.319.2.511.607,1.5,2.029,5.009-2.678,7.272-3.675,1.765-6.225-3.17-7.909-6.436-.359-.7-.685-1.333-.977-1.812a.88.88,0,1,1,1.5-.916c.309.507.656,1.177,1.039,1.92,1.741,3.379,3.6,6.608,5.582,5.654,3.217-1.546,2.435-3.474,1.809-5.022-.094-.232-.179-.441-.236-.62-.445-1.345-1-2.689-1.537-3.99-.5-1.2-.994-2.4-1.42-3.632-.868-2.491-1.727-5.367-.907-7.99a6.655,6.655,0,0,1,4.09-4.153,5.928,5.928,0,0,1,5.243.423,9.941,9.941,0,0,1,2.866,3c.426.634.82,1.29,1.19,1.963a58.55,58.55,0,0,1,2.955,6.614c.594,1.493,1.188,2.987,1.865,4.439a66.024,66.024,0,0,0,5.448,9.431c5.58,8.186,6.736,9.637,6.783,9.7a.88.88,0,0,1-.135,1.237A.87.87,0,0,1,2390.582,1075.719Z" transform="translate(-2354.867 -1038.31)"/>
      </g>
      <g id="Grupo_29297" data-name="Grupo 29297" transform="translate(3.793)">
        <path id="Trazado_31186" data-name="Trazado 31186" d="M2302.606,1045.991a.876.876,0,0,1-.777-.466,11.758,11.758,0,0,1-.83-7.645c.609-2.6,1.808-4,4.007-4.669a.88.88,0,0,1,.515,1.682c-1.339.411-2.276,1.122-2.81,3.391a10.036,10.036,0,0,0,.673,6.414.881.881,0,0,1-.364,1.19A.871.871,0,0,1,2302.606,1045.991Z" transform="translate(-2300.7 -1033.168)"/>
      </g>
      <g id="Grupo_29298" data-name="Grupo 29298" transform="translate(4.818 11.066)">
        <path id="Trazado_31187" data-name="Trazado 31187" d="M2315.816,1088.3a.872.872,0,0,1-.7-.345c-5.957-7.777-11.083-18.862-11.134-18.973a.881.881,0,1,1,1.6-.736c.049.11,5.1,11.021,10.93,18.641a.877.877,0,0,1-.164,1.233A.867.867,0,0,1,2315.816,1088.3Z" transform="translate(-2303.904 -1067.737)"/>
      </g>
      <g id="Grupo_29299" data-name="Grupo 29299" transform="translate(0 9.581)">
        <path id="Trazado_31188" data-name="Trazado 31188" d="M2318.961,1113.159a.879.879,0,0,1-.649-.286,18.062,18.062,0,0,0-5.094-3.855,34.664,34.664,0,0,1-8.762-6.759c-7.583-7.711-13.386-19.893-15.2-27.942-2.059-9.139,4.413-11.164,4.479-11.183a.88.88,0,0,1,.5,1.686c-.207.064-4.952,1.628-3.268,9.11,1.759,7.807,7.385,19.62,14.739,27.095a33.126,33.126,0,0,0,8.375,6.463,19.757,19.757,0,0,1,5.524,4.2.879.879,0,0,1-.055,1.243A.869.869,0,0,1,2318.961,1113.159Z" transform="translate(-2288.852 -1063.098)"/>
      </g>
    </g>
    <g id="Grupo_29301" data-name="Grupo 29301" transform="translate(1813.761 497.773)">
      <path id="Trazado_31189" data-name="Trazado 31189" d="M2821.146,839.2a10.479,10.479,0,0,1-8.618-4.539.881.881,0,0,1,1.452-1,8.707,8.707,0,1,0,1.884-11.851.88.88,0,1,1-1.069-1.4,10.47,10.47,0,1,1,6.351,18.786Z" transform="translate(-2812.375 -818.251)"/>
    </g>
    <g id="Grupo_29302" data-name="Grupo 29302" transform="translate(1817.722 503.591)">
      <path id="Trazado_31190" data-name="Trazado 31190" d="M2830.288,846.87a.879.879,0,0,1-.711-.362l-4.658-6.392a.88.88,0,0,1,.466-1.363l7.937-2.293a.88.88,0,0,1,.49,1.691l-6.729,1.945,3.917,5.377a.881.881,0,0,1-.711,1.4Z" transform="translate(-2824.75 -836.426)"/>
    </g>
    <g id="Grupo_29303" data-name="Grupo 29303" transform="translate(1795.069 482.731)">
      <path id="Trazado_31191" data-name="Trazado 31191" d="M2766.882,821.55c-5.234-.481-8.9-2.4-10.974-5.695-3.864-6.144-.732-14.761-.6-15.125l7.042-28.8a.881.881,0,0,1,1.712.419l-7.072,28.895c-.06.178-2.993,8.275.409,13.678,1.769,2.808,4.986,4.445,9.563,4.869a.88.88,0,0,1-.081,1.756Z" transform="translate(-2753.985 -771.262)"/>
    </g>
    <g id="Grupo_29304" data-name="Grupo 29304" transform="translate(1792.325 485.198)">
      <path id="Trazado_31192" data-name="Trazado 31192" d="M2749.211,802.14a3.8,3.8,0,0,1-3.655-4.825l4.369-15.573a3.8,3.8,0,0,1,4.683-2.631,2.969,2.969,0,0,1,2.266,4.034.88.88,0,0,1-1.7-.477,1.259,1.259,0,0,0-1.047-1.863,2.041,2.041,0,0,0-2.512,1.413l-4.369,15.573a2.038,2.038,0,0,0,3.924,1.1.88.88,0,0,1,1.695.475,3.809,3.809,0,0,1-3.658,2.773Z" transform="translate(-2745.413 -778.969)"/>
    </g>
    <g id="Grupo_29305" data-name="Grupo 29305" transform="translate(1759.066 708.924)">
      <path id="Trazado_31193" data-name="Trazado 31193" d="M2642.4,1510.846a.842.842,0,0,1-.279-.047.879.879,0,0,1-.555-1.113c1.624-4.848,4.417-21.4,5.48-31.048a.909.909,0,0,1,.97-.779.88.88,0,0,1,.779.971c-.979,8.89-3.745,26-5.561,31.414A.881.881,0,0,1,2642.4,1510.846Z" transform="translate(-2641.517 -1477.853)"/>
    </g>
    <g id="Grupo_29306" data-name="Grupo 29306" transform="translate(1877.898 574.921)">
      <path id="Trazado_31194" data-name="Trazado 31194" d="M3019.255,1172.286a13.511,13.511,0,0,1-6.065-1.252.88.88,0,0,1,.83-1.552c.458.243,11.281,5.673,25.845-10.768,13.249-14.956-6.016-62.22-26.537-98.149a.88.88,0,1,1,1.528-.873c7.532,13.188,44.205,80.007,26.324,100.189C3032.141,1170.087,3024.318,1172.286,3019.255,1172.286Z" transform="translate(-3012.728 -1059.248)"/>
    </g>
    <g id="Grupo_29307" data-name="Grupo 29307" transform="translate(1868.868 555.921)">
      <path id="Trazado_31195" data-name="Trazado 31195" d="M2998.434,1185.888a.877.877,0,0,1-.858-.687c-.068-.3-6.746-30.7-3.37-63.714,7.068-69.1,4.158-106.139-9.435-120.1a.879.879,0,1,1,1.26-1.226c14.179,14.558,17.149,50.9,9.925,121.5-3.347,32.732,3.27,62.852,3.336,63.152a.877.877,0,0,1-.667,1.05A.826.826,0,0,1,2998.434,1185.888Z" transform="translate(-2984.521 -999.895)"/>
    </g>
    <g id="Grupo_29308" data-name="Grupo 29308" transform="translate(1715.223 452.642)">
      <path id="Trazado_31196" data-name="Trazado 31196" d="M2587.644,711.955a.875.875,0,0,1-.743-.41l-10.587-16.727a33.778,33.778,0,0,0-28.683-15.79h-42.2a.88.88,0,0,1,0-1.761h42.2a35.527,35.527,0,0,1,30.169,16.61l10.587,16.727a.88.88,0,0,1-.743,1.351Z" transform="translate(-2504.557 -677.268)"/>
    </g>
    <g id="Grupo_29309" data-name="Grupo 29309" transform="translate(1586.962 452.642)">
      <path id="Trazado_31197" data-name="Trazado 31197" d="M2185.113,679.029H2104.77a.88.88,0,0,1,0-1.761h80.343a.88.88,0,0,1,0,1.761Z" transform="translate(-2103.891 -677.268)"/>
    </g>
    <g id="Grupo_29310" data-name="Grupo 29310" transform="translate(1485.741 504.637)">
      <path id="Trazado_31198" data-name="Trazado 31198" d="M2008.746,1019.421h-88.365a35.527,35.527,0,0,1-30.169-16.608L1787.827,841.042a.88.88,0,1,1,1.486-.941L1891.7,1001.873a33.781,33.781,0,0,0,28.683,15.79h88.365a.879.879,0,1,1,0,1.758Z" transform="translate(-1787.69 -839.693)"/>
    </g>
    <g id="Grupo_29311" data-name="Grupo 29311" transform="translate(1441.188 381.517)">
      <path id="Trazado_31199" data-name="Trazado 31199" d="M1830.618,567.183H1714.826A17.5,17.5,0,0,1,1699.964,559l-48.685-76.921a17.588,17.588,0,0,1,14.862-26.995h115.792a17.494,17.494,0,0,1,14.859,8.183l5.793,9.151,42.891,67.769a17.588,17.588,0,0,1-14.86,26.995ZM1666.141,456.846a15.828,15.828,0,0,0-13.374,24.293l48.683,76.921a15.753,15.753,0,0,0,13.376,7.363h115.792a15.828,15.828,0,0,0,13.374-24.293l-48.684-76.921a15.748,15.748,0,0,0-13.374-7.363Z" transform="translate(-1648.516 -455.085)"/>
    </g>
    <g id="Grupo_29312" data-name="Grupo 29312" transform="translate(1478.5 614.609)">
      <path id="Trazado_31200" data-name="Trazado 31200" d="M1778.731,1223.538a.876.876,0,0,1-.743-.409l-10.536-16.646a15.151,15.151,0,0,1,12.8-23.254h62.539a.879.879,0,0,1,0,1.759h-62.539a13.393,13.393,0,0,0-11.317,20.554l10.536,16.646a.879.879,0,0,1-.272,1.214A.868.868,0,0,1,1778.731,1223.538Z" transform="translate(-1765.071 -1183.229)"/>
    </g>
    <g id="Grupo_29313" data-name="Grupo 29313" transform="translate(1513.689 682.606)">
      <path id="Trazado_31201" data-name="Trazado 31201" d="M1995.485,1423.652h-98.909a15.071,15.071,0,0,1-12.8-7.049l-8.641-13.653a.879.879,0,1,1,1.486-.941l8.641,13.653a13.324,13.324,0,0,0,11.315,6.231h98.909a13.393,13.393,0,0,0,11.317-20.555l-2.753-4.347a.879.879,0,1,1,1.486-.941l2.753,4.347a15.15,15.15,0,0,1-12.8,23.254Z" transform="translate(-1874.997 -1395.642)"/>
    </g>
    <g id="Grupo_29314" data-name="Grupo 29314" transform="translate(1656.502 376.706)">
      <path id="Trazado_31202" data-name="Trazado 31202" d="M2390.14,483.3H2346.6a7.127,7.127,0,0,1-6.053-3.332l-18.3-28.921a7.163,7.163,0,0,1,6.05-10.993h43.539a7.124,7.124,0,0,1,6.05,3.332l18.3,28.921a7.162,7.162,0,0,1-6.05,10.993ZM2328.3,441.816a5.4,5.4,0,0,0-4.564,8.291l18.3,28.921a5.378,5.378,0,0,0,4.566,2.512h43.536a5.4,5.4,0,0,0,4.564-8.291l-16.127-25.48-2.178-3.442a5.377,5.377,0,0,0-4.564-2.512Z" transform="translate(-2321.122 -440.055)"/>
    </g>
    <g id="Grupo_29315" data-name="Grupo 29315" transform="translate(1656.502 376.706)">
      <path id="Trazado_31203" data-name="Trazado 31203" d="M2390.14,483.3H2346.6a7.127,7.127,0,0,1-6.053-3.332l-18.3-28.921a7.163,7.163,0,0,1,6.05-10.993h43.539a7.124,7.124,0,0,1,6.05,3.332l18.3,28.921a7.162,7.162,0,0,1-6.05,10.993ZM2328.3,441.816a5.4,5.4,0,0,0-4.564,8.291l18.3,28.921a5.378,5.378,0,0,0,4.566,2.512h43.536a5.4,5.4,0,0,0,4.564-8.291l-16.127-25.48-2.178-3.442a5.377,5.377,0,0,0-4.564-2.512Z" transform="translate(-2321.122 -440.055)"/>
    </g>
    <g id="Grupo_29316" data-name="Grupo 29316" transform="translate(1645.391 544.557)">
      <path id="Trazado_31204" data-name="Trazado 31204" d="M2318.563,1007.643h-6.67a7.123,7.123,0,0,1-6.05-3.332l-18.3-28.921a7.16,7.16,0,0,1,6.051-10.992h43.536a7.126,7.126,0,0,1,6.052,3.332l2.178,3.44a.88.88,0,0,1-1.486.941l-2.178-3.44a5.379,5.379,0,0,0-4.566-2.514h-43.536a5.4,5.4,0,0,0-4.564,8.292l18.3,28.921a5.376,5.376,0,0,0,4.564,2.514h6.67a.879.879,0,0,1,0,1.759Z" transform="translate(-2286.412 -964.398)"/>
    </g>
    <g id="Grupo_29317" data-name="Grupo 29317" transform="translate(1690.964 550.92)">
      <path id="Trazado_31205" data-name="Trazado 31205" d="M2452.219,1021.156h-22.564a.879.879,0,1,1,0-1.759h22.564a5.4,5.4,0,0,0,4.566-8.292l-16.126-25.481a.88.88,0,0,1,1.486-.941l16.126,25.481a7.162,7.162,0,0,1-6.052,10.992Z" transform="translate(-2428.775 -984.274)"/>
    </g>
    <g id="Grupo_29318" data-name="Grupo 29318" transform="translate(1674.744 480.855)">
      <path id="Trazado_31206" data-name="Trazado 31206" d="M2464.524,804.249h-65.845a12.045,12.045,0,0,1-10.233-5.635L2380,783.961a12.11,12.11,0,0,1,10.253-18.559h77.842a12.051,12.051,0,0,1,10.234,5.635l8.449,14.653a11.877,11.877,0,0,1,.779,11.443.879.879,0,1,1-1.6-.728,10.174,10.174,0,0,0-.683-9.8l-8.45-14.653a10.288,10.288,0,0,0-8.729-4.785h-77.842a10.352,10.352,0,0,0-8.748,15.888l8.45,14.653a10.283,10.283,0,0,0,8.729,4.785h65.845a.88.88,0,0,1,0,1.761Z" transform="translate(-2378.108 -765.402)"/>
    </g>
    <g id="Grupo_29322" data-name="Grupo 29322" transform="translate(1752.959 504.781)">
      <g id="Grupo_29319" data-name="Grupo 29319" transform="translate(0)">
        <path id="Trazado_31207" data-name="Trazado 31207" d="M2660.6,891.674a.893.893,0,0,1-.366-.081,55.3,55.3,0,0,0-6.484-1.918c-8.655-2.263-12.361-6.666-15.948-10.926l-1.192-1.4a40.642,40.642,0,0,0-3.108-3.1c-2.667-2.48-5.188-4.822-5.167-7.607a5.728,5.728,0,0,1,2.244-4.207,4.931,4.931,0,0,1,3.726-1.29c4.1.237,8.507,4.741,10.212,6.668a39.58,39.58,0,0,0,4.026,4.026c-1.471-1.9-4.471-4.909-6.645-7.093l-1.91-1.922a98.865,98.865,0,0,0-9.458-7.619,63.2,63.2,0,0,1-7.191-5.8c-1.254-1.432-1.2-3.879.136-6.09,1.156-1.911,3.406-3.711,6.255-3.02,4.33,1.044,9.765,5.773,12.686,8.313.459.4.839.733,1.113.96.036-.034.075-.068.109-.1a7.782,7.782,0,0,1,4.245-2.215c5.186-.892,8.032.433,9.174,1.191a7.138,7.138,0,0,1,4.877-1,24.461,24.461,0,0,1,4.236,1.278.88.88,0,0,1-.707,1.612,22.84,22.84,0,0,0-3.845-1.157,5.708,5.708,0,0,0-4.047,1.039.888.888,0,0,1-1.177-.071c-.013-.015-2.329-2.167-8.213-1.157a6.03,6.03,0,0,0-3.34,1.765c-.458.427-1.141,1.076-1.933.554-.273-.181-.854-.68-1.648-1.37-2.606-2.268-8.031-6.987-11.943-7.93-1.927-.472-3.5.842-4.334,2.22-.909,1.5-1.043,3.192-.32,4.018a65.35,65.35,0,0,0,6.921,5.55,99.7,99.7,0,0,1,9.661,7.794l1.9,1.916c4.856,4.875,7.822,7.956,8.026,9.589a1.237,1.237,0,0,1-.667,1.411c-.419.2-1.72.79-7.308-5.525-3.245-3.668-6.606-5.939-8.992-6.076a3.267,3.267,0,0,0-2.451.839,4.109,4.109,0,0,0-1.658,2.915c-.015,2.007,2.229,4.094,4.6,6.3a42.167,42.167,0,0,1,3.242,3.236l1.207,1.422c3.564,4.234,6.932,8.235,15.047,10.355a53.128,53.128,0,0,1,6.776,2.022.881.881,0,0,1-.372,1.68Z" transform="translate(-2622.438 -840.144)"/>
      </g>
      <g id="Grupo_29320" data-name="Grupo 29320" transform="translate(20.078 9.546)">
        <path id="Trazado_31208" data-name="Trazado 31208" d="M2697.584,882.648a.874.874,0,0,1-.732-.392c-2.736-4.117-11.26-10.645-11.347-10.711a.88.88,0,1,1,1.069-1.4c.36.275,8.848,6.775,11.743,11.135a.879.879,0,0,1-.732,1.367Z" transform="translate(-2685.159 -869.965)"/>
      </g>
      <g id="Grupo_29321" data-name="Grupo 29321" transform="translate(33.707 8.505)">
        <path id="Trazado_31209" data-name="Trazado 31209" d="M2736.859,875.591a.869.869,0,0,1-.643-.281,68.373,68.373,0,0,0-8.12-7.007.88.88,0,0,1,1.035-1.424,68.693,68.693,0,0,1,8.371,7.232.88.88,0,0,1-.643,1.481Z" transform="translate(-2727.734 -866.711)"/>
      </g>
    </g>
    <g id="Grupo_29323" data-name="Grupo 29323" transform="translate(1502.693 740.155)">
      <path id="Trazado_31210" data-name="Trazado 31210" d="M2272.43,1577.174h-430.9a.879.879,0,1,1,0-1.758h430.9a.879.879,0,0,1,0,1.758Z" transform="translate(-1840.648 -1575.416)"/>
    </g>
    <g id="Grupo_29324" data-name="Grupo 29324" transform="translate(1695.577 490.589)">
      <path id="Trazado_31211" data-name="Trazado 31211" d="M2509.264,797.568h-65.2a.88.88,0,0,1,0-1.76h65.2a.88.88,0,0,1,0,1.76Z" transform="translate(-2443.187 -795.808)"/>
    </g>
    <g id="Grupo_29325" data-name="Grupo 29325" transform="translate(1702.14 502.493)">
      <path id="Trazado_31212" data-name="Trazado 31212" d="M2529.765,834.757h-65.2a.88.88,0,0,1,0-1.761h65.2a.88.88,0,0,1,0,1.761Z" transform="translate(-2463.69 -832.996)"/>
    </g>
    <g id="Grupo_29326" data-name="Grupo 29326" transform="translate(1544.324 562.266)">
      <path id="Trazado_31213" data-name="Trazado 31213" d="M2036.772,1021.474h-65.2a.879.879,0,0,1,0-1.758h65.2a.879.879,0,1,1,0,1.758Z" transform="translate(-1970.697 -1019.716)"/>
    </g>
    <g id="Grupo_29327" data-name="Grupo 29327" transform="translate(1550.886 574.171)">
      <path id="Trazado_31214" data-name="Trazado 31214" d="M2057.271,1058.664h-65.2a.879.879,0,0,1,0-1.759h65.2a.879.879,0,0,1,0,1.759Z" transform="translate(-1991.194 -1056.905)"/>
    </g>
    <g id="Grupo_29328" data-name="Grupo 29328" transform="translate(1575.76 614.609)">
      <path id="Trazado_31215" data-name="Trazado 31215" d="M2134.973,1184.988h-65.2a.879.879,0,0,1,0-1.759h65.2a.879.879,0,0,1,0,1.759Z" transform="translate(-2068.896 -1183.229)"/>
    </g>
    <g id="Grupo_29329" data-name="Grupo 29329" transform="translate(1582.321 626.514)">
      <path id="Trazado_31216" data-name="Trazado 31216" d="M2155.47,1222.177h-65.2a.879.879,0,0,1,0-1.758h65.2a.879.879,0,1,1,0,1.758Z" transform="translate(-2089.393 -1220.419)"/>
    </g>
    <g id="Grupo_29330" data-name="Grupo 29330" transform="translate(1456.349 402.003)">
      <path id="Trazado_31217" data-name="Trazado 31217" d="M1826.161,520.839h-129.4a.88.88,0,1,1,0-1.76h129.4a.88.88,0,0,1,0,1.76Z" transform="translate(-1695.876 -519.079)"/>
    </g>
    <g id="Grupo_29331" data-name="Grupo 29331" transform="translate(1544.199 424.751)">
      <path id="Trazado_31218" data-name="Trazado 31218" d="M2026.9,591.9h-55.72a.88.88,0,0,1,0-1.761h55.72a.88.88,0,0,1,0,1.761Z" transform="translate(-1970.305 -590.141)"/>
    </g>
    <g id="Grupo_29332" data-name="Grupo 29332" transform="translate(1556.019 442.928)">
      <path id="Trazado_31219" data-name="Trazado 31219" d="M2063.825,648.683h-55.718a.88.88,0,0,1,0-1.761h55.718a.88.88,0,0,1,0,1.761Z" transform="translate(-2007.228 -646.922)"/>
    </g>
    <g id="Grupo_29333" data-name="Grupo 29333" transform="translate(1567.191 461.104)">
      <path id="Trazado_31220" data-name="Trazado 31220" d="M2098.726,705.464h-55.718a.88.88,0,0,1,0-1.761h55.718a.88.88,0,0,1,0,1.761Z" transform="translate(-2042.129 -703.703)"/>
    </g>
    <g id="Grupo_29334" data-name="Grupo 29334" transform="translate(1807.086 516.961)">
      <path id="Trazado_31221" data-name="Trazado 31221" d="M2810.73,919.057a23.5,23.5,0,0,1-3.866-.335c-7.649-1.281-15.692-7.358-15.328-20.567a23.192,23.192,0,0,1,12.218-19.883.88.88,0,0,1,.743,1.6,21.025,21.025,0,0,0-11.2,18.334c-.417,15.207,10.5,18.221,13.86,18.784,10.18,1.694,13.991-4.169,14.148-4.42a.879.879,0,0,1,1.5.924C2822.641,913.748,2819.271,919.057,2810.73,919.057Z" transform="translate(-2791.524 -878.191)"/>
    </g>
    <g id="Grupo_29335" data-name="Grupo 29335" transform="translate(1801.601 454.432)">
      <path id="Trazado_31222" data-name="Trazado 31222" d="M2827.145,790.392c-8.047,0-15.8-2.572-19.882-6.623a.879.879,0,0,1,1.239-1.247c3.86,3.828,11.294,6.2,19.2,6.106,6.958-.109,12.9-2.229,16.3-5.821,3.892-4.111,5.91-11.042,5.535-19.017a28.61,28.61,0,0,0-2.972-12.033c-1.458-2.775-3.772-4.63-6.223-6.6a40.734,40.734,0,0,1-4.272-3.775,6.518,6.518,0,0,1-2.091-3.957c-.113-2.012,1.067-4.212,2.014-5.98.189-.353.37-.691.53-1.007l.692-1.354a53.819,53.819,0,0,0,2.5-5.325,27.787,27.787,0,0,0,1.741-14.889c-1.859-10.313-20.84-14.566-21.032-14.608a.883.883,0,0,1-.4-.2c-9.046-8.034-24.923-12.758-35.847-6.751-10.491,5.771-7.717,18.315-7.687,18.441.015.741.055,13.175,19.4,20.51a.88.88,0,1,1-.626,1.646c-19.852-7.528-20.5-20.454-20.514-21.867-.264-1.323-2.514-14.168,8.58-20.271,11.53-6.346,28.159-1.522,37.692,6.826,2.344.542,20.19,5.02,22.164,15.963a29.5,29.5,0,0,1-1.831,15.83,55.074,55.074,0,0,1-2.574,5.5l-.687,1.344c-.166.328-.353.678-.549,1.045-.845,1.573-1.895,3.531-1.808,5.048a5,5,0,0,0,1.614,2.852,39.353,39.353,0,0,0,4.091,3.607c2.485,1.992,5.052,4.051,6.681,7.151a30.353,30.353,0,0,1,3.172,12.769c.232,4.964-.238,14.208-6.016,20.308-3.726,3.934-10.123,6.257-17.553,6.372C2827.534,790.39,2827.339,790.392,2827.145,790.392Z" transform="translate(-2774.391 -682.86)"/>
    </g>
    <path id="Trazado_31223" data-name="Trazado 31223" d="M2057.95,476.511c-1.878,1.559-5.188.668-7.394-1.989s-2.472-6.075-.594-7.634,5.189-.668,7.395,1.989S2059.828,474.952,2057.95,476.511Z" transform="translate(-479.412 -81.07)" fill="#0051c7"/>
    <g id="Grupo_29336" data-name="Grupo 29336" transform="translate(1550.978 384.167)">
      <path id="Trazado_31224" data-name="Trazado 31224" d="M1999.333,476.287a5.985,5.985,0,0,1-1.548-.214,8.585,8.585,0,0,1-4.269-2.863c-2.512-3.027-2.727-7.008-.479-8.873a4.724,4.724,0,0,1,4.364-.76,8.583,8.583,0,0,1,4.269,2.863c2.512,3.027,2.727,7.007.479,8.874A4.324,4.324,0,0,1,1999.333,476.287Zm-3.468-11.162a2.611,2.611,0,0,0-1.7.565c-1.475,1.225-1.152,4.154.709,6.395a6.816,6.816,0,0,0,3.372,2.288,3.024,3.024,0,0,0,2.783-.414c1.475-1.225,1.152-4.154-.709-6.4a6.813,6.813,0,0,0-3.372-2.288A4.173,4.173,0,0,0,1995.865,465.125Z" transform="translate(-1991.483 -463.362)"/>
    </g>
    <g id="Grupo_29337" data-name="Grupo 29337" transform="translate(1662.073 500.63)">
      <path id="Trazado_31225" data-name="Trazado 31225" d="M2346.377,840.1a5.943,5.943,0,0,1-1.548-.214,8.582,8.582,0,0,1-4.269-2.863c-2.512-3.026-2.727-7.006-.479-8.874a4.724,4.724,0,0,1,4.364-.759,8.584,8.584,0,0,1,4.269,2.864c2.512,3.026,2.727,7.006.479,8.873A4.324,4.324,0,0,1,2346.377,840.1Zm-3.47-11.162a2.617,2.617,0,0,0-1.7.565c-1.475,1.226-1.152,4.155.709,6.4a6.81,6.81,0,0,0,3.372,2.288,3.033,3.033,0,0,0,2.782-.413c1.475-1.226,1.152-4.155-.709-6.4a6.808,6.808,0,0,0-3.372-2.288A4.139,4.139,0,0,0,2342.907,828.936Z" transform="translate(-2338.527 -827.174)"/>
    </g>
    <g id="Grupo_29338" data-name="Grupo 29338" transform="translate(1497.611 525.571)">
      <path id="Trazado_31226" data-name="Trazado 31226" d="M1836.765,918.235c-1.878,1.559-5.188.668-7.394-1.989s-2.472-6.075-.594-7.634,5.188-.668,7.395,1.989S1838.643,916.676,1836.765,918.235Z" transform="translate(-1826.644 -906.962)" fill="#fff"/>
      <path id="Trazado_31227" data-name="Trazado 31227" d="M1832.648,918a7.917,7.917,0,0,1-5.825-3.061,8.594,8.594,0,0,1-2.031-4.724,4.456,4.456,0,0,1,5.916-4.909,9.077,9.077,0,0,1,6.3,7.586,4.725,4.725,0,0,1-1.55,4.151A4.321,4.321,0,0,1,1832.648,918Zm-3.477-11.147a2.614,2.614,0,0,0-1.7.566,3.024,3.024,0,0,0-.92,2.659,6.829,6.829,0,0,0,1.629,3.736c1.863,2.24,4.68,3.1,6.155,1.873a3.029,3.029,0,0,0,.92-2.659,7.331,7.331,0,0,0-5-6.025A4.231,4.231,0,0,0,1829.171,906.85Z" transform="translate(-1824.772 -905.089)"/>
    </g>
    <g id="Grupo_29339" data-name="Grupo 29339" transform="translate(1343.569 521.17)">
      <path id="Trazado_31228" data-name="Trazado 31228" d="M1362.131,921.33c-4.575,0-9.8-2.6-13.687-7.279a20.379,20.379,0,0,1-4.829-11.2c-.306-3.943.916-7.268,3.441-9.363s6.02-2.682,9.838-1.659a20.393,20.393,0,0,1,10.117,6.809c5.885,7.087,6.508,16.312,1.389,20.563A9.637,9.637,0,0,1,1362.131,921.33Zm-8.787-28.232a7.922,7.922,0,0,0-5.163,1.744c-2.072,1.72-3.071,4.518-2.81,7.873a18.629,18.629,0,0,0,4.428,10.212c5.268,6.342,13.108,8.546,17.478,4.92s3.646-11.743-1.619-18.085a18.609,18.609,0,0,0-9.222-6.231A11.884,11.884,0,0,0,1353.344,893.1Z" transform="translate(-1343.569 -891.339)"/>
    </g>
    <g id="Grupo_29340" data-name="Grupo 29340" transform="translate(1575.993 346.878)">
      <path id="Trazado_31229" data-name="Trazado 31229" d="M2088.185,376.87c-4.575,0-9.8-2.6-13.687-7.279a20.38,20.38,0,0,1-4.828-11.2c-.307-3.944.915-7.269,3.44-9.365s6.014-2.683,9.838-1.658a20.38,20.38,0,0,1,10.117,6.807c5.884,7.088,6.508,16.313,1.39,20.563A9.642,9.642,0,0,1,2088.185,376.87Zm-8.788-28.231a7.922,7.922,0,0,0-5.163,1.743c-2.074,1.721-3.07,4.518-2.81,7.874a18.632,18.632,0,0,0,4.428,10.211c5.267,6.343,13.106,8.546,17.478,4.92s3.645-11.743-1.62-18.085a18.607,18.607,0,0,0-9.22-6.231A11.934,11.934,0,0,0,2079.4,348.639Z" transform="translate(-2069.623 -346.878)"/>
    </g>
    <g id="Grupo_29341" data-name="Grupo 29341" transform="translate(1477.208 669.403)">
      <path id="Trazado_31230" data-name="Trazado 31230" d="M1768.908,1367.292a7.911,7.911,0,0,1-5.825-3.061,8.589,8.589,0,0,1-2.029-4.722,4.726,4.726,0,0,1,1.55-4.152c2.25-1.871,6.123-.922,8.635,2.1a8.593,8.593,0,0,1,2.029,4.722,4.726,4.726,0,0,1-1.55,4.151A4.325,4.325,0,0,1,1768.908,1367.292Zm-3.487-11.14a2.6,2.6,0,0,0-1.692.56,3.03,3.03,0,0,0-.92,2.659,6.833,6.833,0,0,0,1.628,3.736c1.863,2.244,4.684,3.091,6.157,1.873a3.03,3.03,0,0,0,.92-2.659,6.836,6.836,0,0,0-1.629-3.736A6.24,6.24,0,0,0,1765.421,1356.151Z" transform="translate(-1761.035 -1354.397)"/>
    </g>
    <g id="Grupo_29342" data-name="Grupo 29342" transform="translate(1629.597 566.54)">
      <path id="Trazado_31231" data-name="Trazado 31231" d="M2244.949,1045.961a7.915,7.915,0,0,1-5.825-3.061,8.206,8.206,0,0,1-2.024-5.772,4.44,4.44,0,0,1,1.545-3.1c2.25-1.869,6.123-.92,8.633,2.1a8.592,8.592,0,0,1,2.029,4.722,4.726,4.726,0,0,1-1.55,4.151A4.319,4.319,0,0,1,2244.949,1045.961Zm-3.487-11.141a2.6,2.6,0,0,0-1.692.56,2.774,2.774,0,0,0-.917,1.911,6.433,6.433,0,0,0,1.626,4.484c1.861,2.241,4.679,3.1,6.155,1.873a3.03,3.03,0,0,0,.92-2.659,6.836,6.836,0,0,0-1.629-3.736A6.237,6.237,0,0,0,2241.461,1034.821Z" transform="translate(-2237.075 -1033.068)"/>
    </g>
    <g id="Grupo_29343" data-name="Grupo 29343" transform="translate(1533.941 384.18)">
      <path id="Trazado_31232" data-name="Trazado 31232" d="M1946.119,476.3a7.916,7.916,0,0,1-5.824-3.061c-2.512-3.027-2.727-7.008-.479-8.873s6.12-.925,8.635,2.1,2.728,7.009.479,8.874A4.322,4.322,0,0,1,1946.119,476.3Zm-3.487-11.14a2.6,2.6,0,0,0-1.692.56c-1.475,1.225-1.152,4.154.709,6.395s4.686,3.1,6.157,1.874,1.152-4.154-.709-6.4A6.245,6.245,0,0,0,1942.632,465.159Z" transform="translate(-1938.26 -463.405)"/>
    </g>
    <g id="Grupo_29344" data-name="Grupo 29344" transform="translate(1618.725 506.991)">
      <path id="Trazado_31233" data-name="Trazado 31233" d="M2213.964,906.225a.877.877,0,0,1-.728-.385,59.691,59.691,0,0,1-4.992-8.984.88.88,0,0,1,1.605-.72,57.943,57.943,0,0,0,4.843,8.716.879.879,0,0,1-.728,1.373Zm-8.281-18.391a.881.881,0,0,1-.852-.66,59.122,59.122,0,0,1-1.716-10.127.88.88,0,0,1,1.754-.141,57.318,57.318,0,0,0,1.665,9.825.878.878,0,0,1-.63,1.073A.89.89,0,0,1,2205.683,887.833Zm-1.469-20.074a.755.755,0,0,1-.181-.019.876.876,0,0,1-.679-1.041,17.016,17.016,0,0,1,5.278-9.037.88.88,0,1,1,1.2,1.29,15.317,15.317,0,0,0-4.754,8.109A.877.877,0,0,1,2204.214,867.76Zm13.6-13.865a.88.88,0,0,1-.341-1.692,57.229,57.229,0,0,1,9.831-3.035.87.87,0,0,1,1.05.67.88.88,0,0,1-.67,1.048,55.65,55.65,0,0,0-9.529,2.939A.867.867,0,0,1,2217.809,853.895Zm19.7-4.564a.881.881,0,0,1-.089-1.757c4.675-.477,8.345-.529,9.708-.529l.549,0a.88.88,0,0,1-.021,1.761l-.528,0c-1.335,0-4.935.05-9.529.521C2237.57,849.328,2237.54,849.331,2237.51,849.331Z" transform="translate(-2203.113 -847.045)"/>
    </g>
    <g id="Grupo_29345" data-name="Grupo 29345" transform="translate(1381.9 533.03)">
      <path id="Trazado_31234" data-name="Trazado 31234" d="M1575.616,930.145h-10.129a.879.879,0,1,1,0-1.758h10.129a.879.879,0,1,1,0,1.758Zm-20.259,0h-10.13a.879.879,0,0,1,0-1.758h10.13a.879.879,0,0,1,0,1.758Zm-20.26,0h-10.13a.879.879,0,1,1,0-1.758h10.13a.879.879,0,1,1,0,1.758Zm-20.26,0h-10.129a.879.879,0,1,1,0-1.758h10.129a.879.879,0,1,1,0,1.758Zm-20.26,0h-10.129a.879.879,0,1,1,0-1.758h10.129a.879.879,0,1,1,0,1.758Zm-20.259,0h-10.13a.879.879,0,1,1,0-1.758h10.13a.879.879,0,1,1,0,1.758Z" transform="translate(-1463.309 -928.387)"/>
    </g>
    <g id="Grupo_29346" data-name="Grupo 29346" transform="translate(1444.078 674.973)">
      <path id="Trazado_31235" data-name="Trazado 31235" d="M1686.545,1373.553h-10.129a.879.879,0,1,1,0-1.758h10.129a.879.879,0,1,1,0,1.758Zm-20.26,0h-7.862a.879.879,0,1,1,0-1.758h7.862a.879.879,0,1,1,0,1.758Z" transform="translate(-1657.543 -1371.795)"/>
    </g>
    <g id="Grupo_29347" data-name="Grupo 29347" transform="translate(1366.492 552.384)">
      <path id="Trazado_31236" data-name="Trazado 31236" d="M1493.644,1113.194a.881.881,0,0,1-.745-.409l-1.744-2.755a.88.88,0,0,1,1.488-.941l1.744,2.755a.879.879,0,0,1-.274,1.213A.863.863,0,0,1,1493.644,1113.194Zm-7.16-11.315a.881.881,0,0,1-.745-.409l-5.418-8.558a.88.88,0,0,1,1.488-.941l5.418,8.558a.879.879,0,0,1-.274,1.213A.861.861,0,0,1,1486.483,1101.879Zm-10.835-17.118a.883.883,0,0,1-.745-.409l-5.417-8.558a.88.88,0,0,1,1.488-.941l5.417,8.558a.879.879,0,0,1-.274,1.214A.865.865,0,0,1,1475.648,1084.76Zm-10.834-17.119a.882.882,0,0,1-.745-.409l-5.418-8.558a.88.88,0,0,1,1.488-.941l5.418,8.558a.879.879,0,0,1-.273,1.214A.863.863,0,0,1,1464.814,1067.641Zm-10.835-17.118a.882.882,0,0,1-.745-.409l-5.417-8.561a.88.88,0,0,1,1.488-.941l5.417,8.56a.879.879,0,0,1-.274,1.214A.863.863,0,0,1,1453.979,1050.523Zm-10.835-17.119a.883.883,0,0,1-.745-.409l-5.417-8.56a.88.88,0,0,1,1.488-.941l5.417,8.561a.879.879,0,0,1-.274,1.213A.863.863,0,0,1,1443.144,1033.4Zm-10.834-17.119a.882.882,0,0,1-.745-.409l-5.417-8.56a.88.88,0,0,1,1.488-.941l5.417,8.56a.879.879,0,0,1-.274,1.213A.862.862,0,0,1,1432.31,1016.286Zm-10.835-17.118a.883.883,0,0,1-.745-.409l-5.417-8.561a.88.88,0,0,1,1.488-.941l5.417,8.56a.879.879,0,0,1-.274,1.214A.864.864,0,0,1,1421.475,999.167Z" transform="translate(-1415.176 -988.847)"/>
    </g>
    <g id="Grupo_29348" data-name="Grupo 29348" transform="translate(1534.389 627.834)">
      <path id="Trazado_31237" data-name="Trazado 31237" d="M1949.452,1272.031c-1.594,0-6.491-.247-8.7-3.138-1.214-1.586-1.416-3.649-.607-6.127l15.26-34.537a7.984,7.984,0,0,1,5-3.547c2.368-.481,4.912.275,7.554,2.218l8.7,7.832a.88.88,0,0,1-1.179,1.307l-8.633-7.777c-2.159-1.584-4.23-2.227-6.1-1.857a6.252,6.252,0,0,0-3.783,2.631l-15.177,34.356c-.587,1.812-.477,3.33.362,4.428,2.048,2.682,7.7,2.44,7.771,2.44h50.361a.879.879,0,1,1,0,1.758h-50.319C1949.927,1272.022,1949.744,1272.031,1949.452,1272.031Z" transform="translate(-1939.66 -1224.541)"/>
    </g>
    <g id="Grupo_29349" data-name="Grupo 29349" transform="translate(1492.413 411.743)">
      <path id="Trazado_31238" data-name="Trazado 31238" d="M1846.485,609.843a.875.875,0,0,1-.743-.41l-37.073-58.577a.88.88,0,1,1,1.486-.941l37.073,58.577a.88.88,0,0,1-.743,1.351Z" transform="translate(-1808.532 -549.507)"/>
    </g>
    <g id="Grupo_29350" data-name="Grupo 29350" transform="translate(1599.451 373.856)">
      <path id="Trazado_31239" data-name="Trazado 31239" d="M2195.114,457.78c-19.169,0-36.6-8.423-51.975-25.152a.879.879,0,1,1,1.295-1.19c18.472,20.1,39.949,27.932,63.85,23.273a.881.881,0,0,1,.336,1.729A70.655,70.655,0,0,1,2195.114,457.78Z" transform="translate(-2142.906 -431.152)"/>
    </g>
    <g id="Grupo_29351" data-name="Grupo 29351" transform="translate(1784.855 420.657)">
      <path id="Trazado_31240" data-name="Trazado 31240" d="M2734.171,597.04a9.031,9.031,0,0,1-2.344-.325A14.053,14.053,0,0,1,2722.107,585a6.624,6.624,0,0,1,8.829-7.329,14.05,14.05,0,0,1,9.722,11.71,7.071,7.071,0,0,1-2.3,6.214A6.429,6.429,0,0,1,2734.171,597.04Zm-5.569-17.928a4.714,4.714,0,0,0-3.072,1.031,5.383,5.383,0,0,0-1.669,4.724,12.3,12.3,0,0,0,8.424,10.147,4.882,4.882,0,0,0,6.617-5.492,12.294,12.294,0,0,0-8.422-10.148A7.264,7.264,0,0,0,2728.6,579.113Z" transform="translate(-2722.076 -577.352)"/>
    </g>
    <g id="Grupo_29352" data-name="Grupo 29352" transform="translate(1722.76 395.41)">
      <path id="Trazado_31241" data-name="Trazado 31241" d="M2593.4,525.533a.878.878,0,0,1-.654-.291c-18.638-20.66-39.438-28.417-63.6-23.712a.881.881,0,0,1-.336-1.729c24.461-4.764,46.417,3.4,65.24,24.261a.88.88,0,0,1-.654,1.47Z" transform="translate(-2528.103 -498.483)"/>
    </g>
    <g id="Grupo_29353" data-name="Grupo 29353" transform="translate(1724.955 681.755)">
      <path id="Trazado_31242" data-name="Trazado 31242" d="M2535.84,1411.954a.9.9,0,0,1-.336-.068.88.88,0,0,1-.477-1.15c4.518-10.951,15.547-17.753,28.785-17.753,12.76,0,23.7,6.6,28.538,17.227a.879.879,0,1,1-1.6.728c-4.554-9.989-14.875-16.2-26.937-16.2-12.512,0-22.918,6.387-27.159,16.667A.884.884,0,0,1,2535.84,1411.954Z" transform="translate(-2534.96 -1392.983)"/>
    </g>
  </g>
</svg>
