<svg xmlns="http://www.w3.org/2000/svg" width="28.937" height="25" viewBox="0 0 28.937 25">
  <g id="Grupo_29242" data-name="Grupo 29242" transform="translate(-101 -539)">
    <path id="Unión_26" data-name="Unión 26" d="M2.632,25A2.638,2.638,0,0,1,0,22.368V2.632A2.637,2.637,0,0,1,2.632,0H26.311a2.636,2.636,0,0,1,2.627,2.632V22.368A2.636,2.636,0,0,1,26.311,25Zm0-2.632H26.311V14.506H2.632ZM26.311,11.758V2.632H2.632v9.126Z" transform="translate(101 539)" fill="#0051c7"/>
    <g id="Grupo_26560" data-name="Grupo 26560" transform="translate(105.674 544.938)">
      <rect id="Rectángulo_4025" data-name="Rectángulo 4025" width="2.632" height="2.547" transform="translate(11.757 0)" fill="#0051c7"/>
      <rect id="Rectángulo_4025-2" data-name="Rectángulo 4025" width="8.51" height="2.547" transform="translate(0 0)" fill="#0051c7"/>
      <rect id="Rectángulo_4026" data-name="Rectángulo 4026" width="2.632" height="2.547" transform="translate(15.704 0)" fill="#0051c7"/>
    </g>
    <g id="Grupo_26561" data-name="Grupo 26561" transform="translate(105.674 556.695)">
      <rect id="Rectángulo_4025-3" data-name="Rectángulo 4025" width="2.632" height="2.547" transform="translate(11.757 0)" fill="#0051c7"/>
      <rect id="Rectángulo_4025-4" data-name="Rectángulo 4025" width="8.51" height="2.547" transform="translate(0 0)" fill="#0051c7"/>
      <rect id="Rectángulo_4026-2" data-name="Rectángulo 4026" width="2.632" height="2.547" transform="translate(15.704 0)" fill="#0051c7"/>
    </g>
  </g>
</svg>
